  0
SECTION
  2
BLOCKS
  0
ENDSEC
  0
SECTION
  2
ENTITIES
  0
LINE
  8
0
 10
-37.959
 11
-37.959
 20
-35.494
 21
35.494
  0
LINE
  8
0
 10
-37.959
 11
-37.638
 20
35.494
 21
36.428
  0
LINE
  8
0
 10
-37.638
 11
-37.032
 20
36.428
 21
37.207
  0
LINE
  8
0
 10
-37.032
 11
-36.205
 20
37.207
 21
37.747
  0
LINE
  8
0
 10
-36.205
 11
-35.248
 20
37.747
 21
37.99
  0
LINE
  8
0
 10
-35.248
 11
34.752
 20
37.99
 21
37.99
  0
LINE
  8
0
 10
34.752
 11
35.736
 20
37.99
 21
37.908
  0
LINE
  8
0
 10
35.736
 11
36.641
 20
37.908
 21
37.511
  0
LINE
  8
0
 10
36.641
 11
37.367
 20
37.511
 21
36.843
  0
LINE
  8
0
 10
37.367
 11
37.837
 20
36.843
 21
35.974
  0
LINE
  8
0
 10
37.837
 11
38
 20
35.974
 21
35
  0
LINE
  8
0
 10
38
 11
38
 20
35
 21
-35
  0
LINE
  8
0
 10
38
 11
37.837
 20
-35
 21
-35.974
  0
LINE
  8
0
 10
37.837
 11
37.367
 20
-35.974
 21
-36.843
  0
LINE
  8
0
 10
37.367
 11
36.641
 20
-36.843
 21
-37.511
  0
LINE
  8
0
 10
36.641
 11
35.736
 20
-37.511
 21
-37.908
  0
LINE
  8
0
 10
35.736
 11
34.752
 20
-37.908
 21
-37.99
  0
LINE
  8
0
 10
34.752
 11
-35.248
 20
-37.99
 21
-37.99
  0
LINE
  8
0
 10
-35.248
 11
-36.205
 20
-37.99
 21
-37.747
  0
LINE
  8
0
 10
-36.205
 11
-37.032
 20
-37.747
 21
-37.207
  0
LINE
  8
0
 10
-37.032
 11
-37.638
 20
-37.207
 21
-36.428
  0
LINE
  8
0
 10
-37.638
 11
-37.959
 20
-36.428
 21
-35.494
  0
LINE
  8
0
 10
-36
 11
-35.904
 20
-16
 21
-15.025
  0
LINE
  8
0
 10
-35.904
 11
-35.619
 20
-15.025
 21
-14.087
  0
LINE
  8
0
 10
-35.619
 11
-35.157
 20
-14.087
 21
-13.222
  0
LINE
  8
0
 10
-35.157
 11
-34.536
 20
-13.222
 21
-12.464
  0
LINE
  8
0
 10
-34.536
 11
-33.778
 20
-12.464
 21
-11.843
  0
LINE
  8
0
 10
-33.778
 11
-32.913
 20
-11.843
 21
-11.381
  0
LINE
  8
0
 10
-32.913
 11
-31.975
 20
-11.381
 21
-11.096
  0
LINE
  8
0
 10
-31.975
 11
-31
 20
-11.096
 21
-11
  0
LINE
  8
0
 10
-31
 11
-30.025
 20
-11
 21
-11.096
  0
LINE
  8
0
 10
-30.025
 11
-29.087
 20
-11.096
 21
-11.381
  0
LINE
  8
0
 10
-29.087
 11
-28.222
 20
-11.381
 21
-11.843
  0
LINE
  8
0
 10
-28.222
 11
-27.464
 20
-11.843
 21
-12.464
  0
LINE
  8
0
 10
-27.464
 11
-26.843
 20
-12.464
 21
-13.222
  0
LINE
  8
0
 10
-26.843
 11
-26.381
 20
-13.222
 21
-14.087
  0
LINE
  8
0
 10
-26.381
 11
-26.096
 20
-14.087
 21
-15.025
  0
LINE
  8
0
 10
-26.096
 11
-26
 20
-15.025
 21
-16
  0
LINE
  8
0
 10
-26
 11
-26.096
 20
-16
 21
-16.975
  0
LINE
  8
0
 10
-26.096
 11
-26.381
 20
-16.975
 21
-17.913
  0
LINE
  8
0
 10
-26.381
 11
-26.843
 20
-17.913
 21
-18.778
  0
LINE
  8
0
 10
-26.843
 11
-27.464
 20
-18.778
 21
-19.536
  0
LINE
  8
0
 10
-27.464
 11
-28.222
 20
-19.536
 21
-20.157
  0
LINE
  8
0
 10
-28.222
 11
-29.087
 20
-20.157
 21
-20.619
  0
LINE
  8
0
 10
-29.087
 11
-30.025
 20
-20.619
 21
-20.904
  0
LINE
  8
0
 10
-30.025
 11
-31
 20
-20.904
 21
-21
  0
LINE
  8
0
 10
-31
 11
-31.975
 20
-21
 21
-20.904
  0
LINE
  8
0
 10
-31.975
 11
-32.913
 20
-20.904
 21
-20.619
  0
LINE
  8
0
 10
-32.913
 11
-33.778
 20
-20.619
 21
-20.157
  0
LINE
  8
0
 10
-33.778
 11
-34.536
 20
-20.157
 21
-19.536
  0
LINE
  8
0
 10
-34.536
 11
-35.157
 20
-19.536
 21
-18.778
  0
LINE
  8
0
 10
-35.157
 11
-35.619
 20
-18.778
 21
-17.913
  0
LINE
  8
0
 10
-35.619
 11
-35.904
 20
-17.913
 21
-16.975
  0
LINE
  8
0
 10
-35.904
 11
-36
 20
-16.975
 21
-16
  0
LINE
  8
0
 10
-36
 11
-35.904
 20
16
 21
16.975
  0
LINE
  8
0
 10
-35.904
 11
-35.619
 20
16.975
 21
17.913
  0
LINE
  8
0
 10
-35.619
 11
-35.157
 20
17.913
 21
18.778
  0
LINE
  8
0
 10
-35.157
 11
-34.536
 20
18.778
 21
19.536
  0
LINE
  8
0
 10
-34.536
 11
-33.778
 20
19.536
 21
20.157
  0
LINE
  8
0
 10
-33.778
 11
-32.913
 20
20.157
 21
20.619
  0
LINE
  8
0
 10
-32.913
 11
-31.975
 20
20.619
 21
20.904
  0
LINE
  8
0
 10
-31.975
 11
-31
 20
20.904
 21
21
  0
LINE
  8
0
 10
-31
 11
-30.025
 20
21
 21
20.904
  0
LINE
  8
0
 10
-30.025
 11
-29.087
 20
20.904
 21
20.619
  0
LINE
  8
0
 10
-29.087
 11
-28.222
 20
20.619
 21
20.157
  0
LINE
  8
0
 10
-28.222
 11
-27.464
 20
20.157
 21
19.536
  0
LINE
  8
0
 10
-27.464
 11
-26.843
 20
19.536
 21
18.778
  0
LINE
  8
0
 10
-26.843
 11
-26.381
 20
18.778
 21
17.913
  0
LINE
  8
0
 10
-26.381
 11
-26.096
 20
17.913
 21
16.975
  0
LINE
  8
0
 10
-26.096
 11
-26
 20
16.975
 21
16
  0
LINE
  8
0
 10
-26
 11
-26.096
 20
16
 21
15.025
  0
LINE
  8
0
 10
-26.096
 11
-26.381
 20
15.025
 21
14.087
  0
LINE
  8
0
 10
-26.381
 11
-26.843
 20
14.087
 21
13.222
  0
LINE
  8
0
 10
-26.843
 11
-27.464
 20
13.222
 21
12.464
  0
LINE
  8
0
 10
-27.464
 11
-28.222
 20
12.464
 21
11.843
  0
LINE
  8
0
 10
-28.222
 11
-29.087
 20
11.843
 21
11.381
  0
LINE
  8
0
 10
-29.087
 11
-30.025
 20
11.381
 21
11.096
  0
LINE
  8
0
 10
-30.025
 11
-31
 20
11.096
 21
11
  0
LINE
  8
0
 10
-31
 11
-31.975
 20
11
 21
11.096
  0
LINE
  8
0
 10
-31.975
 11
-32.913
 20
11.096
 21
11.381
  0
LINE
  8
0
 10
-32.913
 11
-33.778
 20
11.381
 21
11.843
  0
LINE
  8
0
 10
-33.778
 11
-34.536
 20
11.843
 21
12.464
  0
LINE
  8
0
 10
-34.536
 11
-35.157
 20
12.464
 21
13.222
  0
LINE
  8
0
 10
-35.157
 11
-35.619
 20
13.222
 21
14.087
  0
LINE
  8
0
 10
-35.619
 11
-35.904
 20
14.087
 21
15.025
  0
LINE
  8
0
 10
-35.904
 11
-36
 20
15.025
 21
16
  0
LINE
  8
0
 10
-31.829
 11
-31.829
 20
-0.493
 21
0.493
  0
LINE
  8
0
 10
-31.829
 11
-31.296
 20
0.493
 21
1.323
  0
LINE
  8
0
 10
-31.296
 11
-30.399
 20
1.323
 21
1.732
  0
LINE
  8
0
 10
-30.399
 11
-29.423
 20
1.732
 21
1.592
  0
LINE
  8
0
 10
-29.423
 11
-28.678
 20
1.592
 21
0.946
  0
LINE
  8
0
 10
-28.678
 11
-28.4
 20
0.946
 21
0
  0
LINE
  8
0
 10
-28.4
 11
-28.678
 20
0
 21
-0.946
  0
LINE
  8
0
 10
-28.678
 11
-29.423
 20
-0.946
 21
-1.592
  0
LINE
  8
0
 10
-29.423
 11
-30.399
 20
-1.592
 21
-1.732
  0
LINE
  8
0
 10
-30.399
 11
-31.296
 20
-1.732
 21
-1.323
  0
LINE
  8
0
 10
-31.296
 11
-31.829
 20
-1.323
 21
-0.493
  0
LINE
  8
0
 10
26
 11
26.096
 20
16
 21
16.975
  0
LINE
  8
0
 10
26.096
 11
26.381
 20
16.975
 21
17.913
  0
LINE
  8
0
 10
26.381
 11
26.843
 20
17.913
 21
18.778
  0
LINE
  8
0
 10
26.843
 11
27.464
 20
18.778
 21
19.536
  0
LINE
  8
0
 10
27.464
 11
28.222
 20
19.536
 21
20.157
  0
LINE
  8
0
 10
28.222
 11
29.087
 20
20.157
 21
20.619
  0
LINE
  8
0
 10
29.087
 11
30.025
 20
20.619
 21
20.904
  0
LINE
  8
0
 10
30.025
 11
31
 20
20.904
 21
21
  0
LINE
  8
0
 10
31
 11
31.975
 20
21
 21
20.904
  0
LINE
  8
0
 10
31.975
 11
32.913
 20
20.904
 21
20.619
  0
LINE
  8
0
 10
32.913
 11
33.778
 20
20.619
 21
20.157
  0
LINE
  8
0
 10
33.778
 11
34.536
 20
20.157
 21
19.536
  0
LINE
  8
0
 10
34.536
 11
35.157
 20
19.536
 21
18.778
  0
LINE
  8
0
 10
35.157
 11
35.619
 20
18.778
 21
17.913
  0
LINE
  8
0
 10
35.619
 11
35.904
 20
17.913
 21
16.975
  0
LINE
  8
0
 10
35.904
 11
36
 20
16.975
 21
16
  0
LINE
  8
0
 10
36
 11
35.904
 20
16
 21
15.025
  0
LINE
  8
0
 10
35.904
 11
35.619
 20
15.025
 21
14.087
  0
LINE
  8
0
 10
35.619
 11
35.157
 20
14.087
 21
13.222
  0
LINE
  8
0
 10
35.157
 11
34.536
 20
13.222
 21
12.464
  0
LINE
  8
0
 10
34.536
 11
33.778
 20
12.464
 21
11.843
  0
LINE
  8
0
 10
33.778
 11
32.913
 20
11.843
 21
11.381
  0
LINE
  8
0
 10
32.913
 11
31.975
 20
11.381
 21
11.096
  0
LINE
  8
0
 10
31.975
 11
31
 20
11.096
 21
11
  0
LINE
  8
0
 10
31
 11
30.025
 20
11
 21
11.096
  0
LINE
  8
0
 10
30.025
 11
29.087
 20
11.096
 21
11.381
  0
LINE
  8
0
 10
29.087
 11
28.222
 20
11.381
 21
11.843
  0
LINE
  8
0
 10
28.222
 11
27.464
 20
11.843
 21
12.464
  0
LINE
  8
0
 10
27.464
 11
26.843
 20
12.464
 21
13.222
  0
LINE
  8
0
 10
26.843
 11
26.381
 20
13.222
 21
14.087
  0
LINE
  8
0
 10
26.381
 11
26.096
 20
14.087
 21
15.025
  0
LINE
  8
0
 10
26.096
 11
26
 20
15.025
 21
16
  0
LINE
  8
0
 10
28.471
 11
28.471
 20
-0.493
 21
0.493
  0
LINE
  8
0
 10
28.471
 11
29.004
 20
0.493
 21
1.323
  0
LINE
  8
0
 10
29.004
 11
29.901
 20
1.323
 21
1.732
  0
LINE
  8
0
 10
29.901
 11
30.877
 20
1.732
 21
1.592
  0
LINE
  8
0
 10
30.877
 11
31.622
 20
1.592
 21
0.946
  0
LINE
  8
0
 10
31.622
 11
31.9
 20
0.946
 21
0
  0
LINE
  8
0
 10
31.9
 11
31.622
 20
0
 21
-0.946
  0
LINE
  8
0
 10
31.622
 11
30.877
 20
-0.946
 21
-1.592
  0
LINE
  8
0
 10
30.877
 11
29.901
 20
-1.592
 21
-1.732
  0
LINE
  8
0
 10
29.901
 11
29.004
 20
-1.732
 21
-1.323
  0
LINE
  8
0
 10
29.004
 11
28.471
 20
-1.323
 21
-0.493
  0
ENDSEC
  0
SECTION
  2
OBJECTS
  0
DICTIONARY
  0
ENDSEC
  0
EOF
