<?xml version="1.0" standalone="no"?>
<!DOCTYPE svg PUBLIC "-//W3C//DTD SVG 1.1//EN" "http://www.w3.org/Graphics/SVG/1.1/DTD/svg11.dtd">
<svg width="86" height="86" viewBox="-43 -43 86 86" xmlns="http://www.w3.org/2000/svg" version="1.1">
<title>OpenSCAD Model</title>
<path d="
M 40.7365,42.9082 L 41.6408,42.5115 L 42.3674,41.8426 L 42.8374,40.9741 L 43,40 L 43,-40
 L 42.8374,-40.9741 L 42.3674,-41.8426 L 41.6408,-42.5115 L 40.7365,-42.9082 L 39.7523,-42.9897 L -40.2477,-42.9897
 L -41.2051,-42.7473 L -42.0318,-42.2072 L -42.6384,-41.4278 L -42.9591,-40.4938 L -42.9591,40.4938 L -42.6384,41.4278
 L -42.0318,42.2072 L -41.2051,42.7473 L -40.2477,42.9897 L 39.7523,42.9897 z
M -34.146,-31.6774 L -34.6791,-32.507 L -34.6791,-33.493 L -34.146,-34.3226 L -33.249,-34.7322 L -32.273,-34.5918
 L -31.5278,-33.9461 L -31.25,-33 L -31.5278,-32.0539 L -32.273,-31.4081 L -33.249,-31.2678 z
M 31.854,-31.6774 L 31.3209,-32.507 L 31.3209,-33.493 L 31.854,-34.3226 L 32.7509,-34.7322 L 33.727,-34.5918
 L 34.4722,-33.9461 L 34.75,-33 L 34.4722,-32.0539 L 33.727,-31.4081 L 32.7509,-31.2678 z
M -31.9754,-11.0961 L -32.9134,-11.3806 L -33.7778,-11.8427 L -34.5355,-12.4645 L -35.1573,-13.2221 L -35.6194,-14.0866
 L -35.9039,-15.0245 L -36,-16 L -35.9039,-16.9754 L -35.6194,-17.9134 L -35.1573,-18.7778 L -34.5355,-19.5355
 L -33.7778,-20.1573 L -32.9134,-20.6194 L -31.9754,-20.9039 L -31,-21 L -30.0245,-20.9039 L -29.0866,-20.6194
 L -28.2221,-20.1573 L -27.4645,-19.5355 L -26.8427,-18.7778 L -26.3806,-17.9134 L -26.0961,-16.9754 L -26,-16
 L -26.0961,-15.0245 L -26.3806,-14.0866 L -26.8427,-13.2221 L -27.4645,-12.4645 L -28.2221,-11.8427 L -29.0866,-11.3806
 L -30.0245,-11.0961 L -31,-11 z
M 30.0245,-11.0961 L 29.0866,-11.3806 L 28.2221,-11.8427 L 27.4645,-12.4645 L 26.8427,-13.2221 L 26.3806,-14.0866
 L 26.0961,-15.0245 L 26,-16 L 26.0961,-16.9754 L 26.3806,-17.9134 L 26.8427,-18.7778 L 27.4645,-19.5355
 L 28.2221,-20.1573 L 29.0866,-20.6194 L 30.0245,-20.9039 L 31,-21 L 31.9754,-20.9039 L 32.9134,-20.6194
 L 33.7778,-20.1573 L 34.5355,-19.5355 L 35.1573,-18.7778 L 35.6194,-17.9134 L 35.9039,-16.9754 L 36,-16
 L 35.9039,-15.0245 L 35.6194,-14.0866 L 35.1573,-13.2221 L 34.5355,-12.4645 L 33.7778,-11.8427 L 32.9134,-11.3806
 L 31.9754,-11.0961 L 31,-11 z
M -30.8592,1.87003 L -31.647,1.32623 L -32.0919,0.478622 L -32.0919,-0.478622 L -31.647,-1.32623 L -30.8592,-1.87003
 L -29.9089,-1.98541 L -29.0139,-1.64597 L -28.3791,-0.929443 L -28.15,-0 L -28.3791,0.929443 L -29.0139,1.64597
 L -29.9089,1.98541 z
M 29.4408,1.87003 L 28.653,1.32623 L 28.2081,0.478622 L 28.2081,-0.478622 L 28.653,-1.32623 L 29.4408,-1.87003
 L 30.3911,-1.98541 L 31.2861,-1.64597 L 31.9209,-0.929443 L 32.15,-0 L 31.9209,0.929443 L 31.2861,1.64597
 L 30.3911,1.98541 z
M 30.5045,21.9795 L 29.5271,21.8164 L 28.5898,21.4946 L 27.7183,21.023 L 26.9363,20.4143 L 26.2652,19.6853
 L 25.7231,18.8557 L 25.3251,17.9482 L 25.0818,16.9876 L 25,16 L 25.0818,15.0124 L 25.3251,14.0518
 L 25.7231,13.1443 L 26.2652,12.3147 L 26.9363,11.5856 L 27.7183,10.977 L 28.5898,10.5054 L 29.5271,10.1836
 L 30.5045,10.0205 L 31.4955,10.0205 L 32.4729,10.1836 L 33.4102,10.5054 L 34.2817,10.977 L 35.0637,11.5856
 L 35.7348,12.3147 L 36.2768,13.1443 L 36.6749,14.0518 L 36.9182,15.0124 L 37,16 L 36.9182,16.9876
 L 36.6749,17.9482 L 36.2768,18.8557 L 35.7348,19.6853 L 35.0637,20.4143 L 34.2817,21.023 L 33.4102,21.4946
 L 32.4729,21.8164 L 31.4955,21.9795 z
M -31.9754,20.9039 L -32.9134,20.6194 L -33.7778,20.1573 L -34.5355,19.5355 L -35.1573,18.7778 L -35.6194,17.9134
 L -35.9039,16.9754 L -36,16 L -35.9039,15.0245 L -35.6194,14.0866 L -35.1573,13.2221 L -34.5355,12.4645
 L -33.7778,11.8427 L -32.9134,11.3806 L -31.9754,11.0961 L -31,11 L -30.0245,11.0961 L -29.0866,11.3806
 L -28.2221,11.8427 L -27.4645,12.4645 L -26.8427,13.2221 L -26.3806,14.0866 L -26.0961,15.0245 L -26,16
 L -26.0961,16.9754 L -26.3806,17.9134 L -26.8427,18.7778 L -27.4645,19.5355 L -28.2221,20.1573 L -29.0866,20.6194
 L -30.0245,20.9039 L -31,21 z
M -34.146,34.3226 L -34.6791,33.493 L -34.6791,32.507 L -34.146,31.6774 L -33.249,31.2678 L -32.273,31.4081
 L -31.5278,32.0539 L -31.25,33 L -31.5278,33.9461 L -32.273,34.5918 L -33.249,34.7322 z
M 31.854,34.3226 L 31.3209,33.493 L 31.3209,32.507 L 31.854,31.6774 L 32.7509,31.2678 L 33.727,31.4081
 L 34.4722,32.0539 L 34.75,33 L 34.4722,33.9461 L 33.727,34.5918 L 32.7509,34.7322 z
" stroke="black" fill="lightgray" stroke-width="0.5"/></svg>
