%
M48
M72
T01C0.0197
T02C0.0236
T03C0.0320
T04C0.0354
T05C0.0394
T06C0.0400
%
T01
X1480Y3007
X2880Y3007
X6230Y2307
X7280Y4407
X5880Y5507
X5330Y5757
X4980Y6507
X6230Y7107
X6330Y7907
X5980Y8507
X6530Y9057
X7530Y8157
X7930Y8807
X9680Y7957
X9280Y7107
X7230Y7107
X6580Y5657
X4480Y8857
X6830Y11857
X7730Y11857
X7780Y13257
X10530Y12657
X11230Y14357
X15680Y11907
X16080Y12557
X16580Y13207
X17730Y14357
X17030Y14957
X16230Y15757
X15680Y17157
X19430Y14957
X19530Y14157
X18630Y14157
X21230Y14257
X21230Y14857
X19680Y17757
X14630Y10757
X12480Y9007
X13330Y8207
X14230Y8557
X15530Y8207
X10530Y4357
X12730Y3507
X8880Y10307
X30130Y8657
X31580Y10557
X33680Y2757
X34280Y2757
T02
X18976Y12845
X18976Y20896
T03
X15630Y19707
X15630Y18707
X9580Y14857
X10680Y12007
X9580Y11857
X11430Y10057
X12730Y10907
X13680Y12007
X15730Y10907
X16630Y8157
X11430Y6057
X10280Y5057
X9880Y3507
X9880Y2507
X7380Y3657
X5480Y3657
X10280Y8057
X5530Y12757
X5530Y13757
X5130Y15757
X5130Y16757
X16630Y4157
X16630Y3307
X16630Y2307
X31930Y2607
X31930Y3607
T04
X30280Y3607
X30280Y2607
X30280Y4607
X30280Y5607
X30280Y6607
X30280Y7607
X18280Y7607
X18280Y6607
X18280Y5607
X18280Y4607
X18280Y3607
X18280Y2607
T05
X10330Y15707
X9330Y15707
X8330Y15707
X7330Y15707
X6330Y15707
X6330Y16707
X7330Y16707
X8330Y16707
X9330Y16707
X10330Y16707
T06
X11980Y16907
X11980Y15907
X11980Y14907
X11980Y13907
X11980Y12907
X13980Y12907
X13980Y13907
X13980Y14907
X13980Y15907
X13980Y16907
X13980Y17907
X13980Y18907
X13980Y19907
X11980Y19907
X11980Y18907
X11980Y17907
X10580Y11007
X9580Y11007
X9580Y10007
X10580Y10007
X10580Y9007
X9580Y9007
X13180Y6457
X14180Y6457
X15180Y6457
X14430Y2707
X13430Y2707
X2980Y5857
X2980Y6857
X1980Y6857
X1980Y5857
X1980Y7857
X1980Y8857
X2980Y8857
X2980Y7857
X2980Y9857
X1980Y9857
X2720Y10977
X940Y10977
X940Y13537
X940Y14277
X2720Y14277
X2720Y13537
X2720Y16837
X2720Y17627
X940Y17627
X940Y16837
X940Y20187
X2720Y20187
X32980Y7607
X33980Y7607
X33980Y6607
X32980Y6607
X32980Y5607
X33980Y5607
X33980Y4607
X32980Y4607
M30
