G75*
%MOIN*%
%OFA0B0*%
%FSLAX24Y24*%
%IPPOS*%
%LPD*%
%AMOC8*
5,1,8,0,0,1.08239X$1,22.5*
%
%ADD10C,0.0000*%
%ADD11C,0.0040*%
%ADD12C,0.0060*%
%ADD13C,0.0100*%
%ADD14C,0.0050*%
%ADD15C,0.0080*%
%ADD16C,0.0160*%
%ADD17C,0.0030*%
%ADD18R,0.0150X0.0200*%
%ADD19R,0.0200X0.0150*%
%ADD20C,0.0020*%
%ADD21R,0.0240X0.0340*%
D10*
X000280Y001107D02*
X035713Y001107D01*
X035713Y001157D02*
X035713Y020792D01*
X000280Y020792D01*
X000280Y001107D01*
X005830Y015207D02*
X010830Y015207D01*
X010830Y017207D01*
X010830Y027707D01*
X005830Y027707D01*
X005830Y017207D01*
X010830Y017207D01*
X005830Y017207D02*
X005830Y015207D01*
X018858Y012845D02*
X018860Y012866D01*
X018866Y012886D01*
X018875Y012906D01*
X018887Y012923D01*
X018902Y012937D01*
X018920Y012949D01*
X018940Y012957D01*
X018960Y012962D01*
X018981Y012963D01*
X019002Y012960D01*
X019022Y012954D01*
X019041Y012943D01*
X019058Y012930D01*
X019071Y012914D01*
X019082Y012896D01*
X019090Y012876D01*
X019094Y012856D01*
X019094Y012834D01*
X019090Y012814D01*
X019082Y012794D01*
X019071Y012776D01*
X019058Y012760D01*
X019041Y012747D01*
X019022Y012736D01*
X019002Y012730D01*
X018981Y012727D01*
X018960Y012728D01*
X018940Y012733D01*
X018920Y012741D01*
X018902Y012753D01*
X018887Y012767D01*
X018875Y012784D01*
X018866Y012804D01*
X018860Y012824D01*
X018858Y012845D01*
X018858Y020896D02*
X018860Y020917D01*
X018866Y020937D01*
X018875Y020957D01*
X018887Y020974D01*
X018902Y020988D01*
X018920Y021000D01*
X018940Y021008D01*
X018960Y021013D01*
X018981Y021014D01*
X019002Y021011D01*
X019022Y021005D01*
X019041Y020994D01*
X019058Y020981D01*
X019071Y020965D01*
X019082Y020947D01*
X019090Y020927D01*
X019094Y020907D01*
X019094Y020885D01*
X019090Y020865D01*
X019082Y020845D01*
X019071Y020827D01*
X019058Y020811D01*
X019041Y020798D01*
X019022Y020787D01*
X019002Y020781D01*
X018981Y020778D01*
X018960Y020779D01*
X018940Y020784D01*
X018920Y020792D01*
X018902Y020804D01*
X018887Y020818D01*
X018875Y020835D01*
X018866Y020855D01*
X018860Y020875D01*
X018858Y020896D01*
D11*
X015060Y017852D02*
X014830Y018159D01*
X014600Y017852D01*
X014753Y017698D02*
X014753Y017468D01*
X014830Y017391D01*
X014983Y017391D01*
X015060Y017468D01*
X015060Y017698D01*
X015137Y017698D02*
X014753Y017698D01*
X015137Y017698D02*
X015213Y017621D01*
X015213Y017545D01*
X014753Y017238D02*
X014753Y017161D01*
X014907Y017008D01*
X015060Y017008D02*
X014753Y017008D01*
X014830Y016854D02*
X014753Y016777D01*
X014753Y016624D01*
X014830Y016547D01*
X014983Y016547D01*
X015060Y016624D01*
X015060Y016777D01*
X014983Y016854D01*
X014830Y016854D01*
X014983Y016394D02*
X015060Y016394D01*
X015060Y016317D01*
X014983Y016317D01*
X014983Y016394D01*
X014830Y016164D02*
X014830Y016010D01*
X014830Y015857D02*
X014830Y015703D01*
X014753Y015550D02*
X015060Y015550D01*
X015060Y015319D01*
X014983Y015243D01*
X014753Y015243D01*
X014600Y015013D02*
X015060Y015013D01*
X015060Y015089D02*
X015060Y014936D01*
X015060Y014706D02*
X014676Y014706D01*
X014600Y014782D01*
X014600Y014936D02*
X014600Y015013D01*
X014830Y014782D02*
X014830Y014629D01*
X014830Y014475D02*
X014907Y014399D01*
X014753Y014399D01*
X014753Y014245D01*
X014907Y014245D01*
X014907Y014399D01*
X014983Y014475D02*
X015060Y014399D01*
X015060Y014245D01*
X014983Y014168D01*
X014676Y014168D01*
X014600Y014245D01*
X014600Y014399D01*
X014676Y014475D01*
X014830Y014475D01*
X014830Y014015D02*
X014753Y013938D01*
X014753Y013708D01*
X015060Y013708D01*
X014907Y013555D02*
X014907Y013248D01*
X014983Y013248D02*
X014830Y013248D01*
X014753Y013324D01*
X014753Y013478D01*
X014830Y013555D01*
X014907Y013555D01*
X015060Y013478D02*
X015060Y013324D01*
X014983Y013248D01*
X014983Y013094D02*
X014830Y013094D01*
X014753Y013018D01*
X014753Y012787D01*
X014600Y012787D02*
X015060Y012787D01*
X015060Y013018D01*
X014983Y013094D01*
X015060Y012634D02*
X014830Y012327D01*
X014600Y012634D01*
X014550Y011787D02*
X014725Y011787D01*
X014784Y011729D01*
X014784Y011612D01*
X014725Y011554D01*
X014550Y011554D01*
X014667Y011554D02*
X014784Y011437D01*
X014909Y011495D02*
X014909Y011554D01*
X014967Y011612D01*
X015084Y011612D01*
X015143Y011554D01*
X015143Y011495D01*
X015084Y011437D01*
X014967Y011437D01*
X014909Y011495D01*
X014967Y011612D02*
X014909Y011670D01*
X014909Y011729D01*
X014967Y011787D01*
X015084Y011787D01*
X015143Y011729D01*
X015143Y011670D01*
X015084Y011612D01*
X014550Y011437D02*
X014550Y011787D01*
X013210Y012677D02*
X012750Y012677D01*
X012980Y012677D02*
X012980Y012984D01*
X012980Y013137D02*
X012980Y013444D01*
X012903Y013444D02*
X013210Y013444D01*
X013133Y013598D02*
X013210Y013674D01*
X013210Y013828D01*
X013133Y013905D01*
X013133Y014058D02*
X013210Y014135D01*
X013210Y014288D01*
X013133Y014365D01*
X013210Y014518D02*
X012750Y014518D01*
X012750Y014825D01*
X012826Y014979D02*
X012903Y014979D01*
X012980Y015056D01*
X012980Y015209D01*
X013057Y015286D01*
X013133Y015286D01*
X013210Y015209D01*
X013210Y015056D01*
X013133Y014979D01*
X013210Y014825D02*
X013210Y014518D01*
X012980Y014518D02*
X012980Y014672D01*
X012826Y014979D02*
X012750Y015056D01*
X012750Y015209D01*
X012826Y015286D01*
X012826Y015439D02*
X012903Y015439D01*
X012980Y015516D01*
X012980Y015669D01*
X013057Y015746D01*
X013133Y015746D01*
X013210Y015669D01*
X013210Y015516D01*
X013133Y015439D01*
X012826Y015439D02*
X012750Y015516D01*
X012750Y015669D01*
X012826Y015746D01*
X012750Y016360D02*
X012750Y016667D01*
X012750Y016820D02*
X013210Y016820D01*
X013210Y017127D01*
X013133Y017281D02*
X013210Y017358D01*
X013210Y017511D01*
X013133Y017588D01*
X013057Y017588D01*
X012980Y017511D01*
X012980Y017358D01*
X012903Y017281D01*
X012826Y017281D01*
X012750Y017358D01*
X012750Y017511D01*
X012826Y017588D01*
X012750Y017741D02*
X012750Y018048D01*
X012750Y017895D02*
X013210Y017895D01*
X013210Y018202D02*
X013210Y018509D01*
X013210Y018355D02*
X012750Y018355D01*
X012903Y018202D01*
X012750Y017127D02*
X012750Y016820D01*
X012980Y016820D02*
X012980Y016974D01*
X013210Y016514D02*
X012750Y016514D01*
X014600Y016164D02*
X014676Y016087D01*
X015060Y016087D01*
X015060Y015780D02*
X014676Y015780D01*
X014600Y015857D01*
X012826Y014365D02*
X012750Y014288D01*
X012750Y014135D01*
X012826Y014058D01*
X013133Y014058D01*
X012826Y013905D02*
X012750Y013828D01*
X012750Y013674D01*
X012826Y013598D01*
X013133Y013598D01*
X012903Y013444D02*
X012750Y013291D01*
X012903Y013137D01*
X013210Y013137D01*
X013210Y012984D02*
X012750Y012984D01*
X014830Y014015D02*
X015060Y014015D01*
X009050Y012911D02*
X008992Y012970D01*
X008758Y012970D01*
X008700Y012911D01*
X008700Y012794D01*
X008758Y012736D01*
X008816Y012736D01*
X008875Y012794D01*
X008875Y012970D01*
X009050Y012911D02*
X009050Y012794D01*
X008992Y012736D01*
X009050Y012610D02*
X008933Y012494D01*
X008933Y012552D02*
X008933Y012377D01*
X009050Y012377D02*
X008700Y012377D01*
X008700Y012552D01*
X008758Y012610D01*
X008875Y012610D01*
X008933Y012552D01*
X008360Y013606D02*
X007900Y013606D01*
X007900Y013836D01*
X007976Y013913D01*
X008130Y013913D01*
X008207Y013836D01*
X008207Y013606D01*
X008207Y013760D02*
X008360Y013913D01*
X008283Y014067D02*
X008360Y014143D01*
X008360Y014297D01*
X008283Y014373D01*
X008207Y014373D01*
X008130Y014297D01*
X008130Y014220D01*
X008130Y014297D02*
X008053Y014373D01*
X007976Y014373D01*
X007900Y014297D01*
X007900Y014143D01*
X007976Y014067D01*
X004360Y013447D02*
X004360Y013293D01*
X004283Y013217D01*
X003976Y013523D01*
X004283Y013523D01*
X004360Y013447D01*
X004283Y013217D02*
X003976Y013217D01*
X003900Y013293D01*
X003900Y013447D01*
X003976Y013523D01*
X004360Y013063D02*
X004360Y012756D01*
X004360Y012603D02*
X004207Y012449D01*
X004207Y012526D02*
X004207Y012296D01*
X004360Y012296D02*
X003900Y012296D01*
X003900Y012526D01*
X003976Y012603D01*
X004130Y012603D01*
X004207Y012526D01*
X004053Y012756D02*
X003900Y012910D01*
X004360Y012910D01*
X004357Y016696D02*
X004357Y016926D01*
X004280Y017003D01*
X004126Y017003D01*
X004050Y016926D01*
X004050Y016696D01*
X004510Y016696D01*
X004357Y016849D02*
X004510Y017003D01*
X004510Y017156D02*
X004510Y017463D01*
X004510Y017310D02*
X004050Y017310D01*
X004203Y017156D01*
X004203Y017617D02*
X004050Y017770D01*
X004510Y017770D01*
X004510Y017617D02*
X004510Y017923D01*
X004510Y019146D02*
X004050Y019146D01*
X004050Y019376D01*
X004126Y019453D01*
X004280Y019453D01*
X004357Y019376D01*
X004357Y019146D01*
X004357Y019299D02*
X004510Y019453D01*
X004510Y019606D02*
X004510Y019913D01*
X004510Y019760D02*
X004050Y019760D01*
X004203Y019606D01*
X004126Y020067D02*
X004050Y020143D01*
X004050Y020297D01*
X004126Y020373D01*
X004203Y020373D01*
X004510Y020067D01*
X004510Y020373D01*
X009050Y006623D02*
X009126Y006623D01*
X009433Y006317D01*
X009510Y006317D01*
X009510Y006163D02*
X009510Y005856D01*
X009510Y005703D02*
X009357Y005549D01*
X009357Y005626D02*
X009357Y005396D01*
X009510Y005396D02*
X009050Y005396D01*
X009050Y005626D01*
X009126Y005703D01*
X009280Y005703D01*
X009357Y005626D01*
X009203Y005856D02*
X009050Y006010D01*
X009510Y006010D01*
X009050Y006317D02*
X009050Y006623D01*
X011900Y005437D02*
X011900Y005054D01*
X011977Y004977D01*
X012130Y004977D01*
X012207Y005054D01*
X012207Y005437D01*
X012360Y005361D02*
X012437Y005437D01*
X012591Y005437D01*
X012667Y005361D01*
X012667Y005284D01*
X012360Y004977D01*
X012667Y004977D01*
X014473Y003977D02*
X014473Y003627D01*
X014473Y003744D02*
X014648Y003744D01*
X014706Y003802D01*
X014706Y003919D01*
X014648Y003977D01*
X014473Y003977D01*
X014589Y003744D02*
X014706Y003627D01*
X014832Y003627D02*
X015065Y003627D01*
X014949Y003627D02*
X014949Y003977D01*
X014832Y003860D01*
X015191Y003802D02*
X015366Y003977D01*
X015366Y003627D01*
X015424Y003802D02*
X015191Y003802D01*
X002610Y003601D02*
X002610Y003368D01*
X002610Y003485D02*
X002260Y003485D01*
X002376Y003368D01*
X002318Y003242D02*
X002435Y003242D01*
X002493Y003184D01*
X002493Y003009D01*
X002493Y003125D02*
X002610Y003242D01*
X002610Y003009D02*
X002260Y003009D01*
X002260Y003184D01*
X002318Y003242D01*
X001560Y003192D02*
X001443Y003075D01*
X001443Y003134D02*
X001443Y002959D01*
X001560Y002959D02*
X001210Y002959D01*
X001210Y003134D01*
X001268Y003192D01*
X001385Y003192D01*
X001443Y003134D01*
X001560Y003318D02*
X001326Y003551D01*
X001268Y003551D01*
X001210Y003493D01*
X001210Y003376D01*
X001268Y003318D01*
X001560Y003318D02*
X001560Y003551D01*
X029919Y001087D02*
X029919Y000627D01*
X029919Y000780D02*
X030149Y000780D01*
X030226Y000857D01*
X030226Y001011D01*
X030149Y001087D01*
X029919Y001087D01*
X030072Y000780D02*
X030226Y000627D01*
X030379Y000627D02*
X030379Y001087D01*
X030686Y001087D01*
X030840Y000934D02*
X030993Y001087D01*
X030993Y000627D01*
X030840Y000627D02*
X031147Y000627D01*
X030533Y000857D02*
X030379Y000857D01*
X031550Y004877D02*
X031550Y005337D01*
X031780Y005337D01*
X031857Y005261D01*
X031857Y005107D01*
X031780Y005030D01*
X031550Y005030D01*
X031703Y005030D02*
X031857Y004877D01*
X032010Y004877D02*
X032317Y005184D01*
X032317Y005261D01*
X032241Y005337D01*
X032087Y005337D01*
X032010Y005261D01*
X032010Y004877D02*
X032317Y004877D01*
X032471Y004954D02*
X032778Y005261D01*
X032778Y004954D01*
X032701Y004877D01*
X032548Y004877D01*
X032471Y004954D01*
X032471Y005261D01*
X032548Y005337D01*
X032701Y005337D01*
X032778Y005261D01*
X032701Y005877D02*
X032548Y005877D01*
X032471Y005954D01*
X032548Y006107D02*
X032778Y006107D01*
X032778Y005954D02*
X032778Y006261D01*
X032701Y006337D01*
X032548Y006337D01*
X032471Y006261D01*
X032471Y006184D01*
X032548Y006107D01*
X032701Y005877D02*
X032778Y005954D01*
X032317Y005877D02*
X032010Y005877D01*
X031857Y005877D02*
X031703Y006030D01*
X031780Y006030D02*
X031550Y006030D01*
X031550Y005877D02*
X031550Y006337D01*
X031780Y006337D01*
X031857Y006261D01*
X031857Y006107D01*
X031780Y006030D01*
X032010Y006184D02*
X032164Y006337D01*
X032164Y005877D01*
X032164Y006927D02*
X032164Y007387D01*
X032010Y007234D01*
X031857Y007311D02*
X031857Y007157D01*
X031780Y007080D01*
X031550Y007080D01*
X031550Y006927D02*
X031550Y007387D01*
X031780Y007387D01*
X031857Y007311D01*
X031703Y007080D02*
X031857Y006927D01*
X032010Y006927D02*
X032317Y006927D01*
X032471Y007004D02*
X032548Y006927D01*
X032701Y006927D01*
X032778Y007004D01*
X032778Y007080D01*
X032701Y007157D01*
X032548Y007157D01*
X032471Y007234D01*
X032471Y007311D01*
X032548Y007387D01*
X032701Y007387D01*
X032778Y007311D01*
X032778Y007234D01*
X032701Y007157D01*
X032548Y007157D02*
X032471Y007080D01*
X032471Y007004D01*
X032241Y007877D02*
X032087Y007877D01*
X032010Y007954D01*
X032010Y008107D02*
X032164Y008184D01*
X032241Y008184D01*
X032317Y008107D01*
X032317Y007954D01*
X032241Y007877D01*
X032010Y008107D02*
X032010Y008337D01*
X032317Y008337D01*
X031857Y008261D02*
X031857Y008107D01*
X031780Y008030D01*
X031550Y008030D01*
X031550Y007877D02*
X031550Y008337D01*
X031780Y008337D01*
X031857Y008261D01*
X031703Y008030D02*
X031857Y007877D01*
D12*
X032480Y007857D02*
X032480Y007357D01*
X032730Y007107D01*
X032480Y006857D01*
X032480Y006357D01*
X032730Y006107D01*
X032480Y005857D01*
X032480Y005357D01*
X032730Y005107D01*
X032480Y004857D01*
X032480Y004357D01*
X032730Y004107D01*
X034230Y004107D01*
X034480Y004357D01*
X034480Y004857D01*
X034230Y005107D01*
X034480Y005357D01*
X034480Y005857D01*
X034230Y006107D01*
X034480Y006357D01*
X034480Y006857D01*
X034230Y007107D01*
X034480Y007357D01*
X034480Y007857D01*
X034230Y008107D01*
X032730Y008107D01*
X032480Y007857D01*
X032430Y004057D02*
X031430Y004057D01*
X031413Y004055D01*
X031396Y004051D01*
X031380Y004044D01*
X031366Y004034D01*
X031353Y004021D01*
X031343Y004007D01*
X031336Y003991D01*
X031332Y003974D01*
X031330Y003957D01*
X031330Y002257D01*
X031332Y002240D01*
X031336Y002223D01*
X031343Y002207D01*
X031353Y002193D01*
X031366Y002180D01*
X031380Y002170D01*
X031396Y002163D01*
X031413Y002159D01*
X031430Y002157D01*
X032430Y002157D01*
X032447Y002159D01*
X032464Y002163D01*
X032480Y002170D01*
X032494Y002180D01*
X032507Y002193D01*
X032517Y002207D01*
X032524Y002223D01*
X032528Y002240D01*
X032530Y002257D01*
X032530Y003957D01*
X032528Y003974D01*
X032524Y003991D01*
X032517Y004007D01*
X032507Y004021D01*
X032494Y004034D01*
X032480Y004044D01*
X032464Y004051D01*
X032447Y004055D01*
X032430Y004057D01*
X031930Y003257D02*
X031930Y003207D01*
X031930Y003007D02*
X031930Y002957D01*
X017230Y003657D02*
X017230Y001957D01*
X017228Y001940D01*
X017224Y001923D01*
X017217Y001907D01*
X017207Y001893D01*
X017194Y001880D01*
X017180Y001870D01*
X017164Y001863D01*
X017147Y001859D01*
X017130Y001857D01*
X016130Y001857D01*
X016113Y001859D01*
X016096Y001863D01*
X016080Y001870D01*
X016066Y001880D01*
X016053Y001893D01*
X016043Y001907D01*
X016036Y001923D01*
X016032Y001940D01*
X016030Y001957D01*
X016030Y003657D01*
X016032Y003674D01*
X016036Y003691D01*
X016043Y003707D01*
X016053Y003721D01*
X016066Y003734D01*
X016080Y003744D01*
X016096Y003751D01*
X016113Y003755D01*
X016130Y003757D01*
X017130Y003757D01*
X017147Y003755D01*
X017164Y003751D01*
X017180Y003744D01*
X017194Y003734D01*
X017207Y003721D01*
X017217Y003707D01*
X017224Y003691D01*
X017228Y003674D01*
X017230Y003657D01*
X016630Y002957D02*
X016630Y002907D01*
X016630Y002707D02*
X016630Y002657D01*
X014930Y002457D02*
X014680Y002207D01*
X014180Y002207D01*
X013930Y002457D01*
X013680Y002207D01*
X013180Y002207D01*
X012930Y002457D01*
X012930Y002957D01*
X013180Y003207D01*
X013680Y003207D01*
X013930Y002957D01*
X014180Y003207D01*
X014680Y003207D01*
X014930Y002957D01*
X014930Y002457D01*
X013930Y002457D02*
X013930Y002957D01*
X016280Y004907D02*
X016980Y004907D01*
X016997Y004909D01*
X017014Y004913D01*
X017030Y004920D01*
X017044Y004930D01*
X017057Y004943D01*
X017067Y004957D01*
X017074Y004973D01*
X017078Y004990D01*
X017080Y005007D01*
X017080Y005157D01*
X017030Y005207D01*
X017030Y007107D01*
X017080Y007157D01*
X017080Y007307D01*
X017078Y007324D01*
X017074Y007341D01*
X017067Y007357D01*
X017057Y007371D01*
X017044Y007384D01*
X017030Y007394D01*
X017014Y007401D01*
X016997Y007405D01*
X016980Y007407D01*
X016280Y007407D01*
X016263Y007405D01*
X016246Y007401D01*
X016230Y007394D01*
X016216Y007384D01*
X016203Y007371D01*
X016193Y007357D01*
X016186Y007341D01*
X016182Y007324D01*
X016180Y007307D01*
X016180Y007157D01*
X016230Y007107D01*
X016230Y005207D01*
X016180Y005157D01*
X016180Y005007D01*
X016182Y004990D01*
X016186Y004973D01*
X016193Y004957D01*
X016203Y004943D01*
X016216Y004930D01*
X016230Y004920D01*
X016246Y004913D01*
X016263Y004909D01*
X016280Y004907D01*
X015430Y005957D02*
X014930Y005957D01*
X014680Y006207D01*
X014430Y005957D01*
X013930Y005957D01*
X013680Y006207D01*
X013430Y005957D01*
X012930Y005957D01*
X012680Y006207D01*
X012680Y006707D01*
X012930Y006957D01*
X013430Y006957D01*
X013680Y006707D01*
X013930Y006957D01*
X014430Y006957D01*
X014680Y006707D01*
X014930Y006957D01*
X015430Y006957D01*
X015680Y006707D01*
X015680Y006207D01*
X015430Y005957D01*
X014680Y006207D02*
X014680Y006707D01*
X013680Y006707D02*
X013680Y006207D01*
X011880Y006907D02*
X011880Y007057D01*
X011830Y007107D01*
X011830Y009007D01*
X011880Y009057D01*
X011880Y009207D01*
X011930Y009227D02*
X011930Y008807D01*
X011930Y008407D01*
X011930Y007987D01*
X011932Y007964D01*
X011937Y007941D01*
X011946Y007919D01*
X011959Y007899D01*
X011974Y007881D01*
X011992Y007866D01*
X012012Y007853D01*
X012034Y007844D01*
X012057Y007839D01*
X012080Y007837D01*
X015780Y007837D01*
X015803Y007839D01*
X015826Y007844D01*
X015848Y007853D01*
X015868Y007866D01*
X015886Y007881D01*
X015901Y007899D01*
X015914Y007919D01*
X015923Y007941D01*
X015928Y007964D01*
X015930Y007987D01*
X015930Y009227D01*
X015928Y009250D01*
X015923Y009273D01*
X015914Y009295D01*
X015901Y009315D01*
X015886Y009333D01*
X015868Y009348D01*
X015848Y009361D01*
X015826Y009370D01*
X015803Y009375D01*
X015780Y009377D01*
X012080Y009377D01*
X012057Y009375D01*
X012034Y009370D01*
X012012Y009361D01*
X011992Y009348D01*
X011974Y009333D01*
X011959Y009315D01*
X011946Y009295D01*
X011937Y009273D01*
X011932Y009250D01*
X011930Y009227D01*
X011880Y009207D02*
X011878Y009224D01*
X011874Y009241D01*
X011867Y009257D01*
X011857Y009271D01*
X011844Y009284D01*
X011830Y009294D01*
X011814Y009301D01*
X011797Y009305D01*
X011780Y009307D01*
X011080Y009307D01*
X011080Y009257D02*
X011080Y008757D01*
X010830Y008507D01*
X009330Y008507D01*
X009080Y008757D01*
X009080Y009257D01*
X009330Y009507D01*
X010830Y009507D01*
X011080Y009257D01*
X011080Y009307D02*
X011063Y009305D01*
X011046Y009301D01*
X011030Y009294D01*
X011016Y009284D01*
X011003Y009271D01*
X010993Y009257D01*
X010986Y009241D01*
X010982Y009224D01*
X010980Y009207D01*
X010980Y009057D01*
X011030Y009007D01*
X011030Y007107D01*
X010980Y007057D01*
X010980Y006907D01*
X010982Y006890D01*
X010986Y006873D01*
X010993Y006857D01*
X011003Y006843D01*
X011016Y006830D01*
X011030Y006820D01*
X011046Y006813D01*
X011063Y006809D01*
X011080Y006807D01*
X011780Y006807D01*
X011797Y006809D01*
X011814Y006813D01*
X011830Y006820D01*
X011844Y006830D01*
X011857Y006843D01*
X011867Y006857D01*
X011874Y006873D01*
X011878Y006890D01*
X011880Y006907D01*
X010730Y007557D02*
X010680Y007507D01*
X010680Y005607D01*
X010730Y005557D01*
X010730Y005407D01*
X010728Y005390D01*
X010724Y005373D01*
X010717Y005357D01*
X010707Y005343D01*
X010694Y005330D01*
X010680Y005320D01*
X010664Y005313D01*
X010647Y005309D01*
X010630Y005307D01*
X009930Y005307D02*
X009913Y005309D01*
X009896Y005313D01*
X009880Y005320D01*
X009866Y005330D01*
X009853Y005343D01*
X009843Y005357D01*
X009836Y005373D01*
X009832Y005390D01*
X009830Y005407D01*
X009830Y005557D01*
X009880Y005607D01*
X009880Y007507D01*
X009830Y007557D01*
X009830Y007707D01*
X009832Y007724D01*
X009836Y007741D01*
X009843Y007757D01*
X009853Y007771D01*
X009866Y007784D01*
X009880Y007794D01*
X009896Y007801D01*
X009913Y007805D01*
X009930Y007807D01*
X010630Y007807D02*
X010647Y007805D01*
X010664Y007801D01*
X010680Y007794D01*
X010694Y007784D01*
X010707Y007771D01*
X010717Y007757D01*
X010724Y007741D01*
X010728Y007724D01*
X010730Y007707D01*
X010730Y007557D01*
X011930Y008407D02*
X011957Y008409D01*
X011984Y008414D01*
X012010Y008424D01*
X012034Y008436D01*
X012056Y008452D01*
X012076Y008470D01*
X012093Y008492D01*
X012108Y008515D01*
X012118Y008540D01*
X012126Y008566D01*
X012130Y008593D01*
X012130Y008621D01*
X012126Y008648D01*
X012118Y008674D01*
X012108Y008699D01*
X012093Y008722D01*
X012076Y008744D01*
X012056Y008762D01*
X012034Y008778D01*
X012010Y008790D01*
X011984Y008800D01*
X011957Y008805D01*
X011930Y008807D01*
X011080Y009757D02*
X010830Y009507D01*
X011080Y009757D02*
X011080Y010257D01*
X010830Y010507D01*
X009330Y010507D01*
X009080Y010257D01*
X009080Y009757D01*
X009330Y009507D01*
X009330Y010507D02*
X009080Y010757D01*
X009080Y011257D01*
X009330Y011507D01*
X010830Y011507D01*
X011080Y011257D01*
X011080Y010757D01*
X010830Y010507D01*
X011280Y011607D02*
X011430Y011607D01*
X011480Y011657D01*
X012880Y011657D01*
X012930Y011607D01*
X013080Y011607D01*
X013097Y011609D01*
X013114Y011613D01*
X013130Y011620D01*
X013144Y011630D01*
X013157Y011643D01*
X013167Y011657D01*
X013174Y011673D01*
X013178Y011690D01*
X013180Y011707D01*
X013180Y012307D01*
X013178Y012324D01*
X013174Y012341D01*
X013167Y012357D01*
X013157Y012371D01*
X013144Y012384D01*
X013130Y012394D01*
X013114Y012401D01*
X013097Y012405D01*
X013080Y012407D01*
X012930Y012407D01*
X012880Y012357D01*
X011480Y012357D01*
X011430Y012407D01*
X011280Y012407D01*
X011263Y012405D01*
X011246Y012401D01*
X011230Y012394D01*
X011216Y012384D01*
X011203Y012371D01*
X011193Y012357D01*
X011186Y012341D01*
X011182Y012324D01*
X011180Y012307D01*
X011180Y011707D01*
X011182Y011690D01*
X011186Y011673D01*
X011193Y011657D01*
X011203Y011643D01*
X011216Y011630D01*
X011230Y011620D01*
X011246Y011613D01*
X011263Y011609D01*
X011280Y011607D01*
X011730Y012407D02*
X011480Y012657D01*
X011480Y013157D01*
X011730Y013407D01*
X011480Y013657D01*
X011480Y014157D01*
X011730Y014407D01*
X011480Y014657D01*
X011480Y015157D01*
X011730Y015407D01*
X011480Y015657D01*
X011480Y016157D01*
X011730Y016407D01*
X011480Y016657D01*
X011480Y017157D01*
X011730Y017407D01*
X011480Y017657D01*
X011480Y018157D01*
X011730Y018407D01*
X011480Y018657D01*
X011480Y019157D01*
X011730Y019407D01*
X011480Y019657D01*
X011480Y020157D01*
X011730Y020407D01*
X012230Y020407D01*
X012480Y020157D01*
X012480Y019657D01*
X012230Y019407D01*
X012480Y019157D01*
X012480Y018657D01*
X012230Y018407D01*
X011730Y018407D01*
X012230Y018407D02*
X012480Y018157D01*
X012480Y017657D01*
X012230Y017407D01*
X012480Y017157D01*
X012480Y016657D01*
X012230Y016407D01*
X012480Y016157D01*
X012480Y015657D01*
X012230Y015407D01*
X011730Y015407D01*
X012230Y015407D02*
X012480Y015157D01*
X012480Y014657D01*
X012230Y014407D01*
X012480Y014157D01*
X012480Y013657D01*
X012230Y013407D01*
X012480Y013157D01*
X012480Y012657D01*
X012230Y012407D01*
X011730Y012407D01*
X011730Y013407D02*
X012230Y013407D01*
X012230Y014407D02*
X011730Y014407D01*
X009980Y014257D02*
X009980Y014107D01*
X009930Y014057D01*
X009930Y012657D01*
X009980Y012607D01*
X009980Y012457D01*
X009978Y012440D01*
X009974Y012423D01*
X009967Y012407D01*
X009957Y012393D01*
X009944Y012380D01*
X009930Y012370D01*
X009914Y012363D01*
X009897Y012359D01*
X009880Y012357D01*
X009280Y012357D01*
X009263Y012359D01*
X009246Y012363D01*
X009230Y012370D01*
X009216Y012380D01*
X009203Y012393D01*
X009193Y012407D01*
X009186Y012423D01*
X009182Y012440D01*
X009180Y012457D01*
X009180Y012607D01*
X009230Y012657D01*
X009230Y014057D01*
X009180Y014107D01*
X009180Y014257D01*
X009182Y014274D01*
X009186Y014291D01*
X009193Y014307D01*
X009203Y014321D01*
X009216Y014334D01*
X009230Y014344D01*
X009246Y014351D01*
X009263Y014355D01*
X009280Y014357D01*
X009880Y014357D01*
X009897Y014355D01*
X009914Y014351D01*
X009930Y014344D01*
X009944Y014334D01*
X009957Y014321D01*
X009967Y014307D01*
X009974Y014291D01*
X009978Y014274D01*
X009980Y014257D01*
X011730Y016407D02*
X012230Y016407D01*
X012230Y017407D02*
X011730Y017407D01*
X013480Y017657D02*
X013480Y018157D01*
X013730Y018407D01*
X013480Y018657D01*
X013480Y019157D01*
X013730Y019407D01*
X013480Y019657D01*
X013480Y020157D01*
X013730Y020407D01*
X014230Y020407D01*
X014480Y020157D01*
X014480Y019657D01*
X014230Y019407D01*
X014480Y019157D01*
X014480Y018657D01*
X014230Y018407D01*
X013730Y018407D01*
X014230Y018407D02*
X014480Y018157D01*
X014480Y017657D01*
X014230Y017407D01*
X014480Y017157D01*
X014480Y016657D01*
X014230Y016407D01*
X014480Y016157D01*
X014480Y015657D01*
X014230Y015407D01*
X013730Y015407D01*
X013480Y015657D01*
X013480Y016157D01*
X013730Y016407D01*
X013480Y016657D01*
X013480Y017157D01*
X013730Y017407D01*
X013480Y017657D01*
X013730Y017407D02*
X014230Y017407D01*
X014230Y016407D02*
X013730Y016407D01*
X013730Y015407D02*
X013480Y015157D01*
X013480Y014657D01*
X013730Y014407D01*
X013480Y014157D01*
X013480Y013657D01*
X013730Y013407D01*
X013480Y013157D01*
X013480Y012657D01*
X013730Y012407D01*
X014230Y012407D01*
X014480Y012657D01*
X014480Y013157D01*
X014230Y013407D01*
X013730Y013407D01*
X014230Y013407D02*
X014480Y013657D01*
X014480Y014157D01*
X014230Y014407D01*
X013730Y014407D01*
X014230Y014407D02*
X014480Y014657D01*
X014480Y015157D01*
X014230Y015407D01*
X015130Y018257D02*
X016130Y018257D01*
X016147Y018259D01*
X016164Y018263D01*
X016180Y018270D01*
X016194Y018280D01*
X016207Y018293D01*
X016217Y018307D01*
X016224Y018323D01*
X016228Y018340D01*
X016230Y018357D01*
X016230Y020057D01*
X016228Y020074D01*
X016224Y020091D01*
X016217Y020107D01*
X016207Y020121D01*
X016194Y020134D01*
X016180Y020144D01*
X016164Y020151D01*
X016147Y020155D01*
X016130Y020157D01*
X015130Y020157D01*
X015113Y020155D01*
X015096Y020151D01*
X015080Y020144D01*
X015066Y020134D01*
X015053Y020121D01*
X015043Y020107D01*
X015036Y020091D01*
X015032Y020074D01*
X015030Y020057D01*
X015030Y018357D01*
X015032Y018340D01*
X015036Y018323D01*
X015043Y018307D01*
X015053Y018293D01*
X015066Y018280D01*
X015080Y018270D01*
X015096Y018263D01*
X015113Y018259D01*
X015130Y018257D01*
X015630Y019057D02*
X015630Y019107D01*
X015630Y019307D02*
X015630Y019357D01*
X014230Y019407D02*
X013730Y019407D01*
X012230Y019407D02*
X011730Y019407D01*
X005730Y017107D02*
X005730Y015407D01*
X005728Y015390D01*
X005724Y015373D01*
X005717Y015357D01*
X005707Y015343D01*
X005694Y015330D01*
X005680Y015320D01*
X005664Y015313D01*
X005647Y015309D01*
X005630Y015307D01*
X004630Y015307D01*
X004613Y015309D01*
X004596Y015313D01*
X004580Y015320D01*
X004566Y015330D01*
X004553Y015343D01*
X004543Y015357D01*
X004536Y015373D01*
X004532Y015390D01*
X004530Y015407D01*
X004530Y017107D01*
X004532Y017124D01*
X004536Y017141D01*
X004543Y017157D01*
X004553Y017171D01*
X004566Y017184D01*
X004580Y017194D01*
X004596Y017201D01*
X004613Y017205D01*
X004630Y017207D01*
X005630Y017207D01*
X005647Y017205D01*
X005664Y017201D01*
X005680Y017194D01*
X005694Y017184D01*
X005707Y017171D01*
X005717Y017157D01*
X005724Y017141D01*
X005728Y017124D01*
X005730Y017107D01*
X005130Y016407D02*
X005130Y016357D01*
X005130Y016157D02*
X005130Y016107D01*
X003030Y016007D02*
X003030Y015057D01*
X003030Y014707D01*
X002230Y014357D02*
X002130Y014357D01*
X002130Y014257D01*
X001530Y014257D01*
X001530Y014357D01*
X001430Y014357D01*
X000630Y014707D02*
X000630Y015057D01*
X000630Y016057D01*
X000630Y016407D01*
X001430Y016757D02*
X001530Y016757D01*
X001530Y016857D01*
X002130Y016857D01*
X002130Y016757D01*
X002230Y016757D01*
X003030Y016407D02*
X003030Y016007D01*
X001730Y015557D02*
X001732Y015577D01*
X001738Y015595D01*
X001747Y015613D01*
X001759Y015628D01*
X001774Y015640D01*
X001792Y015649D01*
X001810Y015655D01*
X001830Y015657D01*
X001850Y015655D01*
X001868Y015649D01*
X001886Y015640D01*
X001901Y015628D01*
X001913Y015613D01*
X001922Y015595D01*
X001928Y015577D01*
X001930Y015557D01*
X001928Y015537D01*
X001922Y015519D01*
X001913Y015501D01*
X001901Y015486D01*
X001886Y015474D01*
X001868Y015465D01*
X001850Y015459D01*
X001830Y015457D01*
X001810Y015459D01*
X001792Y015465D01*
X001774Y015474D01*
X001759Y015486D01*
X001747Y015501D01*
X001738Y015519D01*
X001732Y015537D01*
X001730Y015557D01*
X001130Y015557D02*
X001132Y015609D01*
X001138Y015661D01*
X001148Y015713D01*
X001161Y015763D01*
X001178Y015813D01*
X001199Y015861D01*
X001224Y015907D01*
X001252Y015951D01*
X001283Y015993D01*
X001317Y016033D01*
X001354Y016070D01*
X001394Y016104D01*
X001436Y016135D01*
X001480Y016163D01*
X001526Y016188D01*
X001574Y016209D01*
X001624Y016226D01*
X001674Y016239D01*
X001726Y016249D01*
X001778Y016255D01*
X001830Y016257D01*
X001882Y016255D01*
X001934Y016249D01*
X001986Y016239D01*
X002036Y016226D01*
X002086Y016209D01*
X002134Y016188D01*
X002180Y016163D01*
X002224Y016135D01*
X002266Y016104D01*
X002306Y016070D01*
X002343Y016033D01*
X002377Y015993D01*
X002408Y015951D01*
X002436Y015907D01*
X002461Y015861D01*
X002482Y015813D01*
X002499Y015763D01*
X002512Y015713D01*
X002522Y015661D01*
X002528Y015609D01*
X002530Y015557D01*
X002528Y015505D01*
X002522Y015453D01*
X002512Y015401D01*
X002499Y015351D01*
X002482Y015301D01*
X002461Y015253D01*
X002436Y015207D01*
X002408Y015163D01*
X002377Y015121D01*
X002343Y015081D01*
X002306Y015044D01*
X002266Y015010D01*
X002224Y014979D01*
X002180Y014951D01*
X002134Y014926D01*
X002086Y014905D01*
X002036Y014888D01*
X001986Y014875D01*
X001934Y014865D01*
X001882Y014859D01*
X001830Y014857D01*
X001778Y014859D01*
X001726Y014865D01*
X001674Y014875D01*
X001624Y014888D01*
X001574Y014905D01*
X001526Y014926D01*
X001480Y014951D01*
X001436Y014979D01*
X001394Y015010D01*
X001354Y015044D01*
X001317Y015081D01*
X001283Y015121D01*
X001252Y015163D01*
X001224Y015207D01*
X001199Y015253D01*
X001178Y015301D01*
X001161Y015351D01*
X001148Y015401D01*
X001138Y015453D01*
X001132Y015505D01*
X001130Y015557D01*
X001530Y013557D02*
X001530Y013457D01*
X001430Y013457D01*
X001530Y013557D02*
X002130Y013557D01*
X002130Y013457D01*
X002230Y013457D01*
X003030Y013107D02*
X003030Y012707D01*
X003030Y011757D01*
X003030Y011407D01*
X002230Y011057D02*
X002130Y011057D01*
X002130Y010957D01*
X001530Y010957D01*
X001530Y011057D01*
X001430Y011057D01*
X001730Y010357D02*
X001480Y010107D01*
X001480Y009607D01*
X001730Y009357D01*
X001480Y009107D01*
X001480Y008607D01*
X001730Y008357D01*
X001480Y008107D01*
X001480Y007607D01*
X001730Y007357D01*
X001480Y007107D01*
X001480Y006607D01*
X001730Y006357D01*
X001480Y006107D01*
X001480Y005607D01*
X001730Y005357D01*
X003230Y005357D01*
X003480Y005607D01*
X003480Y006107D01*
X003230Y006357D01*
X003480Y006607D01*
X003480Y007107D01*
X003230Y007357D01*
X003480Y007607D01*
X003480Y008107D01*
X003230Y008357D01*
X003480Y008607D01*
X003480Y009107D01*
X003230Y009357D01*
X003480Y009607D01*
X003480Y010107D01*
X003230Y010357D01*
X001730Y010357D01*
X000630Y011407D02*
X000630Y011757D01*
X000630Y012757D01*
X000630Y013107D01*
X001730Y012257D02*
X001732Y012277D01*
X001738Y012295D01*
X001747Y012313D01*
X001759Y012328D01*
X001774Y012340D01*
X001792Y012349D01*
X001810Y012355D01*
X001830Y012357D01*
X001850Y012355D01*
X001868Y012349D01*
X001886Y012340D01*
X001901Y012328D01*
X001913Y012313D01*
X001922Y012295D01*
X001928Y012277D01*
X001930Y012257D01*
X001928Y012237D01*
X001922Y012219D01*
X001913Y012201D01*
X001901Y012186D01*
X001886Y012174D01*
X001868Y012165D01*
X001850Y012159D01*
X001830Y012157D01*
X001810Y012159D01*
X001792Y012165D01*
X001774Y012174D01*
X001759Y012186D01*
X001747Y012201D01*
X001738Y012219D01*
X001732Y012237D01*
X001730Y012257D01*
X001130Y012257D02*
X001132Y012309D01*
X001138Y012361D01*
X001148Y012413D01*
X001161Y012463D01*
X001178Y012513D01*
X001199Y012561D01*
X001224Y012607D01*
X001252Y012651D01*
X001283Y012693D01*
X001317Y012733D01*
X001354Y012770D01*
X001394Y012804D01*
X001436Y012835D01*
X001480Y012863D01*
X001526Y012888D01*
X001574Y012909D01*
X001624Y012926D01*
X001674Y012939D01*
X001726Y012949D01*
X001778Y012955D01*
X001830Y012957D01*
X001882Y012955D01*
X001934Y012949D01*
X001986Y012939D01*
X002036Y012926D01*
X002086Y012909D01*
X002134Y012888D01*
X002180Y012863D01*
X002224Y012835D01*
X002266Y012804D01*
X002306Y012770D01*
X002343Y012733D01*
X002377Y012693D01*
X002408Y012651D01*
X002436Y012607D01*
X002461Y012561D01*
X002482Y012513D01*
X002499Y012463D01*
X002512Y012413D01*
X002522Y012361D01*
X002528Y012309D01*
X002530Y012257D01*
X002528Y012205D01*
X002522Y012153D01*
X002512Y012101D01*
X002499Y012051D01*
X002482Y012001D01*
X002461Y011953D01*
X002436Y011907D01*
X002408Y011863D01*
X002377Y011821D01*
X002343Y011781D01*
X002306Y011744D01*
X002266Y011710D01*
X002224Y011679D01*
X002180Y011651D01*
X002134Y011626D01*
X002086Y011605D01*
X002036Y011588D01*
X001986Y011575D01*
X001934Y011565D01*
X001882Y011559D01*
X001830Y011557D01*
X001778Y011559D01*
X001726Y011565D01*
X001674Y011575D01*
X001624Y011588D01*
X001574Y011605D01*
X001526Y011626D01*
X001480Y011651D01*
X001436Y011679D01*
X001394Y011710D01*
X001354Y011744D01*
X001317Y011781D01*
X001283Y011821D01*
X001252Y011863D01*
X001224Y011907D01*
X001199Y011953D01*
X001178Y012001D01*
X001161Y012051D01*
X001148Y012101D01*
X001138Y012153D01*
X001132Y012205D01*
X001130Y012257D01*
X004880Y012607D02*
X005030Y012607D01*
X005030Y012757D01*
X005030Y012607D02*
X005180Y012607D01*
X005030Y012607D02*
X005030Y012457D01*
X004430Y013257D02*
X004432Y013323D01*
X004438Y013388D01*
X004448Y013453D01*
X004461Y013518D01*
X004479Y013581D01*
X004500Y013644D01*
X004525Y013704D01*
X004554Y013764D01*
X004586Y013821D01*
X004621Y013877D01*
X004660Y013930D01*
X004702Y013981D01*
X004746Y014029D01*
X004794Y014074D01*
X004844Y014117D01*
X004897Y014156D01*
X004952Y014193D01*
X005009Y014226D01*
X005068Y014255D01*
X005128Y014281D01*
X005190Y014303D01*
X005253Y014322D01*
X005317Y014336D01*
X005382Y014347D01*
X005448Y014354D01*
X005514Y014357D01*
X005579Y014356D01*
X005645Y014351D01*
X005710Y014342D01*
X005775Y014329D01*
X005838Y014313D01*
X005901Y014293D01*
X005962Y014268D01*
X006022Y014241D01*
X006080Y014210D01*
X006136Y014175D01*
X006190Y014137D01*
X006241Y014096D01*
X006290Y014052D01*
X006336Y014005D01*
X006380Y013956D01*
X006420Y013904D01*
X006457Y013849D01*
X006491Y013793D01*
X006521Y013734D01*
X006548Y013674D01*
X006571Y013613D01*
X006590Y013550D01*
X006606Y013486D01*
X006618Y013421D01*
X006626Y013356D01*
X006630Y013290D01*
X006630Y013224D01*
X006626Y013158D01*
X006618Y013093D01*
X006606Y013028D01*
X006590Y012964D01*
X006571Y012901D01*
X006548Y012840D01*
X006521Y012780D01*
X006491Y012721D01*
X006457Y012665D01*
X006420Y012610D01*
X006380Y012558D01*
X006336Y012509D01*
X006290Y012462D01*
X006241Y012418D01*
X006190Y012377D01*
X006136Y012339D01*
X006080Y012304D01*
X006022Y012273D01*
X005962Y012246D01*
X005901Y012221D01*
X005838Y012201D01*
X005775Y012185D01*
X005710Y012172D01*
X005645Y012163D01*
X005579Y012158D01*
X005514Y012157D01*
X005448Y012160D01*
X005382Y012167D01*
X005317Y012178D01*
X005253Y012192D01*
X005190Y012211D01*
X005128Y012233D01*
X005068Y012259D01*
X005009Y012288D01*
X004952Y012321D01*
X004897Y012358D01*
X004844Y012397D01*
X004794Y012440D01*
X004746Y012485D01*
X004702Y012533D01*
X004660Y012584D01*
X004621Y012637D01*
X004586Y012693D01*
X004554Y012750D01*
X004525Y012810D01*
X004500Y012870D01*
X004479Y012933D01*
X004461Y012996D01*
X004448Y013061D01*
X004438Y013126D01*
X004432Y013191D01*
X004430Y013257D01*
X005500Y009437D02*
X005500Y006817D01*
X005640Y006677D01*
X008260Y006677D01*
X008260Y009437D01*
X005500Y009437D01*
X005659Y006977D02*
X005661Y007000D01*
X005667Y007023D01*
X005676Y007044D01*
X005689Y007064D01*
X005705Y007081D01*
X005723Y007095D01*
X005743Y007106D01*
X005765Y007114D01*
X005788Y007118D01*
X005812Y007118D01*
X005835Y007114D01*
X005857Y007106D01*
X005877Y007095D01*
X005895Y007081D01*
X005911Y007064D01*
X005924Y007044D01*
X005933Y007023D01*
X005939Y007000D01*
X005941Y006977D01*
X005939Y006954D01*
X005933Y006931D01*
X005924Y006910D01*
X005911Y006890D01*
X005895Y006873D01*
X005877Y006859D01*
X005857Y006848D01*
X005835Y006840D01*
X005812Y006836D01*
X005788Y006836D01*
X005765Y006840D01*
X005743Y006848D01*
X005723Y006859D01*
X005705Y006873D01*
X005689Y006890D01*
X005676Y006910D01*
X005667Y006931D01*
X005661Y006954D01*
X005659Y006977D01*
X005230Y004307D02*
X007630Y004307D01*
X007680Y004305D01*
X007729Y004299D01*
X007778Y004290D01*
X007826Y004277D01*
X007873Y004260D01*
X007918Y004240D01*
X007962Y004216D01*
X008004Y004189D01*
X008044Y004158D01*
X008081Y004125D01*
X008115Y004089D01*
X008147Y004051D01*
X008176Y004010D01*
X008201Y003968D01*
X008223Y003923D01*
X008242Y003877D01*
X008257Y003829D01*
X008268Y003781D01*
X008276Y003732D01*
X008280Y003682D01*
X008280Y003632D01*
X008276Y003582D01*
X008268Y003533D01*
X008257Y003485D01*
X008242Y003437D01*
X008223Y003391D01*
X008201Y003346D01*
X008176Y003304D01*
X008147Y003263D01*
X008115Y003225D01*
X008081Y003189D01*
X008044Y003156D01*
X008004Y003125D01*
X007962Y003098D01*
X007918Y003074D01*
X007873Y003054D01*
X007826Y003037D01*
X007778Y003024D01*
X007729Y003015D01*
X007680Y003009D01*
X007630Y003007D01*
X005230Y003007D01*
X006180Y003357D02*
X006180Y003657D01*
X005930Y003657D01*
X006180Y003657D02*
X006180Y003957D01*
X006330Y003957D02*
X006330Y003357D01*
X006530Y003357D01*
X006530Y003957D01*
X006330Y003957D01*
X006680Y003957D02*
X006680Y003657D01*
X006930Y003657D01*
X006680Y003657D02*
X006680Y003357D01*
X005230Y003007D02*
X005180Y003009D01*
X005131Y003015D01*
X005082Y003024D01*
X005034Y003037D01*
X004987Y003054D01*
X004942Y003074D01*
X004898Y003098D01*
X004856Y003125D01*
X004816Y003156D01*
X004779Y003189D01*
X004745Y003225D01*
X004713Y003263D01*
X004684Y003304D01*
X004659Y003346D01*
X004637Y003391D01*
X004618Y003437D01*
X004603Y003485D01*
X004592Y003533D01*
X004584Y003582D01*
X004580Y003632D01*
X004580Y003682D01*
X004584Y003732D01*
X004592Y003781D01*
X004603Y003829D01*
X004618Y003877D01*
X004637Y003923D01*
X004659Y003968D01*
X004684Y004010D01*
X004713Y004051D01*
X004745Y004089D01*
X004779Y004125D01*
X004816Y004158D01*
X004856Y004189D01*
X004898Y004216D01*
X004942Y004240D01*
X004987Y004260D01*
X005034Y004277D01*
X005082Y004290D01*
X005131Y004299D01*
X005180Y004305D01*
X005230Y004307D01*
X008880Y003007D02*
X008882Y003070D01*
X008888Y003132D01*
X008898Y003194D01*
X008911Y003256D01*
X008929Y003316D01*
X008950Y003375D01*
X008975Y003433D01*
X009004Y003489D01*
X009036Y003543D01*
X009071Y003595D01*
X009109Y003644D01*
X009151Y003692D01*
X009195Y003736D01*
X009243Y003778D01*
X009292Y003816D01*
X009344Y003851D01*
X009398Y003883D01*
X009454Y003912D01*
X009512Y003937D01*
X009571Y003958D01*
X009631Y003976D01*
X009693Y003989D01*
X009755Y003999D01*
X009817Y004005D01*
X009880Y004007D01*
X009943Y004005D01*
X010005Y003999D01*
X010067Y003989D01*
X010129Y003976D01*
X010189Y003958D01*
X010248Y003937D01*
X010306Y003912D01*
X010362Y003883D01*
X010416Y003851D01*
X010468Y003816D01*
X010517Y003778D01*
X010565Y003736D01*
X010609Y003692D01*
X010651Y003644D01*
X010689Y003595D01*
X010724Y003543D01*
X010756Y003489D01*
X010785Y003433D01*
X010810Y003375D01*
X010831Y003316D01*
X010849Y003256D01*
X010862Y003194D01*
X010872Y003132D01*
X010878Y003070D01*
X010880Y003007D01*
X010878Y002944D01*
X010872Y002882D01*
X010862Y002820D01*
X010849Y002758D01*
X010831Y002698D01*
X010810Y002639D01*
X010785Y002581D01*
X010756Y002525D01*
X010724Y002471D01*
X010689Y002419D01*
X010651Y002370D01*
X010609Y002322D01*
X010565Y002278D01*
X010517Y002236D01*
X010468Y002198D01*
X010416Y002163D01*
X010362Y002131D01*
X010306Y002102D01*
X010248Y002077D01*
X010189Y002056D01*
X010129Y002038D01*
X010067Y002025D01*
X010005Y002015D01*
X009943Y002009D01*
X009880Y002007D01*
X009817Y002009D01*
X009755Y002015D01*
X009693Y002025D01*
X009631Y002038D01*
X009571Y002056D01*
X009512Y002077D01*
X009454Y002102D01*
X009398Y002131D01*
X009344Y002163D01*
X009292Y002198D01*
X009243Y002236D01*
X009195Y002278D01*
X009151Y002322D01*
X009109Y002370D01*
X009071Y002419D01*
X009036Y002471D01*
X009004Y002525D01*
X008975Y002581D01*
X008950Y002639D01*
X008929Y002698D01*
X008911Y002758D01*
X008898Y002820D01*
X008888Y002882D01*
X008882Y002944D01*
X008880Y003007D01*
X013330Y010507D02*
X013480Y010507D01*
X013530Y010557D01*
X014930Y010557D01*
X014980Y010507D01*
X015130Y010507D01*
X015147Y010509D01*
X015164Y010513D01*
X015180Y010520D01*
X015194Y010530D01*
X015207Y010543D01*
X015217Y010557D01*
X015224Y010573D01*
X015228Y010590D01*
X015230Y010607D01*
X015230Y011207D01*
X015228Y011224D01*
X015224Y011241D01*
X015217Y011257D01*
X015207Y011271D01*
X015194Y011284D01*
X015180Y011294D01*
X015164Y011301D01*
X015147Y011305D01*
X015130Y011307D01*
X014980Y011307D01*
X014930Y011257D01*
X013530Y011257D01*
X013480Y011307D01*
X013330Y011307D01*
X013313Y011305D01*
X013296Y011301D01*
X013280Y011294D01*
X013266Y011284D01*
X013253Y011271D01*
X013243Y011257D01*
X013236Y011241D01*
X013232Y011224D01*
X013230Y011207D01*
X013230Y010607D01*
X013232Y010590D01*
X013236Y010573D01*
X013243Y010557D01*
X013253Y010543D01*
X013266Y010530D01*
X013280Y010520D01*
X013296Y010513D01*
X013313Y010509D01*
X013330Y010507D01*
X003030Y018057D02*
X003030Y018407D01*
X003030Y019357D01*
X003030Y019757D01*
X002230Y020107D02*
X002130Y020107D01*
X002130Y020207D01*
X001530Y020207D01*
X001530Y020107D01*
X001430Y020107D01*
X000630Y019757D02*
X000630Y019407D01*
X000630Y018407D01*
X000630Y018057D01*
X001430Y017707D02*
X001530Y017707D01*
X001530Y017607D01*
X002130Y017607D01*
X002130Y017707D01*
X002230Y017707D01*
X001730Y018907D02*
X001732Y018927D01*
X001738Y018945D01*
X001747Y018963D01*
X001759Y018978D01*
X001774Y018990D01*
X001792Y018999D01*
X001810Y019005D01*
X001830Y019007D01*
X001850Y019005D01*
X001868Y018999D01*
X001886Y018990D01*
X001901Y018978D01*
X001913Y018963D01*
X001922Y018945D01*
X001928Y018927D01*
X001930Y018907D01*
X001928Y018887D01*
X001922Y018869D01*
X001913Y018851D01*
X001901Y018836D01*
X001886Y018824D01*
X001868Y018815D01*
X001850Y018809D01*
X001830Y018807D01*
X001810Y018809D01*
X001792Y018815D01*
X001774Y018824D01*
X001759Y018836D01*
X001747Y018851D01*
X001738Y018869D01*
X001732Y018887D01*
X001730Y018907D01*
X001130Y018907D02*
X001132Y018959D01*
X001138Y019011D01*
X001148Y019063D01*
X001161Y019113D01*
X001178Y019163D01*
X001199Y019211D01*
X001224Y019257D01*
X001252Y019301D01*
X001283Y019343D01*
X001317Y019383D01*
X001354Y019420D01*
X001394Y019454D01*
X001436Y019485D01*
X001480Y019513D01*
X001526Y019538D01*
X001574Y019559D01*
X001624Y019576D01*
X001674Y019589D01*
X001726Y019599D01*
X001778Y019605D01*
X001830Y019607D01*
X001882Y019605D01*
X001934Y019599D01*
X001986Y019589D01*
X002036Y019576D01*
X002086Y019559D01*
X002134Y019538D01*
X002180Y019513D01*
X002224Y019485D01*
X002266Y019454D01*
X002306Y019420D01*
X002343Y019383D01*
X002377Y019343D01*
X002408Y019301D01*
X002436Y019257D01*
X002461Y019211D01*
X002482Y019163D01*
X002499Y019113D01*
X002512Y019063D01*
X002522Y019011D01*
X002528Y018959D01*
X002530Y018907D01*
X002528Y018855D01*
X002522Y018803D01*
X002512Y018751D01*
X002499Y018701D01*
X002482Y018651D01*
X002461Y018603D01*
X002436Y018557D01*
X002408Y018513D01*
X002377Y018471D01*
X002343Y018431D01*
X002306Y018394D01*
X002266Y018360D01*
X002224Y018329D01*
X002180Y018301D01*
X002134Y018276D01*
X002086Y018255D01*
X002036Y018238D01*
X001986Y018225D01*
X001934Y018215D01*
X001882Y018209D01*
X001830Y018207D01*
X001778Y018209D01*
X001726Y018215D01*
X001674Y018225D01*
X001624Y018238D01*
X001574Y018255D01*
X001526Y018276D01*
X001480Y018301D01*
X001436Y018329D01*
X001394Y018360D01*
X001354Y018394D01*
X001317Y018431D01*
X001283Y018471D01*
X001252Y018513D01*
X001224Y018557D01*
X001199Y018603D01*
X001178Y018651D01*
X001161Y018701D01*
X001148Y018751D01*
X001138Y018803D01*
X001132Y018855D01*
X001130Y018907D01*
D13*
X004830Y016357D02*
X005130Y016357D01*
X005430Y016357D01*
X005430Y016157D02*
X005130Y016157D01*
X004830Y016157D01*
X015330Y019107D02*
X015630Y019107D01*
X015930Y019107D01*
X015930Y019307D02*
X015630Y019307D01*
X015330Y019307D01*
X031630Y003207D02*
X031930Y003207D01*
X032230Y003207D01*
X032230Y003007D02*
X031930Y003007D01*
X031630Y003007D01*
X016930Y002907D02*
X016630Y002907D01*
X016330Y002907D01*
X016330Y002707D02*
X016630Y002707D01*
X016930Y002707D01*
X010630Y004007D02*
X010684Y003964D01*
X010736Y003918D01*
X010785Y003869D01*
X010832Y003817D01*
X010875Y003763D01*
X010916Y003707D01*
X010953Y003648D01*
X010987Y003588D01*
X011017Y003525D01*
X011044Y003462D01*
X011068Y003396D01*
X011088Y003330D01*
X011104Y003262D01*
X011116Y003194D01*
X011124Y003125D01*
X011129Y003056D01*
X011130Y002986D01*
X011127Y002917D01*
X011120Y002848D01*
X011109Y002780D01*
X011095Y002712D01*
X011076Y002645D01*
X011054Y002579D01*
X011029Y002514D01*
X011000Y002451D01*
X010967Y002390D01*
X010931Y002331D01*
X010892Y002274D01*
X010850Y002218D01*
X010805Y002166D01*
X010757Y002116D01*
X010706Y002069D01*
X010652Y002024D01*
X010597Y001983D01*
X010539Y001945D01*
X010479Y001910D01*
X010417Y001878D01*
X010354Y001850D01*
X010289Y001826D01*
X010223Y001805D01*
X010155Y001788D01*
X010087Y001774D01*
X010018Y001765D01*
X009949Y001759D01*
X009880Y001757D01*
X009811Y001759D01*
X009742Y001765D01*
X009673Y001774D01*
X009605Y001788D01*
X009537Y001805D01*
X009471Y001826D01*
X009406Y001850D01*
X009343Y001878D01*
X009281Y001910D01*
X009221Y001945D01*
X009163Y001983D01*
X009108Y002024D01*
X009054Y002069D01*
X009003Y002116D01*
X008955Y002166D01*
X008910Y002218D01*
X008868Y002274D01*
X008829Y002331D01*
X008793Y002390D01*
X008760Y002451D01*
X008731Y002514D01*
X008706Y002579D01*
X008684Y002645D01*
X008665Y002712D01*
X008651Y002780D01*
X008640Y002848D01*
X008633Y002917D01*
X008630Y002986D01*
X008631Y003056D01*
X008636Y003125D01*
X008644Y003194D01*
X008656Y003262D01*
X008672Y003330D01*
X008692Y003396D01*
X008716Y003462D01*
X008743Y003525D01*
X008773Y003588D01*
X008807Y003648D01*
X008844Y003707D01*
X008885Y003763D01*
X008928Y003817D01*
X008975Y003869D01*
X009024Y003918D01*
X009076Y003964D01*
X009130Y004007D01*
D14*
X008155Y004486D02*
X008155Y004636D01*
X008080Y004711D01*
X008080Y004872D02*
X008005Y004872D01*
X007930Y004947D01*
X007930Y005097D01*
X008005Y005172D01*
X008080Y005172D01*
X008155Y005097D01*
X008155Y004947D01*
X008080Y004872D01*
X007930Y004947D02*
X007855Y004872D01*
X007780Y004872D01*
X007705Y004947D01*
X007705Y005097D01*
X007780Y005172D01*
X007855Y005172D01*
X007930Y005097D01*
X008255Y005111D02*
X008255Y005336D01*
X008330Y005411D01*
X008480Y005411D01*
X008555Y005336D01*
X008555Y005111D01*
X008705Y005111D02*
X008255Y005111D01*
X008555Y005261D02*
X008705Y005411D01*
X008630Y005572D02*
X008480Y005572D01*
X008480Y005797D01*
X008555Y005872D01*
X008630Y005872D01*
X008705Y005797D01*
X008705Y005647D01*
X008630Y005572D01*
X008480Y005572D02*
X008330Y005722D01*
X008255Y005872D01*
X007780Y004711D02*
X007705Y004636D01*
X007705Y004486D01*
X007780Y004411D01*
X008080Y004411D01*
X008155Y004486D01*
X011195Y003213D02*
X011645Y003213D01*
X011645Y003063D02*
X011645Y003363D01*
X011345Y003063D02*
X011195Y003213D01*
X011270Y002903D02*
X011195Y002828D01*
X011195Y002603D01*
X011645Y002603D01*
X011645Y002828D01*
X011570Y002903D01*
X011270Y002903D01*
X011195Y002443D02*
X011195Y002142D01*
X011645Y002142D01*
X011645Y002443D01*
X011420Y002292D02*
X011420Y002142D01*
X011645Y001982D02*
X011645Y001682D01*
X011195Y001682D01*
X013604Y001587D02*
X013679Y001512D01*
X013754Y001512D01*
X013829Y001587D01*
X013829Y001962D01*
X013754Y001962D02*
X013904Y001962D01*
X014064Y001962D02*
X014289Y001962D01*
X014364Y001887D01*
X014364Y001737D01*
X014289Y001662D01*
X014064Y001662D01*
X014064Y001512D02*
X014064Y001962D01*
X014525Y001962D02*
X014825Y001962D01*
X014825Y001887D01*
X014525Y001587D01*
X014525Y001512D01*
X015405Y002007D02*
X015480Y001932D01*
X015780Y001932D01*
X015855Y002007D01*
X015855Y002157D01*
X015780Y002232D01*
X015780Y002392D02*
X015855Y002467D01*
X015855Y002617D01*
X015780Y002693D01*
X015480Y002693D01*
X015405Y002617D01*
X015405Y002467D01*
X015480Y002392D01*
X015555Y002392D01*
X015630Y002467D01*
X015630Y002693D01*
X015480Y002232D02*
X015405Y002157D01*
X015405Y002007D01*
X017500Y001233D02*
X017500Y009107D01*
X031280Y009107D01*
X031280Y001233D01*
X017500Y001233D01*
X017555Y006001D02*
X017555Y006226D01*
X017480Y006301D01*
X017330Y006301D01*
X017255Y006226D01*
X017255Y006001D01*
X017705Y006001D01*
X017555Y006151D02*
X017705Y006301D01*
X017705Y006461D02*
X017705Y006761D01*
X017705Y006611D02*
X017255Y006611D01*
X017405Y006461D01*
X017480Y006922D02*
X017255Y006922D01*
X017255Y007222D01*
X017405Y007147D02*
X017480Y007222D01*
X017630Y007222D01*
X017705Y007147D01*
X017705Y006997D01*
X017630Y006922D01*
X017480Y006922D02*
X017405Y007072D01*
X017405Y007147D01*
X016575Y009164D02*
X016575Y022550D01*
X034685Y022550D01*
X034685Y009164D01*
X016575Y009164D01*
X012596Y006252D02*
X012296Y006252D01*
X012446Y006252D02*
X012446Y006702D01*
X012296Y006552D01*
X012136Y006477D02*
X012061Y006402D01*
X011835Y006402D01*
X011835Y006252D02*
X011835Y006702D01*
X012061Y006702D01*
X012136Y006627D01*
X012136Y006477D01*
X011675Y006702D02*
X011525Y006702D01*
X011600Y006702D02*
X011600Y006327D01*
X011525Y006252D01*
X011450Y006252D01*
X011375Y006327D01*
X011305Y007932D02*
X011305Y008082D01*
X011305Y008007D02*
X011755Y008007D01*
X011755Y007932D02*
X011755Y008082D01*
X011680Y008239D02*
X011755Y008314D01*
X011755Y008464D01*
X011680Y008539D01*
X011755Y008699D02*
X011455Y008999D01*
X011380Y008999D01*
X011305Y008924D01*
X011305Y008774D01*
X011380Y008699D01*
X011380Y008539D02*
X011305Y008464D01*
X011305Y008314D01*
X011380Y008239D01*
X011680Y008239D01*
X012055Y008126D02*
X012055Y007901D01*
X012505Y007901D01*
X012355Y007901D02*
X012355Y008126D01*
X012280Y008201D01*
X012130Y008201D01*
X012055Y008126D01*
X012205Y008361D02*
X012055Y008511D01*
X012505Y008511D01*
X012505Y008361D02*
X012505Y008661D01*
X012430Y008822D02*
X012505Y008897D01*
X012505Y009047D01*
X012430Y009122D01*
X012355Y009122D01*
X012280Y009047D01*
X012280Y008822D01*
X012430Y008822D01*
X012280Y008822D02*
X012130Y008972D01*
X012055Y009122D01*
X011755Y008999D02*
X011755Y008699D01*
X012355Y008051D02*
X012505Y008201D01*
X010801Y011682D02*
X010801Y012132D01*
X010576Y011907D01*
X010876Y011907D01*
X010416Y011907D02*
X010416Y012057D01*
X010341Y012132D01*
X010115Y012132D01*
X010115Y011682D01*
X010115Y011832D02*
X010341Y011832D01*
X010416Y011907D01*
X009955Y012132D02*
X009805Y012132D01*
X009880Y012132D02*
X009880Y011757D01*
X009805Y011682D01*
X009730Y011682D01*
X009655Y011757D01*
X007555Y012136D02*
X007555Y012286D01*
X007480Y012361D01*
X007330Y012522D02*
X007330Y012822D01*
X007555Y012747D02*
X007105Y012747D01*
X007330Y012522D01*
X007180Y012361D02*
X007105Y012286D01*
X007105Y012136D01*
X007180Y012061D01*
X007480Y012061D01*
X007555Y012136D01*
X006355Y011567D02*
X006355Y011417D01*
X006280Y011342D01*
X006280Y011182D02*
X006355Y011107D01*
X006355Y010957D01*
X006280Y010882D01*
X005980Y010882D01*
X005905Y010957D01*
X005905Y011107D01*
X005980Y011182D01*
X005980Y011342D02*
X005905Y011417D01*
X005905Y011567D01*
X005980Y011643D01*
X006055Y011643D01*
X006130Y011567D01*
X006205Y011643D01*
X006280Y011643D01*
X006355Y011567D01*
X006130Y011567D02*
X006130Y011492D01*
X004105Y010222D02*
X004105Y009922D01*
X004105Y010072D02*
X003655Y010072D01*
X003805Y009922D01*
X003955Y009761D02*
X003655Y009761D01*
X003955Y009761D02*
X004105Y009611D01*
X003955Y009461D01*
X003655Y009461D01*
X003730Y009301D02*
X003655Y009226D01*
X003655Y009076D01*
X003730Y009001D01*
X003805Y009001D01*
X003880Y009076D01*
X003880Y009226D01*
X003955Y009301D01*
X004030Y009301D01*
X004105Y009226D01*
X004105Y009076D01*
X004030Y009001D01*
X003630Y011011D02*
X003705Y011086D01*
X003705Y011236D01*
X003630Y011311D01*
X003555Y011311D01*
X003480Y011236D01*
X003480Y011086D01*
X003405Y011011D01*
X003330Y011011D01*
X003255Y011086D01*
X003255Y011236D01*
X003330Y011311D01*
X003405Y011472D02*
X003255Y011622D01*
X003705Y011622D01*
X003705Y011472D02*
X003705Y011772D01*
X001305Y009922D02*
X001305Y009622D01*
X001305Y009772D02*
X000855Y009772D01*
X001005Y009622D01*
X003730Y005922D02*
X003655Y005847D01*
X003655Y005697D01*
X003730Y005622D01*
X004030Y005622D01*
X003730Y005922D01*
X004030Y005922D01*
X004105Y005847D01*
X004105Y005697D01*
X004030Y005622D01*
X003980Y005572D02*
X003980Y005272D01*
X003755Y005497D01*
X004205Y005497D01*
X004105Y005461D02*
X004105Y005161D01*
X004205Y005111D02*
X004055Y004961D01*
X004055Y005036D02*
X004055Y004811D01*
X004205Y004811D02*
X003755Y004811D01*
X003755Y005036D01*
X003830Y005111D01*
X003980Y005111D01*
X004055Y005036D01*
X004105Y005311D02*
X003655Y005311D01*
X003805Y005161D01*
X003916Y003632D02*
X003916Y003182D01*
X004066Y003182D02*
X003765Y003182D01*
X003605Y003182D02*
X003455Y003332D01*
X003380Y003182D02*
X003305Y003257D01*
X003305Y003557D01*
X003380Y003632D01*
X003530Y003632D01*
X003605Y003557D01*
X003605Y003257D01*
X003530Y003182D01*
X003380Y003182D01*
X003765Y003482D02*
X003916Y003632D01*
X003630Y014282D02*
X003705Y014357D01*
X003705Y014507D01*
X003630Y014582D01*
X003555Y014582D01*
X003480Y014507D01*
X003480Y014357D01*
X003405Y014282D01*
X003330Y014282D01*
X003255Y014357D01*
X003255Y014507D01*
X003330Y014582D01*
X003330Y014742D02*
X003255Y014817D01*
X003255Y014967D01*
X003330Y015043D01*
X003405Y015043D01*
X003705Y014742D01*
X003705Y015043D01*
X005605Y015117D02*
X005605Y014967D01*
X005680Y014892D01*
X005680Y014732D02*
X005605Y014657D01*
X005605Y014507D01*
X005680Y014432D01*
X005980Y014432D01*
X006055Y014507D01*
X006055Y014657D01*
X005980Y014732D01*
X006055Y014892D02*
X005755Y015193D01*
X005680Y015193D01*
X005605Y015117D01*
X006055Y015193D02*
X006055Y014892D01*
X005480Y017261D02*
X005180Y017261D01*
X005105Y017336D01*
X005105Y017486D01*
X005180Y017561D01*
X005105Y017722D02*
X005330Y017722D01*
X005255Y017872D01*
X005255Y017947D01*
X005330Y018022D01*
X005480Y018022D01*
X005555Y017947D01*
X005555Y017797D01*
X005480Y017722D01*
X005480Y017561D02*
X005555Y017486D01*
X005555Y017336D01*
X005480Y017261D01*
X005105Y017722D02*
X005105Y018022D01*
X003655Y017907D02*
X003655Y017757D01*
X003580Y017682D01*
X003430Y017757D02*
X003430Y017907D01*
X003505Y017982D01*
X003580Y017982D01*
X003655Y017907D01*
X003580Y018142D02*
X003655Y018217D01*
X003655Y018367D01*
X003580Y018443D01*
X003505Y018443D01*
X003430Y018367D01*
X003430Y018292D01*
X003430Y018367D02*
X003355Y018443D01*
X003280Y018443D01*
X003205Y018367D01*
X003205Y018217D01*
X003280Y018142D01*
X003280Y017982D02*
X003205Y017907D01*
X003205Y017757D01*
X003280Y017682D01*
X003355Y017682D01*
X003430Y017757D01*
X012725Y019231D02*
X012725Y019381D01*
X012725Y019306D02*
X013100Y019306D01*
X013175Y019231D01*
X013175Y019156D01*
X013100Y019081D01*
X013175Y019541D02*
X012725Y019541D01*
X012725Y019766D01*
X012800Y019841D01*
X012950Y019841D01*
X013025Y019766D01*
X013025Y019541D01*
X013175Y020002D02*
X012875Y020302D01*
X012800Y020302D01*
X012725Y020227D01*
X012725Y020077D01*
X012800Y020002D01*
X013175Y020002D02*
X013175Y020302D01*
X014725Y020302D02*
X014725Y020002D01*
X014950Y020002D01*
X014875Y020152D01*
X014875Y020227D01*
X014950Y020302D01*
X015100Y020302D01*
X015175Y020227D01*
X015175Y020077D01*
X015100Y020002D01*
X014950Y019841D02*
X015025Y019766D01*
X015025Y019541D01*
X015175Y019541D02*
X014725Y019541D01*
X014725Y019766D01*
X014800Y019841D01*
X014950Y019841D01*
X014725Y019381D02*
X014725Y019231D01*
X014725Y019306D02*
X015100Y019306D01*
X015175Y019231D01*
X015175Y019156D01*
X015100Y019081D01*
X016405Y019286D02*
X016480Y019211D01*
X016780Y019211D01*
X016855Y019286D01*
X016855Y019436D01*
X016780Y019511D01*
X016855Y019672D02*
X016855Y019972D01*
X016855Y019822D02*
X016405Y019822D01*
X016555Y019672D01*
X016480Y019511D02*
X016405Y019436D01*
X016405Y019286D01*
X020551Y017904D02*
X020551Y013810D01*
X031855Y007522D02*
X032005Y007372D01*
X031855Y007522D02*
X032305Y007522D01*
X032305Y007372D02*
X032305Y007672D01*
X034655Y007747D02*
X034730Y007672D01*
X034655Y007747D02*
X034655Y007897D01*
X034730Y007972D01*
X034805Y007972D01*
X035105Y007672D01*
X035105Y007972D01*
X034955Y007511D02*
X034655Y007511D01*
X034955Y007511D02*
X035105Y007361D01*
X034955Y007211D01*
X034655Y007211D01*
X034730Y007051D02*
X034655Y006976D01*
X034655Y006826D01*
X034730Y006751D01*
X034805Y006751D01*
X034880Y006826D01*
X034880Y006976D01*
X034955Y007051D01*
X035030Y007051D01*
X035105Y006976D01*
X035105Y006826D01*
X035030Y006751D01*
X035030Y004472D02*
X035105Y004397D01*
X035105Y004247D01*
X035030Y004172D01*
X034955Y004172D01*
X034880Y004247D01*
X034880Y004397D01*
X034955Y004472D01*
X035030Y004472D01*
X034880Y004397D02*
X034805Y004472D01*
X034730Y004472D01*
X034655Y004397D01*
X034655Y004247D01*
X034730Y004172D01*
X034805Y004172D01*
X034880Y004247D01*
X031155Y003378D02*
X031155Y003228D01*
X031080Y003153D01*
X030780Y003453D01*
X031080Y003453D01*
X031155Y003378D01*
X031080Y003153D02*
X030780Y003153D01*
X030705Y003228D01*
X030705Y003378D01*
X030780Y003453D01*
X031155Y002993D02*
X031155Y002692D01*
X031155Y002842D02*
X030705Y002842D01*
X030855Y002692D01*
X030780Y002532D02*
X030705Y002457D01*
X030705Y002307D01*
X030780Y002232D01*
X031080Y002232D01*
X031155Y002307D01*
X031155Y002457D01*
X031080Y002532D01*
D15*
X010630Y004007D02*
X009130Y004007D01*
D16*
X007630Y004507D02*
X007687Y004505D01*
X007743Y004499D01*
X007799Y004490D01*
X007855Y004477D01*
X007909Y004460D01*
X007962Y004440D01*
X008013Y004416D01*
X008063Y004388D01*
X008111Y004358D01*
X008157Y004324D01*
X008200Y004287D01*
X008241Y004248D01*
X008279Y004206D01*
X008314Y004161D01*
X008346Y004114D01*
X008375Y004065D01*
X008401Y004015D01*
X008423Y003962D01*
X008442Y003909D01*
X008457Y003854D01*
X008468Y003798D01*
X008476Y003742D01*
X008480Y003685D01*
X008480Y003629D01*
X008476Y003572D01*
X008468Y003516D01*
X008457Y003460D01*
X008442Y003405D01*
X008423Y003352D01*
X008401Y003299D01*
X008375Y003249D01*
X008346Y003200D01*
X008314Y003153D01*
X008279Y003108D01*
X008241Y003066D01*
X008200Y003027D01*
X008157Y002990D01*
X008111Y002956D01*
X008063Y002926D01*
X008013Y002898D01*
X007962Y002874D01*
X007909Y002854D01*
X007855Y002837D01*
X007799Y002824D01*
X007743Y002815D01*
X007687Y002809D01*
X007630Y002807D01*
X005230Y002807D01*
X005173Y002809D01*
X005117Y002815D01*
X005061Y002824D01*
X005005Y002837D01*
X004951Y002854D01*
X004898Y002874D01*
X004847Y002898D01*
X004797Y002926D01*
X004749Y002956D01*
X004703Y002990D01*
X004660Y003027D01*
X004619Y003066D01*
X004581Y003108D01*
X004546Y003153D01*
X004514Y003200D01*
X004485Y003249D01*
X004459Y003299D01*
X004437Y003352D01*
X004418Y003405D01*
X004403Y003460D01*
X004392Y003516D01*
X004384Y003572D01*
X004380Y003629D01*
X004380Y003685D01*
X004384Y003742D01*
X004392Y003798D01*
X004403Y003854D01*
X004418Y003909D01*
X004437Y003962D01*
X004459Y004015D01*
X004485Y004065D01*
X004514Y004114D01*
X004546Y004161D01*
X004581Y004206D01*
X004619Y004248D01*
X004660Y004287D01*
X004703Y004324D01*
X004749Y004358D01*
X004797Y004388D01*
X004847Y004416D01*
X004898Y004440D01*
X004951Y004460D01*
X005005Y004477D01*
X005061Y004490D01*
X005117Y004499D01*
X005173Y004505D01*
X005230Y004507D01*
X007630Y004507D01*
D17*
X007735Y002486D02*
X007673Y002425D01*
X007673Y002178D01*
X007735Y002116D01*
X007858Y002116D01*
X007920Y002178D01*
X008042Y002178D02*
X008042Y002116D01*
X008042Y002178D02*
X008289Y002425D01*
X008289Y002486D01*
X008042Y002486D01*
X007920Y002425D02*
X007858Y002486D01*
X007735Y002486D01*
X004695Y002490D02*
X004695Y002551D01*
X004634Y002613D01*
X004448Y002613D01*
X004448Y002490D01*
X004510Y002428D01*
X004634Y002428D01*
X004695Y002490D01*
X004572Y002736D02*
X004448Y002613D01*
X004327Y002736D02*
X004265Y002798D01*
X004142Y002798D01*
X004080Y002736D01*
X004080Y002490D01*
X004142Y002428D01*
X004265Y002428D01*
X004327Y002490D01*
X004572Y002736D02*
X004695Y002798D01*
X004575Y006982D02*
X004575Y007079D01*
X004575Y007030D02*
X004865Y007030D01*
X004865Y006982D02*
X004865Y007079D01*
X004817Y007178D02*
X004865Y007227D01*
X004865Y007323D01*
X004817Y007372D01*
X004817Y007473D02*
X004865Y007521D01*
X004865Y007618D01*
X004817Y007666D01*
X004768Y007666D01*
X004720Y007618D01*
X004720Y007570D01*
X004720Y007618D02*
X004672Y007666D01*
X004623Y007666D01*
X004575Y007618D01*
X004575Y007521D01*
X004623Y007473D01*
X004623Y007372D02*
X004575Y007323D01*
X004575Y007227D01*
X004623Y007178D01*
X004817Y007178D01*
D18*
X011105Y012007D03*
X013255Y012007D03*
X013155Y010907D03*
X015305Y010907D03*
D19*
X009580Y012282D03*
X009580Y014432D03*
D20*
X003030Y015057D02*
X002930Y015057D01*
X002930Y016007D01*
X003030Y016007D01*
X000730Y016057D02*
X000730Y015057D01*
X000630Y015057D01*
X000630Y016057D02*
X000730Y016057D01*
X000730Y018407D02*
X000730Y019407D01*
X000630Y019407D01*
X000630Y018407D02*
X000730Y018407D01*
X002930Y018407D02*
X003030Y018407D01*
X002930Y018407D02*
X002930Y019357D01*
X003030Y019357D01*
X002930Y012707D02*
X003030Y012707D01*
X002930Y012707D02*
X002930Y011757D01*
X003030Y011757D01*
X000730Y011757D02*
X000730Y012757D01*
X000630Y012757D01*
X000630Y011757D02*
X000730Y011757D01*
X011930Y007977D02*
X015930Y007977D01*
D21*
X016630Y007577D03*
X016630Y004737D03*
X011430Y006637D03*
X011430Y009477D03*
M02*
