G75*
%MOIN*%
%OFA0B0*%
%FSLAX24Y24*%
%IPPOS*%
%LPD*%
%AMOC8*
5,1,8,0,0,1.08239X$1,22.5*
%
%ADD10C,0.0000*%
%ADD11C,0.0520*%
%ADD12C,0.0660*%
%ADD13C,0.0600*%
%ADD14C,0.0630*%
%ADD15C,0.0554*%
%ADD16R,0.0425X0.0413*%
%ADD17C,0.0160*%
%ADD18C,0.0317*%
%ADD19C,0.0240*%
%ADD20C,0.0100*%
%ADD21C,0.0120*%
D10*
X000280Y001107D02*
X035713Y001107D01*
X035713Y001157D02*
X035713Y020792D01*
X000280Y020792D01*
X000280Y001107D01*
X018858Y012845D02*
X018860Y012866D01*
X018866Y012886D01*
X018875Y012906D01*
X018887Y012923D01*
X018902Y012937D01*
X018920Y012949D01*
X018940Y012957D01*
X018960Y012962D01*
X018981Y012963D01*
X019002Y012960D01*
X019022Y012954D01*
X019041Y012943D01*
X019058Y012930D01*
X019071Y012914D01*
X019082Y012896D01*
X019090Y012876D01*
X019094Y012856D01*
X019094Y012834D01*
X019090Y012814D01*
X019082Y012794D01*
X019071Y012776D01*
X019058Y012760D01*
X019041Y012747D01*
X019022Y012736D01*
X019002Y012730D01*
X018981Y012727D01*
X018960Y012728D01*
X018940Y012733D01*
X018920Y012741D01*
X018902Y012753D01*
X018887Y012767D01*
X018875Y012784D01*
X018866Y012804D01*
X018860Y012824D01*
X018858Y012845D01*
X018858Y020896D02*
X018860Y020917D01*
X018866Y020937D01*
X018875Y020957D01*
X018887Y020974D01*
X018902Y020988D01*
X018920Y021000D01*
X018940Y021008D01*
X018960Y021013D01*
X018981Y021014D01*
X019002Y021011D01*
X019022Y021005D01*
X019041Y020994D01*
X019058Y020981D01*
X019071Y020965D01*
X019082Y020947D01*
X019090Y020927D01*
X019094Y020907D01*
X019094Y020885D01*
X019090Y020865D01*
X019082Y020845D01*
X019071Y020827D01*
X019058Y020811D01*
X019041Y020798D01*
X019022Y020787D01*
X019002Y020781D01*
X018981Y020778D01*
X018960Y020779D01*
X018940Y020784D01*
X018920Y020792D01*
X018902Y020804D01*
X018887Y020818D01*
X018875Y020835D01*
X018866Y020855D01*
X018860Y020875D01*
X018858Y020896D01*
D11*
X015630Y019707D03*
X015630Y018707D03*
X009580Y014857D03*
X010680Y012007D03*
X009580Y011857D03*
X011430Y010057D03*
X012730Y010907D03*
X013680Y012007D03*
X015730Y010907D03*
X016630Y008157D03*
X011430Y006057D03*
X010280Y005057D03*
X009880Y003507D03*
X009880Y002507D03*
X007380Y003657D03*
X005480Y003657D03*
X010280Y008057D03*
X016630Y004157D03*
X016630Y003307D03*
X016630Y002307D03*
X031930Y002607D03*
X031930Y003607D03*
X005130Y015757D03*
X005130Y016757D03*
D12*
X006330Y016707D03*
X007330Y016707D03*
X008330Y016707D03*
X009330Y016707D03*
X010330Y016707D03*
X010330Y015707D03*
X009330Y015707D03*
X008330Y015707D03*
X007330Y015707D03*
X006330Y015707D03*
D13*
X002720Y016837D03*
X002720Y017627D03*
X000940Y017627D03*
X000940Y016837D03*
X000940Y014277D03*
X000940Y013537D03*
X002720Y013537D03*
X002720Y014277D03*
X002720Y010977D03*
X002980Y009857D03*
X001980Y009857D03*
X001980Y008857D03*
X002980Y008857D03*
X002980Y007857D03*
X001980Y007857D03*
X001980Y006857D03*
X002980Y006857D03*
X002980Y005857D03*
X001980Y005857D03*
X000940Y010977D03*
X009580Y011007D03*
X010580Y011007D03*
X010580Y010007D03*
X009580Y010007D03*
X009580Y009007D03*
X010580Y009007D03*
X013180Y006457D03*
X014180Y006457D03*
X015180Y006457D03*
X014430Y002707D03*
X013430Y002707D03*
X013980Y012907D03*
X013980Y013907D03*
X013980Y014907D03*
X013980Y015907D03*
X013980Y016907D03*
X013980Y017907D03*
X013980Y018907D03*
X013980Y019907D03*
X011980Y019907D03*
X011980Y018907D03*
X011980Y017907D03*
X011980Y016907D03*
X011980Y015907D03*
X011980Y014907D03*
X011980Y013907D03*
X011980Y012907D03*
X002720Y020187D03*
X000940Y020187D03*
X032980Y007607D03*
X033980Y007607D03*
X033980Y006607D03*
X032980Y006607D03*
X032980Y005607D03*
X033980Y005607D03*
X033980Y004607D03*
X032980Y004607D03*
D14*
X005530Y012757D03*
X005530Y013757D03*
D15*
X018280Y007607D03*
X018280Y006607D03*
X018280Y005607D03*
X018280Y004607D03*
X018280Y003607D03*
X018280Y002607D03*
X030280Y002607D03*
X030280Y003607D03*
X030280Y004607D03*
X030280Y005607D03*
X030280Y006607D03*
X030280Y007607D03*
D16*
X006580Y005151D03*
X006580Y004462D03*
D17*
X006603Y004439D02*
X006603Y004486D01*
X006973Y004486D01*
X006973Y004693D01*
X006960Y004739D01*
X006937Y004780D01*
X006903Y004813D01*
X006875Y004829D01*
X006933Y004887D01*
X006933Y005416D01*
X006851Y005498D01*
X006841Y005498D01*
X006860Y005552D01*
X006878Y005598D01*
X006878Y005608D01*
X006892Y005648D01*
X006892Y005648D01*
X006892Y005648D01*
X006878Y005675D01*
X006878Y005716D01*
X006833Y005826D01*
X006749Y005910D01*
X006639Y005955D01*
X006521Y005955D01*
X006411Y005910D01*
X006327Y005826D01*
X006282Y005716D01*
X006282Y005675D01*
X006268Y005648D01*
X006282Y005608D01*
X006282Y005598D01*
X006300Y005552D01*
X006303Y005545D01*
X006178Y005545D01*
X006178Y005566D02*
X006178Y005448D01*
X006133Y005338D01*
X006057Y005261D01*
X006051Y005251D01*
X006051Y005250D01*
X006051Y005250D01*
X005985Y005228D01*
X005939Y005208D01*
X005930Y005208D01*
X005809Y005167D01*
X005459Y004817D01*
X001351Y004817D01*
X000851Y005317D01*
X000740Y005428D01*
X000740Y010086D01*
X001540Y010886D01*
X001540Y016736D01*
X001651Y016847D01*
X001801Y016997D01*
X002299Y017494D01*
X002280Y017539D01*
X002280Y017714D01*
X002347Y017876D01*
X002471Y018000D01*
X002632Y018067D01*
X002808Y018067D01*
X002969Y018000D01*
X003093Y017876D01*
X003160Y017714D01*
X003160Y017539D01*
X003093Y017378D01*
X002969Y017254D01*
X002916Y017232D01*
X002969Y017210D01*
X003093Y017086D01*
X003160Y016924D01*
X003160Y016749D01*
X003093Y016588D01*
X002969Y016464D01*
X002808Y016397D01*
X002632Y016397D01*
X002471Y016464D01*
X002347Y016588D01*
X002280Y016749D01*
X002280Y016924D01*
X002290Y016948D01*
X002070Y016728D01*
X001920Y016578D01*
X001920Y014316D01*
X002071Y014467D01*
X002322Y014467D01*
X002347Y014526D01*
X002471Y014650D01*
X002632Y014717D01*
X002808Y014717D01*
X002969Y014650D01*
X003093Y014526D01*
X003160Y014364D01*
X003160Y014189D01*
X003093Y014028D01*
X002972Y013907D01*
X003093Y013786D01*
X003160Y013624D01*
X003160Y013449D01*
X003093Y013288D01*
X002969Y013164D01*
X002808Y013097D01*
X002632Y013097D01*
X002471Y013164D01*
X002347Y013288D01*
X002280Y013449D01*
X002280Y013624D01*
X002347Y013786D01*
X002468Y013907D01*
X002347Y014028D01*
X002322Y014087D01*
X002229Y014087D01*
X002120Y013978D01*
X002120Y010916D01*
X002288Y011084D01*
X002347Y011226D01*
X002471Y011350D01*
X002632Y011417D01*
X002808Y011417D01*
X002969Y011350D01*
X003093Y011226D01*
X003160Y011064D01*
X003160Y010889D01*
X003093Y010728D01*
X002969Y010604D01*
X002808Y010537D01*
X002632Y010537D01*
X002471Y010604D01*
X002408Y010666D01*
X002039Y010297D01*
X002068Y010297D01*
X002229Y010230D01*
X002353Y010106D01*
X002420Y009944D01*
X002420Y009769D01*
X002353Y009608D01*
X002229Y009484D01*
X002068Y009417D01*
X001892Y009417D01*
X001731Y009484D01*
X001607Y009608D01*
X001540Y009769D01*
X001540Y009798D01*
X001520Y009778D01*
X001520Y005736D01*
X001578Y005678D01*
X001540Y005769D01*
X001540Y005944D01*
X001607Y006106D01*
X001731Y006230D01*
X001892Y006297D01*
X002068Y006297D01*
X002229Y006230D01*
X002353Y006106D01*
X002420Y005944D01*
X002420Y005769D01*
X002353Y005608D01*
X002342Y005597D01*
X002576Y005597D01*
X002569Y005605D01*
X002535Y005673D01*
X002512Y005745D01*
X002500Y005819D01*
X002500Y005837D01*
X002960Y005837D01*
X002960Y005877D01*
X002960Y006337D01*
X002942Y006337D01*
X002868Y006325D01*
X002796Y006302D01*
X002728Y006267D01*
X002667Y006223D01*
X002614Y006170D01*
X002569Y006108D01*
X002535Y006041D01*
X002512Y005969D01*
X002500Y005895D01*
X002500Y005877D01*
X002960Y005877D01*
X003000Y005877D01*
X003000Y006337D01*
X003018Y006337D01*
X003092Y006325D01*
X003164Y006302D01*
X003232Y006267D01*
X003293Y006223D01*
X003346Y006170D01*
X003391Y006108D01*
X003425Y006041D01*
X003448Y005969D01*
X003460Y005895D01*
X003460Y005877D01*
X003000Y005877D01*
X003000Y005837D01*
X003460Y005837D01*
X003460Y005819D01*
X003448Y005745D01*
X003425Y005673D01*
X003391Y005605D01*
X003384Y005597D01*
X004790Y005597D01*
X004790Y006217D01*
X004734Y006331D01*
X004727Y006338D01*
X004708Y006384D01*
X004698Y006405D01*
X004677Y006446D01*
X004682Y006458D01*
X004682Y006566D01*
X004727Y006676D01*
X004811Y006760D01*
X004921Y006805D01*
X005039Y006805D01*
X005149Y006760D01*
X005233Y006676D01*
X005278Y006566D01*
X005278Y006458D01*
X005283Y006446D01*
X005283Y006446D01*
X005283Y006446D01*
X005253Y006387D01*
X005252Y006384D01*
X005233Y006338D01*
X005226Y006331D01*
X005170Y006217D01*
X005170Y006014D01*
X005271Y006055D01*
X005389Y006055D01*
X005499Y006010D01*
X005583Y005926D01*
X005628Y005816D01*
X005628Y005708D01*
X005633Y005696D01*
X005633Y005696D01*
X005633Y005696D01*
X005624Y005678D01*
X005635Y005683D01*
X005711Y005760D01*
X005821Y005805D01*
X005939Y005805D01*
X006049Y005760D01*
X006133Y005676D01*
X006178Y005566D01*
X006268Y005648D02*
X006268Y005648D01*
X006268Y005648D01*
X006282Y005703D02*
X006106Y005703D01*
X006303Y005545D02*
X006319Y005498D01*
X006309Y005498D01*
X006227Y005416D01*
X006227Y004887D01*
X006285Y004829D01*
X006257Y004813D01*
X006223Y004780D01*
X006200Y004739D01*
X006187Y004693D01*
X006187Y004486D01*
X006557Y004486D01*
X006557Y004439D01*
X006603Y004439D01*
X006603Y004076D01*
X006816Y004076D01*
X006862Y004088D01*
X006903Y004112D01*
X006937Y004145D01*
X006960Y004186D01*
X006973Y004232D01*
X006973Y004439D01*
X006603Y004439D01*
X006603Y004435D02*
X006557Y004435D01*
X006557Y004439D02*
X006557Y004076D01*
X006344Y004076D01*
X006298Y004088D01*
X006257Y004112D01*
X006223Y004145D01*
X006200Y004186D01*
X006187Y004232D01*
X006187Y004439D01*
X006557Y004439D01*
X006557Y004277D02*
X006603Y004277D01*
X006603Y004118D02*
X006557Y004118D01*
X006250Y004118D02*
X000460Y004118D01*
X000460Y003960D02*
X005217Y003960D01*
X005253Y003996D02*
X005141Y003883D01*
X005080Y003736D01*
X005080Y003577D01*
X005141Y003430D01*
X005253Y003318D01*
X005400Y003257D01*
X005560Y003257D01*
X005707Y003318D01*
X005819Y003430D01*
X005880Y003577D01*
X005880Y003736D01*
X005819Y003883D01*
X005707Y003996D01*
X005560Y004057D01*
X005400Y004057D01*
X005253Y003996D01*
X005107Y003801D02*
X000460Y003801D01*
X000460Y003643D02*
X005080Y003643D01*
X005118Y003484D02*
X000460Y003484D01*
X000460Y003326D02*
X005245Y003326D01*
X005715Y003326D02*
X007145Y003326D01*
X007153Y003318D02*
X007300Y003257D01*
X007460Y003257D01*
X007607Y003318D01*
X007719Y003430D01*
X007780Y003577D01*
X007780Y003736D01*
X007719Y003883D01*
X007607Y003996D01*
X007460Y004057D01*
X007300Y004057D01*
X007153Y003996D01*
X007041Y003883D01*
X006980Y003736D01*
X006980Y003577D01*
X007041Y003430D01*
X007153Y003318D01*
X007018Y003484D02*
X005842Y003484D01*
X005880Y003643D02*
X006980Y003643D01*
X007007Y003801D02*
X005853Y003801D01*
X005743Y003960D02*
X007117Y003960D01*
X006910Y004118D02*
X010339Y004118D01*
X010354Y004111D02*
X010361Y004104D01*
X010407Y004085D01*
X010428Y004075D01*
X010469Y004054D01*
X010481Y004058D01*
X010589Y004058D01*
X010699Y004104D01*
X010783Y004188D01*
X010828Y004298D01*
X010828Y004416D01*
X010783Y004526D01*
X010699Y004610D01*
X010589Y004655D01*
X010481Y004655D01*
X010469Y004659D01*
X010410Y004630D01*
X010407Y004629D01*
X010361Y004610D01*
X010354Y004603D01*
X010240Y004547D01*
X010209Y004547D01*
X009909Y004847D01*
X009870Y004886D01*
X009870Y005428D01*
X009909Y005467D01*
X010020Y005578D01*
X010020Y007681D01*
X010030Y007710D01*
X010040Y007731D01*
X010053Y007718D01*
X010200Y007657D01*
X010360Y007657D01*
X010507Y007718D01*
X010619Y007830D01*
X010680Y007977D01*
X010680Y008136D01*
X010619Y008283D01*
X010507Y008396D01*
X010360Y008457D01*
X010270Y008457D01*
X010270Y008639D01*
X010328Y008596D01*
X010396Y008562D01*
X010468Y008539D01*
X010542Y008527D01*
X010560Y008527D01*
X010560Y008987D01*
X010600Y008987D01*
X010600Y009027D01*
X010560Y009027D01*
X010560Y009487D01*
X010542Y009487D01*
X010468Y009475D01*
X010396Y009452D01*
X010328Y009417D01*
X010270Y009375D01*
X010270Y009586D01*
X010159Y009697D01*
X010059Y009797D01*
X010059Y009797D01*
X009995Y009860D01*
X010020Y009919D01*
X010020Y010094D01*
X009953Y010256D01*
X009892Y010317D01*
X010001Y010317D01*
X010151Y010167D01*
X010151Y010167D01*
X010165Y010154D01*
X010140Y010094D01*
X010140Y009919D01*
X010207Y009758D01*
X010331Y009634D01*
X010492Y009567D01*
X010668Y009567D01*
X010829Y009634D01*
X010953Y009758D01*
X011020Y009919D01*
X011020Y010094D01*
X010953Y010256D01*
X010829Y010380D01*
X010668Y010447D01*
X010492Y010447D01*
X010433Y010422D01*
X010420Y010436D01*
X010159Y010697D01*
X009892Y010697D01*
X009953Y010758D01*
X010020Y010919D01*
X010020Y011094D01*
X009953Y011256D01*
X009829Y011380D01*
X009668Y011447D01*
X009492Y011447D01*
X009331Y011380D01*
X009207Y011256D01*
X009140Y011094D01*
X009140Y010919D01*
X009207Y010758D01*
X009268Y010697D01*
X009001Y010697D01*
X008951Y010646D01*
X008830Y010605D01*
X008821Y010605D01*
X008775Y010586D01*
X008709Y010564D01*
X008703Y010552D01*
X008627Y010476D01*
X008582Y010366D01*
X008582Y010248D01*
X008627Y010138D01*
X008711Y010054D01*
X008821Y010008D01*
X008939Y010008D01*
X009049Y010054D01*
X009125Y010130D01*
X009137Y010136D01*
X009159Y010201D01*
X009178Y010248D01*
X009178Y010257D01*
X009199Y010317D01*
X009268Y010317D01*
X009207Y010256D01*
X009140Y010094D01*
X009140Y009919D01*
X009207Y009758D01*
X009331Y009634D01*
X009492Y009567D01*
X009668Y009567D01*
X009727Y009591D01*
X009790Y009528D01*
X009890Y009428D01*
X009890Y009319D01*
X009829Y009380D01*
X009668Y009447D01*
X009492Y009447D01*
X009331Y009380D01*
X009207Y009256D01*
X009140Y009094D01*
X009140Y008919D01*
X009165Y008860D01*
X009051Y008747D01*
X008940Y008636D01*
X008940Y007986D01*
X008901Y007947D01*
X007742Y007947D01*
X007783Y007988D01*
X007828Y008098D01*
X007828Y008206D01*
X007833Y008218D01*
X007810Y008263D01*
X007802Y008280D01*
X007783Y008326D01*
X007776Y008333D01*
X007720Y008447D01*
X007720Y008595D01*
X007761Y008554D01*
X007871Y008508D01*
X007989Y008508D01*
X008099Y008554D01*
X008183Y008638D01*
X008228Y008748D01*
X008228Y008789D01*
X008242Y008816D01*
X008228Y008856D01*
X008228Y008866D01*
X008210Y008912D01*
X008206Y008921D01*
X008168Y009034D01*
X008300Y009166D01*
X008550Y009416D01*
X008550Y012016D01*
X008771Y012237D01*
X009452Y012237D01*
X009353Y012196D01*
X009241Y012083D01*
X009180Y011936D01*
X009180Y011777D01*
X009241Y011630D01*
X009353Y011518D01*
X009500Y011457D01*
X009660Y011457D01*
X009807Y011518D01*
X009919Y011630D01*
X009980Y011777D01*
X009980Y011936D01*
X009919Y012083D01*
X009807Y012196D01*
X009708Y012237D01*
X010139Y012237D01*
X010160Y012216D01*
X010283Y012093D01*
X010280Y012086D01*
X010280Y011927D01*
X010341Y011780D01*
X010453Y011668D01*
X010600Y011607D01*
X010760Y011607D01*
X010907Y011668D01*
X011019Y011780D01*
X011080Y011927D01*
X011080Y012086D01*
X011019Y012233D01*
X010907Y012346D01*
X010760Y012407D01*
X010702Y012407D01*
X010783Y012488D01*
X010828Y012598D01*
X010828Y012716D01*
X010783Y012826D01*
X010699Y012910D01*
X010682Y012917D01*
X010990Y012917D01*
X010990Y012578D01*
X011440Y012128D01*
X011440Y011478D01*
X011640Y011278D01*
X011751Y011167D01*
X012424Y011167D01*
X012391Y011133D01*
X012330Y010986D01*
X012330Y010827D01*
X012391Y010680D01*
X012503Y010568D01*
X012650Y010507D01*
X012810Y010507D01*
X012957Y010568D01*
X013069Y010680D01*
X013130Y010827D01*
X013130Y010986D01*
X013069Y011133D01*
X013036Y011167D01*
X013207Y011167D01*
X013649Y010769D01*
X013851Y010567D01*
X014340Y010567D01*
X014454Y010511D01*
X014461Y010504D01*
X014507Y010485D01*
X014569Y010454D01*
X014581Y010458D01*
X014940Y010458D01*
X014940Y010436D02*
X014490Y009986D01*
X014490Y009086D01*
X014301Y008896D01*
X014180Y008855D01*
X014171Y008855D01*
X014125Y008836D01*
X014059Y008814D01*
X014053Y008802D01*
X013977Y008726D01*
X013932Y008616D01*
X013932Y008498D01*
X013977Y008388D01*
X014061Y008304D01*
X014171Y008258D01*
X014289Y008258D01*
X014399Y008304D01*
X014475Y008380D01*
X014487Y008386D01*
X014509Y008451D01*
X014528Y008498D01*
X014528Y008507D01*
X014570Y008628D01*
X014870Y008928D01*
X014870Y009828D01*
X015209Y010167D01*
X015320Y010278D01*
X015320Y011028D01*
X015367Y011075D01*
X015330Y010986D01*
X015330Y010827D01*
X015391Y010680D01*
X015503Y010568D01*
X015650Y010507D01*
X015810Y010507D01*
X015846Y010522D01*
X016640Y009728D01*
X016640Y008978D01*
X017882Y007736D01*
X017863Y007690D01*
X017863Y007524D01*
X017926Y007371D01*
X018044Y007253D01*
X018197Y007190D01*
X018363Y007190D01*
X018516Y007253D01*
X018634Y007371D01*
X018697Y007524D01*
X018697Y007690D01*
X018634Y007843D01*
X018516Y007961D01*
X018363Y008024D01*
X018197Y008024D01*
X018151Y008005D01*
X017020Y009136D01*
X017020Y009886D01*
X016909Y009997D01*
X016115Y010791D01*
X016130Y010827D01*
X016130Y010986D01*
X016069Y011133D01*
X015986Y011217D01*
X019401Y011217D01*
X020140Y010478D01*
X020251Y010367D01*
X031290Y010367D01*
X031404Y010311D01*
X031411Y010304D01*
X031457Y010285D01*
X031478Y010275D01*
X031519Y010254D01*
X031531Y010258D01*
X031639Y010258D01*
X031749Y010304D01*
X031833Y010388D01*
X031878Y010498D01*
X031878Y010616D01*
X031833Y010726D01*
X031749Y010810D01*
X031639Y010855D01*
X031531Y010855D01*
X031519Y010859D01*
X031519Y010859D01*
X031519Y010859D01*
X031484Y010842D01*
X031457Y010829D01*
X031411Y010810D01*
X031404Y010803D01*
X031290Y010747D01*
X020409Y010747D01*
X019559Y011597D01*
X015351Y011597D01*
X015240Y011486D01*
X014940Y011186D01*
X014940Y010436D01*
X014799Y010504D02*
X014883Y010588D01*
X014928Y010698D01*
X014928Y010816D01*
X014883Y010926D01*
X014799Y011010D01*
X014689Y011055D01*
X014581Y011055D01*
X014569Y011059D01*
X014510Y011030D01*
X014507Y011029D01*
X014461Y011010D01*
X014454Y011003D01*
X014340Y010947D01*
X014009Y010947D01*
X013966Y010990D01*
X013966Y010995D01*
X013911Y011045D01*
X013859Y011097D01*
X013853Y011097D01*
X013411Y011495D01*
X013359Y011547D01*
X013353Y011547D01*
X013349Y011551D01*
X013275Y011547D01*
X011909Y011547D01*
X011820Y011636D01*
X011820Y012286D01*
X011370Y012736D01*
X011370Y013136D01*
X011259Y013247D01*
X011209Y013297D01*
X010809Y013297D01*
X010709Y013397D01*
X010659Y013447D01*
X008070Y013447D01*
X007956Y013503D01*
X007949Y013510D01*
X007903Y013529D01*
X007886Y013537D01*
X007841Y013559D01*
X007829Y013555D01*
X007721Y013555D01*
X007611Y013510D01*
X007527Y013426D01*
X007482Y013316D01*
X007482Y013198D01*
X007527Y013088D01*
X007611Y013004D01*
X007721Y012958D01*
X007829Y012958D01*
X007841Y012954D01*
X007903Y012985D01*
X007949Y013004D01*
X007956Y013011D01*
X007982Y013024D01*
X008070Y013067D01*
X010501Y013067D01*
X010540Y013028D01*
X010630Y012939D01*
X010589Y012955D01*
X010549Y012955D01*
X010532Y012966D01*
X010492Y012955D01*
X010471Y012955D01*
X010435Y012941D01*
X010265Y012897D01*
X008501Y012897D01*
X008390Y012786D01*
X008340Y012736D01*
X008340Y012736D01*
X007890Y012286D01*
X007890Y009736D01*
X007451Y009297D01*
X007340Y009186D01*
X007340Y008447D01*
X007297Y008359D01*
X007297Y008359D01*
X007284Y008333D01*
X007277Y008326D01*
X007258Y008280D01*
X007227Y008218D01*
X007232Y008206D01*
X007232Y008098D01*
X007277Y007988D01*
X007318Y007947D01*
X006643Y007947D01*
X006632Y007969D01*
X006602Y008030D01*
X006583Y008076D01*
X006576Y008083D01*
X006563Y008110D01*
X006563Y008110D01*
X006542Y008117D01*
X006499Y008160D01*
X006389Y008205D01*
X006271Y008205D01*
X006161Y008160D01*
X006077Y008076D01*
X006032Y007966D01*
X006032Y007848D01*
X006073Y007747D01*
X005859Y007747D01*
X004820Y008786D01*
X004778Y008906D01*
X004778Y008916D01*
X004759Y008962D01*
X004749Y008993D01*
X004737Y009028D01*
X004725Y009033D01*
X004649Y009110D01*
X004539Y009155D01*
X004421Y009155D01*
X004311Y009110D01*
X004227Y009026D01*
X004182Y008916D01*
X004182Y008798D01*
X004227Y008688D01*
X004303Y008611D01*
X004309Y008600D01*
X004375Y008578D01*
X004421Y008558D01*
X004430Y008558D01*
X004458Y008549D01*
X004551Y008517D01*
X005590Y007478D01*
X005701Y007367D01*
X008751Y007367D01*
X008940Y007178D01*
X008972Y007085D01*
X008982Y007057D01*
X008982Y007048D01*
X009001Y007002D01*
X009023Y006936D01*
X009035Y006930D01*
X009111Y006854D01*
X009221Y006808D01*
X009339Y006808D01*
X009449Y006854D01*
X009533Y006938D01*
X009578Y007048D01*
X009578Y007166D01*
X009533Y007276D01*
X009457Y007352D01*
X009451Y007364D01*
X009416Y007376D01*
X009385Y007386D01*
X009339Y007405D01*
X009330Y007405D01*
X009209Y007446D01*
X009074Y007582D01*
X009170Y007678D01*
X009320Y007828D01*
X009320Y008478D01*
X009433Y008591D01*
X009492Y008567D01*
X009668Y008567D01*
X009829Y008634D01*
X009890Y008695D01*
X009890Y008178D01*
X009895Y008173D01*
X009892Y008167D01*
X009849Y008210D01*
X009739Y008255D01*
X009621Y008255D01*
X009511Y008210D01*
X009427Y008126D01*
X009382Y008016D01*
X009382Y007898D01*
X009427Y007788D01*
X009503Y007711D01*
X009509Y007700D01*
X009575Y007678D01*
X009621Y007658D01*
X009630Y007658D01*
X009640Y007655D01*
X009640Y005736D01*
X009490Y005586D01*
X009490Y005378D01*
X009490Y004886D01*
X009490Y004728D01*
X009640Y004578D01*
X009940Y004278D01*
X010051Y004167D01*
X010240Y004167D01*
X010354Y004111D01*
X010714Y004118D02*
X016230Y004118D01*
X016230Y004077D02*
X016291Y003930D01*
X016403Y003818D01*
X016550Y003757D01*
X016710Y003757D01*
X016857Y003818D01*
X016969Y003930D01*
X017030Y004077D01*
X017030Y004236D01*
X016969Y004383D01*
X016857Y004496D01*
X016710Y004557D01*
X016550Y004557D01*
X016403Y004496D01*
X016291Y004383D01*
X016230Y004236D01*
X016230Y004077D01*
X016279Y003960D02*
X007643Y003960D01*
X007753Y003801D02*
X009609Y003801D01*
X009653Y003846D02*
X009541Y003733D01*
X009480Y003586D01*
X009480Y003427D01*
X009541Y003280D01*
X009653Y003168D01*
X009800Y003107D01*
X009960Y003107D01*
X010107Y003168D01*
X010219Y003280D01*
X010280Y003427D01*
X010280Y003586D01*
X010219Y003733D01*
X010107Y003846D01*
X009960Y003907D01*
X009800Y003907D01*
X009653Y003846D01*
X009503Y003643D02*
X007780Y003643D01*
X007742Y003484D02*
X009480Y003484D01*
X009522Y003326D02*
X007615Y003326D01*
X006973Y004277D02*
X009941Y004277D01*
X009783Y004435D02*
X006973Y004435D01*
X006973Y004594D02*
X009624Y004594D01*
X009490Y004752D02*
X006952Y004752D01*
X006933Y004911D02*
X009490Y004911D01*
X009490Y005069D02*
X006933Y005069D01*
X006933Y005228D02*
X009490Y005228D01*
X009490Y005386D02*
X006933Y005386D01*
X006857Y005545D02*
X009490Y005545D01*
X009608Y005703D02*
X006878Y005703D01*
X006797Y005862D02*
X009640Y005862D01*
X009640Y006020D02*
X005474Y006020D01*
X005610Y005862D02*
X006363Y005862D01*
X006506Y005632D02*
X006580Y005657D01*
X006654Y005632D01*
X006580Y005411D01*
X006506Y005632D01*
X006580Y005657D02*
X006580Y005151D01*
X006227Y005228D02*
X005986Y005228D01*
X006153Y005386D02*
X006227Y005386D01*
X006227Y005069D02*
X005711Y005069D01*
X005553Y004911D02*
X006227Y004911D01*
X006208Y004752D02*
X000460Y004752D01*
X000460Y004594D02*
X006187Y004594D01*
X006187Y004435D02*
X000460Y004435D01*
X000460Y004277D02*
X006187Y004277D01*
X005654Y005703D02*
X005630Y005703D01*
X005186Y006020D02*
X005170Y006020D01*
X005170Y006179D02*
X009640Y006179D01*
X009640Y006337D02*
X005233Y006337D01*
X005278Y006496D02*
X009640Y006496D01*
X009640Y006654D02*
X005242Y006654D01*
X004718Y006654D02*
X003416Y006654D01*
X003425Y006673D02*
X003448Y006745D01*
X003460Y006819D01*
X003460Y006837D01*
X003000Y006837D01*
X003000Y006877D01*
X002960Y006877D01*
X002960Y007337D01*
X002942Y007337D01*
X002868Y007325D01*
X002796Y007302D01*
X002728Y007267D01*
X002667Y007223D01*
X002614Y007170D01*
X002569Y007108D01*
X002535Y007041D01*
X002512Y006969D01*
X002500Y006895D01*
X002500Y006877D01*
X002960Y006877D01*
X002960Y006837D01*
X002500Y006837D01*
X002500Y006819D01*
X002512Y006745D01*
X002535Y006673D01*
X002569Y006605D01*
X002614Y006544D01*
X002667Y006491D01*
X002728Y006446D01*
X002796Y006412D01*
X002868Y006389D01*
X002942Y006377D01*
X002960Y006377D01*
X002960Y006837D01*
X003000Y006837D01*
X003000Y006377D01*
X003018Y006377D01*
X003092Y006389D01*
X003164Y006412D01*
X003232Y006446D01*
X003293Y006491D01*
X003346Y006544D01*
X003391Y006605D01*
X003425Y006673D01*
X003459Y006813D02*
X009210Y006813D01*
X009350Y006813D02*
X009640Y006813D01*
X009640Y006971D02*
X009547Y006971D01*
X009578Y007130D02*
X009640Y007130D01*
X009640Y007288D02*
X009521Y007288D01*
X009451Y007364D02*
X009451Y007364D01*
X009451Y007364D01*
X009640Y007447D02*
X009209Y007447D01*
X009097Y007605D02*
X009640Y007605D01*
X009451Y007764D02*
X009256Y007764D01*
X009320Y007922D02*
X009382Y007922D01*
X009408Y008081D02*
X009320Y008081D01*
X009320Y008239D02*
X009582Y008239D01*
X009778Y008239D02*
X009890Y008239D01*
X009890Y008398D02*
X009320Y008398D01*
X009398Y008556D02*
X009890Y008556D01*
X010270Y008556D02*
X010413Y008556D01*
X010560Y008556D02*
X010600Y008556D01*
X010600Y008527D02*
X010618Y008527D01*
X010692Y008539D01*
X010764Y008562D01*
X010832Y008596D01*
X010893Y008641D01*
X010946Y008694D01*
X010991Y008755D01*
X011025Y008823D01*
X011048Y008895D01*
X011060Y008969D01*
X011060Y008987D01*
X010600Y008987D01*
X010600Y008527D01*
X010747Y008556D02*
X013932Y008556D01*
X013973Y008398D02*
X010502Y008398D01*
X010637Y008239D02*
X016231Y008239D01*
X016230Y008236D02*
X016230Y008077D01*
X016291Y007930D01*
X016403Y007818D01*
X016550Y007757D01*
X016710Y007757D01*
X016857Y007818D01*
X016969Y007930D01*
X017030Y008077D01*
X017030Y008236D01*
X016969Y008383D01*
X016857Y008496D01*
X016710Y008557D01*
X016550Y008557D01*
X016403Y008496D01*
X016291Y008383D01*
X016230Y008236D01*
X016230Y008081D02*
X010680Y008081D01*
X010657Y007922D02*
X016299Y007922D01*
X016534Y007764D02*
X010553Y007764D01*
X010020Y007605D02*
X017863Y007605D01*
X017854Y007764D02*
X016726Y007764D01*
X016961Y007922D02*
X017696Y007922D01*
X017537Y008081D02*
X017030Y008081D01*
X017029Y008239D02*
X017379Y008239D01*
X017220Y008398D02*
X016955Y008398D01*
X017062Y008556D02*
X016711Y008556D01*
X016549Y008556D02*
X014545Y008556D01*
X014491Y008398D02*
X016305Y008398D01*
X016745Y008873D02*
X014815Y008873D01*
X014870Y009032D02*
X016640Y009032D01*
X016640Y009190D02*
X014870Y009190D01*
X014870Y009349D02*
X016640Y009349D01*
X016640Y009507D02*
X014870Y009507D01*
X014870Y009666D02*
X016640Y009666D01*
X016544Y009824D02*
X014870Y009824D01*
X015025Y009983D02*
X016385Y009983D01*
X016227Y010141D02*
X015183Y010141D01*
X015320Y010300D02*
X016068Y010300D01*
X015910Y010458D02*
X015320Y010458D01*
X015320Y010617D02*
X015454Y010617D01*
X015352Y010775D02*
X015320Y010775D01*
X015320Y010934D02*
X015330Y010934D01*
X014940Y010934D02*
X014875Y010934D01*
X014928Y010775D02*
X014940Y010775D01*
X014940Y010617D02*
X014895Y010617D01*
X014799Y010504D02*
X014689Y010458D01*
X014581Y010458D01*
X014561Y010458D02*
X010397Y010458D01*
X010420Y010436D02*
X010420Y010436D01*
X010492Y010567D02*
X010331Y010634D01*
X010207Y010758D01*
X010140Y010919D01*
X010140Y011094D01*
X010207Y011256D01*
X010331Y011380D01*
X010492Y011447D01*
X010668Y011447D01*
X010829Y011380D01*
X010953Y011256D01*
X011020Y011094D01*
X011020Y010919D01*
X010953Y010758D01*
X010829Y010634D01*
X010668Y010567D01*
X010492Y010567D01*
X010372Y010617D02*
X010239Y010617D01*
X010200Y010775D02*
X009960Y010775D01*
X010020Y010934D02*
X010140Y010934D01*
X010140Y011092D02*
X010020Y011092D01*
X009955Y011251D02*
X010205Y011251D01*
X010402Y011409D02*
X009758Y011409D01*
X009857Y011568D02*
X011440Y011568D01*
X011440Y011726D02*
X010965Y011726D01*
X011062Y011885D02*
X011440Y011885D01*
X011440Y012043D02*
X011080Y012043D01*
X011032Y012202D02*
X011366Y012202D01*
X011208Y012360D02*
X010872Y012360D01*
X010796Y012519D02*
X011049Y012519D01*
X010990Y012677D02*
X010828Y012677D01*
X010773Y012836D02*
X010990Y012836D01*
X011370Y012836D02*
X011505Y012836D01*
X011500Y012869D02*
X011512Y012795D01*
X011535Y012723D01*
X011569Y012655D01*
X011614Y012594D01*
X011667Y012541D01*
X011728Y012496D01*
X011796Y012462D01*
X011868Y012439D01*
X011942Y012427D01*
X011960Y012427D01*
X011960Y012887D01*
X011500Y012887D01*
X011500Y012869D01*
X011500Y012927D02*
X011960Y012927D01*
X011960Y013387D01*
X011942Y013387D01*
X011868Y013375D01*
X011796Y013352D01*
X011728Y013317D01*
X011667Y013273D01*
X011614Y013220D01*
X011569Y013158D01*
X011535Y013091D01*
X011512Y013019D01*
X011500Y012945D01*
X011500Y012927D01*
X011508Y012994D02*
X011370Y012994D01*
X011353Y013153D02*
X011567Y013153D01*
X011720Y013311D02*
X010794Y013311D01*
X010574Y012994D02*
X007926Y012994D01*
X007982Y013024D02*
X007982Y013024D01*
X007634Y012994D02*
X005924Y012994D01*
X005916Y013015D02*
X005985Y012847D01*
X005985Y012666D01*
X005916Y012499D01*
X005788Y012371D01*
X005621Y012302D01*
X005439Y012302D01*
X005272Y012371D01*
X005144Y012499D01*
X005075Y012666D01*
X005075Y012847D01*
X005144Y013015D01*
X005272Y013143D01*
X005439Y013212D01*
X005621Y013212D01*
X005788Y013143D01*
X005916Y013015D01*
X005985Y012836D02*
X008440Y012836D01*
X008282Y012677D02*
X005985Y012677D01*
X005924Y012519D02*
X008123Y012519D01*
X007965Y012360D02*
X005762Y012360D01*
X005298Y012360D02*
X002120Y012360D01*
X002120Y012202D02*
X007890Y012202D01*
X007890Y012043D02*
X002120Y012043D01*
X002120Y011885D02*
X007890Y011885D01*
X007890Y011726D02*
X002120Y011726D01*
X002120Y011568D02*
X007890Y011568D01*
X007890Y011409D02*
X002826Y011409D01*
X002614Y011409D02*
X002120Y011409D01*
X002120Y011251D02*
X002372Y011251D01*
X002292Y011092D02*
X002120Y011092D01*
X002120Y010934D02*
X002138Y010934D01*
X002359Y010617D02*
X002458Y010617D01*
X002200Y010458D02*
X007890Y010458D01*
X007890Y010300D02*
X002042Y010300D01*
X002318Y010141D02*
X002642Y010141D01*
X002607Y010106D02*
X002540Y009944D01*
X002540Y009769D01*
X002607Y009608D01*
X002668Y009547D01*
X002401Y009547D01*
X002290Y009436D01*
X002240Y009386D01*
X002127Y009272D01*
X002068Y009297D01*
X001892Y009297D01*
X001731Y009230D01*
X001607Y009106D01*
X001540Y008944D01*
X001540Y008769D01*
X001607Y008608D01*
X001731Y008484D01*
X001892Y008417D01*
X002068Y008417D01*
X002229Y008484D01*
X002353Y008608D01*
X002420Y008769D01*
X002420Y008944D01*
X002395Y009004D01*
X002509Y009117D01*
X002559Y009167D01*
X002668Y009167D01*
X002607Y009106D01*
X002540Y008944D01*
X002540Y008769D01*
X002607Y008608D01*
X002731Y008484D01*
X002892Y008417D01*
X003068Y008417D01*
X003229Y008484D01*
X003353Y008608D01*
X003420Y008769D01*
X003420Y008944D01*
X003353Y009106D01*
X003292Y009167D01*
X005501Y009167D01*
X005690Y008978D01*
X005790Y008878D01*
X005790Y008797D01*
X005747Y008709D01*
X005747Y008709D01*
X005734Y008683D01*
X005727Y008676D01*
X005708Y008630D01*
X005677Y008568D01*
X005682Y008556D01*
X005682Y008448D01*
X005727Y008338D01*
X005811Y008254D01*
X005921Y008208D01*
X006039Y008208D01*
X006149Y008254D01*
X006233Y008338D01*
X006278Y008448D01*
X006278Y008556D01*
X006283Y008568D01*
X006260Y008613D01*
X006252Y008630D01*
X006233Y008676D01*
X006226Y008683D01*
X006170Y008797D01*
X006170Y009036D01*
X006059Y009147D01*
X005959Y009247D01*
X005659Y009547D01*
X003292Y009547D01*
X003353Y009608D01*
X003420Y009769D01*
X003420Y009944D01*
X003353Y010106D01*
X003229Y010230D01*
X003068Y010297D01*
X002892Y010297D01*
X002731Y010230D01*
X002607Y010106D01*
X002556Y009983D02*
X002404Y009983D01*
X002420Y009824D02*
X002540Y009824D01*
X002583Y009666D02*
X002377Y009666D01*
X002362Y009507D02*
X002253Y009507D01*
X002203Y009349D02*
X001520Y009349D01*
X001520Y009507D02*
X001707Y009507D01*
X001583Y009666D02*
X001520Y009666D01*
X001520Y009190D02*
X001691Y009190D01*
X001576Y009032D02*
X001520Y009032D01*
X001520Y008873D02*
X001540Y008873D01*
X001520Y008715D02*
X001563Y008715D01*
X001520Y008556D02*
X001658Y008556D01*
X001520Y008398D02*
X004670Y008398D01*
X004829Y008239D02*
X003206Y008239D01*
X003229Y008230D02*
X003068Y008297D01*
X002892Y008297D01*
X002731Y008230D01*
X002607Y008106D01*
X002540Y007944D01*
X002540Y007769D01*
X002607Y007608D01*
X002731Y007484D01*
X002892Y007417D01*
X003068Y007417D01*
X003229Y007484D01*
X003353Y007608D01*
X003420Y007769D01*
X003420Y007944D01*
X003353Y008106D01*
X003229Y008230D01*
X003363Y008081D02*
X004987Y008081D01*
X005146Y007922D02*
X003420Y007922D01*
X003418Y007764D02*
X005304Y007764D01*
X005463Y007605D02*
X003351Y007605D01*
X003140Y007447D02*
X005621Y007447D01*
X005842Y007764D02*
X006066Y007764D01*
X006032Y007922D02*
X005683Y007922D01*
X005525Y008081D02*
X006082Y008081D01*
X006114Y008239D02*
X007238Y008239D01*
X007238Y008081D02*
X006578Y008081D01*
X006563Y008110D02*
X006563Y008110D01*
X006632Y007969D02*
X006632Y007969D01*
X006258Y008398D02*
X007316Y008398D01*
X007340Y008556D02*
X006279Y008556D01*
X006283Y008568D02*
X006283Y008568D01*
X006283Y008568D01*
X006210Y008715D02*
X007340Y008715D01*
X007340Y008873D02*
X006170Y008873D01*
X006170Y009032D02*
X007340Y009032D01*
X007345Y009190D02*
X006015Y009190D01*
X005857Y009349D02*
X007503Y009349D01*
X007451Y009297D02*
X007451Y009297D01*
X007662Y009507D02*
X005698Y009507D01*
X005636Y009032D02*
X004729Y009032D01*
X004737Y009028D02*
X004737Y009028D01*
X004737Y009028D01*
X004790Y008873D02*
X005790Y008873D01*
X005750Y008715D02*
X004891Y008715D01*
X005049Y008556D02*
X005681Y008556D01*
X005702Y008398D02*
X005208Y008398D01*
X005366Y008239D02*
X005846Y008239D01*
X004436Y008556D02*
X003302Y008556D01*
X003397Y008715D02*
X004216Y008715D01*
X004182Y008873D02*
X003420Y008873D01*
X003384Y009032D02*
X004233Y009032D01*
X003377Y009666D02*
X007820Y009666D01*
X007890Y009824D02*
X003420Y009824D01*
X003404Y009983D02*
X007890Y009983D01*
X007890Y010141D02*
X003318Y010141D01*
X002982Y010617D02*
X007890Y010617D01*
X007890Y010775D02*
X003113Y010775D01*
X003160Y010934D02*
X007890Y010934D01*
X007890Y011092D02*
X003148Y011092D01*
X003068Y011251D02*
X007890Y011251D01*
X008550Y011251D02*
X009205Y011251D01*
X009140Y011092D02*
X008550Y011092D01*
X008550Y010934D02*
X009140Y010934D01*
X009200Y010775D02*
X008550Y010775D01*
X008550Y010617D02*
X008864Y010617D01*
X008620Y010458D02*
X008550Y010458D01*
X008550Y010300D02*
X008582Y010300D01*
X008550Y010141D02*
X008626Y010141D01*
X008550Y009983D02*
X009140Y009983D01*
X009139Y010141D02*
X009159Y010141D01*
X009193Y010300D02*
X009251Y010300D01*
X009179Y009824D02*
X008550Y009824D01*
X008550Y009666D02*
X009299Y009666D01*
X009300Y009349D02*
X008483Y009349D01*
X008550Y009507D02*
X009811Y009507D01*
X009790Y009528D02*
X009790Y009528D01*
X009860Y009349D02*
X009890Y009349D01*
X010270Y009507D02*
X014490Y009507D01*
X014490Y009349D02*
X010917Y009349D01*
X010893Y009373D02*
X010832Y009417D01*
X010764Y009452D01*
X010692Y009475D01*
X010618Y009487D01*
X010600Y009487D01*
X010600Y009027D01*
X011060Y009027D01*
X011060Y009045D01*
X011048Y009119D01*
X011025Y009191D01*
X010991Y009258D01*
X010946Y009320D01*
X010893Y009373D01*
X011025Y009190D02*
X014490Y009190D01*
X014436Y009032D02*
X011060Y009032D01*
X011041Y008873D02*
X014233Y008873D01*
X013972Y008715D02*
X010961Y008715D01*
X010600Y008715D02*
X010560Y008715D01*
X010560Y008873D02*
X010600Y008873D01*
X010600Y009032D02*
X010560Y009032D01*
X010560Y009190D02*
X010600Y009190D01*
X010600Y009349D02*
X010560Y009349D01*
X010299Y009666D02*
X010190Y009666D01*
X010179Y009824D02*
X010031Y009824D01*
X010020Y009983D02*
X010140Y009983D01*
X010159Y010141D02*
X010001Y010141D01*
X010018Y010300D02*
X009909Y010300D01*
X010788Y010617D02*
X012454Y010617D01*
X012352Y010775D02*
X010960Y010775D01*
X011020Y010934D02*
X012330Y010934D01*
X012374Y011092D02*
X011020Y011092D01*
X010955Y011251D02*
X011667Y011251D01*
X011509Y011409D02*
X010758Y011409D01*
X010395Y011726D02*
X009959Y011726D01*
X009980Y011885D02*
X010298Y011885D01*
X010280Y012043D02*
X009936Y012043D01*
X009792Y012202D02*
X010174Y012202D01*
X010380Y012307D02*
X010230Y012457D01*
X008680Y012457D01*
X008330Y012107D01*
X008330Y009507D01*
X008080Y009257D01*
X007930Y009107D01*
X007930Y008807D01*
X008004Y008832D01*
X007930Y009053D01*
X007856Y008832D01*
X007930Y008807D01*
X008215Y008715D02*
X009019Y008715D01*
X008940Y008556D02*
X008102Y008556D01*
X008242Y008816D02*
X008242Y008816D01*
X008242Y008816D01*
X008225Y008873D02*
X009159Y008873D01*
X009140Y009032D02*
X008169Y009032D01*
X008325Y009190D02*
X009180Y009190D01*
X008940Y008398D02*
X007744Y008398D01*
X007758Y008556D02*
X007720Y008556D01*
X007822Y008239D02*
X008940Y008239D01*
X008940Y008081D02*
X007822Y008081D01*
X007833Y008218D02*
X007833Y008218D01*
X007833Y008218D01*
X008830Y007288D02*
X003190Y007288D01*
X003164Y007302D02*
X003092Y007325D01*
X003018Y007337D01*
X003000Y007337D01*
X003000Y006877D01*
X003460Y006877D01*
X003460Y006895D01*
X003448Y006969D01*
X003425Y007041D01*
X003391Y007108D01*
X003346Y007170D01*
X003293Y007223D01*
X003232Y007267D01*
X003164Y007302D01*
X003000Y007288D02*
X002960Y007288D01*
X002960Y007130D02*
X003000Y007130D01*
X003000Y006971D02*
X002960Y006971D01*
X002960Y006813D02*
X003000Y006813D01*
X003000Y006654D02*
X002960Y006654D01*
X002960Y006496D02*
X003000Y006496D01*
X003298Y006496D02*
X004682Y006496D01*
X004727Y006337D02*
X001520Y006337D01*
X001520Y006179D02*
X001680Y006179D01*
X001571Y006020D02*
X001520Y006020D01*
X001520Y005862D02*
X001540Y005862D01*
X001552Y005703D02*
X001567Y005703D01*
X000940Y005228D02*
X000460Y005228D01*
X000460Y005386D02*
X000782Y005386D01*
X000740Y005545D02*
X000460Y005545D01*
X000460Y005703D02*
X000740Y005703D01*
X000740Y005862D02*
X000460Y005862D01*
X000460Y006020D02*
X000740Y006020D01*
X000740Y006179D02*
X000460Y006179D01*
X000460Y006337D02*
X000740Y006337D01*
X000740Y006496D02*
X000460Y006496D01*
X000460Y006654D02*
X000740Y006654D01*
X000740Y006813D02*
X000460Y006813D01*
X000460Y006971D02*
X000740Y006971D01*
X000740Y007130D02*
X000460Y007130D01*
X000460Y007288D02*
X000740Y007288D01*
X000740Y007447D02*
X000460Y007447D01*
X000460Y007605D02*
X000740Y007605D01*
X000740Y007764D02*
X000460Y007764D01*
X000460Y007922D02*
X000740Y007922D01*
X000740Y008081D02*
X000460Y008081D01*
X000460Y008239D02*
X000740Y008239D01*
X000740Y008398D02*
X000460Y008398D01*
X000460Y008556D02*
X000740Y008556D01*
X000740Y008715D02*
X000460Y008715D01*
X000460Y008873D02*
X000740Y008873D01*
X000740Y009032D02*
X000460Y009032D01*
X000460Y009190D02*
X000740Y009190D01*
X000740Y009349D02*
X000460Y009349D01*
X000460Y009507D02*
X000740Y009507D01*
X000740Y009666D02*
X000460Y009666D01*
X000460Y009824D02*
X000740Y009824D01*
X000740Y009983D02*
X000460Y009983D01*
X000460Y010141D02*
X000796Y010141D01*
X000954Y010300D02*
X000460Y010300D01*
X000460Y010458D02*
X001113Y010458D01*
X001124Y010532D02*
X001192Y010566D01*
X001253Y010611D01*
X001306Y010664D01*
X001351Y010725D01*
X001385Y010793D01*
X001408Y010865D01*
X001420Y010939D01*
X001420Y010957D01*
X000960Y010957D01*
X000960Y010997D01*
X000920Y010997D01*
X000920Y011457D01*
X000902Y011457D01*
X000828Y011445D01*
X000756Y011422D01*
X000688Y011387D01*
X000627Y011343D01*
X000574Y011290D01*
X000529Y011228D01*
X000495Y011161D01*
X000472Y011089D01*
X000460Y011015D01*
X000460Y010997D01*
X000920Y010997D01*
X000920Y010957D01*
X000460Y010957D01*
X000460Y010939D01*
X000472Y010865D01*
X000495Y010793D01*
X000529Y010725D01*
X000574Y010664D01*
X000627Y010611D01*
X000688Y010566D01*
X000756Y010532D01*
X000828Y010509D01*
X000902Y010497D01*
X000920Y010497D01*
X000920Y010957D01*
X000960Y010957D01*
X000960Y010497D01*
X000978Y010497D01*
X001052Y010509D01*
X001124Y010532D01*
X001259Y010617D02*
X001271Y010617D01*
X001376Y010775D02*
X001430Y010775D01*
X001419Y010934D02*
X001540Y010934D01*
X001420Y010997D02*
X001420Y011015D01*
X001408Y011089D01*
X001385Y011161D01*
X001351Y011228D01*
X001306Y011290D01*
X001253Y011343D01*
X001192Y011387D01*
X001124Y011422D01*
X001052Y011445D01*
X000978Y011457D01*
X000960Y011457D01*
X000960Y010997D01*
X001420Y010997D01*
X001407Y011092D02*
X001540Y011092D01*
X001540Y011251D02*
X001334Y011251D01*
X001148Y011409D02*
X001540Y011409D01*
X001540Y011568D02*
X000460Y011568D01*
X000460Y011726D02*
X001540Y011726D01*
X001540Y011885D02*
X000460Y011885D01*
X000460Y012043D02*
X001540Y012043D01*
X001540Y012202D02*
X000460Y012202D01*
X000460Y012360D02*
X001540Y012360D01*
X001540Y012519D02*
X000460Y012519D01*
X000460Y012677D02*
X001540Y012677D01*
X001540Y012836D02*
X000460Y012836D01*
X000460Y012994D02*
X001540Y012994D01*
X001540Y013153D02*
X001228Y013153D01*
X001253Y013171D02*
X001306Y013224D01*
X001351Y013285D01*
X001385Y013353D01*
X001408Y013425D01*
X001420Y013499D01*
X001420Y013517D01*
X000960Y013517D01*
X000960Y013557D01*
X000920Y013557D01*
X000920Y014257D01*
X000460Y014257D01*
X000460Y014239D01*
X000472Y014165D01*
X000495Y014093D01*
X000529Y014025D01*
X000574Y013964D01*
X000627Y013911D01*
X000633Y013907D01*
X000627Y013903D01*
X000574Y013850D01*
X000529Y013788D01*
X000495Y013721D01*
X000472Y013649D01*
X000460Y013575D01*
X000460Y013557D01*
X000920Y013557D01*
X000920Y013517D01*
X000460Y013517D01*
X000460Y013499D01*
X000472Y013425D01*
X000495Y013353D01*
X000529Y013285D01*
X000574Y013224D01*
X000627Y013171D01*
X000688Y013126D01*
X000756Y013092D01*
X000828Y013069D01*
X000902Y013057D01*
X000920Y013057D01*
X000920Y013517D01*
X000960Y013517D01*
X000960Y013057D01*
X000978Y013057D01*
X001052Y013069D01*
X001124Y013092D01*
X001192Y013126D01*
X001253Y013171D01*
X001364Y013311D02*
X001540Y013311D01*
X001540Y013470D02*
X001415Y013470D01*
X001420Y013557D02*
X001420Y013575D01*
X001408Y013649D01*
X001385Y013721D01*
X001351Y013788D01*
X001306Y013850D01*
X001253Y013903D01*
X001247Y013907D01*
X001253Y013911D01*
X001306Y013964D01*
X001351Y014025D01*
X001385Y014093D01*
X001408Y014165D01*
X001420Y014239D01*
X001420Y014257D01*
X000960Y014257D01*
X000960Y014297D01*
X000920Y014297D01*
X000920Y014757D01*
X000902Y014757D01*
X000828Y014745D01*
X000756Y014722D01*
X000688Y014687D01*
X000627Y014643D01*
X000574Y014590D01*
X000529Y014528D01*
X000495Y014461D01*
X000472Y014389D01*
X000460Y014315D01*
X000460Y014297D01*
X000920Y014297D01*
X000920Y014257D01*
X000960Y014257D01*
X000960Y013797D01*
X000960Y013557D01*
X001420Y013557D01*
X001411Y013628D02*
X001540Y013628D01*
X001540Y013787D02*
X001351Y013787D01*
X001287Y013945D02*
X001540Y013945D01*
X001540Y014104D02*
X001388Y014104D01*
X001420Y014297D02*
X000960Y014297D01*
X000960Y014757D01*
X000978Y014757D01*
X001052Y014745D01*
X001124Y014722D01*
X001192Y014687D01*
X001253Y014643D01*
X001306Y014590D01*
X001351Y014528D01*
X001385Y014461D01*
X001408Y014389D01*
X001420Y014315D01*
X001420Y014297D01*
X001540Y014262D02*
X000960Y014262D01*
X000920Y014262D02*
X000460Y014262D01*
X000460Y014104D02*
X000492Y014104D01*
X000460Y013945D02*
X000593Y013945D01*
X000529Y013787D02*
X000460Y013787D01*
X000460Y013628D02*
X000469Y013628D01*
X000460Y013470D02*
X000465Y013470D01*
X000460Y013311D02*
X000516Y013311D01*
X000460Y013153D02*
X000652Y013153D01*
X000920Y013153D02*
X000960Y013153D01*
X000960Y013311D02*
X000920Y013311D01*
X000920Y013470D02*
X000960Y013470D01*
X000960Y013628D02*
X000920Y013628D01*
X000920Y013787D02*
X000960Y013787D01*
X000960Y013945D02*
X000920Y013945D01*
X000920Y014104D02*
X000960Y014104D01*
X000960Y014421D02*
X000920Y014421D01*
X000920Y014579D02*
X000960Y014579D01*
X000960Y014738D02*
X000920Y014738D01*
X000806Y014738D02*
X000460Y014738D01*
X000460Y014896D02*
X001540Y014896D01*
X001540Y014738D02*
X001074Y014738D01*
X001314Y014579D02*
X001540Y014579D01*
X001540Y014421D02*
X001398Y014421D01*
X001920Y014421D02*
X002025Y014421D01*
X001920Y014579D02*
X002400Y014579D01*
X001920Y014738D02*
X009196Y014738D01*
X009180Y014777D02*
X009241Y014630D01*
X009353Y014518D01*
X009500Y014457D01*
X009660Y014457D01*
X009807Y014518D01*
X009919Y014630D01*
X009980Y014777D01*
X009980Y014936D01*
X009919Y015083D01*
X009807Y015196D01*
X009660Y015257D01*
X009500Y015257D01*
X009353Y015196D01*
X009241Y015083D01*
X009180Y014936D01*
X009180Y014777D01*
X009180Y014896D02*
X001920Y014896D01*
X001920Y015055D02*
X009229Y015055D01*
X009237Y015237D02*
X009423Y015237D01*
X009596Y015308D01*
X009728Y015441D01*
X009800Y015613D01*
X009800Y015800D01*
X009728Y015973D01*
X009596Y016105D01*
X009423Y016177D01*
X009237Y016177D01*
X009064Y016105D01*
X008932Y015973D01*
X008860Y015800D01*
X008860Y015613D01*
X008932Y015441D01*
X009064Y015308D01*
X009237Y015237D01*
X009395Y015213D02*
X001920Y015213D01*
X001920Y015372D02*
X004916Y015372D01*
X004899Y015381D02*
X004961Y015349D01*
X005027Y015328D01*
X005095Y015317D01*
X005130Y015317D01*
X005130Y015757D01*
X005130Y016197D01*
X005095Y016197D01*
X005027Y016186D01*
X004961Y016165D01*
X004899Y016133D01*
X004843Y016093D01*
X004794Y016044D01*
X004754Y015988D01*
X004722Y015926D01*
X004701Y015860D01*
X004690Y015792D01*
X004690Y015757D01*
X005130Y015757D01*
X005130Y015757D01*
X005130Y016197D01*
X005165Y016197D01*
X005233Y016186D01*
X005299Y016165D01*
X005361Y016133D01*
X005417Y016093D01*
X005466Y016044D01*
X005506Y015988D01*
X005538Y015926D01*
X005559Y015860D01*
X005570Y015792D01*
X005570Y015757D01*
X005130Y015757D01*
X005130Y015757D01*
X005130Y015757D01*
X004690Y015757D01*
X004690Y015722D01*
X004701Y015654D01*
X004722Y015588D01*
X004754Y015526D01*
X004794Y015470D01*
X004843Y015421D01*
X004899Y015381D01*
X004752Y015530D02*
X001920Y015530D01*
X001920Y015689D02*
X004695Y015689D01*
X004699Y015847D02*
X001920Y015847D01*
X001920Y016006D02*
X004767Y016006D01*
X004961Y016164D02*
X001920Y016164D01*
X001920Y016323D02*
X006049Y016323D01*
X006064Y016308D02*
X006237Y016237D01*
X006423Y016237D01*
X006596Y016308D01*
X006728Y016441D01*
X006800Y016613D01*
X006800Y016800D01*
X006728Y016973D01*
X006596Y017105D01*
X006423Y017177D01*
X006237Y017177D01*
X006064Y017105D01*
X005932Y016973D01*
X005860Y016800D01*
X005860Y016613D01*
X005932Y016441D01*
X006064Y016308D01*
X006206Y016164D02*
X005299Y016164D01*
X005130Y016164D02*
X005130Y016164D01*
X005130Y016006D02*
X005130Y016006D01*
X005130Y015847D02*
X005130Y015847D01*
X005130Y015757D02*
X005570Y015757D01*
X005570Y015722D01*
X005559Y015654D01*
X005538Y015588D01*
X005506Y015526D01*
X005466Y015470D01*
X005417Y015421D01*
X005361Y015381D01*
X005299Y015349D01*
X005233Y015328D01*
X005165Y015317D01*
X005130Y015317D01*
X005130Y015757D01*
X005130Y015757D01*
X005130Y015689D02*
X005130Y015689D01*
X005130Y015530D02*
X005130Y015530D01*
X005130Y015372D02*
X005130Y015372D01*
X005344Y015372D02*
X006000Y015372D01*
X006064Y015308D02*
X006237Y015237D01*
X006423Y015237D01*
X006596Y015308D01*
X006728Y015441D01*
X006800Y015613D01*
X006800Y015800D01*
X006728Y015973D01*
X006596Y016105D01*
X006423Y016177D01*
X006237Y016177D01*
X006064Y016105D01*
X005932Y015973D01*
X005860Y015800D01*
X005860Y015613D01*
X005932Y015441D01*
X006064Y015308D01*
X005894Y015530D02*
X005508Y015530D01*
X005565Y015689D02*
X005860Y015689D01*
X005879Y015847D02*
X005561Y015847D01*
X005493Y016006D02*
X005964Y016006D01*
X006454Y016164D02*
X007206Y016164D01*
X007237Y016177D02*
X007064Y016105D01*
X006932Y015973D01*
X006860Y015800D01*
X006860Y015613D01*
X006932Y015441D01*
X007064Y015308D01*
X007237Y015237D01*
X007423Y015237D01*
X007596Y015308D01*
X007728Y015441D01*
X007800Y015613D01*
X007800Y015800D01*
X007728Y015973D01*
X007596Y016105D01*
X007423Y016177D01*
X007237Y016177D01*
X007237Y016237D02*
X007423Y016237D01*
X007596Y016308D01*
X007728Y016441D01*
X007800Y016613D01*
X007800Y016800D01*
X007728Y016973D01*
X007596Y017105D01*
X007423Y017177D01*
X007237Y017177D01*
X007064Y017105D01*
X006932Y016973D01*
X006860Y016800D01*
X006860Y016613D01*
X006932Y016441D01*
X007064Y016308D01*
X007237Y016237D01*
X007049Y016323D02*
X006611Y016323D01*
X006745Y016481D02*
X006915Y016481D01*
X006860Y016640D02*
X006800Y016640D01*
X006800Y016798D02*
X006860Y016798D01*
X006925Y016957D02*
X006735Y016957D01*
X006572Y017115D02*
X007088Y017115D01*
X007572Y017115D02*
X008088Y017115D01*
X008064Y017105D02*
X007932Y016973D01*
X007860Y016800D01*
X007860Y016613D01*
X007932Y016441D01*
X008064Y016308D01*
X008237Y016237D01*
X008423Y016237D01*
X008596Y016308D01*
X008728Y016441D01*
X008800Y016613D01*
X008800Y016800D01*
X008728Y016973D01*
X008596Y017105D01*
X008423Y017177D01*
X008237Y017177D01*
X008064Y017105D01*
X007925Y016957D02*
X007735Y016957D01*
X007800Y016798D02*
X007860Y016798D01*
X007860Y016640D02*
X007800Y016640D01*
X007745Y016481D02*
X007915Y016481D01*
X008049Y016323D02*
X007611Y016323D01*
X007454Y016164D02*
X008206Y016164D01*
X008237Y016177D02*
X008064Y016105D01*
X007932Y015973D01*
X007860Y015800D01*
X007860Y015613D01*
X007932Y015441D01*
X008064Y015308D01*
X008237Y015237D01*
X008423Y015237D01*
X008596Y015308D01*
X008728Y015441D01*
X008800Y015613D01*
X008800Y015800D01*
X008728Y015973D01*
X008596Y016105D01*
X008423Y016177D01*
X008237Y016177D01*
X008454Y016164D02*
X009206Y016164D01*
X009237Y016237D02*
X009423Y016237D01*
X009596Y016308D01*
X009728Y016441D01*
X009800Y016613D01*
X009800Y016800D01*
X009728Y016973D01*
X009596Y017105D01*
X009423Y017177D01*
X009237Y017177D01*
X009064Y017105D01*
X008932Y016973D01*
X008860Y016800D01*
X008860Y016613D01*
X008932Y016441D01*
X009064Y016308D01*
X009237Y016237D01*
X009049Y016323D02*
X008611Y016323D01*
X008745Y016481D02*
X008915Y016481D01*
X008860Y016640D02*
X008800Y016640D01*
X008800Y016798D02*
X008860Y016798D01*
X008925Y016957D02*
X008735Y016957D01*
X008572Y017115D02*
X009088Y017115D01*
X009572Y017115D02*
X010025Y017115D01*
X009998Y017096D02*
X009941Y017039D01*
X009894Y016974D01*
X009857Y016903D01*
X009833Y016826D01*
X009820Y016747D01*
X009820Y016725D01*
X010312Y016725D01*
X010312Y016688D01*
X010348Y016688D01*
X010348Y016197D01*
X010348Y015725D01*
X010312Y015725D01*
X010312Y015688D01*
X010348Y015688D01*
X010348Y015197D01*
X010370Y015197D01*
X010449Y015209D01*
X010526Y015234D01*
X010597Y015271D01*
X010662Y015318D01*
X010719Y015375D01*
X010766Y015440D01*
X010803Y015511D01*
X010827Y015587D01*
X010840Y015667D01*
X010840Y015688D01*
X010348Y015688D01*
X010348Y015725D01*
X010840Y015725D01*
X010840Y015747D01*
X010827Y015826D01*
X010803Y015903D01*
X010766Y015974D01*
X010719Y016039D01*
X010662Y016096D01*
X010597Y016143D01*
X010526Y016180D01*
X010449Y016204D01*
X010433Y016207D01*
X010449Y016209D01*
X010526Y016234D01*
X010597Y016271D01*
X010662Y016318D01*
X010719Y016375D01*
X010766Y016440D01*
X010803Y016511D01*
X010827Y016587D01*
X010840Y016667D01*
X010840Y016688D01*
X010348Y016688D01*
X010348Y016725D01*
X010312Y016725D01*
X010312Y017217D01*
X010290Y017217D01*
X010211Y017204D01*
X010134Y017180D01*
X010063Y017143D01*
X009998Y017096D01*
X009885Y016957D02*
X009735Y016957D01*
X009800Y016798D02*
X009828Y016798D01*
X009820Y016688D02*
X009820Y016667D01*
X009833Y016587D01*
X009857Y016511D01*
X009894Y016440D01*
X009941Y016375D01*
X009998Y016318D01*
X010063Y016271D01*
X010134Y016234D01*
X010211Y016209D01*
X010227Y016207D01*
X010211Y016204D01*
X010134Y016180D01*
X010063Y016143D01*
X009998Y016096D01*
X009941Y016039D01*
X009894Y015974D01*
X009857Y015903D01*
X009833Y015826D01*
X009820Y015747D01*
X009820Y015725D01*
X010312Y015725D01*
X010312Y016688D01*
X009820Y016688D01*
X009824Y016640D02*
X009800Y016640D01*
X009745Y016481D02*
X009872Y016481D01*
X009993Y016323D02*
X009611Y016323D01*
X009454Y016164D02*
X010105Y016164D01*
X010312Y016164D02*
X010348Y016164D01*
X010348Y016006D02*
X010312Y016006D01*
X010312Y015847D02*
X010348Y015847D01*
X010348Y015689D02*
X011594Y015689D01*
X011607Y015658D02*
X011731Y015534D01*
X011892Y015467D01*
X012068Y015467D01*
X012229Y015534D01*
X012353Y015658D01*
X012420Y015819D01*
X012420Y015994D01*
X012353Y016156D01*
X012229Y016280D01*
X012068Y016347D01*
X011892Y016347D01*
X011731Y016280D01*
X011607Y016156D01*
X011540Y015994D01*
X011540Y015819D01*
X011607Y015658D01*
X011739Y015530D02*
X010809Y015530D01*
X010716Y015372D02*
X013176Y015372D01*
X013018Y015213D02*
X012296Y015213D01*
X012353Y015156D02*
X012229Y015280D01*
X012068Y015347D01*
X011892Y015347D01*
X011731Y015280D01*
X011607Y015156D01*
X011540Y014994D01*
X011540Y014819D01*
X011607Y014658D01*
X011718Y014547D01*
X011520Y014547D01*
X011406Y014603D01*
X011399Y014610D01*
X011353Y014629D01*
X011336Y014637D01*
X011291Y014659D01*
X011279Y014655D01*
X011171Y014655D01*
X011061Y014610D01*
X010977Y014526D01*
X010932Y014416D01*
X010932Y014298D01*
X010977Y014188D01*
X011061Y014104D01*
X005883Y014104D01*
X005908Y014079D02*
X005852Y014134D01*
X005789Y014180D01*
X005720Y014216D01*
X005646Y014240D01*
X005569Y014252D01*
X005530Y014252D01*
X005491Y014252D01*
X005414Y014240D01*
X005340Y014216D01*
X005271Y014180D01*
X005208Y014134D01*
X005152Y014079D01*
X005107Y014016D01*
X005071Y013947D01*
X005047Y013873D01*
X005035Y013796D01*
X005035Y013757D01*
X005530Y013757D01*
X005530Y014252D01*
X005530Y013757D01*
X005530Y013757D01*
X005530Y013757D01*
X006025Y013757D01*
X006025Y013796D01*
X006013Y013873D01*
X005989Y013947D01*
X005953Y014016D01*
X005908Y014079D01*
X005989Y013945D02*
X011540Y013945D01*
X011540Y013994D02*
X011540Y013819D01*
X011607Y013658D01*
X011731Y013534D01*
X011892Y013467D01*
X012068Y013467D01*
X012229Y013534D01*
X012353Y013658D01*
X012420Y013819D01*
X012420Y013994D01*
X012353Y014156D01*
X012342Y014167D01*
X012509Y014167D01*
X013833Y015491D01*
X013892Y015467D01*
X014068Y015467D01*
X014229Y015534D01*
X014353Y015658D01*
X014420Y015819D01*
X014420Y015994D01*
X014353Y016156D01*
X014229Y016280D01*
X014068Y016347D01*
X013892Y016347D01*
X013731Y016280D01*
X013607Y016156D01*
X013540Y015994D01*
X013540Y015819D01*
X013565Y015760D01*
X012351Y014547D01*
X012242Y014547D01*
X012353Y014658D01*
X012420Y014819D01*
X012420Y014994D01*
X012353Y015156D01*
X012395Y015055D02*
X012859Y015055D01*
X012701Y014896D02*
X012420Y014896D01*
X012386Y014738D02*
X012542Y014738D01*
X012384Y014579D02*
X012275Y014579D01*
X012604Y014262D02*
X013713Y014262D01*
X013731Y014280D02*
X013607Y014156D01*
X013540Y013994D01*
X013540Y013819D01*
X013607Y013658D01*
X013731Y013534D01*
X013892Y013467D01*
X014068Y013467D01*
X014229Y013534D01*
X014353Y013658D01*
X014420Y013819D01*
X014420Y013994D01*
X014353Y014156D01*
X014229Y014280D01*
X014068Y014347D01*
X013892Y014347D01*
X013731Y014280D01*
X013585Y014104D02*
X012375Y014104D01*
X012420Y013945D02*
X013540Y013945D01*
X013553Y013787D02*
X012407Y013787D01*
X012324Y013628D02*
X013636Y013628D01*
X013885Y013470D02*
X012075Y013470D01*
X012092Y013375D02*
X012018Y013387D01*
X012000Y013387D01*
X012000Y012927D01*
X011960Y012927D01*
X011960Y012887D01*
X012000Y012887D01*
X012000Y012927D01*
X012460Y012927D01*
X012460Y012945D01*
X012448Y013019D01*
X012425Y013091D01*
X012391Y013158D01*
X012346Y013220D01*
X012293Y013273D01*
X012232Y013317D01*
X012164Y013352D01*
X012092Y013375D01*
X012000Y013311D02*
X011960Y013311D01*
X011960Y013153D02*
X012000Y013153D01*
X012000Y012994D02*
X011960Y012994D01*
X012000Y012887D02*
X012460Y012887D01*
X012460Y012869D01*
X012448Y012795D01*
X012425Y012723D01*
X012391Y012655D01*
X012346Y012594D01*
X012293Y012541D01*
X012232Y012496D01*
X012164Y012462D01*
X012092Y012439D01*
X012018Y012427D01*
X012000Y012427D01*
X012000Y012887D01*
X012000Y012836D02*
X011960Y012836D01*
X011960Y012677D02*
X012000Y012677D01*
X012000Y012519D02*
X011960Y012519D01*
X011697Y012519D02*
X011587Y012519D01*
X011558Y012677D02*
X011428Y012677D01*
X011745Y012360D02*
X013488Y012360D01*
X013453Y012346D02*
X013341Y012233D01*
X013280Y012086D01*
X013280Y011927D01*
X013341Y011780D01*
X013453Y011668D01*
X013600Y011607D01*
X013760Y011607D01*
X013907Y011668D01*
X014019Y011780D01*
X014080Y011927D01*
X014080Y012086D01*
X014019Y012233D01*
X013907Y012346D01*
X013760Y012407D01*
X013600Y012407D01*
X013453Y012346D01*
X013328Y012202D02*
X011820Y012202D01*
X011820Y012043D02*
X013280Y012043D01*
X013298Y011885D02*
X011820Y011885D01*
X011820Y011726D02*
X013395Y011726D01*
X013506Y011409D02*
X015164Y011409D01*
X015005Y011251D02*
X013682Y011251D01*
X013863Y011092D02*
X014940Y011092D01*
X014569Y011059D02*
X014569Y011059D01*
X014569Y011059D01*
X014804Y010300D02*
X011753Y010300D01*
X011769Y010283D02*
X011657Y010396D01*
X011510Y010457D01*
X011350Y010457D01*
X011203Y010396D01*
X011091Y010283D01*
X011030Y010136D01*
X011030Y009977D01*
X011091Y009830D01*
X011203Y009718D01*
X011350Y009657D01*
X011510Y009657D01*
X011657Y009718D01*
X011769Y009830D01*
X011830Y009977D01*
X011830Y010136D01*
X011769Y010283D01*
X011828Y010141D02*
X014646Y010141D01*
X014490Y009983D02*
X011830Y009983D01*
X011763Y009824D02*
X014490Y009824D01*
X014490Y009666D02*
X011531Y009666D01*
X011329Y009666D02*
X010861Y009666D01*
X010981Y009824D02*
X011097Y009824D01*
X011030Y009983D02*
X011020Y009983D01*
X011032Y010141D02*
X011001Y010141D01*
X010909Y010300D02*
X011107Y010300D01*
X011888Y011568D02*
X015322Y011568D01*
X015438Y011726D02*
X013965Y011726D01*
X014062Y011885D02*
X015382Y011885D01*
X015382Y011848D02*
X015427Y011738D01*
X015511Y011654D01*
X015621Y011608D01*
X015739Y011608D01*
X015849Y011654D01*
X015933Y011738D01*
X015978Y011848D01*
X015978Y011956D01*
X015983Y011968D01*
X015960Y012013D01*
X015952Y012030D01*
X015933Y012076D01*
X015926Y012083D01*
X015870Y012197D01*
X015870Y012345D01*
X015911Y012304D01*
X016021Y012258D01*
X016139Y012258D01*
X016249Y012304D01*
X016333Y012388D01*
X016378Y012498D01*
X016378Y012606D01*
X016383Y012618D01*
X016360Y012663D01*
X016352Y012680D01*
X016333Y012726D01*
X016326Y012733D01*
X016270Y012847D01*
X016270Y015442D01*
X016355Y015486D01*
X016399Y015504D01*
X016408Y015512D01*
X016436Y015527D01*
X016442Y015547D01*
X016483Y015588D01*
X016528Y015698D01*
X016528Y015816D01*
X016483Y015926D01*
X016399Y016010D01*
X016289Y016055D01*
X016171Y016055D01*
X016061Y016010D01*
X015977Y015926D01*
X015966Y015900D01*
X015951Y015890D01*
X015943Y015843D01*
X015932Y015816D01*
X015932Y015785D01*
X015931Y015780D01*
X015906Y015652D01*
X015890Y015636D01*
X015890Y015620D01*
X015881Y015608D01*
X015886Y015571D01*
X015877Y015544D01*
X015884Y015532D01*
X015881Y015518D01*
X015890Y015505D01*
X015890Y012847D01*
X015870Y012806D01*
X015870Y016867D01*
X015926Y016981D01*
X015933Y016988D01*
X015952Y017034D01*
X015953Y017037D01*
X015983Y017096D01*
X015978Y017108D01*
X015978Y017216D01*
X015933Y017326D01*
X015849Y017410D01*
X015739Y017455D01*
X015621Y017455D01*
X015511Y017410D01*
X015427Y017326D01*
X015382Y017216D01*
X015382Y017108D01*
X015377Y017096D01*
X015398Y017055D01*
X015408Y017034D01*
X015427Y016988D01*
X015434Y016981D01*
X015490Y016867D01*
X015490Y012197D01*
X015447Y012109D01*
X015447Y012109D01*
X015434Y012083D01*
X015427Y012076D01*
X015408Y012030D01*
X015377Y011968D01*
X015382Y011956D01*
X015382Y011848D01*
X015414Y012043D02*
X014080Y012043D01*
X014032Y012202D02*
X015490Y012202D01*
X015490Y012360D02*
X013872Y012360D01*
X013892Y012467D02*
X014068Y012467D01*
X014229Y012534D01*
X014353Y012658D01*
X014420Y012819D01*
X014420Y012994D01*
X015490Y012994D01*
X015490Y012836D02*
X014420Y012836D01*
X014420Y012994D02*
X014353Y013156D01*
X014229Y013280D01*
X014068Y013347D01*
X013892Y013347D01*
X013731Y013280D01*
X013607Y013156D01*
X013540Y012994D01*
X012452Y012994D01*
X012455Y012836D02*
X013540Y012836D01*
X013540Y012819D02*
X013607Y012658D01*
X013731Y012534D01*
X013892Y012467D01*
X013767Y012519D02*
X012263Y012519D01*
X012402Y012677D02*
X013599Y012677D01*
X013540Y012819D02*
X013540Y012994D01*
X013606Y013153D02*
X012393Y013153D01*
X012240Y013311D02*
X013807Y013311D01*
X014075Y013470D02*
X015490Y013470D01*
X015490Y013628D02*
X014324Y013628D01*
X014407Y013787D02*
X015490Y013787D01*
X015490Y013945D02*
X014420Y013945D01*
X014375Y014104D02*
X015490Y014104D01*
X015490Y014262D02*
X014247Y014262D01*
X014068Y014467D02*
X013892Y014467D01*
X013731Y014534D01*
X013607Y014658D01*
X013540Y014819D01*
X013540Y014994D01*
X013607Y015156D01*
X013731Y015280D01*
X013892Y015347D01*
X014068Y015347D01*
X014229Y015280D01*
X014353Y015156D01*
X014420Y014994D01*
X014420Y014819D01*
X014353Y014658D01*
X014229Y014534D01*
X014068Y014467D01*
X014275Y014579D02*
X015490Y014579D01*
X015490Y014421D02*
X012763Y014421D01*
X012921Y014579D02*
X013685Y014579D01*
X013574Y014738D02*
X013080Y014738D01*
X013238Y014896D02*
X013540Y014896D01*
X013565Y015055D02*
X013397Y015055D01*
X013555Y015213D02*
X013664Y015213D01*
X013714Y015372D02*
X015490Y015372D01*
X015490Y015530D02*
X014221Y015530D01*
X014366Y015689D02*
X015490Y015689D01*
X015490Y015847D02*
X014420Y015847D01*
X014415Y016006D02*
X015490Y016006D01*
X015490Y016164D02*
X014345Y016164D01*
X014125Y016323D02*
X015490Y016323D01*
X015490Y016481D02*
X014103Y016481D01*
X014068Y016467D02*
X014229Y016534D01*
X014353Y016658D01*
X014420Y016819D01*
X014420Y016994D01*
X014353Y017156D01*
X014229Y017280D01*
X014068Y017347D01*
X013892Y017347D01*
X013731Y017280D01*
X013607Y017156D01*
X013540Y016994D01*
X013540Y016819D01*
X013607Y016658D01*
X013731Y016534D01*
X013892Y016467D01*
X014068Y016467D01*
X013857Y016481D02*
X012103Y016481D01*
X012068Y016467D02*
X012229Y016534D01*
X012353Y016658D01*
X012420Y016819D01*
X012420Y016994D01*
X012353Y017156D01*
X012229Y017280D01*
X012068Y017347D01*
X011892Y017347D01*
X011731Y017280D01*
X011607Y017156D01*
X011540Y016994D01*
X011540Y016819D01*
X011607Y016658D01*
X011731Y016534D01*
X011892Y016467D01*
X012068Y016467D01*
X012125Y016323D02*
X013835Y016323D01*
X013615Y016164D02*
X012345Y016164D01*
X012415Y016006D02*
X013545Y016006D01*
X013540Y015847D02*
X012420Y015847D01*
X012366Y015689D02*
X013493Y015689D01*
X013335Y015530D02*
X012221Y015530D01*
X011664Y015213D02*
X010462Y015213D01*
X010348Y015213D02*
X010312Y015213D01*
X010312Y015197D02*
X010312Y015688D01*
X009820Y015688D01*
X009820Y015667D01*
X009833Y015587D01*
X009857Y015511D01*
X009894Y015440D01*
X009941Y015375D01*
X009998Y015318D01*
X010063Y015271D01*
X010134Y015234D01*
X010211Y015209D01*
X010290Y015197D01*
X010312Y015197D01*
X010198Y015213D02*
X009765Y015213D01*
X009660Y015372D02*
X009944Y015372D01*
X009851Y015530D02*
X009766Y015530D01*
X009800Y015689D02*
X010312Y015689D01*
X010312Y015530D02*
X010348Y015530D01*
X010348Y015372D02*
X010312Y015372D01*
X009931Y015055D02*
X011565Y015055D01*
X011540Y014896D02*
X009980Y014896D01*
X009964Y014738D02*
X011574Y014738D01*
X011685Y014579D02*
X011454Y014579D01*
X011291Y014659D02*
X011291Y014659D01*
X011030Y014579D02*
X009868Y014579D01*
X009292Y014579D02*
X003040Y014579D01*
X003137Y014421D02*
X010934Y014421D01*
X010946Y014262D02*
X003160Y014262D01*
X003125Y014104D02*
X005177Y014104D01*
X005071Y013945D02*
X003011Y013945D01*
X003092Y013787D02*
X005035Y013787D01*
X005035Y013757D02*
X005035Y013718D01*
X005047Y013641D01*
X005071Y013567D01*
X005107Y013497D01*
X005152Y013434D01*
X005208Y013379D01*
X005271Y013334D01*
X005340Y013298D01*
X005414Y013274D01*
X005491Y013262D01*
X005530Y013262D01*
X005569Y013262D01*
X005646Y013274D01*
X005720Y013298D01*
X005789Y013334D01*
X005852Y013379D01*
X005908Y013434D01*
X005953Y013497D01*
X005989Y013567D01*
X006013Y013641D01*
X006025Y013718D01*
X006025Y013757D01*
X005530Y013757D01*
X005530Y013757D01*
X005035Y013757D01*
X005051Y013628D02*
X003158Y013628D01*
X003160Y013470D02*
X005127Y013470D01*
X005314Y013311D02*
X003103Y013311D01*
X002943Y013153D02*
X005297Y013153D01*
X005136Y012994D02*
X002120Y012994D01*
X002120Y012836D02*
X005075Y012836D01*
X005075Y012677D02*
X002120Y012677D01*
X002120Y012519D02*
X005136Y012519D01*
X005530Y013262D02*
X005530Y013757D01*
X005530Y013262D01*
X005530Y013311D02*
X005530Y013311D01*
X005530Y013470D02*
X005530Y013470D01*
X005530Y013628D02*
X005530Y013628D01*
X005530Y013757D02*
X005530Y013757D01*
X005530Y013787D02*
X005530Y013787D01*
X005530Y013945D02*
X005530Y013945D01*
X005530Y014104D02*
X005530Y014104D01*
X006025Y013787D02*
X011553Y013787D01*
X011636Y013628D02*
X006009Y013628D01*
X005933Y013470D02*
X007571Y013470D01*
X007482Y013311D02*
X005746Y013311D01*
X005763Y013153D02*
X007500Y013153D01*
X007841Y013559D02*
X007841Y013559D01*
X008023Y013470D02*
X011885Y013470D01*
X011540Y013994D02*
X011607Y014156D01*
X011618Y014167D01*
X011520Y014167D01*
X011432Y014124D01*
X011432Y014124D01*
X011406Y014111D01*
X011399Y014104D01*
X011585Y014104D01*
X011399Y014104D02*
X011353Y014085D01*
X011291Y014054D01*
X011279Y014058D01*
X011171Y014058D01*
X011061Y014104D01*
X010532Y012966D02*
X010532Y012966D01*
X010532Y012966D01*
X010380Y012307D02*
X010680Y012007D01*
X009368Y012202D02*
X008736Y012202D01*
X008578Y012043D02*
X009224Y012043D01*
X009180Y011885D02*
X008550Y011885D01*
X008550Y011726D02*
X009201Y011726D01*
X009303Y011568D02*
X008550Y011568D01*
X008550Y011409D02*
X009402Y011409D01*
X013006Y010617D02*
X013801Y010617D01*
X013642Y010775D02*
X013108Y010775D01*
X013130Y010934D02*
X013466Y010934D01*
X013290Y011092D02*
X013086Y011092D01*
X014193Y012519D02*
X015490Y012519D01*
X015490Y012677D02*
X014361Y012677D01*
X014354Y013153D02*
X015490Y013153D01*
X015490Y013311D02*
X014153Y013311D01*
X015870Y013311D02*
X015890Y013311D01*
X015890Y013153D02*
X015870Y013153D01*
X015870Y012994D02*
X015890Y012994D01*
X015885Y012836D02*
X015870Y012836D01*
X016275Y012836D02*
X018678Y012836D01*
X018678Y012786D02*
X018678Y012904D01*
X018724Y013014D01*
X018808Y013098D01*
X018917Y013143D01*
X019036Y013143D01*
X019145Y013098D01*
X019229Y013014D01*
X019275Y012904D01*
X019275Y012786D01*
X019229Y012676D01*
X019145Y012592D01*
X019036Y012547D01*
X018917Y012547D01*
X018808Y012592D01*
X018724Y012676D01*
X018678Y012786D01*
X018723Y012677D02*
X016353Y012677D01*
X016383Y012618D02*
X016383Y012618D01*
X016378Y012519D02*
X035533Y012519D01*
X035533Y012677D02*
X019230Y012677D01*
X019275Y012836D02*
X035533Y012836D01*
X035533Y012994D02*
X019237Y012994D01*
X018716Y012994D02*
X016790Y012994D01*
X016807Y013012D02*
X016828Y013021D01*
X016848Y013073D01*
X016857Y013095D01*
X016878Y013148D01*
X016878Y013150D01*
X016925Y013269D01*
X017630Y013974D01*
X017668Y014012D01*
X017786Y014058D01*
X017789Y014058D01*
X017842Y014080D01*
X017916Y014109D01*
X017916Y014109D01*
X017925Y014130D01*
X017983Y014188D01*
X018028Y014298D01*
X018028Y014416D01*
X017983Y014526D01*
X017899Y014610D01*
X017789Y014655D01*
X017671Y014655D01*
X017561Y014610D01*
X017503Y014552D01*
X017482Y014543D01*
X017453Y014469D01*
X017432Y014416D01*
X017432Y014413D01*
X017385Y014295D01*
X017347Y014257D01*
X016642Y013552D01*
X016524Y013505D01*
X016521Y013505D01*
X016468Y013484D01*
X016446Y013475D01*
X016394Y013454D01*
X016385Y013434D01*
X016327Y013376D01*
X016282Y013266D01*
X016282Y013148D01*
X016327Y013038D01*
X016411Y012954D01*
X016521Y012908D01*
X016639Y012908D01*
X016749Y012954D01*
X016807Y013012D01*
X016828Y013021D02*
X016828Y013021D01*
X016828Y013021D01*
X016879Y013153D02*
X035533Y013153D01*
X035533Y013311D02*
X016967Y013311D01*
X017126Y013470D02*
X035533Y013470D01*
X035533Y013628D02*
X017284Y013628D01*
X017443Y013787D02*
X035533Y013787D01*
X035533Y013945D02*
X017601Y013945D01*
X017902Y014104D02*
X035533Y014104D01*
X035533Y014262D02*
X018014Y014262D01*
X018026Y014421D02*
X035533Y014421D01*
X035533Y014579D02*
X017930Y014579D01*
X017530Y014579D02*
X016270Y014579D01*
X016270Y014421D02*
X017434Y014421D01*
X017482Y014543D02*
X017482Y014543D01*
X017482Y014543D01*
X017353Y014262D02*
X016270Y014262D01*
X016270Y014104D02*
X017194Y014104D01*
X017036Y013945D02*
X016270Y013945D01*
X016270Y013787D02*
X016877Y013787D01*
X016719Y013628D02*
X016270Y013628D01*
X016270Y013470D02*
X016433Y013470D01*
X016394Y013454D02*
X016394Y013454D01*
X016394Y013454D01*
X016300Y013311D02*
X016270Y013311D01*
X016270Y013153D02*
X016282Y013153D01*
X016270Y012994D02*
X016370Y012994D01*
X016306Y012360D02*
X035533Y012360D01*
X035533Y012202D02*
X015870Y012202D01*
X015946Y012043D02*
X035533Y012043D01*
X035533Y011885D02*
X015978Y011885D01*
X015983Y011968D02*
X015983Y011968D01*
X015983Y011968D01*
X015922Y011726D02*
X035533Y011726D01*
X035533Y011568D02*
X019588Y011568D01*
X019746Y011409D02*
X035533Y011409D01*
X035533Y011251D02*
X019905Y011251D01*
X020063Y011092D02*
X035533Y011092D01*
X035533Y010934D02*
X020222Y010934D01*
X020380Y010775D02*
X031348Y010775D01*
X031784Y010775D02*
X035533Y010775D01*
X035533Y010617D02*
X031878Y010617D01*
X031862Y010458D02*
X035533Y010458D01*
X035533Y010300D02*
X031739Y010300D01*
X031421Y010300D02*
X016606Y010300D01*
X016764Y010141D02*
X035533Y010141D01*
X035533Y009983D02*
X016923Y009983D01*
X017020Y009824D02*
X035533Y009824D01*
X035533Y009666D02*
X017020Y009666D01*
X017020Y009507D02*
X035533Y009507D01*
X035533Y009349D02*
X017020Y009349D01*
X017020Y009190D02*
X035533Y009190D01*
X035533Y009032D02*
X017124Y009032D01*
X017282Y008873D02*
X019930Y008873D01*
X019930Y009007D02*
X019930Y001287D01*
X000460Y001287D01*
X000460Y020612D01*
X000717Y020612D01*
X000688Y020597D01*
X000627Y020553D01*
X000574Y020500D01*
X000529Y020438D01*
X000495Y020371D01*
X000472Y020299D01*
X000460Y020225D01*
X000460Y020207D01*
X000920Y020207D01*
X000920Y020167D01*
X000460Y020167D01*
X000460Y020149D01*
X000472Y020075D01*
X000495Y020003D01*
X000529Y019935D01*
X000574Y019874D01*
X000627Y019821D01*
X000688Y019776D01*
X000756Y019742D01*
X000828Y019719D01*
X000902Y019707D01*
X000920Y019707D01*
X000920Y020167D01*
X000960Y020167D01*
X000960Y020207D01*
X001420Y020207D01*
X001420Y020225D01*
X001408Y020299D01*
X001385Y020371D01*
X001351Y020438D01*
X001306Y020500D01*
X001253Y020553D01*
X001192Y020597D01*
X001163Y020612D01*
X002596Y020612D01*
X002471Y020560D01*
X002347Y020436D01*
X002280Y020274D01*
X002280Y020099D01*
X002347Y019938D01*
X002471Y019814D01*
X002632Y019747D01*
X002808Y019747D01*
X002969Y019814D01*
X003093Y019938D01*
X003160Y020099D01*
X003160Y020274D01*
X003093Y020436D01*
X002969Y020560D01*
X002844Y020612D01*
X018884Y020612D01*
X018917Y020598D01*
X019036Y020598D01*
X019069Y020612D01*
X035533Y020612D01*
X035533Y001287D01*
X029780Y001287D01*
X029780Y009007D01*
X019930Y009007D01*
X019930Y008715D02*
X017441Y008715D01*
X017599Y008556D02*
X019930Y008556D01*
X019930Y008398D02*
X017758Y008398D01*
X017916Y008239D02*
X019930Y008239D01*
X019930Y008081D02*
X018075Y008081D01*
X018554Y007922D02*
X019930Y007922D01*
X019930Y007764D02*
X018666Y007764D01*
X018697Y007605D02*
X019930Y007605D01*
X019930Y007447D02*
X018665Y007447D01*
X018551Y007288D02*
X019930Y007288D01*
X019930Y007130D02*
X010020Y007130D01*
X010020Y007288D02*
X018009Y007288D01*
X017895Y007447D02*
X010020Y007447D01*
X010020Y006971D02*
X018070Y006971D01*
X018044Y006961D02*
X017926Y006843D01*
X017907Y006797D01*
X017451Y006797D01*
X017340Y006686D01*
X017140Y006486D01*
X017140Y005436D01*
X016951Y005247D01*
X010634Y005247D01*
X010619Y005283D01*
X010507Y005396D01*
X010360Y005457D01*
X010200Y005457D01*
X010053Y005396D01*
X009941Y005283D01*
X009880Y005136D01*
X009880Y004977D01*
X009941Y004830D01*
X010053Y004718D01*
X010200Y004657D01*
X010360Y004657D01*
X010507Y004718D01*
X010619Y004830D01*
X010634Y004867D01*
X017109Y004867D01*
X017220Y004978D01*
X017220Y004978D01*
X017409Y005167D01*
X017520Y005278D01*
X017520Y006328D01*
X017609Y006417D01*
X017907Y006417D01*
X017926Y006371D01*
X018044Y006253D01*
X018197Y006190D01*
X018363Y006190D01*
X018516Y006253D01*
X018634Y006371D01*
X018697Y006524D01*
X018697Y006690D01*
X018634Y006843D01*
X018516Y006961D01*
X018363Y007024D01*
X018197Y007024D01*
X018044Y006961D01*
X017914Y006813D02*
X015503Y006813D01*
X015493Y006823D02*
X015432Y006867D01*
X015364Y006902D01*
X015292Y006925D01*
X015218Y006937D01*
X015200Y006937D01*
X015200Y006477D01*
X015160Y006477D01*
X015160Y006937D01*
X015142Y006937D01*
X015068Y006925D01*
X014996Y006902D01*
X014928Y006867D01*
X014867Y006823D01*
X014814Y006770D01*
X014769Y006708D01*
X014735Y006641D01*
X014712Y006569D01*
X014700Y006495D01*
X014700Y006477D01*
X015160Y006477D01*
X015160Y006437D01*
X014700Y006437D01*
X014700Y006419D01*
X014712Y006345D01*
X014735Y006273D01*
X014769Y006205D01*
X014814Y006144D01*
X014867Y006091D01*
X014928Y006046D01*
X014996Y006012D01*
X015068Y005989D01*
X015142Y005977D01*
X015160Y005977D01*
X015160Y006437D01*
X015200Y006437D01*
X015200Y006477D01*
X015660Y006477D01*
X015660Y006495D01*
X015648Y006569D01*
X015625Y006641D01*
X015591Y006708D01*
X015546Y006770D01*
X015493Y006823D01*
X015618Y006654D02*
X017309Y006654D01*
X017150Y006496D02*
X015660Y006496D01*
X015660Y006437D02*
X015200Y006437D01*
X015200Y005977D01*
X015218Y005977D01*
X015292Y005989D01*
X015364Y006012D01*
X015432Y006046D01*
X015493Y006091D01*
X015546Y006144D01*
X015591Y006205D01*
X015625Y006273D01*
X015648Y006345D01*
X015660Y006419D01*
X015660Y006437D01*
X015646Y006337D02*
X017140Y006337D01*
X017140Y006179D02*
X015571Y006179D01*
X015381Y006020D02*
X017140Y006020D01*
X017140Y005862D02*
X011782Y005862D01*
X011769Y005830D02*
X011830Y005977D01*
X011830Y006136D01*
X011769Y006283D01*
X011657Y006396D01*
X011510Y006457D01*
X011350Y006457D01*
X011203Y006396D01*
X011091Y006283D01*
X011030Y006136D01*
X011030Y005977D01*
X011091Y005830D01*
X011203Y005718D01*
X011350Y005657D01*
X011510Y005657D01*
X011657Y005718D01*
X011769Y005830D01*
X011622Y005703D02*
X017140Y005703D01*
X017140Y005545D02*
X009987Y005545D01*
X010020Y005703D02*
X011238Y005703D01*
X011078Y005862D02*
X010020Y005862D01*
X010020Y006020D02*
X011030Y006020D01*
X011048Y006179D02*
X010020Y006179D01*
X010020Y006337D02*
X011145Y006337D01*
X011715Y006337D02*
X012753Y006337D01*
X012740Y006369D02*
X012807Y006208D01*
X012931Y006084D01*
X013092Y006017D01*
X013268Y006017D01*
X013429Y006084D01*
X013553Y006208D01*
X013620Y006369D01*
X013620Y006544D01*
X013553Y006706D01*
X013429Y006830D01*
X013268Y006897D01*
X013092Y006897D01*
X012931Y006830D01*
X012807Y006706D01*
X012740Y006544D01*
X012740Y006369D01*
X012740Y006496D02*
X010020Y006496D01*
X010020Y006654D02*
X012786Y006654D01*
X012914Y006813D02*
X010020Y006813D01*
X009011Y006971D02*
X003447Y006971D01*
X003375Y007130D02*
X008957Y007130D01*
X009870Y005386D02*
X010044Y005386D01*
X009918Y005228D02*
X009870Y005228D01*
X009870Y005069D02*
X009880Y005069D01*
X009870Y004911D02*
X009908Y004911D01*
X010003Y004752D02*
X010019Y004752D01*
X010162Y004594D02*
X010336Y004594D01*
X010469Y004659D02*
X010469Y004659D01*
X010469Y004659D01*
X010541Y004752D02*
X017889Y004752D01*
X017863Y004690D02*
X017926Y004843D01*
X018044Y004961D01*
X018197Y005024D01*
X018363Y005024D01*
X018516Y004961D01*
X018634Y004843D01*
X018697Y004690D01*
X018697Y004524D01*
X018634Y004371D01*
X018516Y004253D01*
X018363Y004190D01*
X018197Y004190D01*
X018044Y004253D01*
X017926Y004371D01*
X017863Y004524D01*
X017863Y004690D01*
X017863Y004594D02*
X010715Y004594D01*
X010820Y004435D02*
X016343Y004435D01*
X016247Y004277D02*
X010820Y004277D01*
X010151Y003801D02*
X016443Y003801D01*
X016461Y003715D02*
X016399Y003683D01*
X016343Y003643D01*
X016294Y003594D01*
X016254Y003538D01*
X016222Y003476D01*
X016201Y003410D01*
X016190Y003342D01*
X016190Y003307D01*
X016630Y003307D01*
X016630Y003747D01*
X016595Y003747D01*
X016527Y003736D01*
X016461Y003715D01*
X016344Y003643D02*
X010257Y003643D01*
X010280Y003484D02*
X016227Y003484D01*
X016190Y003326D02*
X010238Y003326D01*
X010106Y003167D02*
X016213Y003167D01*
X016222Y003138D02*
X016254Y003076D01*
X016294Y003020D01*
X016343Y002971D01*
X016399Y002931D01*
X016461Y002899D01*
X016527Y002878D01*
X016595Y002867D01*
X016630Y002867D01*
X016630Y003307D01*
X016630Y003307D01*
X016630Y003747D01*
X016665Y003747D01*
X016733Y003736D01*
X016799Y003715D01*
X016861Y003683D01*
X016917Y003643D01*
X016966Y003594D01*
X017006Y003538D01*
X017038Y003476D01*
X017059Y003410D01*
X017070Y003342D01*
X017070Y003307D01*
X016630Y003307D01*
X016630Y003307D01*
X016630Y003307D01*
X016190Y003307D01*
X016190Y003272D01*
X016201Y003204D01*
X016222Y003138D01*
X016306Y003009D02*
X014750Y003009D01*
X014803Y002956D02*
X014679Y003080D01*
X014518Y003147D01*
X014342Y003147D01*
X014181Y003080D01*
X014057Y002956D01*
X013990Y002794D01*
X013990Y002619D01*
X014057Y002458D01*
X014181Y002334D01*
X014342Y002267D01*
X014518Y002267D01*
X014679Y002334D01*
X014803Y002458D01*
X014870Y002619D01*
X014870Y002794D01*
X014803Y002956D01*
X014847Y002850D02*
X017934Y002850D01*
X017926Y002843D02*
X017863Y002690D01*
X017863Y002524D01*
X017926Y002371D01*
X018044Y002253D01*
X018197Y002190D01*
X018363Y002190D01*
X018516Y002253D01*
X018634Y002371D01*
X018697Y002524D01*
X018697Y002690D01*
X018634Y002843D01*
X018516Y002961D01*
X018363Y003024D01*
X018197Y003024D01*
X018044Y002961D01*
X017926Y002843D01*
X017864Y002692D02*
X016746Y002692D01*
X016710Y002707D02*
X016550Y002707D01*
X016403Y002646D01*
X016291Y002533D01*
X014834Y002533D01*
X014870Y002692D02*
X016514Y002692D01*
X016710Y002707D02*
X016857Y002646D01*
X016969Y002533D01*
X017863Y002533D01*
X017925Y002375D02*
X017030Y002375D01*
X017030Y002386D02*
X016969Y002533D01*
X017030Y002386D02*
X017030Y002227D01*
X016969Y002080D01*
X016857Y001968D01*
X016710Y001907D01*
X016550Y001907D01*
X016403Y001968D01*
X016291Y002080D01*
X016230Y002227D01*
X016230Y002386D01*
X016291Y002533D01*
X016230Y002375D02*
X014720Y002375D01*
X014140Y002375D02*
X013720Y002375D01*
X013679Y002334D02*
X013803Y002458D01*
X013870Y002619D01*
X013870Y002794D01*
X013803Y002956D01*
X013679Y003080D01*
X013518Y003147D01*
X013342Y003147D01*
X013181Y003080D01*
X013057Y002956D01*
X012990Y002794D01*
X012990Y002619D01*
X013057Y002458D01*
X013181Y002334D01*
X013342Y002267D01*
X013518Y002267D01*
X013679Y002334D01*
X013834Y002533D02*
X014026Y002533D01*
X013990Y002692D02*
X013870Y002692D01*
X013847Y002850D02*
X014013Y002850D01*
X014110Y003009D02*
X013750Y003009D01*
X013110Y003009D02*
X003178Y003009D01*
X003178Y003066D02*
X003178Y002948D01*
X003133Y002838D01*
X003049Y002754D01*
X002939Y002708D01*
X002903Y002708D01*
X002884Y002704D01*
X002884Y002704D01*
X002857Y002708D01*
X002821Y002708D01*
X002798Y002718D01*
X002634Y002744D01*
X002623Y002742D01*
X002603Y002747D01*
X001757Y002747D01*
X001737Y002742D01*
X001726Y002744D01*
X001562Y002718D01*
X001539Y002708D01*
X001503Y002708D01*
X001476Y002704D01*
X001476Y002704D01*
X001476Y002704D01*
X001457Y002708D01*
X001421Y002708D01*
X001311Y002754D01*
X001227Y002838D01*
X001182Y002948D01*
X001182Y003066D01*
X001227Y003176D01*
X001311Y003260D01*
X001421Y003305D01*
X001457Y003305D01*
X001476Y003310D01*
X001476Y003310D01*
X001503Y003305D01*
X001539Y003305D01*
X001562Y003296D01*
X001726Y003270D01*
X001737Y003272D01*
X001757Y003267D01*
X002603Y003267D01*
X002623Y003272D01*
X002634Y003270D01*
X002798Y003296D01*
X002821Y003305D01*
X002857Y003305D01*
X002884Y003310D01*
X002884Y003310D01*
X002884Y003310D01*
X002903Y003305D01*
X002939Y003305D01*
X003049Y003260D01*
X003133Y003176D01*
X003178Y003066D01*
X003137Y003167D02*
X009654Y003167D01*
X009800Y002907D02*
X009653Y002846D01*
X009541Y002733D01*
X009480Y002586D01*
X009480Y002427D01*
X009541Y002280D01*
X009653Y002168D01*
X009800Y002107D01*
X009960Y002107D01*
X010107Y002168D01*
X010219Y002280D01*
X010280Y002427D01*
X010280Y002586D01*
X010219Y002733D01*
X010107Y002846D01*
X009960Y002907D01*
X009800Y002907D01*
X009664Y002850D02*
X003138Y002850D01*
X002884Y002704D02*
X002884Y002704D01*
X001476Y003310D02*
X001476Y003310D01*
X001223Y003167D02*
X000460Y003167D01*
X000460Y003009D02*
X001182Y003009D01*
X001222Y002850D02*
X000460Y002850D01*
X000460Y002692D02*
X009524Y002692D01*
X009480Y002533D02*
X000460Y002533D01*
X000460Y002375D02*
X009502Y002375D01*
X009605Y002216D02*
X000460Y002216D01*
X000460Y002058D02*
X016313Y002058D01*
X016235Y002216D02*
X010155Y002216D01*
X010258Y002375D02*
X013140Y002375D01*
X013026Y002533D02*
X010280Y002533D01*
X010236Y002692D02*
X012990Y002692D01*
X013013Y002850D02*
X010096Y002850D01*
X010516Y005386D02*
X017091Y005386D01*
X017311Y005069D02*
X019930Y005069D01*
X019930Y004911D02*
X018566Y004911D01*
X018671Y004752D02*
X019930Y004752D01*
X019930Y004594D02*
X018697Y004594D01*
X018660Y004435D02*
X019930Y004435D01*
X019930Y004277D02*
X018540Y004277D01*
X018455Y004031D02*
X018387Y004053D01*
X018316Y004064D01*
X018289Y004064D01*
X018289Y003616D01*
X018271Y003616D01*
X018271Y004064D01*
X018244Y004064D01*
X018173Y004053D01*
X018105Y004031D01*
X018040Y003998D01*
X017982Y003956D01*
X017931Y003905D01*
X017889Y003847D01*
X017856Y003782D01*
X017834Y003714D01*
X017823Y003643D01*
X016916Y003643D01*
X016817Y003801D02*
X017866Y003801D01*
X017823Y003643D02*
X017823Y003615D01*
X018271Y003615D01*
X018271Y003598D01*
X018289Y003598D01*
X018289Y003615D01*
X018737Y003615D01*
X018737Y003643D01*
X019930Y003643D01*
X019930Y003801D02*
X018694Y003801D01*
X018704Y003782D02*
X018671Y003847D01*
X018629Y003905D01*
X018578Y003956D01*
X018520Y003998D01*
X018455Y004031D01*
X018572Y003960D02*
X019930Y003960D01*
X019930Y004118D02*
X017030Y004118D01*
X017013Y004277D02*
X018020Y004277D01*
X017899Y004435D02*
X016917Y004435D01*
X016981Y003960D02*
X017988Y003960D01*
X018271Y003960D02*
X018289Y003960D01*
X018289Y003801D02*
X018271Y003801D01*
X018271Y003643D02*
X018289Y003643D01*
X018289Y003598D02*
X018737Y003598D01*
X018737Y003571D01*
X018726Y003500D01*
X018704Y003431D01*
X018671Y003367D01*
X018629Y003309D01*
X018578Y003258D01*
X018520Y003216D01*
X018455Y003183D01*
X018387Y003161D01*
X018316Y003150D01*
X018289Y003150D01*
X018289Y003598D01*
X018271Y003598D02*
X018271Y003150D01*
X018244Y003150D01*
X018173Y003161D01*
X018105Y003183D01*
X018040Y003216D01*
X017982Y003258D01*
X017931Y003309D01*
X017889Y003367D01*
X017856Y003431D01*
X017834Y003500D01*
X017823Y003571D01*
X017823Y003598D01*
X018271Y003598D01*
X018271Y003484D02*
X018289Y003484D01*
X018289Y003326D02*
X018271Y003326D01*
X018271Y003167D02*
X018289Y003167D01*
X018407Y003167D02*
X019930Y003167D01*
X019930Y003009D02*
X018400Y003009D01*
X018160Y003009D02*
X016954Y003009D01*
X016966Y003020D02*
X017006Y003076D01*
X017038Y003138D01*
X017059Y003204D01*
X017070Y003272D01*
X017070Y003307D01*
X016630Y003307D01*
X016630Y002867D01*
X016665Y002867D01*
X016733Y002878D01*
X016799Y002899D01*
X016861Y002931D01*
X016917Y002971D01*
X016966Y003020D01*
X017047Y003167D02*
X018153Y003167D01*
X017919Y003326D02*
X017070Y003326D01*
X017033Y003484D02*
X017839Y003484D01*
X018641Y003326D02*
X019930Y003326D01*
X019930Y003484D02*
X018721Y003484D01*
X018737Y003643D02*
X018726Y003714D01*
X018704Y003782D01*
X018626Y002850D02*
X019930Y002850D01*
X019930Y002692D02*
X018696Y002692D01*
X018697Y002533D02*
X019930Y002533D01*
X019930Y002375D02*
X018635Y002375D01*
X018427Y002216D02*
X019930Y002216D01*
X019930Y002058D02*
X016947Y002058D01*
X017025Y002216D02*
X018133Y002216D01*
X016630Y003009D02*
X016630Y003009D01*
X016630Y003167D02*
X016630Y003167D01*
X016630Y003307D02*
X016630Y003307D01*
X016630Y003326D02*
X016630Y003326D01*
X016630Y003484D02*
X016630Y003484D01*
X016630Y003643D02*
X016630Y003643D01*
X017153Y004911D02*
X017994Y004911D01*
X018105Y005228D02*
X017470Y005228D01*
X017409Y005167D02*
X017409Y005167D01*
X017520Y005386D02*
X017920Y005386D01*
X017926Y005371D02*
X018044Y005253D01*
X018197Y005190D01*
X018363Y005190D01*
X018516Y005253D01*
X018634Y005371D01*
X018697Y005524D01*
X018697Y005690D01*
X018634Y005843D01*
X018516Y005961D01*
X018363Y006024D01*
X018197Y006024D01*
X018044Y005961D01*
X017926Y005843D01*
X017863Y005690D01*
X017863Y005524D01*
X017926Y005371D01*
X017863Y005545D02*
X017520Y005545D01*
X017520Y005703D02*
X017868Y005703D01*
X017945Y005862D02*
X017520Y005862D01*
X017520Y006020D02*
X018188Y006020D01*
X018372Y006020D02*
X019930Y006020D01*
X019930Y005862D02*
X018615Y005862D01*
X018692Y005703D02*
X019930Y005703D01*
X019930Y005545D02*
X018697Y005545D01*
X018640Y005386D02*
X019930Y005386D01*
X019930Y005228D02*
X018455Y005228D01*
X018600Y006337D02*
X019930Y006337D01*
X019930Y006179D02*
X017520Y006179D01*
X017529Y006337D02*
X017960Y006337D01*
X018686Y006496D02*
X019930Y006496D01*
X019930Y006654D02*
X018697Y006654D01*
X018646Y006813D02*
X019930Y006813D01*
X019930Y006971D02*
X018490Y006971D01*
X016903Y008715D02*
X014657Y008715D01*
X016447Y010458D02*
X020160Y010458D01*
X020001Y010617D02*
X016289Y010617D01*
X016130Y010775D02*
X019843Y010775D01*
X019684Y010934D02*
X016130Y010934D01*
X016086Y011092D02*
X019526Y011092D01*
X015890Y013470D02*
X015870Y013470D01*
X015870Y013628D02*
X015890Y013628D01*
X015890Y013787D02*
X015870Y013787D01*
X015870Y013945D02*
X015890Y013945D01*
X015890Y014104D02*
X015870Y014104D01*
X015870Y014262D02*
X015890Y014262D01*
X015890Y014421D02*
X015870Y014421D01*
X015870Y014579D02*
X015890Y014579D01*
X015890Y014738D02*
X015870Y014738D01*
X015870Y014896D02*
X015890Y014896D01*
X015890Y015055D02*
X015870Y015055D01*
X015870Y015213D02*
X015890Y015213D01*
X015890Y015372D02*
X015870Y015372D01*
X015870Y015530D02*
X015883Y015530D01*
X015870Y015689D02*
X015913Y015689D01*
X015943Y015847D02*
X015870Y015847D01*
X015951Y015890D02*
X015951Y015890D01*
X015951Y015890D01*
X015870Y016006D02*
X016057Y016006D01*
X015870Y016164D02*
X035533Y016164D01*
X035533Y016006D02*
X016403Y016006D01*
X016516Y015847D02*
X035533Y015847D01*
X035533Y015689D02*
X016525Y015689D01*
X016437Y015530D02*
X035533Y015530D01*
X035533Y015372D02*
X016270Y015372D01*
X016270Y015213D02*
X035533Y015213D01*
X035533Y015055D02*
X016270Y015055D01*
X016270Y014896D02*
X035533Y014896D01*
X035533Y014738D02*
X016270Y014738D01*
X015490Y014738D02*
X014386Y014738D01*
X014420Y014896D02*
X015490Y014896D01*
X015490Y015055D02*
X014395Y015055D01*
X014296Y015213D02*
X015490Y015213D01*
X016436Y015527D02*
X016436Y015527D01*
X016436Y015527D01*
X015870Y016323D02*
X035533Y016323D01*
X035533Y016481D02*
X015870Y016481D01*
X015870Y016640D02*
X035533Y016640D01*
X035533Y016798D02*
X015870Y016798D01*
X015914Y016957D02*
X035533Y016957D01*
X035533Y017115D02*
X015978Y017115D01*
X015983Y017096D02*
X015983Y017096D01*
X015983Y017096D01*
X015955Y017274D02*
X035533Y017274D01*
X035533Y017432D02*
X015795Y017432D01*
X015565Y017432D02*
X003116Y017432D01*
X003160Y017591D02*
X011674Y017591D01*
X011731Y017534D02*
X011892Y017467D01*
X012068Y017467D01*
X012229Y017534D01*
X012353Y017658D01*
X012420Y017819D01*
X012420Y017994D01*
X012353Y018156D01*
X012229Y018280D01*
X012068Y018347D01*
X011892Y018347D01*
X011731Y018280D01*
X011607Y018156D01*
X011540Y017994D01*
X011540Y017819D01*
X011607Y017658D01*
X011731Y017534D01*
X011725Y017274D02*
X002989Y017274D01*
X003064Y017115D02*
X004950Y017115D01*
X004903Y017096D02*
X004791Y016983D01*
X004730Y016836D01*
X004730Y016677D01*
X004791Y016530D01*
X004903Y016418D01*
X005050Y016357D01*
X005210Y016357D01*
X005357Y016418D01*
X005469Y016530D01*
X005530Y016677D01*
X005530Y016836D01*
X005469Y016983D01*
X005357Y017096D01*
X005210Y017157D01*
X005050Y017157D01*
X004903Y017096D01*
X004780Y016957D02*
X003147Y016957D01*
X003160Y016798D02*
X004730Y016798D01*
X004745Y016640D02*
X003115Y016640D01*
X002987Y016481D02*
X004840Y016481D01*
X005420Y016481D02*
X005915Y016481D01*
X005860Y016640D02*
X005515Y016640D01*
X005530Y016798D02*
X005860Y016798D01*
X005925Y016957D02*
X005480Y016957D01*
X005310Y017115D02*
X006088Y017115D01*
X006696Y016006D02*
X006964Y016006D01*
X006879Y015847D02*
X006781Y015847D01*
X006800Y015689D02*
X006860Y015689D01*
X006894Y015530D02*
X006766Y015530D01*
X006660Y015372D02*
X007000Y015372D01*
X007660Y015372D02*
X008000Y015372D01*
X007894Y015530D02*
X007766Y015530D01*
X007800Y015689D02*
X007860Y015689D01*
X007879Y015847D02*
X007781Y015847D01*
X007696Y016006D02*
X007964Y016006D01*
X008696Y016006D02*
X008964Y016006D01*
X008879Y015847D02*
X008781Y015847D01*
X008800Y015689D02*
X008860Y015689D01*
X008894Y015530D02*
X008766Y015530D01*
X008660Y015372D02*
X009000Y015372D01*
X009781Y015847D02*
X009839Y015847D01*
X009917Y016006D02*
X009696Y016006D01*
X010312Y016323D02*
X010348Y016323D01*
X010348Y016481D02*
X010312Y016481D01*
X010312Y016640D02*
X010348Y016640D01*
X010348Y016725D02*
X010840Y016725D01*
X010840Y016747D01*
X010827Y016826D01*
X010803Y016903D01*
X010766Y016974D01*
X010719Y017039D01*
X010662Y017096D01*
X010597Y017143D01*
X010526Y017180D01*
X010449Y017204D01*
X010370Y017217D01*
X010348Y017217D01*
X010348Y016725D01*
X010348Y016798D02*
X010312Y016798D01*
X010312Y016957D02*
X010348Y016957D01*
X010348Y017115D02*
X010312Y017115D01*
X010635Y017115D02*
X011590Y017115D01*
X011540Y016957D02*
X010775Y016957D01*
X010832Y016798D02*
X011549Y016798D01*
X011625Y016640D02*
X010836Y016640D01*
X010787Y016481D02*
X011857Y016481D01*
X011835Y016323D02*
X010667Y016323D01*
X010555Y016164D02*
X011615Y016164D01*
X011545Y016006D02*
X010743Y016006D01*
X010821Y015847D02*
X011540Y015847D01*
X012335Y016640D02*
X013625Y016640D01*
X013549Y016798D02*
X012411Y016798D01*
X012420Y016957D02*
X013540Y016957D01*
X013590Y017115D02*
X012370Y017115D01*
X012235Y017274D02*
X013725Y017274D01*
X013892Y017467D02*
X014068Y017467D01*
X014229Y017534D01*
X014353Y017658D01*
X014420Y017819D01*
X014420Y017994D01*
X014353Y018156D01*
X014229Y018280D01*
X014068Y018347D01*
X013892Y018347D01*
X013731Y018280D01*
X013607Y018156D01*
X013540Y017994D01*
X013540Y017819D01*
X013607Y017658D01*
X013731Y017534D01*
X013892Y017467D01*
X013674Y017591D02*
X012286Y017591D01*
X012391Y017749D02*
X013569Y017749D01*
X013540Y017908D02*
X012420Y017908D01*
X012390Y018066D02*
X013570Y018066D01*
X013676Y018225D02*
X012284Y018225D01*
X012229Y018534D02*
X012068Y018467D01*
X011892Y018467D01*
X011731Y018534D01*
X011607Y018658D01*
X011540Y018819D01*
X011540Y018994D01*
X011607Y019156D01*
X011731Y019280D01*
X011892Y019347D01*
X012068Y019347D01*
X012229Y019280D01*
X012353Y019156D01*
X012420Y018994D01*
X012420Y018819D01*
X012353Y018658D01*
X012229Y018534D01*
X012237Y018542D02*
X013666Y018542D01*
X013667Y018541D02*
X013728Y018496D01*
X013796Y018462D01*
X013868Y018439D01*
X013942Y018427D01*
X013960Y018427D01*
X013960Y018887D01*
X013500Y018887D01*
X013500Y018869D01*
X013512Y018795D01*
X013535Y018723D01*
X013569Y018655D01*
X013614Y018594D01*
X013667Y018541D01*
X013546Y018700D02*
X012371Y018700D01*
X012420Y018859D02*
X013502Y018859D01*
X013500Y018927D02*
X013960Y018927D01*
X013960Y019387D01*
X013942Y019387D01*
X013868Y019375D01*
X013796Y019352D01*
X013728Y019317D01*
X013667Y019273D01*
X013614Y019220D01*
X013569Y019158D01*
X013535Y019091D01*
X013512Y019019D01*
X013500Y018945D01*
X013500Y018927D01*
X013512Y019017D02*
X012410Y019017D01*
X012333Y019176D02*
X013582Y019176D01*
X013762Y019334D02*
X012098Y019334D01*
X012068Y019467D02*
X012229Y019534D01*
X012353Y019658D01*
X012420Y019819D01*
X012420Y019994D01*
X012353Y020156D01*
X012229Y020280D01*
X012068Y020347D01*
X011892Y020347D01*
X011731Y020280D01*
X011607Y020156D01*
X011540Y019994D01*
X011540Y019819D01*
X011607Y019658D01*
X011731Y019534D01*
X011892Y019467D01*
X012068Y019467D01*
X012130Y019493D02*
X013830Y019493D01*
X013892Y019467D02*
X014068Y019467D01*
X014229Y019534D01*
X014353Y019658D01*
X014420Y019819D01*
X014420Y019994D01*
X014353Y020156D01*
X014229Y020280D01*
X014068Y020347D01*
X013892Y020347D01*
X013731Y020280D01*
X013607Y020156D01*
X013540Y019994D01*
X013540Y019819D01*
X013607Y019658D01*
X013731Y019534D01*
X013892Y019467D01*
X014000Y019387D02*
X014018Y019387D01*
X014092Y019375D01*
X014164Y019352D01*
X014232Y019317D01*
X014293Y019273D01*
X014346Y019220D01*
X014391Y019158D01*
X014425Y019091D01*
X014448Y019019D01*
X014460Y018945D01*
X014460Y018927D01*
X014000Y018927D01*
X013960Y018927D01*
X013960Y018887D01*
X014000Y018887D01*
X014000Y018927D01*
X014000Y019387D01*
X014000Y019334D02*
X013960Y019334D01*
X013960Y019176D02*
X014000Y019176D01*
X014000Y019017D02*
X013960Y019017D01*
X014000Y018887D02*
X014460Y018887D01*
X014460Y018869D01*
X014448Y018795D01*
X014425Y018723D01*
X014391Y018655D01*
X014346Y018594D01*
X014293Y018541D01*
X014232Y018496D01*
X014164Y018462D01*
X014092Y018439D01*
X014018Y018427D01*
X014000Y018427D01*
X014000Y018887D01*
X014000Y018859D02*
X013960Y018859D01*
X013960Y018700D02*
X014000Y018700D01*
X014000Y018542D02*
X013960Y018542D01*
X014294Y018542D02*
X015221Y018542D01*
X015222Y018538D02*
X015254Y018476D01*
X015294Y018420D01*
X015343Y018371D01*
X015399Y018331D01*
X015461Y018299D01*
X015527Y018278D01*
X015595Y018267D01*
X015630Y018267D01*
X015630Y018707D01*
X015630Y019147D01*
X015595Y019147D01*
X015527Y019136D01*
X015461Y019115D01*
X015399Y019083D01*
X015343Y019043D01*
X015294Y018994D01*
X015254Y018938D01*
X015222Y018876D01*
X015201Y018810D01*
X015190Y018742D01*
X015190Y018707D01*
X015630Y018707D01*
X015630Y018707D01*
X015630Y019147D01*
X015665Y019147D01*
X015733Y019136D01*
X015799Y019115D01*
X015861Y019083D01*
X015917Y019043D01*
X015966Y018994D01*
X016006Y018938D01*
X016038Y018876D01*
X016059Y018810D01*
X016070Y018742D01*
X016070Y018707D01*
X015630Y018707D01*
X015630Y018707D01*
X015630Y018707D01*
X015190Y018707D01*
X015190Y018672D01*
X015201Y018604D01*
X015222Y018538D01*
X015190Y018700D02*
X014414Y018700D01*
X014458Y018859D02*
X015217Y018859D01*
X015318Y019017D02*
X014448Y019017D01*
X014378Y019176D02*
X035533Y019176D01*
X035533Y019334D02*
X015776Y019334D01*
X015710Y019307D02*
X015857Y019368D01*
X015969Y019480D01*
X016030Y019627D01*
X016030Y019786D01*
X015969Y019933D01*
X015857Y020046D01*
X015710Y020107D01*
X015550Y020107D01*
X015403Y020046D01*
X015291Y019933D01*
X015230Y019786D01*
X015230Y019627D01*
X015291Y019480D01*
X015403Y019368D01*
X015550Y019307D01*
X015710Y019307D01*
X015484Y019334D02*
X014198Y019334D01*
X014130Y019493D02*
X015286Y019493D01*
X015230Y019651D02*
X014347Y019651D01*
X014416Y019810D02*
X015240Y019810D01*
X015326Y019968D02*
X014420Y019968D01*
X014365Y020127D02*
X035533Y020127D01*
X035533Y020285D02*
X014216Y020285D01*
X013744Y020285D02*
X012216Y020285D01*
X012365Y020127D02*
X013595Y020127D01*
X013540Y019968D02*
X012420Y019968D01*
X012416Y019810D02*
X013544Y019810D01*
X013613Y019651D02*
X012347Y019651D01*
X011862Y019334D02*
X000460Y019334D01*
X000460Y019176D02*
X011627Y019176D01*
X011550Y019017D02*
X000460Y019017D01*
X000460Y018859D02*
X011540Y018859D01*
X011589Y018700D02*
X000460Y018700D01*
X000460Y018542D02*
X011723Y018542D01*
X011676Y018225D02*
X000460Y018225D01*
X000460Y018383D02*
X015331Y018383D01*
X015630Y018383D02*
X015630Y018383D01*
X015630Y018267D02*
X015665Y018267D01*
X015733Y018278D01*
X015799Y018299D01*
X015861Y018331D01*
X015917Y018371D01*
X015966Y018420D01*
X016006Y018476D01*
X016038Y018538D01*
X016059Y018604D01*
X016070Y018672D01*
X016070Y018707D01*
X015630Y018707D01*
X015630Y018267D01*
X015630Y018542D02*
X015630Y018542D01*
X015630Y018700D02*
X015630Y018700D01*
X015630Y018707D02*
X015630Y018707D01*
X015630Y018859D02*
X015630Y018859D01*
X015630Y019017D02*
X015630Y019017D01*
X015942Y019017D02*
X035533Y019017D01*
X035533Y018859D02*
X016043Y018859D01*
X016070Y018700D02*
X035533Y018700D01*
X035533Y018542D02*
X016039Y018542D01*
X015929Y018383D02*
X035533Y018383D01*
X035533Y018225D02*
X014284Y018225D01*
X014390Y018066D02*
X035533Y018066D01*
X035533Y017908D02*
X014420Y017908D01*
X014391Y017749D02*
X035533Y017749D01*
X035533Y017591D02*
X014286Y017591D01*
X014235Y017274D02*
X015405Y017274D01*
X015382Y017115D02*
X014370Y017115D01*
X014420Y016957D02*
X015446Y016957D01*
X015490Y016798D02*
X014411Y016798D01*
X014335Y016640D02*
X015490Y016640D01*
X017916Y014109D02*
X017916Y014109D01*
X011569Y017749D02*
X003145Y017749D01*
X003061Y017908D02*
X011540Y017908D01*
X011570Y018066D02*
X002809Y018066D01*
X002631Y018066D02*
X001135Y018066D01*
X001124Y018072D02*
X001052Y018095D01*
X000978Y018107D01*
X000960Y018107D01*
X000960Y017647D01*
X000920Y017647D01*
X000920Y018107D01*
X000902Y018107D01*
X000828Y018095D01*
X000756Y018072D01*
X000688Y018037D01*
X000627Y017993D01*
X000574Y017940D01*
X000529Y017878D01*
X000495Y017811D01*
X000472Y017739D01*
X000460Y017665D01*
X000460Y017647D01*
X000920Y017647D01*
X000920Y017607D01*
X000460Y017607D01*
X000460Y017589D01*
X000472Y017515D01*
X000495Y017443D01*
X000529Y017375D01*
X000574Y017314D01*
X000627Y017261D01*
X000667Y017232D01*
X000627Y017203D01*
X000574Y017150D01*
X000529Y017088D01*
X000495Y017021D01*
X000472Y016949D01*
X000460Y016875D01*
X000460Y016857D01*
X000920Y016857D01*
X000920Y017607D01*
X000960Y017607D01*
X000960Y017647D01*
X001420Y017647D01*
X001420Y017665D01*
X001408Y017739D01*
X001385Y017811D01*
X001351Y017878D01*
X001306Y017940D01*
X001253Y017993D01*
X001192Y018037D01*
X001124Y018072D01*
X000960Y018066D02*
X000920Y018066D01*
X000920Y017908D02*
X000960Y017908D01*
X000960Y017749D02*
X000920Y017749D01*
X000960Y017607D02*
X001420Y017607D01*
X001420Y017589D01*
X001408Y017515D01*
X001385Y017443D01*
X001351Y017375D01*
X001306Y017314D01*
X001253Y017261D01*
X001213Y017232D01*
X001253Y017203D01*
X001306Y017150D01*
X001351Y017088D01*
X001385Y017021D01*
X001408Y016949D01*
X001420Y016875D01*
X001420Y016857D01*
X000960Y016857D01*
X000920Y016857D01*
X000920Y016817D01*
X000460Y016817D01*
X000460Y016799D01*
X000472Y016725D01*
X000495Y016653D01*
X000529Y016585D01*
X000574Y016524D01*
X000627Y016471D01*
X000688Y016426D01*
X000756Y016392D01*
X000828Y016369D01*
X000902Y016357D01*
X000920Y016357D01*
X000920Y016817D01*
X000960Y016817D01*
X000960Y016857D01*
X000960Y017147D01*
X000960Y017607D01*
X000960Y017591D02*
X000920Y017591D01*
X000920Y017432D02*
X000960Y017432D01*
X000960Y017274D02*
X000920Y017274D01*
X000920Y017115D02*
X000960Y017115D01*
X000960Y016957D02*
X000920Y016957D01*
X000960Y016817D02*
X001420Y016817D01*
X001420Y016799D01*
X001408Y016725D01*
X001385Y016653D01*
X001351Y016585D01*
X001306Y016524D01*
X001253Y016471D01*
X001192Y016426D01*
X001124Y016392D01*
X001052Y016369D01*
X000978Y016357D01*
X000960Y016357D01*
X000960Y016817D01*
X000960Y016798D02*
X000920Y016798D01*
X000920Y016640D02*
X000960Y016640D01*
X000960Y016481D02*
X000920Y016481D01*
X000617Y016481D02*
X000460Y016481D01*
X000460Y016323D02*
X001540Y016323D01*
X001540Y016481D02*
X001263Y016481D01*
X001378Y016640D02*
X001540Y016640D01*
X001603Y016798D02*
X001420Y016798D01*
X001406Y016957D02*
X001761Y016957D01*
X001920Y017115D02*
X001331Y017115D01*
X001266Y017274D02*
X002078Y017274D01*
X002237Y017432D02*
X001380Y017432D01*
X001420Y017591D02*
X002280Y017591D01*
X002295Y017749D02*
X001405Y017749D01*
X001329Y017908D02*
X002379Y017908D01*
X002280Y016798D02*
X002140Y016798D01*
X001982Y016640D02*
X002325Y016640D01*
X002453Y016481D02*
X001920Y016481D01*
X001540Y016164D02*
X000460Y016164D01*
X000460Y016006D02*
X001540Y016006D01*
X001540Y015847D02*
X000460Y015847D01*
X000460Y015689D02*
X001540Y015689D01*
X001540Y015530D02*
X000460Y015530D01*
X000460Y015372D02*
X001540Y015372D01*
X001540Y015213D02*
X000460Y015213D01*
X000460Y015055D02*
X001540Y015055D01*
X000566Y014579D02*
X000460Y014579D01*
X000460Y014421D02*
X000482Y014421D01*
X002120Y013945D02*
X002429Y013945D01*
X002348Y013787D02*
X002120Y013787D01*
X002120Y013628D02*
X002282Y013628D01*
X002280Y013470D02*
X002120Y013470D01*
X002120Y013311D02*
X002337Y013311D01*
X002497Y013153D02*
X002120Y013153D01*
X000960Y011409D02*
X000920Y011409D01*
X000920Y011251D02*
X000960Y011251D01*
X000960Y011092D02*
X000920Y011092D01*
X000920Y010934D02*
X000960Y010934D01*
X000960Y010775D02*
X000920Y010775D01*
X000920Y010617D02*
X000960Y010617D01*
X000621Y010617D02*
X000460Y010617D01*
X000460Y010775D02*
X000504Y010775D01*
X000460Y010934D02*
X000461Y010934D01*
X000460Y011092D02*
X000473Y011092D01*
X000460Y011251D02*
X000546Y011251D01*
X000460Y011409D02*
X000732Y011409D01*
X002424Y009032D02*
X002576Y009032D01*
X002540Y008873D02*
X002420Y008873D01*
X002397Y008715D02*
X002563Y008715D01*
X002658Y008556D02*
X002302Y008556D01*
X002206Y008239D02*
X002754Y008239D01*
X002597Y008081D02*
X002363Y008081D01*
X002353Y008106D02*
X002229Y008230D01*
X002068Y008297D01*
X001892Y008297D01*
X001731Y008230D01*
X001607Y008106D01*
X001540Y007944D01*
X001540Y007769D01*
X001607Y007608D01*
X001731Y007484D01*
X001892Y007417D01*
X002068Y007417D01*
X002229Y007484D01*
X002353Y007608D01*
X002420Y007769D01*
X002420Y007944D01*
X002353Y008106D01*
X002420Y007922D02*
X002540Y007922D01*
X002542Y007764D02*
X002418Y007764D01*
X002351Y007605D02*
X002609Y007605D01*
X002820Y007447D02*
X002140Y007447D01*
X002068Y007297D02*
X001892Y007297D01*
X001731Y007230D01*
X001607Y007106D01*
X001540Y006944D01*
X001540Y006769D01*
X001607Y006608D01*
X001731Y006484D01*
X001892Y006417D01*
X002068Y006417D01*
X002229Y006484D01*
X002353Y006608D01*
X002420Y006769D01*
X002420Y006944D01*
X002353Y007106D01*
X002229Y007230D01*
X002068Y007297D01*
X002088Y007288D02*
X002770Y007288D01*
X002585Y007130D02*
X002329Y007130D01*
X002409Y006971D02*
X002513Y006971D01*
X002501Y006813D02*
X002420Y006813D01*
X002372Y006654D02*
X002544Y006654D01*
X002662Y006496D02*
X002241Y006496D01*
X002280Y006179D02*
X002623Y006179D01*
X002528Y006020D02*
X002389Y006020D01*
X002420Y005862D02*
X002960Y005862D01*
X003000Y005862D02*
X004790Y005862D01*
X004790Y006020D02*
X003432Y006020D01*
X003337Y006179D02*
X004790Y006179D01*
X004790Y005703D02*
X003435Y005703D01*
X003000Y006020D02*
X002960Y006020D01*
X002960Y006179D02*
X003000Y006179D01*
X002525Y005703D02*
X002393Y005703D01*
X001719Y006496D02*
X001520Y006496D01*
X001520Y006654D02*
X001588Y006654D01*
X001540Y006813D02*
X001520Y006813D01*
X001520Y006971D02*
X001551Y006971D01*
X001520Y007130D02*
X001631Y007130D01*
X001520Y007288D02*
X001872Y007288D01*
X001820Y007447D02*
X001520Y007447D01*
X001520Y007605D02*
X001609Y007605D01*
X001542Y007764D02*
X001520Y007764D01*
X001520Y007922D02*
X001540Y007922D01*
X001520Y008081D02*
X001597Y008081D01*
X001520Y008239D02*
X001754Y008239D01*
X001099Y005069D02*
X000460Y005069D01*
X000460Y004911D02*
X001257Y004911D01*
X000460Y001899D02*
X019930Y001899D01*
X019930Y001741D02*
X000460Y001741D01*
X000460Y001582D02*
X019930Y001582D01*
X019930Y001424D02*
X000460Y001424D01*
X011830Y006020D02*
X013084Y006020D01*
X013276Y006020D02*
X014084Y006020D01*
X014092Y006017D02*
X014268Y006017D01*
X014429Y006084D01*
X014553Y006208D01*
X014620Y006369D01*
X014620Y006544D01*
X014553Y006706D01*
X014429Y006830D01*
X014268Y006897D01*
X014092Y006897D01*
X013931Y006830D01*
X013807Y006706D01*
X013740Y006544D01*
X013740Y006369D01*
X013807Y006208D01*
X013931Y006084D01*
X014092Y006017D01*
X014276Y006020D02*
X014979Y006020D01*
X015160Y006020D02*
X015200Y006020D01*
X015200Y006179D02*
X015160Y006179D01*
X015160Y006337D02*
X015200Y006337D01*
X015200Y006496D02*
X015160Y006496D01*
X015160Y006654D02*
X015200Y006654D01*
X015200Y006813D02*
X015160Y006813D01*
X014857Y006813D02*
X014446Y006813D01*
X014574Y006654D02*
X014742Y006654D01*
X014700Y006496D02*
X014620Y006496D01*
X014607Y006337D02*
X014714Y006337D01*
X014789Y006179D02*
X014524Y006179D01*
X013836Y006179D02*
X013524Y006179D01*
X013607Y006337D02*
X013753Y006337D01*
X013740Y006496D02*
X013620Y006496D01*
X013574Y006654D02*
X013786Y006654D01*
X013914Y006813D02*
X013446Y006813D01*
X012836Y006179D02*
X011812Y006179D01*
X000502Y016640D02*
X000460Y016640D01*
X000460Y016798D02*
X000460Y016798D01*
X000460Y016957D02*
X000474Y016957D01*
X000460Y017115D02*
X000549Y017115D01*
X000614Y017274D02*
X000460Y017274D01*
X000460Y017432D02*
X000500Y017432D01*
X000475Y017749D02*
X000460Y017749D01*
X000460Y017908D02*
X000551Y017908D01*
X000460Y018066D02*
X000745Y018066D01*
X000460Y019493D02*
X011830Y019493D01*
X011613Y019651D02*
X000460Y019651D01*
X000460Y019810D02*
X000642Y019810D01*
X000513Y019968D02*
X000460Y019968D01*
X000460Y020127D02*
X000464Y020127D01*
X000460Y020285D02*
X000470Y020285D01*
X000460Y020444D02*
X000533Y020444D01*
X000460Y020602D02*
X000698Y020602D01*
X001182Y020602D02*
X002573Y020602D01*
X002355Y020444D02*
X001347Y020444D01*
X001410Y020285D02*
X002285Y020285D01*
X002280Y020127D02*
X001416Y020127D01*
X001420Y020149D02*
X001420Y020167D01*
X000960Y020167D01*
X000960Y019707D01*
X000978Y019707D01*
X001052Y019719D01*
X001124Y019742D01*
X001192Y019776D01*
X001253Y019821D01*
X001306Y019874D01*
X001351Y019935D01*
X001385Y020003D01*
X001408Y020075D01*
X001420Y020149D01*
X001367Y019968D02*
X002334Y019968D01*
X002480Y019810D02*
X001238Y019810D01*
X000960Y019810D02*
X000920Y019810D01*
X000920Y019968D02*
X000960Y019968D01*
X000960Y020127D02*
X000920Y020127D01*
X002867Y020602D02*
X018907Y020602D01*
X019046Y020602D02*
X035533Y020602D01*
X035533Y020444D02*
X003085Y020444D01*
X003155Y020285D02*
X011744Y020285D01*
X011595Y020127D02*
X003160Y020127D01*
X003106Y019968D02*
X011540Y019968D01*
X011544Y019810D02*
X002960Y019810D01*
X015934Y019968D02*
X035533Y019968D01*
X035533Y019810D02*
X016020Y019810D01*
X016030Y019651D02*
X035533Y019651D01*
X035533Y019493D02*
X015974Y019493D01*
X029877Y008826D02*
X029961Y008910D01*
X030071Y008955D01*
X030179Y008955D01*
X030191Y008959D01*
X030191Y008959D01*
X030191Y008959D01*
X030236Y008937D01*
X030253Y008929D01*
X030299Y008910D01*
X030306Y008903D01*
X030420Y008847D01*
X033009Y008847D01*
X033833Y008022D01*
X033892Y008047D01*
X034068Y008047D01*
X034229Y007980D01*
X034353Y007856D01*
X034420Y007694D01*
X034420Y007519D01*
X034353Y007358D01*
X034229Y007234D01*
X034068Y007167D01*
X033892Y007167D01*
X033731Y007234D01*
X033607Y007358D01*
X033540Y007519D01*
X033540Y007694D01*
X033565Y007754D01*
X032851Y008467D01*
X030420Y008467D01*
X030332Y008424D01*
X030332Y008424D01*
X030306Y008411D01*
X030299Y008404D01*
X030253Y008385D01*
X030191Y008354D01*
X030179Y008358D01*
X030071Y008358D01*
X029961Y008404D01*
X029877Y008488D01*
X029832Y008598D01*
X029832Y008716D01*
X029877Y008826D01*
X029924Y008873D02*
X029780Y008873D01*
X029780Y008715D02*
X029832Y008715D01*
X029849Y008556D02*
X029780Y008556D01*
X029780Y008398D02*
X029975Y008398D01*
X029780Y008239D02*
X033079Y008239D01*
X033068Y008047D02*
X032892Y008047D01*
X032731Y007980D01*
X032607Y007856D01*
X032540Y007694D01*
X032540Y007519D01*
X032607Y007358D01*
X032731Y007234D01*
X032892Y007167D01*
X033068Y007167D01*
X033229Y007234D01*
X033353Y007358D01*
X033420Y007519D01*
X033420Y007694D01*
X033353Y007856D01*
X033229Y007980D01*
X033068Y008047D01*
X033237Y008081D02*
X029780Y008081D01*
X029780Y007922D02*
X030006Y007922D01*
X030044Y007961D02*
X029926Y007843D01*
X029863Y007690D01*
X029863Y007524D01*
X029926Y007371D01*
X030044Y007253D01*
X030197Y007190D01*
X030363Y007190D01*
X030516Y007253D01*
X030634Y007371D01*
X030697Y007524D01*
X030697Y007690D01*
X030634Y007843D01*
X030516Y007961D01*
X030363Y008024D01*
X030197Y008024D01*
X030044Y007961D01*
X029894Y007764D02*
X029780Y007764D01*
X029780Y007605D02*
X029863Y007605D01*
X029895Y007447D02*
X029780Y007447D01*
X029780Y007288D02*
X030009Y007288D01*
X029780Y007130D02*
X035533Y007130D01*
X035533Y007288D02*
X034284Y007288D01*
X034390Y007447D02*
X035533Y007447D01*
X035533Y007605D02*
X034420Y007605D01*
X034391Y007764D02*
X035533Y007764D01*
X035533Y007922D02*
X034287Y007922D01*
X033775Y008081D02*
X035533Y008081D01*
X035533Y008239D02*
X033616Y008239D01*
X033458Y008398D02*
X035533Y008398D01*
X035533Y008556D02*
X033299Y008556D01*
X033141Y008715D02*
X035533Y008715D01*
X035533Y008873D02*
X030366Y008873D01*
X030285Y008398D02*
X032920Y008398D01*
X032673Y007922D02*
X030554Y007922D01*
X030666Y007764D02*
X032569Y007764D01*
X032540Y007605D02*
X030697Y007605D01*
X030665Y007447D02*
X032570Y007447D01*
X032676Y007288D02*
X030551Y007288D01*
X030490Y006971D02*
X032722Y006971D01*
X032731Y006980D02*
X032607Y006856D01*
X032540Y006694D01*
X032540Y006519D01*
X032607Y006358D01*
X032731Y006234D01*
X032892Y006167D01*
X033068Y006167D01*
X033229Y006234D01*
X033353Y006358D01*
X033420Y006519D01*
X033420Y006694D01*
X033353Y006856D01*
X033229Y006980D01*
X033068Y007047D01*
X032892Y007047D01*
X032731Y006980D01*
X032589Y006813D02*
X030646Y006813D01*
X030634Y006843D02*
X030516Y006961D01*
X030363Y007024D01*
X030197Y007024D01*
X030044Y006961D01*
X029926Y006843D01*
X029863Y006690D01*
X029863Y006524D01*
X029926Y006371D01*
X030044Y006253D01*
X030197Y006190D01*
X030363Y006190D01*
X030516Y006253D01*
X030634Y006371D01*
X030697Y006524D01*
X030697Y006690D01*
X030634Y006843D01*
X030697Y006654D02*
X032540Y006654D01*
X032550Y006496D02*
X030686Y006496D01*
X030600Y006337D02*
X032627Y006337D01*
X032863Y006179D02*
X029780Y006179D01*
X029780Y006337D02*
X029960Y006337D01*
X029874Y006496D02*
X029780Y006496D01*
X029780Y006654D02*
X029863Y006654D01*
X029914Y006813D02*
X029780Y006813D01*
X029780Y006971D02*
X030070Y006971D01*
X030197Y006024D02*
X030044Y005961D01*
X029926Y005843D01*
X029863Y005690D01*
X029863Y005524D01*
X029926Y005371D01*
X030044Y005253D01*
X030197Y005190D01*
X030363Y005190D01*
X030516Y005253D01*
X030634Y005371D01*
X030697Y005524D01*
X030697Y005690D01*
X030634Y005843D01*
X030516Y005961D01*
X030363Y006024D01*
X030197Y006024D01*
X030188Y006020D02*
X029780Y006020D01*
X029780Y005862D02*
X029945Y005862D01*
X029868Y005703D02*
X029780Y005703D01*
X029780Y005545D02*
X029863Y005545D01*
X029920Y005386D02*
X029780Y005386D01*
X029780Y005228D02*
X030105Y005228D01*
X030197Y005024D02*
X030044Y004961D01*
X029926Y004843D01*
X029863Y004690D01*
X029863Y004524D01*
X029926Y004371D01*
X030044Y004253D01*
X030197Y004190D01*
X030363Y004190D01*
X030516Y004253D01*
X030634Y004371D01*
X030697Y004524D01*
X030697Y004690D01*
X030634Y004843D01*
X030516Y004961D01*
X030363Y005024D01*
X030197Y005024D01*
X029994Y004911D02*
X029780Y004911D01*
X029780Y005069D02*
X033340Y005069D01*
X033229Y004980D02*
X033068Y005047D01*
X032892Y005047D01*
X032731Y004980D01*
X032607Y004856D01*
X032540Y004694D01*
X032540Y004519D01*
X032607Y004358D01*
X032731Y004234D01*
X032892Y004167D01*
X033068Y004167D01*
X033229Y004234D01*
X033340Y004345D01*
X033340Y003009D01*
X030400Y003009D01*
X030363Y003024D02*
X030197Y003024D01*
X030044Y002961D01*
X029926Y002843D01*
X029863Y002690D01*
X029863Y002524D01*
X029926Y002371D01*
X030044Y002253D01*
X030197Y002190D01*
X030363Y002190D01*
X030516Y002253D01*
X030634Y002371D01*
X030697Y002524D01*
X030697Y002690D01*
X030634Y002843D01*
X030516Y002961D01*
X030363Y003024D01*
X030316Y003150D02*
X030387Y003161D01*
X030455Y003183D01*
X030520Y003216D01*
X030578Y003258D01*
X030629Y003309D01*
X030671Y003367D01*
X030704Y003431D01*
X030726Y003500D01*
X030737Y003571D01*
X030737Y003598D01*
X030289Y003598D01*
X030289Y003615D01*
X030737Y003615D01*
X030737Y003643D01*
X031490Y003643D01*
X031490Y003642D02*
X031490Y003607D01*
X031930Y003607D01*
X031930Y004047D01*
X031895Y004047D01*
X031827Y004036D01*
X031761Y004015D01*
X031699Y003983D01*
X031643Y003943D01*
X031594Y003894D01*
X031554Y003838D01*
X031522Y003776D01*
X031501Y003710D01*
X031490Y003642D01*
X031490Y003607D02*
X031490Y003572D01*
X031501Y003504D01*
X031522Y003438D01*
X031554Y003376D01*
X031594Y003320D01*
X031643Y003271D01*
X031699Y003231D01*
X031761Y003199D01*
X031827Y003178D01*
X031895Y003167D01*
X031930Y003167D01*
X031930Y003607D01*
X031930Y003607D01*
X031930Y004047D01*
X031965Y004047D01*
X032033Y004036D01*
X032099Y004015D01*
X032161Y003983D01*
X032217Y003943D01*
X032266Y003894D01*
X032306Y003838D01*
X032338Y003776D01*
X032359Y003710D01*
X032370Y003642D01*
X032370Y003607D01*
X031930Y003607D01*
X031930Y003607D01*
X031930Y003607D01*
X031490Y003607D01*
X031507Y003484D02*
X030721Y003484D01*
X030737Y003643D02*
X030726Y003714D01*
X030704Y003782D01*
X030671Y003847D01*
X030629Y003905D01*
X030578Y003956D01*
X030520Y003998D01*
X030455Y004031D01*
X030387Y004053D01*
X030316Y004064D01*
X030289Y004064D01*
X030289Y003616D01*
X030271Y003616D01*
X030271Y004064D01*
X030244Y004064D01*
X030173Y004053D01*
X030105Y004031D01*
X030040Y003998D01*
X029982Y003956D01*
X029931Y003905D01*
X029889Y003847D01*
X029856Y003782D01*
X029834Y003714D01*
X029823Y003643D01*
X029780Y003643D01*
X029823Y003643D02*
X029823Y003615D01*
X030271Y003615D01*
X030271Y003598D01*
X030289Y003598D01*
X030289Y003150D01*
X030316Y003150D01*
X030289Y003167D02*
X030271Y003167D01*
X030271Y003150D02*
X030271Y003598D01*
X029823Y003598D01*
X029823Y003571D01*
X029834Y003500D01*
X029856Y003431D01*
X029889Y003367D01*
X029931Y003309D01*
X029982Y003258D01*
X030040Y003216D01*
X030105Y003183D01*
X030173Y003161D01*
X030244Y003150D01*
X030271Y003150D01*
X030153Y003167D02*
X029780Y003167D01*
X029780Y003009D02*
X030160Y003009D01*
X029934Y002850D02*
X029780Y002850D01*
X029780Y002692D02*
X029864Y002692D01*
X029863Y002533D02*
X029780Y002533D01*
X029780Y002375D02*
X029925Y002375D01*
X029780Y002216D02*
X030133Y002216D01*
X030427Y002216D02*
X031827Y002216D01*
X031850Y002207D02*
X031703Y002268D01*
X031591Y002380D01*
X031530Y002527D01*
X031530Y002686D01*
X031591Y002833D01*
X031703Y002946D01*
X031850Y003007D01*
X032010Y003007D01*
X032157Y002946D01*
X032269Y002833D01*
X032330Y002686D01*
X032330Y002527D01*
X032269Y002380D01*
X032157Y002268D01*
X032010Y002207D01*
X031850Y002207D01*
X032033Y002216D02*
X035533Y002216D01*
X035533Y002058D02*
X029780Y002058D01*
X029780Y001899D02*
X035533Y001899D01*
X035533Y001741D02*
X029780Y001741D01*
X029780Y001582D02*
X035533Y001582D01*
X035533Y001424D02*
X029780Y001424D01*
X030635Y002375D02*
X031596Y002375D01*
X031530Y002533D02*
X030697Y002533D01*
X030696Y002692D02*
X031532Y002692D01*
X031608Y002850D02*
X030626Y002850D01*
X030407Y003167D02*
X031892Y003167D01*
X031930Y003167D02*
X031930Y003167D01*
X031965Y003167D01*
X032033Y003178D01*
X032099Y003199D01*
X032161Y003231D01*
X032217Y003271D01*
X032266Y003320D01*
X032306Y003376D01*
X032338Y003438D01*
X032359Y003504D01*
X032370Y003572D01*
X032370Y003607D01*
X031930Y003607D01*
X031930Y003167D01*
X031968Y003167D02*
X033340Y003167D01*
X033340Y003009D02*
X033328Y002992D01*
X033331Y002978D01*
X033325Y002966D01*
X033340Y002921D01*
X033340Y002828D01*
X033367Y002802D01*
X033372Y002775D01*
X033382Y002727D01*
X033382Y002698D01*
X033393Y002669D01*
X033403Y002621D01*
X033417Y002611D01*
X033427Y002588D01*
X033511Y002504D01*
X033621Y002458D01*
X033739Y002458D01*
X033849Y002504D01*
X033933Y002588D01*
X033978Y002698D01*
X033978Y002717D01*
X033982Y002707D01*
X033982Y002698D01*
X034001Y002652D01*
X034023Y002586D01*
X034035Y002580D01*
X034111Y002504D01*
X034221Y002458D01*
X034339Y002458D01*
X034449Y002504D01*
X034533Y002588D01*
X034578Y002698D01*
X034578Y002816D01*
X034533Y002926D01*
X034457Y003002D01*
X034451Y003014D01*
X034416Y003026D01*
X034385Y003036D01*
X034339Y003055D01*
X034330Y003055D01*
X034209Y003096D01*
X034170Y003136D01*
X033970Y003336D01*
X033970Y003778D01*
X034059Y003867D01*
X034170Y003978D01*
X034170Y004209D01*
X034229Y004234D01*
X034353Y004358D01*
X034420Y004519D01*
X034420Y004694D01*
X034353Y004856D01*
X034229Y004980D01*
X034068Y005047D01*
X033892Y005047D01*
X033731Y004980D01*
X033720Y004969D01*
X033720Y005078D01*
X033833Y005191D01*
X033892Y005167D01*
X034068Y005167D01*
X034229Y005234D01*
X034353Y005358D01*
X034420Y005519D01*
X034420Y005694D01*
X034353Y005856D01*
X034229Y005980D01*
X034068Y006047D01*
X033892Y006047D01*
X033731Y005980D01*
X033607Y005856D01*
X033540Y005694D01*
X033540Y005519D01*
X033565Y005460D01*
X033340Y005236D01*
X033340Y004869D01*
X033229Y004980D01*
X033298Y004911D02*
X033340Y004911D01*
X033340Y005228D02*
X033215Y005228D01*
X033229Y005234D02*
X033353Y005358D01*
X033420Y005519D01*
X033420Y005694D01*
X033353Y005856D01*
X033229Y005980D01*
X033068Y006047D01*
X032892Y006047D01*
X032731Y005980D01*
X032607Y005856D01*
X032540Y005694D01*
X032540Y005519D01*
X032607Y005358D01*
X032731Y005234D01*
X032892Y005167D01*
X033068Y005167D01*
X033229Y005234D01*
X033365Y005386D02*
X033491Y005386D01*
X033540Y005545D02*
X033420Y005545D01*
X033416Y005703D02*
X033544Y005703D01*
X033613Y005862D02*
X033347Y005862D01*
X033131Y006020D02*
X033829Y006020D01*
X033892Y006167D02*
X034068Y006167D01*
X034229Y006234D01*
X034353Y006358D01*
X034420Y006519D01*
X034420Y006694D01*
X034353Y006856D01*
X034229Y006980D01*
X034068Y007047D01*
X033892Y007047D01*
X033731Y006980D01*
X033607Y006856D01*
X033540Y006694D01*
X033540Y006519D01*
X033607Y006358D01*
X033731Y006234D01*
X033892Y006167D01*
X033863Y006179D02*
X033097Y006179D01*
X033333Y006337D02*
X033627Y006337D01*
X033550Y006496D02*
X033410Y006496D01*
X033420Y006654D02*
X033540Y006654D01*
X033589Y006813D02*
X033371Y006813D01*
X033238Y006971D02*
X033722Y006971D01*
X033676Y007288D02*
X033284Y007288D01*
X033390Y007447D02*
X033570Y007447D01*
X033540Y007605D02*
X033420Y007605D01*
X033391Y007764D02*
X033554Y007764D01*
X033396Y007922D02*
X033287Y007922D01*
X034238Y006971D02*
X035533Y006971D01*
X035533Y006813D02*
X034371Y006813D01*
X034420Y006654D02*
X035533Y006654D01*
X035533Y006496D02*
X034410Y006496D01*
X034333Y006337D02*
X035533Y006337D01*
X035533Y006179D02*
X034097Y006179D01*
X034131Y006020D02*
X035533Y006020D01*
X035533Y005862D02*
X034347Y005862D01*
X034416Y005703D02*
X035533Y005703D01*
X035533Y005545D02*
X034420Y005545D01*
X034365Y005386D02*
X035533Y005386D01*
X035533Y005228D02*
X034215Y005228D01*
X034298Y004911D02*
X035533Y004911D01*
X035533Y005069D02*
X033720Y005069D01*
X034396Y004752D02*
X035533Y004752D01*
X035533Y004594D02*
X034420Y004594D01*
X034385Y004435D02*
X035533Y004435D01*
X035533Y004277D02*
X034272Y004277D01*
X034170Y004118D02*
X035533Y004118D01*
X035533Y003960D02*
X034152Y003960D01*
X033993Y003801D02*
X035533Y003801D01*
X035533Y003643D02*
X033970Y003643D01*
X033970Y003484D02*
X035533Y003484D01*
X035533Y003326D02*
X033980Y003326D01*
X034138Y003167D02*
X035533Y003167D01*
X035533Y003009D02*
X034453Y003009D01*
X034451Y003014D02*
X034451Y003014D01*
X034451Y003014D01*
X034564Y002850D02*
X035533Y002850D01*
X035533Y002692D02*
X034576Y002692D01*
X034479Y002533D02*
X035533Y002533D01*
X035533Y002375D02*
X032264Y002375D01*
X032330Y002533D02*
X033481Y002533D01*
X033384Y002692D02*
X032328Y002692D01*
X032252Y002850D02*
X033340Y002850D01*
X033340Y003326D02*
X032270Y003326D01*
X032353Y003484D02*
X033340Y003484D01*
X033340Y003643D02*
X032370Y003643D01*
X032325Y003801D02*
X033340Y003801D01*
X033340Y003960D02*
X032193Y003960D01*
X031930Y003960D02*
X031930Y003960D01*
X031930Y003801D02*
X031930Y003801D01*
X031930Y003643D02*
X031930Y003643D01*
X031930Y003607D02*
X031930Y003607D01*
X031930Y003484D02*
X031930Y003484D01*
X031930Y003326D02*
X031930Y003326D01*
X031590Y003326D02*
X030641Y003326D01*
X030289Y003326D02*
X030271Y003326D01*
X030271Y003484D02*
X030289Y003484D01*
X030289Y003643D02*
X030271Y003643D01*
X030271Y003801D02*
X030289Y003801D01*
X030289Y003960D02*
X030271Y003960D01*
X029988Y003960D02*
X029780Y003960D01*
X029780Y004118D02*
X033340Y004118D01*
X033340Y004277D02*
X033272Y004277D01*
X032688Y004277D02*
X030540Y004277D01*
X030660Y004435D02*
X032575Y004435D01*
X032540Y004594D02*
X030697Y004594D01*
X030671Y004752D02*
X032564Y004752D01*
X032662Y004911D02*
X030566Y004911D01*
X030455Y005228D02*
X032745Y005228D01*
X032595Y005386D02*
X030640Y005386D01*
X030697Y005545D02*
X032540Y005545D01*
X032544Y005703D02*
X030692Y005703D01*
X030615Y005862D02*
X032613Y005862D01*
X032829Y006020D02*
X030372Y006020D01*
X029889Y004752D02*
X029780Y004752D01*
X029780Y004594D02*
X029863Y004594D01*
X029899Y004435D02*
X029780Y004435D01*
X029780Y004277D02*
X030020Y004277D01*
X030572Y003960D02*
X031667Y003960D01*
X031535Y003801D02*
X030694Y003801D01*
X029866Y003801D02*
X029780Y003801D01*
X029780Y003484D02*
X029839Y003484D01*
X029780Y003326D02*
X029919Y003326D01*
X033879Y002533D02*
X034081Y002533D01*
X033984Y002692D02*
X033976Y002692D01*
D18*
X033680Y002757D03*
X034280Y002757D03*
X030130Y008657D03*
X031580Y010557D03*
X021230Y014257D03*
X021230Y014857D03*
X019430Y014957D03*
X019530Y014157D03*
X018630Y014157D03*
X017730Y014357D03*
X017030Y014957D03*
X016230Y015757D03*
X015680Y017157D03*
X019680Y017757D03*
X016580Y013207D03*
X016080Y012557D03*
X015680Y011907D03*
X014630Y010757D03*
X012480Y009007D03*
X013330Y008207D03*
X014230Y008557D03*
X015530Y008207D03*
X010530Y004357D03*
X012730Y003507D03*
X009280Y007107D03*
X009680Y007957D03*
X007930Y008807D03*
X007530Y008157D03*
X006330Y007907D03*
X005980Y008507D03*
X006530Y009057D03*
X004480Y008857D03*
X006230Y007107D03*
X007230Y007107D03*
X006580Y005657D03*
X005880Y005507D03*
X005330Y005757D03*
X004980Y006507D03*
X007280Y004407D03*
X006230Y002307D03*
X002880Y003007D03*
X001480Y003007D03*
X008880Y010307D03*
X007730Y011857D03*
X006830Y011857D03*
X007780Y013257D03*
X010530Y012657D03*
X011230Y014357D03*
D19*
X002874Y003045D02*
X002880Y003007D01*
X002874Y002969D01*
X002634Y003007D01*
X002874Y003045D01*
X002880Y003007D02*
X001480Y003007D01*
X001486Y002969D01*
X001726Y003007D01*
X001486Y003045D01*
X001480Y003007D01*
D20*
X001430Y005007D02*
X000930Y005507D01*
X000930Y010007D01*
X001730Y010807D01*
X001730Y016657D01*
X001880Y016807D01*
X002700Y017627D01*
X002720Y017627D01*
X002720Y014277D02*
X002150Y014277D01*
X001930Y014057D01*
X001930Y010707D01*
X001130Y009907D01*
X001130Y005557D01*
X001480Y005207D01*
X005180Y005207D01*
X005330Y005357D01*
X005330Y005757D01*
X005233Y005709D01*
X005330Y005511D01*
X005427Y005709D01*
X005330Y005757D01*
X004980Y005507D02*
X004980Y006407D01*
X004980Y006507D01*
X004883Y006459D01*
X004980Y006261D01*
X005077Y006459D01*
X004980Y006507D01*
X004980Y005507D02*
X004880Y005407D01*
X001580Y005407D01*
X001330Y005657D01*
X001330Y009857D01*
X002450Y010977D01*
X002720Y010977D01*
X002480Y009357D02*
X005180Y009357D01*
X005580Y009357D01*
X005880Y009057D01*
X005980Y008957D01*
X005980Y008507D01*
X006077Y008555D01*
X005980Y008753D01*
X005883Y008555D01*
X005980Y008507D01*
X006330Y007907D02*
X006309Y007801D01*
X006525Y007757D01*
X006427Y007955D01*
X006330Y007907D01*
X006480Y007757D01*
X008980Y007757D01*
X009130Y007907D01*
X009130Y008557D01*
X009580Y009007D01*
X010080Y009507D02*
X009980Y009607D01*
X009580Y010007D01*
X008983Y010272D02*
X008880Y010307D01*
X008845Y010410D01*
X009054Y010481D01*
X008983Y010272D01*
X008880Y010307D02*
X009080Y010507D01*
X010080Y010507D01*
X010230Y010357D01*
X010580Y010007D01*
X010080Y009507D02*
X010080Y008257D01*
X010280Y008057D01*
X009783Y007992D02*
X009854Y007783D01*
X009645Y007854D01*
X009680Y007957D01*
X009783Y007992D01*
X009680Y007957D02*
X009830Y007757D01*
X009830Y006007D01*
X009830Y005657D01*
X009680Y005507D01*
X009680Y005457D01*
X009680Y004807D01*
X009830Y004657D01*
X010130Y004357D01*
X010430Y004357D01*
X010530Y004357D01*
X010482Y004454D01*
X010284Y004357D01*
X010482Y004260D01*
X010530Y004357D01*
X010630Y005057D02*
X010280Y005057D01*
X010630Y005057D02*
X011030Y005057D01*
X017030Y005057D01*
X017330Y005357D01*
X017330Y006407D01*
X017530Y006607D01*
X018280Y006607D01*
X018280Y007607D02*
X016830Y009057D01*
X016830Y009807D01*
X015730Y010907D01*
X015430Y011407D02*
X019480Y011407D01*
X020330Y010557D01*
X031580Y010557D01*
X031532Y010654D01*
X031334Y010557D01*
X031532Y010460D01*
X031580Y010557D01*
X030376Y008657D02*
X030178Y008754D01*
X030130Y008657D01*
X030178Y008560D01*
X030376Y008657D01*
X030130Y008657D02*
X032930Y008657D01*
X033980Y007607D01*
X033980Y005607D02*
X033530Y005157D01*
X033530Y002907D01*
X033680Y002757D01*
X033728Y002854D01*
X033530Y002952D01*
X033574Y002735D01*
X033680Y002757D01*
X033980Y003057D02*
X033780Y003257D01*
X033780Y003857D01*
X033980Y004057D01*
X033980Y004607D01*
X033980Y003057D02*
X034280Y002757D01*
X034315Y002860D01*
X034106Y002931D01*
X034177Y002722D01*
X034280Y002757D01*
X016177Y012605D02*
X016080Y012557D01*
X015983Y012605D01*
X016080Y012803D01*
X016177Y012605D01*
X016080Y012557D02*
X016080Y012707D01*
X016080Y015357D01*
X016080Y015557D01*
X016230Y015757D01*
X016123Y015777D01*
X016082Y015560D01*
X016279Y015660D01*
X016230Y015757D01*
X015680Y016911D02*
X015583Y017109D01*
X015680Y017157D01*
X015777Y017109D01*
X015680Y016911D01*
X015680Y017157D02*
X015680Y011907D01*
X015777Y011955D01*
X015680Y012153D01*
X015583Y011955D01*
X015680Y011907D01*
X015430Y011407D02*
X015130Y011107D01*
X015130Y010357D01*
X014680Y009907D01*
X014680Y009007D01*
X014480Y008807D01*
X014430Y008757D01*
X014230Y008557D01*
X014333Y008522D01*
X014404Y008731D01*
X014195Y008660D01*
X014230Y008557D01*
X014582Y010660D02*
X014384Y010757D01*
X014582Y010854D01*
X014630Y010757D01*
X014582Y010660D01*
X014630Y010757D02*
X013930Y010757D01*
X013780Y010907D01*
X013280Y011357D01*
X011830Y011357D01*
X011630Y011557D01*
X011630Y011707D01*
X011630Y012207D01*
X011180Y012657D01*
X011180Y013057D01*
X011130Y013107D01*
X010730Y013107D01*
X010630Y013207D01*
X010580Y013257D01*
X010480Y013257D01*
X007780Y013257D01*
X007828Y013160D01*
X008026Y013257D01*
X007828Y013354D01*
X007780Y013257D01*
X008530Y012657D02*
X008580Y012707D01*
X010380Y012707D01*
X010530Y012657D01*
X010503Y012762D01*
X010289Y012707D01*
X010463Y012571D01*
X010530Y012657D01*
X008530Y012657D02*
X008080Y012207D01*
X008080Y009657D01*
X007530Y009107D01*
X007530Y008157D01*
X007627Y008205D01*
X007530Y008403D01*
X007433Y008205D01*
X007530Y008157D01*
X008830Y007557D02*
X009280Y007107D01*
X009315Y007210D01*
X009106Y007281D01*
X009177Y007072D01*
X009280Y007107D01*
X008830Y007557D02*
X005780Y007557D01*
X004630Y008707D01*
X004480Y008857D01*
X004445Y008754D01*
X004654Y008683D01*
X004583Y008892D01*
X004480Y008857D01*
X002480Y009357D02*
X002430Y009307D01*
X001980Y008857D01*
X005777Y005542D02*
X005880Y005507D01*
X005915Y005404D01*
X005706Y005333D01*
X005777Y005542D01*
X005880Y005507D02*
X005630Y005257D01*
X005380Y005007D01*
X004830Y005007D01*
X003480Y005007D01*
X001430Y005007D01*
X011278Y014260D02*
X011230Y014357D01*
X011278Y014454D01*
X011476Y014357D01*
X011278Y014260D01*
X011230Y014357D02*
X012430Y014357D01*
X013980Y015907D01*
D21*
X016544Y013299D02*
X016754Y013381D01*
X016672Y013171D01*
X016580Y013207D01*
X016544Y013299D01*
X016580Y013207D02*
X017430Y014057D01*
X017730Y014357D01*
X017638Y014393D01*
X017556Y014183D01*
X017766Y014265D01*
X017730Y014357D01*
M02*
