G75*
%MOIN*%
%OFA0B0*%
%FSLAX24Y24*%
%IPPOS*%
%LPD*%
%AMOC8*
5,1,8,0,0,1.08239X$1,22.5*
%
%ADD10C,0.0000*%
%ADD11C,0.0050*%
%ADD12C,0.0040*%
%ADD13C,0.0030*%
%ADD14C,0.0080*%
D10*
X000554Y001735D02*
X000554Y033231D01*
X000556Y033297D01*
X000561Y033363D01*
X000571Y033429D01*
X000584Y033494D01*
X000600Y033558D01*
X000620Y033621D01*
X000644Y033683D01*
X000671Y033743D01*
X000701Y033802D01*
X000735Y033859D01*
X000772Y033914D01*
X000812Y033967D01*
X000854Y034018D01*
X000900Y034066D01*
X000948Y034112D01*
X000999Y034154D01*
X001052Y034194D01*
X001107Y034231D01*
X001164Y034265D01*
X001223Y034295D01*
X001283Y034322D01*
X001345Y034346D01*
X001408Y034366D01*
X001472Y034382D01*
X001537Y034395D01*
X001603Y034405D01*
X001669Y034410D01*
X001735Y034412D01*
X033231Y034412D01*
X033297Y034410D01*
X033363Y034405D01*
X033429Y034395D01*
X033494Y034382D01*
X033558Y034366D01*
X033621Y034346D01*
X033683Y034322D01*
X033743Y034295D01*
X033802Y034265D01*
X033859Y034231D01*
X033914Y034194D01*
X033967Y034154D01*
X034018Y034112D01*
X034066Y034066D01*
X034112Y034018D01*
X034154Y033967D01*
X034194Y033914D01*
X034231Y033859D01*
X034265Y033802D01*
X034295Y033743D01*
X034322Y033683D01*
X034346Y033621D01*
X034366Y033558D01*
X034382Y033494D01*
X034395Y033429D01*
X034405Y033363D01*
X034410Y033297D01*
X034412Y033231D01*
X034412Y001735D01*
X034410Y001669D01*
X034405Y001603D01*
X034395Y001537D01*
X034382Y001472D01*
X034366Y001408D01*
X034346Y001345D01*
X034322Y001283D01*
X034295Y001223D01*
X034265Y001164D01*
X034231Y001107D01*
X034194Y001052D01*
X034154Y000999D01*
X034112Y000948D01*
X034066Y000900D01*
X034018Y000854D01*
X033967Y000812D01*
X033914Y000772D01*
X033859Y000735D01*
X033802Y000701D01*
X033743Y000671D01*
X033683Y000644D01*
X033621Y000620D01*
X033558Y000600D01*
X033494Y000584D01*
X033429Y000571D01*
X033363Y000561D01*
X033297Y000556D01*
X033231Y000554D01*
X001735Y000554D01*
X001669Y000556D01*
X001603Y000561D01*
X001537Y000571D01*
X001472Y000584D01*
X001408Y000600D01*
X001345Y000620D01*
X001283Y000644D01*
X001223Y000671D01*
X001164Y000701D01*
X001107Y000735D01*
X001052Y000772D01*
X000999Y000812D01*
X000948Y000854D01*
X000900Y000900D01*
X000854Y000948D01*
X000812Y000999D01*
X000772Y001052D01*
X000735Y001107D01*
X000701Y001164D01*
X000671Y001223D01*
X000644Y001283D01*
X000620Y001345D01*
X000600Y001408D01*
X000584Y001472D01*
X000571Y001537D01*
X000561Y001603D01*
X000556Y001669D01*
X000554Y001735D01*
X012156Y005310D02*
X012158Y005360D01*
X012164Y005410D01*
X012174Y005459D01*
X012188Y005507D01*
X012205Y005554D01*
X012226Y005599D01*
X012251Y005643D01*
X012279Y005684D01*
X012311Y005723D01*
X012345Y005760D01*
X012382Y005794D01*
X012422Y005824D01*
X012464Y005851D01*
X012508Y005875D01*
X012554Y005896D01*
X012601Y005912D01*
X012649Y005925D01*
X012699Y005934D01*
X012748Y005939D01*
X012799Y005940D01*
X012849Y005937D01*
X012898Y005930D01*
X012947Y005919D01*
X012995Y005904D01*
X013041Y005886D01*
X013086Y005864D01*
X013129Y005838D01*
X013170Y005809D01*
X013209Y005777D01*
X013245Y005742D01*
X013277Y005704D01*
X013307Y005664D01*
X013334Y005621D01*
X013357Y005577D01*
X013376Y005531D01*
X013392Y005483D01*
X013404Y005434D01*
X013412Y005385D01*
X013416Y005335D01*
X013416Y005285D01*
X013412Y005235D01*
X013404Y005186D01*
X013392Y005137D01*
X013376Y005089D01*
X013357Y005043D01*
X013334Y004999D01*
X013307Y004956D01*
X013277Y004916D01*
X013245Y004878D01*
X013209Y004843D01*
X013170Y004811D01*
X013129Y004782D01*
X013086Y004756D01*
X013041Y004734D01*
X012995Y004716D01*
X012947Y004701D01*
X012898Y004690D01*
X012849Y004683D01*
X012799Y004680D01*
X012748Y004681D01*
X012699Y004686D01*
X012649Y004695D01*
X012601Y004708D01*
X012554Y004724D01*
X012508Y004745D01*
X012464Y004769D01*
X012422Y004796D01*
X012382Y004826D01*
X012345Y004860D01*
X012311Y004897D01*
X012279Y004936D01*
X012251Y004977D01*
X012226Y005021D01*
X012205Y005066D01*
X012188Y005113D01*
X012174Y005161D01*
X012164Y005210D01*
X012158Y005260D01*
X012156Y005310D01*
X021439Y014483D02*
X021441Y014533D01*
X021447Y014583D01*
X021457Y014632D01*
X021471Y014680D01*
X021488Y014727D01*
X021509Y014772D01*
X021534Y014816D01*
X021562Y014857D01*
X021594Y014896D01*
X021628Y014933D01*
X021665Y014967D01*
X021705Y014997D01*
X021747Y015024D01*
X021791Y015048D01*
X021837Y015069D01*
X021884Y015085D01*
X021932Y015098D01*
X021982Y015107D01*
X022031Y015112D01*
X022082Y015113D01*
X022132Y015110D01*
X022181Y015103D01*
X022230Y015092D01*
X022278Y015077D01*
X022324Y015059D01*
X022369Y015037D01*
X022412Y015011D01*
X022453Y014982D01*
X022492Y014950D01*
X022528Y014915D01*
X022560Y014877D01*
X022590Y014837D01*
X022617Y014794D01*
X022640Y014750D01*
X022659Y014704D01*
X022675Y014656D01*
X022687Y014607D01*
X022695Y014558D01*
X022699Y014508D01*
X022699Y014458D01*
X022695Y014408D01*
X022687Y014359D01*
X022675Y014310D01*
X022659Y014262D01*
X022640Y014216D01*
X022617Y014172D01*
X022590Y014129D01*
X022560Y014089D01*
X022528Y014051D01*
X022492Y014016D01*
X022453Y013984D01*
X022412Y013955D01*
X022369Y013929D01*
X022324Y013907D01*
X022278Y013889D01*
X022230Y013874D01*
X022181Y013863D01*
X022132Y013856D01*
X022082Y013853D01*
X022031Y013854D01*
X021982Y013859D01*
X021932Y013868D01*
X021884Y013881D01*
X021837Y013897D01*
X021791Y013918D01*
X021747Y013942D01*
X021705Y013969D01*
X021665Y013999D01*
X021628Y014033D01*
X021594Y014070D01*
X021562Y014109D01*
X021534Y014150D01*
X021509Y014194D01*
X021488Y014239D01*
X021471Y014286D01*
X021457Y014334D01*
X021447Y014383D01*
X021441Y014433D01*
X021439Y014483D01*
X023881Y020132D02*
X023883Y020166D01*
X023889Y020200D01*
X023899Y020233D01*
X023912Y020264D01*
X023930Y020294D01*
X023950Y020322D01*
X023974Y020347D01*
X024000Y020369D01*
X024028Y020387D01*
X024059Y020403D01*
X024091Y020415D01*
X024125Y020423D01*
X024159Y020427D01*
X024193Y020427D01*
X024227Y020423D01*
X024261Y020415D01*
X024293Y020403D01*
X024323Y020387D01*
X024352Y020369D01*
X024378Y020347D01*
X024402Y020322D01*
X024422Y020294D01*
X024440Y020264D01*
X024453Y020233D01*
X024463Y020200D01*
X024469Y020166D01*
X024471Y020132D01*
X024469Y020098D01*
X024463Y020064D01*
X024453Y020031D01*
X024440Y020000D01*
X024422Y019970D01*
X024402Y019942D01*
X024378Y019917D01*
X024352Y019895D01*
X024324Y019877D01*
X024293Y019861D01*
X024261Y019849D01*
X024227Y019841D01*
X024193Y019837D01*
X024159Y019837D01*
X024125Y019841D01*
X024091Y019849D01*
X024059Y019861D01*
X024028Y019877D01*
X024000Y019895D01*
X023974Y019917D01*
X023950Y019942D01*
X023930Y019970D01*
X023912Y020000D01*
X023899Y020031D01*
X023889Y020064D01*
X023883Y020098D01*
X023881Y020132D01*
X025258Y023093D02*
X025258Y024668D01*
X025259Y024668D02*
X025260Y024685D01*
X025265Y024702D01*
X025272Y024717D01*
X025282Y024731D01*
X025294Y024743D01*
X025308Y024753D01*
X025323Y024760D01*
X025340Y024765D01*
X025357Y024766D01*
X025374Y024765D01*
X025391Y024760D01*
X025406Y024753D01*
X025420Y024743D01*
X025432Y024731D01*
X025442Y024717D01*
X025449Y024702D01*
X025454Y024685D01*
X025455Y024668D01*
X025455Y023093D01*
X025454Y023076D01*
X025449Y023059D01*
X025442Y023044D01*
X025432Y023030D01*
X025420Y023018D01*
X025406Y023008D01*
X025391Y023001D01*
X025374Y022996D01*
X025357Y022995D01*
X025340Y022996D01*
X025323Y023001D01*
X025308Y023008D01*
X025294Y023018D01*
X025282Y023030D01*
X025272Y023044D01*
X025265Y023059D01*
X025260Y023076D01*
X025259Y023093D01*
X025258Y030967D02*
X025258Y032542D01*
X025259Y032542D02*
X025260Y032559D01*
X025265Y032576D01*
X025272Y032591D01*
X025282Y032605D01*
X025294Y032617D01*
X025308Y032627D01*
X025323Y032634D01*
X025340Y032639D01*
X025357Y032640D01*
X025374Y032639D01*
X025391Y032634D01*
X025406Y032627D01*
X025420Y032617D01*
X025432Y032605D01*
X025442Y032591D01*
X025449Y032576D01*
X025454Y032559D01*
X025455Y032542D01*
X025455Y030967D01*
X025454Y030950D01*
X025449Y030933D01*
X025442Y030918D01*
X025432Y030904D01*
X025420Y030892D01*
X025406Y030882D01*
X025391Y030875D01*
X025374Y030870D01*
X025357Y030869D01*
X025340Y030870D01*
X025323Y030875D01*
X025308Y030882D01*
X025294Y030892D01*
X025282Y030904D01*
X025272Y030918D01*
X025265Y030933D01*
X025260Y030950D01*
X025259Y030967D01*
X010495Y030172D02*
X010497Y030206D01*
X010503Y030240D01*
X010513Y030273D01*
X010526Y030304D01*
X010544Y030334D01*
X010564Y030362D01*
X010588Y030387D01*
X010614Y030409D01*
X010642Y030427D01*
X010673Y030443D01*
X010705Y030455D01*
X010739Y030463D01*
X010773Y030467D01*
X010807Y030467D01*
X010841Y030463D01*
X010875Y030455D01*
X010907Y030443D01*
X010937Y030427D01*
X010966Y030409D01*
X010992Y030387D01*
X011016Y030362D01*
X011036Y030334D01*
X011054Y030304D01*
X011067Y030273D01*
X011077Y030240D01*
X011083Y030206D01*
X011085Y030172D01*
X011083Y030138D01*
X011077Y030104D01*
X011067Y030071D01*
X011054Y030040D01*
X011036Y030010D01*
X011016Y029982D01*
X010992Y029957D01*
X010966Y029935D01*
X010938Y029917D01*
X010907Y029901D01*
X010875Y029889D01*
X010841Y029881D01*
X010807Y029877D01*
X010773Y029877D01*
X010739Y029881D01*
X010705Y029889D01*
X010673Y029901D01*
X010642Y029917D01*
X010614Y029935D01*
X010588Y029957D01*
X010564Y029982D01*
X010544Y030010D01*
X010526Y030040D01*
X010513Y030071D01*
X010503Y030104D01*
X010497Y030138D01*
X010495Y030172D01*
X009707Y030967D02*
X009707Y032542D01*
X009609Y032640D02*
X009592Y032639D01*
X009575Y032634D01*
X009560Y032627D01*
X009546Y032617D01*
X009534Y032605D01*
X009524Y032591D01*
X009517Y032576D01*
X009512Y032559D01*
X009511Y032542D01*
X009510Y032542D02*
X009510Y030967D01*
X009609Y030869D02*
X009626Y030870D01*
X009643Y030875D01*
X009658Y030882D01*
X009672Y030892D01*
X009684Y030904D01*
X009694Y030918D01*
X009701Y030933D01*
X009706Y030950D01*
X009707Y030967D01*
X009609Y030869D02*
X009592Y030870D01*
X009575Y030875D01*
X009560Y030882D01*
X009546Y030892D01*
X009534Y030904D01*
X009524Y030918D01*
X009517Y030933D01*
X009512Y030950D01*
X009511Y030967D01*
X009707Y032542D02*
X009706Y032559D01*
X009701Y032576D01*
X009694Y032591D01*
X009684Y032605D01*
X009672Y032617D01*
X009658Y032627D01*
X009643Y032634D01*
X009626Y032639D01*
X009609Y032640D01*
X009609Y024766D02*
X009592Y024765D01*
X009575Y024760D01*
X009560Y024753D01*
X009546Y024743D01*
X009534Y024731D01*
X009524Y024717D01*
X009517Y024702D01*
X009512Y024685D01*
X009511Y024668D01*
X009510Y024668D02*
X009510Y023093D01*
X009609Y022995D02*
X009626Y022996D01*
X009643Y023001D01*
X009658Y023008D01*
X009672Y023018D01*
X009684Y023030D01*
X009694Y023044D01*
X009701Y023059D01*
X009706Y023076D01*
X009707Y023093D01*
X009707Y024668D01*
X009706Y024685D01*
X009701Y024702D01*
X009694Y024717D01*
X009684Y024731D01*
X009672Y024743D01*
X009658Y024753D01*
X009643Y024760D01*
X009626Y024765D01*
X009609Y024766D01*
X009511Y023093D02*
X009512Y023076D01*
X009517Y023059D01*
X009524Y023044D01*
X009534Y023030D01*
X009546Y023018D01*
X009560Y023008D01*
X009575Y023001D01*
X009592Y022996D01*
X009609Y022995D01*
D11*
X015108Y017358D02*
X015108Y016858D01*
X015358Y016858D01*
X015358Y017358D01*
X015108Y017358D01*
X015608Y017608D02*
X015858Y017608D01*
X015858Y018108D01*
X015608Y018108D01*
X015608Y017608D01*
X016108Y017358D02*
X016108Y016858D01*
X016358Y016858D01*
X016358Y017358D01*
X016108Y017358D01*
X016608Y017608D02*
X016858Y017608D01*
X016858Y018108D01*
X016608Y018108D01*
X016608Y017608D01*
X017108Y017358D02*
X017108Y016858D01*
X017358Y016858D01*
X017358Y017358D01*
X017108Y017358D01*
X017608Y017608D02*
X017608Y018108D01*
X017858Y018108D01*
X017858Y017608D01*
X017608Y017608D01*
X018108Y017358D02*
X018108Y016858D01*
X018358Y016858D01*
X018358Y017358D01*
X018108Y017358D01*
X018608Y017608D02*
X018608Y018108D01*
X018858Y018108D01*
X018858Y017608D01*
X018608Y017608D01*
X019108Y017358D02*
X019108Y016858D01*
X019358Y016858D01*
X019358Y017358D01*
X019108Y017358D01*
X019608Y017608D02*
X019608Y018108D01*
X019858Y018108D01*
X019858Y017608D01*
X019608Y017608D01*
X009904Y013054D02*
X009904Y011479D01*
X009117Y011085D02*
X009117Y005573D01*
X005180Y005573D01*
X005180Y011085D01*
X009117Y011085D01*
X008723Y012266D02*
X008725Y012305D01*
X008731Y012344D01*
X008741Y012382D01*
X008754Y012419D01*
X008771Y012454D01*
X008791Y012488D01*
X008815Y012519D01*
X008842Y012548D01*
X008871Y012574D01*
X008903Y012597D01*
X008937Y012617D01*
X008973Y012633D01*
X009010Y012645D01*
X009049Y012654D01*
X009088Y012659D01*
X009127Y012660D01*
X009166Y012657D01*
X009205Y012650D01*
X009242Y012639D01*
X009279Y012625D01*
X009314Y012607D01*
X009347Y012586D01*
X009378Y012561D01*
X009406Y012534D01*
X009431Y012504D01*
X009453Y012471D01*
X009472Y012437D01*
X009487Y012401D01*
X009499Y012363D01*
X009507Y012325D01*
X009511Y012286D01*
X009511Y012246D01*
X009507Y012207D01*
X009499Y012169D01*
X009487Y012131D01*
X009472Y012095D01*
X009453Y012061D01*
X009431Y012028D01*
X009406Y011998D01*
X009378Y011971D01*
X009347Y011946D01*
X009314Y011925D01*
X009279Y011907D01*
X009242Y011893D01*
X009205Y011882D01*
X009166Y011875D01*
X009127Y011872D01*
X009088Y011873D01*
X009049Y011878D01*
X009010Y011887D01*
X008973Y011899D01*
X008937Y011915D01*
X008903Y011935D01*
X008871Y011958D01*
X008842Y011984D01*
X008815Y012013D01*
X008791Y012044D01*
X008771Y012078D01*
X008754Y012113D01*
X008741Y012150D01*
X008731Y012188D01*
X008725Y012227D01*
X008723Y012266D01*
X007936Y011873D02*
X007936Y012660D01*
X005180Y012660D01*
X005180Y011873D01*
X007936Y011873D01*
X009904Y013054D02*
X004392Y013054D01*
X004392Y011479D01*
X004392Y005180D02*
X009904Y005180D01*
D12*
X008309Y005987D02*
X008002Y005987D01*
X007849Y006064D02*
X007772Y005987D01*
X007619Y005987D01*
X007542Y006064D01*
X007542Y006141D01*
X007619Y006217D01*
X007772Y006217D01*
X007849Y006294D01*
X007849Y006371D01*
X007772Y006447D01*
X007619Y006447D01*
X007542Y006371D01*
X007389Y006447D02*
X007158Y006447D01*
X007082Y006371D01*
X007082Y006217D01*
X007158Y006141D01*
X007389Y006141D01*
X007389Y005987D02*
X007389Y006447D01*
X008002Y006447D02*
X008309Y006447D01*
X008309Y005987D01*
X008309Y006217D02*
X008156Y006217D01*
X006928Y006217D02*
X006621Y006217D01*
X006468Y006064D02*
X006161Y006371D01*
X006161Y006064D01*
X006238Y005987D01*
X006391Y005987D01*
X006468Y006064D01*
X006468Y006371D01*
X006391Y006447D01*
X006238Y006447D01*
X006161Y006371D01*
X006007Y006447D02*
X005700Y006447D01*
X005700Y006371D01*
X006007Y006064D01*
X006007Y005987D01*
X005547Y005987D02*
X005317Y005987D01*
X005240Y006064D01*
X005240Y006217D01*
X005317Y006294D01*
X005547Y006294D01*
X005547Y006447D02*
X005547Y005987D01*
X009092Y013586D02*
X009245Y013586D01*
X009322Y013662D01*
X009322Y013739D01*
X009245Y013816D01*
X009092Y013816D01*
X009015Y013739D01*
X009015Y013662D01*
X009092Y013586D01*
X009092Y013816D02*
X009015Y013892D01*
X009015Y013969D01*
X009092Y014046D01*
X009245Y014046D01*
X009322Y013969D01*
X009322Y013892D01*
X009245Y013816D01*
X009475Y013816D02*
X009552Y013739D01*
X009782Y013739D01*
X009629Y013739D02*
X009475Y013586D01*
X009475Y013816D02*
X009475Y013969D01*
X009552Y014046D01*
X009782Y014046D01*
X009782Y013586D01*
X014406Y016003D02*
X014713Y016003D01*
X014559Y016003D02*
X014559Y016463D01*
X014713Y016310D01*
X014660Y017483D02*
X014778Y017483D01*
X014896Y017601D01*
X014817Y017562D02*
X014778Y017601D01*
X014660Y017601D01*
X014778Y017601D02*
X014778Y017995D01*
X014660Y017995D01*
X014660Y018113D02*
X014778Y018113D01*
X014896Y017995D01*
X014817Y018034D02*
X014778Y017995D01*
X014778Y018113D02*
X014896Y018113D01*
X014896Y017483D02*
X014778Y017483D01*
X018462Y020795D02*
X018462Y021102D01*
X018769Y020795D01*
X018693Y020718D01*
X018539Y020718D01*
X018462Y020795D01*
X018462Y021102D02*
X018539Y021179D01*
X018693Y021179D01*
X018769Y021102D01*
X018769Y020795D01*
X018923Y020718D02*
X019230Y020718D01*
X019383Y020718D02*
X019537Y020872D01*
X019460Y020872D02*
X019690Y020872D01*
X019690Y020718D02*
X019690Y021179D01*
X019460Y021179D01*
X019383Y021102D01*
X019383Y020949D01*
X019460Y020872D01*
X019230Y021025D02*
X019076Y021179D01*
X019076Y020718D01*
X021141Y020756D02*
X021218Y020679D01*
X021141Y020602D01*
X021141Y020525D01*
X021218Y020449D01*
X021372Y020449D01*
X021448Y020525D01*
X021602Y020525D02*
X021602Y020909D01*
X021448Y020832D02*
X021372Y020909D01*
X021218Y020909D01*
X021141Y020832D01*
X021141Y020756D01*
X021218Y020679D02*
X021295Y020679D01*
X021602Y020525D02*
X021679Y020449D01*
X021832Y020449D01*
X021909Y020525D01*
X021909Y020909D01*
X023297Y020279D02*
X023373Y020355D01*
X023680Y020355D01*
X023757Y020279D01*
X023757Y020125D01*
X023680Y020048D01*
X023604Y020048D01*
X023527Y020125D01*
X023527Y020355D01*
X023297Y020279D02*
X023297Y020125D01*
X023373Y020048D01*
X023297Y019895D02*
X023450Y019741D01*
X023450Y019818D02*
X023450Y019588D01*
X023297Y019588D02*
X023757Y019588D01*
X023757Y019818D01*
X023680Y019895D01*
X023527Y019895D01*
X023450Y019818D01*
X021409Y022824D02*
X021409Y023284D01*
X021179Y023284D01*
X021102Y023207D01*
X021102Y023054D01*
X021179Y022977D01*
X021409Y022977D01*
X021255Y022977D02*
X021102Y022824D01*
X020948Y022824D02*
X020641Y022824D01*
X020488Y022824D02*
X020181Y022824D01*
X020334Y022824D02*
X020334Y023284D01*
X020488Y023131D01*
X020795Y023284D02*
X020795Y022824D01*
X020948Y023131D02*
X020795Y023284D01*
X023262Y026100D02*
X023723Y026100D01*
X023723Y026330D01*
X023646Y026407D01*
X023492Y026407D01*
X023416Y026330D01*
X023416Y026100D01*
X023416Y026254D02*
X023262Y026407D01*
X023262Y026561D02*
X023339Y026561D01*
X023646Y026868D01*
X023723Y026868D01*
X023723Y026561D01*
X026022Y027014D02*
X026482Y027014D01*
X026482Y027244D01*
X026406Y027321D01*
X026252Y027321D01*
X026175Y027244D01*
X026175Y027014D01*
X026175Y027167D02*
X026022Y027321D01*
X026099Y027474D02*
X026022Y027551D01*
X026022Y027704D01*
X026099Y027781D01*
X026175Y027781D01*
X026252Y027704D01*
X026252Y027628D01*
X026252Y027704D02*
X026329Y027781D01*
X026406Y027781D01*
X026482Y027704D01*
X026482Y027551D01*
X026406Y027474D01*
X024931Y029440D02*
X024777Y029440D01*
X024701Y029517D01*
X024701Y029824D01*
X024777Y029900D01*
X024931Y029900D01*
X025008Y029824D01*
X025008Y029517D01*
X024931Y029440D01*
X024854Y029593D02*
X024701Y029440D01*
X024547Y029440D02*
X024240Y029440D01*
X024394Y029440D02*
X024394Y029900D01*
X024547Y029747D01*
X018045Y026412D02*
X018045Y026028D01*
X017968Y025952D01*
X017815Y025952D01*
X017738Y026028D01*
X017738Y026412D01*
X017585Y026259D02*
X017431Y026412D01*
X017431Y025952D01*
X017278Y025952D02*
X017585Y025952D01*
D13*
X019666Y029314D02*
X019604Y029376D01*
X019604Y029499D01*
X019666Y029561D01*
X019604Y029682D02*
X019851Y029929D01*
X019913Y029929D01*
X019975Y029867D01*
X019975Y029744D01*
X019913Y029682D01*
X019913Y029561D02*
X019975Y029499D01*
X019975Y029376D01*
X019913Y029314D01*
X019666Y029314D01*
X019604Y029682D02*
X019604Y029929D01*
X017456Y030046D02*
X017456Y029799D01*
X017395Y029738D01*
X017271Y029738D01*
X017210Y029799D01*
X017088Y029738D02*
X016841Y029738D01*
X016965Y029738D02*
X016965Y030108D01*
X017088Y029984D01*
X017210Y030046D02*
X017271Y030108D01*
X017395Y030108D01*
X017456Y030046D01*
X014882Y021813D02*
X014882Y021566D01*
X015068Y021751D01*
X014697Y021751D01*
X014759Y021445D02*
X014697Y021383D01*
X014697Y021259D01*
X014759Y021198D01*
X015006Y021198D01*
X015068Y021259D01*
X015068Y021383D01*
X015006Y021445D01*
X009532Y004230D02*
X009409Y004230D01*
X009347Y004168D01*
X009226Y004168D02*
X009164Y004230D01*
X009040Y004230D01*
X008979Y004168D01*
X008979Y004106D01*
X009040Y004045D01*
X008979Y003983D01*
X008979Y003921D01*
X009040Y003860D01*
X009164Y003860D01*
X009226Y003921D01*
X009347Y003921D02*
X009409Y003860D01*
X009532Y003860D01*
X009594Y003921D01*
X009594Y004168D01*
X009532Y004230D01*
X009102Y004045D02*
X009040Y004045D01*
D14*
X014621Y016538D02*
X020345Y016538D01*
X020345Y018428D01*
X014621Y018428D01*
X014621Y016538D01*
X014581Y016853D02*
X014424Y016853D01*
X014424Y017010D01*
X014581Y017010D01*
X014581Y017207D02*
X014424Y017207D01*
X014424Y017758D01*
X014581Y017758D01*
X014581Y017955D02*
X014424Y017955D01*
X014424Y018113D01*
X014581Y018113D01*
X014936Y018270D02*
X014936Y016695D01*
X020030Y016695D01*
X020030Y018270D01*
X014936Y018270D01*
X020279Y019909D02*
X020429Y019909D01*
X020279Y019909D02*
X020279Y021449D01*
X020429Y021449D01*
X022429Y021449D02*
X022579Y021449D01*
X022579Y019909D01*
X022429Y019909D01*
X022644Y019799D02*
X022646Y019814D01*
X022652Y019827D01*
X022661Y019839D01*
X022672Y019848D01*
X022686Y019854D01*
X022701Y019856D01*
X022716Y019854D01*
X022729Y019848D01*
X022741Y019839D01*
X022750Y019828D01*
X022756Y019814D01*
X022758Y019799D01*
X022756Y019784D01*
X022750Y019771D01*
X022741Y019759D01*
X022730Y019750D01*
X022716Y019744D01*
X022701Y019742D01*
X022686Y019744D01*
X022673Y019750D01*
X022661Y019759D01*
X022652Y019770D01*
X022646Y019784D01*
X022644Y019799D01*
X020542Y018113D02*
X020542Y017955D01*
X020384Y017955D01*
X020384Y018113D02*
X020542Y018113D01*
X020542Y017758D02*
X020542Y017207D01*
X020384Y017207D01*
X020384Y017010D02*
X020542Y017010D01*
X020542Y016853D01*
X020384Y016853D01*
X020384Y017758D02*
X020542Y017758D01*
M02*
