G75*
%MOIN*%
%OFA0B0*%
%FSLAX24Y24*%
%IPPOS*%
%LPD*%
%AMOC8*
5,1,8,0,0,1.08239X$1,22.5*
%
%ADD10C,0.0000*%
%ADD11R,0.0295X0.1575*%
%ADD12R,0.0315X0.0315*%
%ADD13R,0.0394X0.0433*%
%ADD14R,0.0472X0.0472*%
%ADD15R,0.0591X0.1409*%
%ADD16R,0.0787X0.0787*%
D10*
X000872Y001735D02*
X000872Y033231D01*
X000874Y033297D01*
X000879Y033363D01*
X000889Y033429D01*
X000902Y033494D01*
X000918Y033558D01*
X000938Y033621D01*
X000962Y033683D01*
X000989Y033743D01*
X001019Y033802D01*
X001053Y033859D01*
X001090Y033914D01*
X001130Y033967D01*
X001172Y034018D01*
X001218Y034066D01*
X001266Y034112D01*
X001317Y034154D01*
X001370Y034194D01*
X001425Y034231D01*
X001482Y034265D01*
X001541Y034295D01*
X001601Y034322D01*
X001663Y034346D01*
X001726Y034366D01*
X001790Y034382D01*
X001855Y034395D01*
X001921Y034405D01*
X001987Y034410D01*
X002053Y034412D01*
X033549Y034412D01*
X033615Y034410D01*
X033681Y034405D01*
X033747Y034395D01*
X033812Y034382D01*
X033876Y034366D01*
X033939Y034346D01*
X034001Y034322D01*
X034061Y034295D01*
X034120Y034265D01*
X034177Y034231D01*
X034232Y034194D01*
X034285Y034154D01*
X034336Y034112D01*
X034384Y034066D01*
X034430Y034018D01*
X034472Y033967D01*
X034512Y033914D01*
X034549Y033859D01*
X034583Y033802D01*
X034613Y033743D01*
X034640Y033683D01*
X034664Y033621D01*
X034684Y033558D01*
X034700Y033494D01*
X034713Y033429D01*
X034723Y033363D01*
X034728Y033297D01*
X034730Y033231D01*
X034730Y001735D01*
X034728Y001669D01*
X034723Y001603D01*
X034713Y001537D01*
X034700Y001472D01*
X034684Y001408D01*
X034664Y001345D01*
X034640Y001283D01*
X034613Y001223D01*
X034583Y001164D01*
X034549Y001107D01*
X034512Y001052D01*
X034472Y000999D01*
X034430Y000948D01*
X034384Y000900D01*
X034336Y000854D01*
X034285Y000812D01*
X034232Y000772D01*
X034177Y000735D01*
X034120Y000701D01*
X034061Y000671D01*
X034001Y000644D01*
X033939Y000620D01*
X033876Y000600D01*
X033812Y000584D01*
X033747Y000571D01*
X033681Y000561D01*
X033615Y000556D01*
X033549Y000554D01*
X002053Y000554D01*
X001987Y000556D01*
X001921Y000561D01*
X001855Y000571D01*
X001790Y000584D01*
X001726Y000600D01*
X001663Y000620D01*
X001601Y000644D01*
X001541Y000671D01*
X001482Y000701D01*
X001425Y000735D01*
X001370Y000772D01*
X001317Y000812D01*
X001266Y000854D01*
X001218Y000900D01*
X001172Y000948D01*
X001130Y000999D01*
X001090Y001052D01*
X001053Y001107D01*
X001019Y001164D01*
X000989Y001223D01*
X000962Y001283D01*
X000938Y001345D01*
X000918Y001408D01*
X000902Y001472D01*
X000889Y001537D01*
X000879Y001603D01*
X000874Y001669D01*
X000872Y001735D01*
X012474Y005310D02*
X012476Y005360D01*
X012482Y005410D01*
X012492Y005459D01*
X012506Y005507D01*
X012523Y005554D01*
X012544Y005599D01*
X012569Y005643D01*
X012597Y005684D01*
X012629Y005723D01*
X012663Y005760D01*
X012700Y005794D01*
X012740Y005824D01*
X012782Y005851D01*
X012826Y005875D01*
X012872Y005896D01*
X012919Y005912D01*
X012967Y005925D01*
X013017Y005934D01*
X013066Y005939D01*
X013117Y005940D01*
X013167Y005937D01*
X013216Y005930D01*
X013265Y005919D01*
X013313Y005904D01*
X013359Y005886D01*
X013404Y005864D01*
X013447Y005838D01*
X013488Y005809D01*
X013527Y005777D01*
X013563Y005742D01*
X013595Y005704D01*
X013625Y005664D01*
X013652Y005621D01*
X013675Y005577D01*
X013694Y005531D01*
X013710Y005483D01*
X013722Y005434D01*
X013730Y005385D01*
X013734Y005335D01*
X013734Y005285D01*
X013730Y005235D01*
X013722Y005186D01*
X013710Y005137D01*
X013694Y005089D01*
X013675Y005043D01*
X013652Y004999D01*
X013625Y004956D01*
X013595Y004916D01*
X013563Y004878D01*
X013527Y004843D01*
X013488Y004811D01*
X013447Y004782D01*
X013404Y004756D01*
X013359Y004734D01*
X013313Y004716D01*
X013265Y004701D01*
X013216Y004690D01*
X013167Y004683D01*
X013117Y004680D01*
X013066Y004681D01*
X013017Y004686D01*
X012967Y004695D01*
X012919Y004708D01*
X012872Y004724D01*
X012826Y004745D01*
X012782Y004769D01*
X012740Y004796D01*
X012700Y004826D01*
X012663Y004860D01*
X012629Y004897D01*
X012597Y004936D01*
X012569Y004977D01*
X012544Y005021D01*
X012523Y005066D01*
X012506Y005113D01*
X012492Y005161D01*
X012482Y005210D01*
X012476Y005260D01*
X012474Y005310D01*
X021757Y014483D02*
X021759Y014533D01*
X021765Y014583D01*
X021775Y014632D01*
X021789Y014680D01*
X021806Y014727D01*
X021827Y014772D01*
X021852Y014816D01*
X021880Y014857D01*
X021912Y014896D01*
X021946Y014933D01*
X021983Y014967D01*
X022023Y014997D01*
X022065Y015024D01*
X022109Y015048D01*
X022155Y015069D01*
X022202Y015085D01*
X022250Y015098D01*
X022300Y015107D01*
X022349Y015112D01*
X022400Y015113D01*
X022450Y015110D01*
X022499Y015103D01*
X022548Y015092D01*
X022596Y015077D01*
X022642Y015059D01*
X022687Y015037D01*
X022730Y015011D01*
X022771Y014982D01*
X022810Y014950D01*
X022846Y014915D01*
X022878Y014877D01*
X022908Y014837D01*
X022935Y014794D01*
X022958Y014750D01*
X022977Y014704D01*
X022993Y014656D01*
X023005Y014607D01*
X023013Y014558D01*
X023017Y014508D01*
X023017Y014458D01*
X023013Y014408D01*
X023005Y014359D01*
X022993Y014310D01*
X022977Y014262D01*
X022958Y014216D01*
X022935Y014172D01*
X022908Y014129D01*
X022878Y014089D01*
X022846Y014051D01*
X022810Y014016D01*
X022771Y013984D01*
X022730Y013955D01*
X022687Y013929D01*
X022642Y013907D01*
X022596Y013889D01*
X022548Y013874D01*
X022499Y013863D01*
X022450Y013856D01*
X022400Y013853D01*
X022349Y013854D01*
X022300Y013859D01*
X022250Y013868D01*
X022202Y013881D01*
X022155Y013897D01*
X022109Y013918D01*
X022065Y013942D01*
X022023Y013969D01*
X021983Y013999D01*
X021946Y014033D01*
X021912Y014070D01*
X021880Y014109D01*
X021852Y014150D01*
X021827Y014194D01*
X021806Y014239D01*
X021789Y014286D01*
X021775Y014334D01*
X021765Y014383D01*
X021759Y014433D01*
X021757Y014483D01*
X024199Y020132D02*
X024201Y020166D01*
X024207Y020200D01*
X024217Y020233D01*
X024230Y020264D01*
X024248Y020294D01*
X024268Y020322D01*
X024292Y020347D01*
X024318Y020369D01*
X024346Y020387D01*
X024377Y020403D01*
X024409Y020415D01*
X024443Y020423D01*
X024477Y020427D01*
X024511Y020427D01*
X024545Y020423D01*
X024579Y020415D01*
X024611Y020403D01*
X024641Y020387D01*
X024670Y020369D01*
X024696Y020347D01*
X024720Y020322D01*
X024740Y020294D01*
X024758Y020264D01*
X024771Y020233D01*
X024781Y020200D01*
X024787Y020166D01*
X024789Y020132D01*
X024787Y020098D01*
X024781Y020064D01*
X024771Y020031D01*
X024758Y020000D01*
X024740Y019970D01*
X024720Y019942D01*
X024696Y019917D01*
X024670Y019895D01*
X024642Y019877D01*
X024611Y019861D01*
X024579Y019849D01*
X024545Y019841D01*
X024511Y019837D01*
X024477Y019837D01*
X024443Y019841D01*
X024409Y019849D01*
X024377Y019861D01*
X024346Y019877D01*
X024318Y019895D01*
X024292Y019917D01*
X024268Y019942D01*
X024248Y019970D01*
X024230Y020000D01*
X024217Y020031D01*
X024207Y020064D01*
X024201Y020098D01*
X024199Y020132D01*
X025576Y023093D02*
X025576Y024668D01*
X025577Y024668D02*
X025578Y024685D01*
X025583Y024702D01*
X025590Y024717D01*
X025600Y024731D01*
X025612Y024743D01*
X025626Y024753D01*
X025641Y024760D01*
X025658Y024765D01*
X025675Y024766D01*
X025692Y024765D01*
X025709Y024760D01*
X025724Y024753D01*
X025738Y024743D01*
X025750Y024731D01*
X025760Y024717D01*
X025767Y024702D01*
X025772Y024685D01*
X025773Y024668D01*
X025773Y023093D01*
X025772Y023076D01*
X025767Y023059D01*
X025760Y023044D01*
X025750Y023030D01*
X025738Y023018D01*
X025724Y023008D01*
X025709Y023001D01*
X025692Y022996D01*
X025675Y022995D01*
X025658Y022996D01*
X025641Y023001D01*
X025626Y023008D01*
X025612Y023018D01*
X025600Y023030D01*
X025590Y023044D01*
X025583Y023059D01*
X025578Y023076D01*
X025577Y023093D01*
X025576Y030967D02*
X025576Y032542D01*
X025577Y032542D02*
X025578Y032559D01*
X025583Y032576D01*
X025590Y032591D01*
X025600Y032605D01*
X025612Y032617D01*
X025626Y032627D01*
X025641Y032634D01*
X025658Y032639D01*
X025675Y032640D01*
X025692Y032639D01*
X025709Y032634D01*
X025724Y032627D01*
X025738Y032617D01*
X025750Y032605D01*
X025760Y032591D01*
X025767Y032576D01*
X025772Y032559D01*
X025773Y032542D01*
X025773Y030967D01*
X025772Y030950D01*
X025767Y030933D01*
X025760Y030918D01*
X025750Y030904D01*
X025738Y030892D01*
X025724Y030882D01*
X025709Y030875D01*
X025692Y030870D01*
X025675Y030869D01*
X025658Y030870D01*
X025641Y030875D01*
X025626Y030882D01*
X025612Y030892D01*
X025600Y030904D01*
X025590Y030918D01*
X025583Y030933D01*
X025578Y030950D01*
X025577Y030967D01*
X010813Y030172D02*
X010815Y030206D01*
X010821Y030240D01*
X010831Y030273D01*
X010844Y030304D01*
X010862Y030334D01*
X010882Y030362D01*
X010906Y030387D01*
X010932Y030409D01*
X010960Y030427D01*
X010991Y030443D01*
X011023Y030455D01*
X011057Y030463D01*
X011091Y030467D01*
X011125Y030467D01*
X011159Y030463D01*
X011193Y030455D01*
X011225Y030443D01*
X011255Y030427D01*
X011284Y030409D01*
X011310Y030387D01*
X011334Y030362D01*
X011354Y030334D01*
X011372Y030304D01*
X011385Y030273D01*
X011395Y030240D01*
X011401Y030206D01*
X011403Y030172D01*
X011401Y030138D01*
X011395Y030104D01*
X011385Y030071D01*
X011372Y030040D01*
X011354Y030010D01*
X011334Y029982D01*
X011310Y029957D01*
X011284Y029935D01*
X011256Y029917D01*
X011225Y029901D01*
X011193Y029889D01*
X011159Y029881D01*
X011125Y029877D01*
X011091Y029877D01*
X011057Y029881D01*
X011023Y029889D01*
X010991Y029901D01*
X010960Y029917D01*
X010932Y029935D01*
X010906Y029957D01*
X010882Y029982D01*
X010862Y030010D01*
X010844Y030040D01*
X010831Y030071D01*
X010821Y030104D01*
X010815Y030138D01*
X010813Y030172D01*
X010025Y030967D02*
X010025Y032542D01*
X009927Y032640D02*
X009910Y032639D01*
X009893Y032634D01*
X009878Y032627D01*
X009864Y032617D01*
X009852Y032605D01*
X009842Y032591D01*
X009835Y032576D01*
X009830Y032559D01*
X009829Y032542D01*
X009828Y032542D02*
X009828Y030967D01*
X009927Y030869D02*
X009944Y030870D01*
X009961Y030875D01*
X009976Y030882D01*
X009990Y030892D01*
X010002Y030904D01*
X010012Y030918D01*
X010019Y030933D01*
X010024Y030950D01*
X010025Y030967D01*
X009927Y030869D02*
X009910Y030870D01*
X009893Y030875D01*
X009878Y030882D01*
X009864Y030892D01*
X009852Y030904D01*
X009842Y030918D01*
X009835Y030933D01*
X009830Y030950D01*
X009829Y030967D01*
X010025Y032542D02*
X010024Y032559D01*
X010019Y032576D01*
X010012Y032591D01*
X010002Y032605D01*
X009990Y032617D01*
X009976Y032627D01*
X009961Y032634D01*
X009944Y032639D01*
X009927Y032640D01*
X009927Y024766D02*
X009910Y024765D01*
X009893Y024760D01*
X009878Y024753D01*
X009864Y024743D01*
X009852Y024731D01*
X009842Y024717D01*
X009835Y024702D01*
X009830Y024685D01*
X009829Y024668D01*
X009828Y024668D02*
X009828Y023093D01*
X009927Y022995D02*
X009944Y022996D01*
X009961Y023001D01*
X009976Y023008D01*
X009990Y023018D01*
X010002Y023030D01*
X010012Y023044D01*
X010019Y023059D01*
X010024Y023076D01*
X010025Y023093D01*
X010025Y024668D01*
X010024Y024685D01*
X010019Y024702D01*
X010012Y024717D01*
X010002Y024731D01*
X009990Y024743D01*
X009976Y024753D01*
X009961Y024760D01*
X009944Y024765D01*
X009927Y024766D01*
X009829Y023093D02*
X009830Y023076D01*
X009835Y023059D01*
X009842Y023044D01*
X009852Y023030D01*
X009864Y023018D01*
X009878Y023008D01*
X009893Y023001D01*
X009910Y022996D01*
X009927Y022995D01*
D11*
X016226Y031747D03*
X016620Y031747D03*
X017013Y031747D03*
X017407Y031747D03*
X017801Y031747D03*
X018194Y031747D03*
X018588Y031747D03*
X018982Y031747D03*
X019375Y031747D03*
D12*
X025281Y027719D03*
X025281Y027129D03*
X025281Y022601D03*
X025281Y022010D03*
X010320Y022010D03*
X010320Y022601D03*
X010320Y027129D03*
X010320Y027719D03*
D13*
X006226Y010298D03*
X005557Y010298D03*
X005557Y009510D03*
X006226Y009510D03*
X006226Y008723D03*
X005557Y008723D03*
X005557Y007936D03*
X006226Y007936D03*
X006226Y007148D03*
X005557Y007148D03*
X005557Y006361D03*
X006226Y006361D03*
D14*
X004316Y006341D03*
X004316Y007168D03*
D15*
X004681Y004310D03*
X005681Y004310D03*
X006681Y004310D03*
X007181Y002310D03*
X006181Y002310D03*
X005181Y002310D03*
D16*
X029218Y006197D03*
X031580Y006197D03*
X031580Y011840D03*
X029218Y011840D03*
M02*
