%
M48
M72
T01C0.0236
T02C0.0394
T03C0.0591
T04C0.1260
T05C0.1417
%
T01
X3923Y4786
X5104Y6361
X5059Y7179
X5104Y7936
X5104Y8723
X5104Y9510
X6383Y10888
X8823Y9814
X9533Y11085
X7010Y7564
X7072Y5573
X8385Y3751
X3529Y7936
X3431Y10298
X3431Y11085
X3885Y13564
X18194Y8723
X14848Y14432
X14454Y14825
X14454Y15613
X14848Y15908
X15760Y20251
X18194Y22995
X16816Y23684
X17899Y25258
X17407Y25652
X17510Y26689
X16816Y26833
X15260Y25724
X15438Y25258
X12951Y25258
X13135Y27939
X5010Y26564
X8260Y23564
X16620Y29983
X17073Y30126
X17407Y30573
X19375Y30573
X21948Y28501
X25309Y28179
X25247Y26741
X23312Y21125
X22131Y18861
X19868Y22404
X22385Y24439
X26760Y19626
X31459Y23588
X29073Y30189
X28135Y11877
X29948Y9251
X31635Y10626
X27840Y6176
X27760Y3814
T02
X14312Y4384
X15312Y4384
X16312Y4384
X17312Y4384
X18312Y4384
X19312Y4384
X20312Y4384
X21312Y4384
X22312Y4384
X23312Y4384
T03
X11108Y30172
X24494Y20132
T04
X13104Y5310
X22387Y14483
T05
X5931Y17483
X29671Y17483
M30
