G75*
%MOIN*%
%OFA0B0*%
%FSLAX24Y24*%
%IPPOS*%
%LPD*%
%AMOC8*
5,1,8,0,0,1.08239X$1,22.5*
%
%ADD10C,0.0000*%
%ADD11C,0.0120*%
%ADD12C,0.0050*%
%ADD13C,0.0118*%
%ADD14C,0.0040*%
%ADD15R,0.0098X0.0098*%
%ADD16C,0.0060*%
%ADD17C,0.0080*%
%ADD18R,0.0059X0.0118*%
%ADD19R,0.0118X0.0118*%
D10*
X000554Y001735D02*
X000554Y033231D01*
X000556Y033297D01*
X000561Y033363D01*
X000571Y033429D01*
X000584Y033494D01*
X000600Y033558D01*
X000620Y033621D01*
X000644Y033683D01*
X000671Y033743D01*
X000701Y033802D01*
X000735Y033859D01*
X000772Y033914D01*
X000812Y033967D01*
X000854Y034018D01*
X000900Y034066D01*
X000948Y034112D01*
X000999Y034154D01*
X001052Y034194D01*
X001107Y034231D01*
X001164Y034265D01*
X001223Y034295D01*
X001283Y034322D01*
X001345Y034346D01*
X001408Y034366D01*
X001472Y034382D01*
X001537Y034395D01*
X001603Y034405D01*
X001669Y034410D01*
X001735Y034412D01*
X033231Y034412D01*
X033297Y034410D01*
X033363Y034405D01*
X033429Y034395D01*
X033494Y034382D01*
X033558Y034366D01*
X033621Y034346D01*
X033683Y034322D01*
X033743Y034295D01*
X033802Y034265D01*
X033859Y034231D01*
X033914Y034194D01*
X033967Y034154D01*
X034018Y034112D01*
X034066Y034066D01*
X034112Y034018D01*
X034154Y033967D01*
X034194Y033914D01*
X034231Y033859D01*
X034265Y033802D01*
X034295Y033743D01*
X034322Y033683D01*
X034346Y033621D01*
X034366Y033558D01*
X034382Y033494D01*
X034395Y033429D01*
X034405Y033363D01*
X034410Y033297D01*
X034412Y033231D01*
X034412Y001735D01*
X034410Y001669D01*
X034405Y001603D01*
X034395Y001537D01*
X034382Y001472D01*
X034366Y001408D01*
X034346Y001345D01*
X034322Y001283D01*
X034295Y001223D01*
X034265Y001164D01*
X034231Y001107D01*
X034194Y001052D01*
X034154Y000999D01*
X034112Y000948D01*
X034066Y000900D01*
X034018Y000854D01*
X033967Y000812D01*
X033914Y000772D01*
X033859Y000735D01*
X033802Y000701D01*
X033743Y000671D01*
X033683Y000644D01*
X033621Y000620D01*
X033558Y000600D01*
X033494Y000584D01*
X033429Y000571D01*
X033363Y000561D01*
X033297Y000556D01*
X033231Y000554D01*
X001735Y000554D01*
X001669Y000556D01*
X001603Y000561D01*
X001537Y000571D01*
X001472Y000584D01*
X001408Y000600D01*
X001345Y000620D01*
X001283Y000644D01*
X001223Y000671D01*
X001164Y000701D01*
X001107Y000735D01*
X001052Y000772D01*
X000999Y000812D01*
X000948Y000854D01*
X000900Y000900D01*
X000854Y000948D01*
X000812Y000999D01*
X000772Y001052D01*
X000735Y001107D01*
X000701Y001164D01*
X000671Y001223D01*
X000644Y001283D01*
X000620Y001345D01*
X000600Y001408D01*
X000584Y001472D01*
X000571Y001537D01*
X000561Y001603D01*
X000556Y001669D01*
X000554Y001735D01*
X012156Y005310D02*
X012158Y005360D01*
X012164Y005410D01*
X012174Y005459D01*
X012188Y005507D01*
X012205Y005554D01*
X012226Y005599D01*
X012251Y005643D01*
X012279Y005684D01*
X012311Y005723D01*
X012345Y005760D01*
X012382Y005794D01*
X012422Y005824D01*
X012464Y005851D01*
X012508Y005875D01*
X012554Y005896D01*
X012601Y005912D01*
X012649Y005925D01*
X012699Y005934D01*
X012748Y005939D01*
X012799Y005940D01*
X012849Y005937D01*
X012898Y005930D01*
X012947Y005919D01*
X012995Y005904D01*
X013041Y005886D01*
X013086Y005864D01*
X013129Y005838D01*
X013170Y005809D01*
X013209Y005777D01*
X013245Y005742D01*
X013277Y005704D01*
X013307Y005664D01*
X013334Y005621D01*
X013357Y005577D01*
X013376Y005531D01*
X013392Y005483D01*
X013404Y005434D01*
X013412Y005385D01*
X013416Y005335D01*
X013416Y005285D01*
X013412Y005235D01*
X013404Y005186D01*
X013392Y005137D01*
X013376Y005089D01*
X013357Y005043D01*
X013334Y004999D01*
X013307Y004956D01*
X013277Y004916D01*
X013245Y004878D01*
X013209Y004843D01*
X013170Y004811D01*
X013129Y004782D01*
X013086Y004756D01*
X013041Y004734D01*
X012995Y004716D01*
X012947Y004701D01*
X012898Y004690D01*
X012849Y004683D01*
X012799Y004680D01*
X012748Y004681D01*
X012699Y004686D01*
X012649Y004695D01*
X012601Y004708D01*
X012554Y004724D01*
X012508Y004745D01*
X012464Y004769D01*
X012422Y004796D01*
X012382Y004826D01*
X012345Y004860D01*
X012311Y004897D01*
X012279Y004936D01*
X012251Y004977D01*
X012226Y005021D01*
X012205Y005066D01*
X012188Y005113D01*
X012174Y005161D01*
X012164Y005210D01*
X012158Y005260D01*
X012156Y005310D01*
X021439Y014483D02*
X021441Y014533D01*
X021447Y014583D01*
X021457Y014632D01*
X021471Y014680D01*
X021488Y014727D01*
X021509Y014772D01*
X021534Y014816D01*
X021562Y014857D01*
X021594Y014896D01*
X021628Y014933D01*
X021665Y014967D01*
X021705Y014997D01*
X021747Y015024D01*
X021791Y015048D01*
X021837Y015069D01*
X021884Y015085D01*
X021932Y015098D01*
X021982Y015107D01*
X022031Y015112D01*
X022082Y015113D01*
X022132Y015110D01*
X022181Y015103D01*
X022230Y015092D01*
X022278Y015077D01*
X022324Y015059D01*
X022369Y015037D01*
X022412Y015011D01*
X022453Y014982D01*
X022492Y014950D01*
X022528Y014915D01*
X022560Y014877D01*
X022590Y014837D01*
X022617Y014794D01*
X022640Y014750D01*
X022659Y014704D01*
X022675Y014656D01*
X022687Y014607D01*
X022695Y014558D01*
X022699Y014508D01*
X022699Y014458D01*
X022695Y014408D01*
X022687Y014359D01*
X022675Y014310D01*
X022659Y014262D01*
X022640Y014216D01*
X022617Y014172D01*
X022590Y014129D01*
X022560Y014089D01*
X022528Y014051D01*
X022492Y014016D01*
X022453Y013984D01*
X022412Y013955D01*
X022369Y013929D01*
X022324Y013907D01*
X022278Y013889D01*
X022230Y013874D01*
X022181Y013863D01*
X022132Y013856D01*
X022082Y013853D01*
X022031Y013854D01*
X021982Y013859D01*
X021932Y013868D01*
X021884Y013881D01*
X021837Y013897D01*
X021791Y013918D01*
X021747Y013942D01*
X021705Y013969D01*
X021665Y013999D01*
X021628Y014033D01*
X021594Y014070D01*
X021562Y014109D01*
X021534Y014150D01*
X021509Y014194D01*
X021488Y014239D01*
X021471Y014286D01*
X021457Y014334D01*
X021447Y014383D01*
X021441Y014433D01*
X021439Y014483D01*
X023881Y020132D02*
X023883Y020166D01*
X023889Y020200D01*
X023899Y020233D01*
X023912Y020264D01*
X023930Y020294D01*
X023950Y020322D01*
X023974Y020347D01*
X024000Y020369D01*
X024028Y020387D01*
X024059Y020403D01*
X024091Y020415D01*
X024125Y020423D01*
X024159Y020427D01*
X024193Y020427D01*
X024227Y020423D01*
X024261Y020415D01*
X024293Y020403D01*
X024323Y020387D01*
X024352Y020369D01*
X024378Y020347D01*
X024402Y020322D01*
X024422Y020294D01*
X024440Y020264D01*
X024453Y020233D01*
X024463Y020200D01*
X024469Y020166D01*
X024471Y020132D01*
X024469Y020098D01*
X024463Y020064D01*
X024453Y020031D01*
X024440Y020000D01*
X024422Y019970D01*
X024402Y019942D01*
X024378Y019917D01*
X024352Y019895D01*
X024324Y019877D01*
X024293Y019861D01*
X024261Y019849D01*
X024227Y019841D01*
X024193Y019837D01*
X024159Y019837D01*
X024125Y019841D01*
X024091Y019849D01*
X024059Y019861D01*
X024028Y019877D01*
X024000Y019895D01*
X023974Y019917D01*
X023950Y019942D01*
X023930Y019970D01*
X023912Y020000D01*
X023899Y020031D01*
X023889Y020064D01*
X023883Y020098D01*
X023881Y020132D01*
X025258Y023093D02*
X025258Y024668D01*
X025259Y024668D02*
X025260Y024685D01*
X025265Y024702D01*
X025272Y024717D01*
X025282Y024731D01*
X025294Y024743D01*
X025308Y024753D01*
X025323Y024760D01*
X025340Y024765D01*
X025357Y024766D01*
X025374Y024765D01*
X025391Y024760D01*
X025406Y024753D01*
X025420Y024743D01*
X025432Y024731D01*
X025442Y024717D01*
X025449Y024702D01*
X025454Y024685D01*
X025455Y024668D01*
X025455Y023093D01*
X025454Y023076D01*
X025449Y023059D01*
X025442Y023044D01*
X025432Y023030D01*
X025420Y023018D01*
X025406Y023008D01*
X025391Y023001D01*
X025374Y022996D01*
X025357Y022995D01*
X025340Y022996D01*
X025323Y023001D01*
X025308Y023008D01*
X025294Y023018D01*
X025282Y023030D01*
X025272Y023044D01*
X025265Y023059D01*
X025260Y023076D01*
X025259Y023093D01*
X025258Y030967D02*
X025258Y032542D01*
X025259Y032542D02*
X025260Y032559D01*
X025265Y032576D01*
X025272Y032591D01*
X025282Y032605D01*
X025294Y032617D01*
X025308Y032627D01*
X025323Y032634D01*
X025340Y032639D01*
X025357Y032640D01*
X025374Y032639D01*
X025391Y032634D01*
X025406Y032627D01*
X025420Y032617D01*
X025432Y032605D01*
X025442Y032591D01*
X025449Y032576D01*
X025454Y032559D01*
X025455Y032542D01*
X025455Y030967D01*
X025454Y030950D01*
X025449Y030933D01*
X025442Y030918D01*
X025432Y030904D01*
X025420Y030892D01*
X025406Y030882D01*
X025391Y030875D01*
X025374Y030870D01*
X025357Y030869D01*
X025340Y030870D01*
X025323Y030875D01*
X025308Y030882D01*
X025294Y030892D01*
X025282Y030904D01*
X025272Y030918D01*
X025265Y030933D01*
X025260Y030950D01*
X025259Y030967D01*
X010495Y030172D02*
X010497Y030206D01*
X010503Y030240D01*
X010513Y030273D01*
X010526Y030304D01*
X010544Y030334D01*
X010564Y030362D01*
X010588Y030387D01*
X010614Y030409D01*
X010642Y030427D01*
X010673Y030443D01*
X010705Y030455D01*
X010739Y030463D01*
X010773Y030467D01*
X010807Y030467D01*
X010841Y030463D01*
X010875Y030455D01*
X010907Y030443D01*
X010937Y030427D01*
X010966Y030409D01*
X010992Y030387D01*
X011016Y030362D01*
X011036Y030334D01*
X011054Y030304D01*
X011067Y030273D01*
X011077Y030240D01*
X011083Y030206D01*
X011085Y030172D01*
X011083Y030138D01*
X011077Y030104D01*
X011067Y030071D01*
X011054Y030040D01*
X011036Y030010D01*
X011016Y029982D01*
X010992Y029957D01*
X010966Y029935D01*
X010938Y029917D01*
X010907Y029901D01*
X010875Y029889D01*
X010841Y029881D01*
X010807Y029877D01*
X010773Y029877D01*
X010739Y029881D01*
X010705Y029889D01*
X010673Y029901D01*
X010642Y029917D01*
X010614Y029935D01*
X010588Y029957D01*
X010564Y029982D01*
X010544Y030010D01*
X010526Y030040D01*
X010513Y030071D01*
X010503Y030104D01*
X010497Y030138D01*
X010495Y030172D01*
X009707Y030967D02*
X009707Y032542D01*
X009609Y032640D02*
X009592Y032639D01*
X009575Y032634D01*
X009560Y032627D01*
X009546Y032617D01*
X009534Y032605D01*
X009524Y032591D01*
X009517Y032576D01*
X009512Y032559D01*
X009511Y032542D01*
X009510Y032542D02*
X009510Y030967D01*
X009609Y030869D02*
X009626Y030870D01*
X009643Y030875D01*
X009658Y030882D01*
X009672Y030892D01*
X009684Y030904D01*
X009694Y030918D01*
X009701Y030933D01*
X009706Y030950D01*
X009707Y030967D01*
X009609Y030869D02*
X009592Y030870D01*
X009575Y030875D01*
X009560Y030882D01*
X009546Y030892D01*
X009534Y030904D01*
X009524Y030918D01*
X009517Y030933D01*
X009512Y030950D01*
X009511Y030967D01*
X009707Y032542D02*
X009706Y032559D01*
X009701Y032576D01*
X009694Y032591D01*
X009684Y032605D01*
X009672Y032617D01*
X009658Y032627D01*
X009643Y032634D01*
X009626Y032639D01*
X009609Y032640D01*
X009609Y024766D02*
X009592Y024765D01*
X009575Y024760D01*
X009560Y024753D01*
X009546Y024743D01*
X009534Y024731D01*
X009524Y024717D01*
X009517Y024702D01*
X009512Y024685D01*
X009511Y024668D01*
X009510Y024668D02*
X009510Y023093D01*
X009609Y022995D02*
X009626Y022996D01*
X009643Y023001D01*
X009658Y023008D01*
X009672Y023018D01*
X009684Y023030D01*
X009694Y023044D01*
X009701Y023059D01*
X009706Y023076D01*
X009707Y023093D01*
X009707Y024668D01*
X009706Y024685D01*
X009701Y024702D01*
X009694Y024717D01*
X009684Y024731D01*
X009672Y024743D01*
X009658Y024753D01*
X009643Y024760D01*
X009626Y024765D01*
X009609Y024766D01*
X009511Y023093D02*
X009512Y023076D01*
X009517Y023059D01*
X009524Y023044D01*
X009534Y023030D01*
X009546Y023018D01*
X009560Y023008D01*
X009575Y023001D01*
X009592Y022996D01*
X009609Y022995D01*
D11*
X027629Y014507D02*
X027629Y014277D01*
X027859Y014047D01*
X028319Y014047D01*
X028550Y013817D01*
X028550Y013587D01*
X028319Y013356D01*
X027859Y013356D01*
X027629Y013587D01*
X027629Y014507D02*
X027859Y014737D01*
X028319Y014737D01*
X028550Y014507D01*
X029010Y014737D02*
X029931Y014737D01*
X029470Y014737D02*
X029470Y013356D01*
X030391Y013587D02*
X030621Y013356D01*
X031082Y013356D01*
X031312Y013587D01*
X031312Y014507D01*
X031082Y014737D01*
X030621Y014737D01*
X030391Y014507D01*
X030391Y013587D01*
X031772Y013817D02*
X032463Y013817D01*
X032693Y014047D01*
X032693Y014507D01*
X032463Y014737D01*
X031772Y014737D01*
X031772Y013356D01*
X030957Y004726D02*
X030496Y004726D01*
X030266Y004495D01*
X030266Y003575D01*
X030496Y003345D01*
X030957Y003345D01*
X031187Y003575D01*
X031187Y004495D01*
X030957Y004726D01*
X029806Y004495D02*
X029576Y004726D01*
X029115Y004726D01*
X028885Y004495D01*
X028885Y003575D01*
X029115Y003345D01*
X029576Y003345D01*
X029806Y003575D01*
X029806Y004035D01*
X029345Y004035D01*
D12*
X029294Y005016D02*
X028900Y005409D01*
X028900Y005803D01*
X028900Y006590D02*
X028900Y006984D01*
X029294Y007378D01*
X030869Y007378D01*
X031262Y006984D01*
X031262Y006590D01*
X031262Y005803D02*
X031262Y005409D01*
X030869Y005016D01*
X029294Y005016D01*
X029175Y006197D02*
X029177Y006257D01*
X029183Y006316D01*
X029193Y006376D01*
X029207Y006434D01*
X029224Y006491D01*
X029245Y006547D01*
X029270Y006602D01*
X029299Y006654D01*
X029331Y006705D01*
X029366Y006753D01*
X029404Y006800D01*
X029446Y006843D01*
X029490Y006883D01*
X029536Y006921D01*
X029585Y006955D01*
X029637Y006987D01*
X029690Y007014D01*
X029745Y007038D01*
X029801Y007059D01*
X029859Y007075D01*
X029917Y007088D01*
X029976Y007097D01*
X030036Y007102D01*
X030096Y007103D01*
X030156Y007100D01*
X030215Y007093D01*
X030274Y007082D01*
X030332Y007067D01*
X030389Y007049D01*
X030445Y007027D01*
X030499Y007001D01*
X030551Y006971D01*
X030601Y006939D01*
X030649Y006903D01*
X030695Y006864D01*
X030737Y006822D01*
X030777Y006777D01*
X030814Y006730D01*
X030848Y006680D01*
X030878Y006628D01*
X030905Y006575D01*
X030928Y006519D01*
X030947Y006463D01*
X030963Y006405D01*
X030975Y006346D01*
X030983Y006287D01*
X030987Y006227D01*
X030987Y006167D01*
X030983Y006107D01*
X030975Y006048D01*
X030963Y005989D01*
X030947Y005931D01*
X030928Y005875D01*
X030905Y005819D01*
X030878Y005766D01*
X030848Y005714D01*
X030814Y005664D01*
X030777Y005617D01*
X030737Y005572D01*
X030695Y005530D01*
X030649Y005491D01*
X030601Y005455D01*
X030551Y005423D01*
X030499Y005393D01*
X030445Y005367D01*
X030389Y005345D01*
X030332Y005327D01*
X030274Y005312D01*
X030215Y005301D01*
X030156Y005294D01*
X030096Y005291D01*
X030036Y005292D01*
X029976Y005297D01*
X029917Y005306D01*
X029859Y005319D01*
X029801Y005335D01*
X029745Y005356D01*
X029690Y005380D01*
X029637Y005407D01*
X029585Y005439D01*
X029536Y005473D01*
X029490Y005511D01*
X029446Y005551D01*
X029404Y005594D01*
X029366Y005641D01*
X029331Y005689D01*
X029299Y005740D01*
X029270Y005792D01*
X029245Y005847D01*
X029224Y005903D01*
X029207Y005960D01*
X029193Y006018D01*
X029183Y006078D01*
X029177Y006137D01*
X029175Y006197D01*
X025751Y002416D02*
X024963Y001629D01*
X010003Y001629D01*
X009215Y002416D01*
X009215Y017377D01*
X010003Y018164D01*
X024963Y018164D01*
X025751Y017377D01*
X025751Y002416D01*
X029294Y010658D02*
X028900Y011052D01*
X028900Y011446D01*
X028900Y012233D02*
X028900Y012627D01*
X029294Y013021D01*
X030869Y013021D01*
X031262Y012627D01*
X031262Y012233D01*
X031262Y011446D02*
X031262Y011052D01*
X030869Y010658D01*
X029294Y010658D01*
X029175Y011840D02*
X029177Y011900D01*
X029183Y011959D01*
X029193Y012019D01*
X029207Y012077D01*
X029224Y012134D01*
X029245Y012190D01*
X029270Y012245D01*
X029299Y012297D01*
X029331Y012348D01*
X029366Y012396D01*
X029404Y012443D01*
X029446Y012486D01*
X029490Y012526D01*
X029536Y012564D01*
X029585Y012598D01*
X029637Y012630D01*
X029690Y012657D01*
X029745Y012681D01*
X029801Y012702D01*
X029859Y012718D01*
X029917Y012731D01*
X029976Y012740D01*
X030036Y012745D01*
X030096Y012746D01*
X030156Y012743D01*
X030215Y012736D01*
X030274Y012725D01*
X030332Y012710D01*
X030389Y012692D01*
X030445Y012670D01*
X030499Y012644D01*
X030551Y012614D01*
X030601Y012582D01*
X030649Y012546D01*
X030695Y012507D01*
X030737Y012465D01*
X030777Y012420D01*
X030814Y012373D01*
X030848Y012323D01*
X030878Y012271D01*
X030905Y012218D01*
X030928Y012162D01*
X030947Y012106D01*
X030963Y012048D01*
X030975Y011989D01*
X030983Y011930D01*
X030987Y011870D01*
X030987Y011810D01*
X030983Y011750D01*
X030975Y011691D01*
X030963Y011632D01*
X030947Y011574D01*
X030928Y011518D01*
X030905Y011462D01*
X030878Y011409D01*
X030848Y011357D01*
X030814Y011307D01*
X030777Y011260D01*
X030737Y011215D01*
X030695Y011173D01*
X030649Y011134D01*
X030601Y011098D01*
X030551Y011066D01*
X030499Y011036D01*
X030445Y011010D01*
X030389Y010988D01*
X030332Y010970D01*
X030274Y010955D01*
X030215Y010944D01*
X030156Y010937D01*
X030096Y010934D01*
X030036Y010935D01*
X029976Y010940D01*
X029917Y010949D01*
X029859Y010962D01*
X029801Y010978D01*
X029745Y010999D01*
X029690Y011023D01*
X029637Y011050D01*
X029585Y011082D01*
X029536Y011116D01*
X029490Y011154D01*
X029446Y011194D01*
X029404Y011237D01*
X029366Y011284D01*
X029331Y011332D01*
X029299Y011383D01*
X029270Y011435D01*
X029245Y011490D01*
X029224Y011546D01*
X029207Y011603D01*
X029193Y011661D01*
X029183Y011721D01*
X029177Y011780D01*
X029175Y011840D01*
X025751Y017377D02*
X025751Y018164D01*
X024963Y018164D01*
X025357Y018754D02*
X009609Y018754D01*
X009609Y032534D01*
X015121Y032534D01*
X015121Y030566D01*
X019845Y030566D01*
X019845Y032534D01*
X025357Y032534D01*
X025357Y018754D01*
X019845Y032534D02*
X015121Y032534D01*
X006488Y003935D02*
X006238Y003935D01*
X006238Y003435D01*
X006488Y003435D01*
X006488Y003935D01*
X006738Y003185D02*
X006988Y003185D01*
X006988Y002685D01*
X006738Y002685D01*
X006738Y003185D01*
X005988Y003185D02*
X005988Y002685D01*
X005738Y002685D01*
X005738Y003185D01*
X005988Y003185D01*
X005488Y003435D02*
X005488Y003935D01*
X005238Y003935D01*
X005238Y003435D01*
X005488Y003435D01*
X004988Y003185D02*
X004988Y002685D01*
X004738Y002685D01*
X004738Y003185D01*
X004988Y003185D01*
X004488Y003435D02*
X004488Y003935D01*
X004238Y003935D01*
X004238Y003435D01*
X004488Y003435D01*
D13*
X010790Y019542D02*
X024176Y019542D01*
X024215Y019544D01*
X024253Y019550D01*
X024290Y019559D01*
X024327Y019572D01*
X024362Y019589D01*
X024395Y019608D01*
X024426Y019631D01*
X024455Y019657D01*
X024481Y019686D01*
X024504Y019717D01*
X024523Y019750D01*
X024540Y019785D01*
X024553Y019822D01*
X024562Y019859D01*
X024568Y019897D01*
X024570Y019936D01*
X024569Y019936D02*
X024569Y029384D01*
X024570Y029384D02*
X024568Y029423D01*
X024562Y029461D01*
X024553Y029498D01*
X024540Y029535D01*
X024523Y029570D01*
X024504Y029603D01*
X024481Y029634D01*
X024455Y029663D01*
X024426Y029689D01*
X024395Y029712D01*
X024362Y029731D01*
X024327Y029748D01*
X024290Y029761D01*
X024253Y029770D01*
X024215Y029776D01*
X024176Y029778D01*
X010790Y029778D01*
X010751Y029776D01*
X010713Y029770D01*
X010676Y029761D01*
X010639Y029748D01*
X010604Y029731D01*
X010571Y029712D01*
X010540Y029689D01*
X010511Y029663D01*
X010485Y029634D01*
X010462Y029603D01*
X010443Y029570D01*
X010426Y029535D01*
X010413Y029498D01*
X010404Y029461D01*
X010398Y029423D01*
X010396Y029384D01*
X010396Y019936D01*
X010398Y019897D01*
X010404Y019859D01*
X010413Y019822D01*
X010426Y019785D01*
X010443Y019750D01*
X010462Y019717D01*
X010485Y019686D01*
X010511Y019657D01*
X010540Y019631D01*
X010571Y019608D01*
X010604Y019589D01*
X010639Y019572D01*
X010676Y019559D01*
X010713Y019550D01*
X010751Y019544D01*
X010790Y019542D01*
X009648Y023125D02*
X009648Y024621D01*
X009648Y030999D02*
X009648Y032495D01*
X025317Y032495D02*
X025317Y030999D01*
X025317Y024660D02*
X025317Y023164D01*
D14*
X024443Y022914D02*
X024443Y022761D01*
X024366Y022684D01*
X024443Y022530D02*
X024443Y022224D01*
X023983Y022224D01*
X024059Y022070D02*
X024136Y022070D01*
X024213Y021993D01*
X024213Y021763D01*
X024443Y021763D02*
X024443Y021993D01*
X024366Y022070D01*
X024290Y022070D01*
X024213Y021993D01*
X024059Y022070D02*
X023983Y021993D01*
X023983Y021763D01*
X024443Y021763D01*
X024059Y022684D02*
X023983Y022761D01*
X023983Y022914D01*
X024059Y022991D01*
X024136Y022991D01*
X024213Y022914D01*
X024290Y022991D01*
X024366Y022991D01*
X024443Y022914D01*
X024213Y022914D02*
X024213Y022837D01*
X024213Y026819D02*
X024213Y027049D01*
X024290Y027126D01*
X024366Y027126D01*
X024443Y027049D01*
X024443Y026819D01*
X023983Y026819D01*
X023983Y027049D01*
X024059Y027126D01*
X024136Y027126D01*
X024213Y027049D01*
X023983Y027279D02*
X024443Y027279D01*
X024443Y027586D01*
X024213Y027740D02*
X023983Y027970D01*
X024443Y027970D01*
X024213Y028046D02*
X024213Y027740D01*
X011574Y032636D02*
X011267Y032636D01*
X011421Y032636D02*
X011421Y033097D01*
X011267Y032943D01*
X011114Y033020D02*
X011114Y032713D01*
X011037Y032636D01*
X010807Y032636D01*
X010807Y033097D01*
X011037Y033097D01*
X011114Y033020D01*
X010654Y033020D02*
X010577Y033097D01*
X010423Y033097D01*
X010347Y033020D01*
X010347Y032713D01*
X010423Y032636D01*
X010577Y032636D01*
X010654Y032713D01*
X010193Y032636D02*
X009886Y032636D01*
X009886Y033097D01*
X010983Y028046D02*
X010983Y027740D01*
X010983Y027893D02*
X010522Y027893D01*
X010676Y027740D01*
X010983Y027586D02*
X010983Y027279D01*
X010522Y027279D01*
X010599Y027126D02*
X010676Y027126D01*
X010752Y027049D01*
X010752Y026819D01*
X010522Y026819D02*
X010522Y027049D01*
X010599Y027126D01*
X010752Y027049D02*
X010829Y027126D01*
X010906Y027126D01*
X010983Y027049D01*
X010983Y026819D01*
X010522Y026819D01*
X010599Y022866D02*
X010522Y022789D01*
X010522Y022636D01*
X010599Y022559D01*
X010599Y022866D02*
X010676Y022866D01*
X010983Y022559D01*
X010983Y022866D01*
X010983Y022405D02*
X010983Y022099D01*
X010522Y022099D01*
X010599Y021945D02*
X010676Y021945D01*
X010752Y021868D01*
X010752Y021638D01*
X010522Y021638D02*
X010522Y021868D01*
X010599Y021945D01*
X010752Y021868D02*
X010829Y021945D01*
X010906Y021945D01*
X010983Y021868D01*
X010983Y021638D01*
X010522Y021638D01*
X007350Y010534D02*
X007196Y010534D01*
X007119Y010457D01*
X007350Y010534D02*
X007426Y010457D01*
X007426Y010381D01*
X007119Y010074D01*
X007426Y010074D01*
X006966Y010074D02*
X006659Y010074D01*
X006506Y010074D02*
X006352Y010227D01*
X006429Y010227D02*
X006199Y010227D01*
X006199Y010074D02*
X006199Y010534D01*
X006429Y010534D01*
X006506Y010457D01*
X006506Y010304D01*
X006429Y010227D01*
X006659Y010381D02*
X006813Y010534D01*
X006813Y010074D01*
X006889Y009722D02*
X006659Y009491D01*
X006966Y009491D01*
X006889Y009261D02*
X006889Y009722D01*
X006506Y009645D02*
X006506Y009491D01*
X006429Y009415D01*
X006199Y009415D01*
X006352Y009415D02*
X006506Y009261D01*
X006429Y008972D02*
X006199Y008972D01*
X006199Y008511D01*
X006199Y008665D02*
X006429Y008665D01*
X006506Y008741D01*
X006506Y008895D01*
X006429Y008972D01*
X006659Y008972D02*
X006659Y008741D01*
X006813Y008818D01*
X006889Y008818D01*
X006966Y008741D01*
X006966Y008588D01*
X006889Y008511D01*
X006736Y008511D01*
X006659Y008588D01*
X006506Y008511D02*
X006352Y008665D01*
X006659Y008972D02*
X006966Y008972D01*
X006506Y009645D02*
X006429Y009722D01*
X006199Y009722D01*
X006199Y009261D01*
X006199Y008159D02*
X006429Y008159D01*
X006506Y008082D01*
X006506Y007929D01*
X006429Y007852D01*
X006199Y007852D01*
X006352Y007852D02*
X006506Y007699D01*
X006659Y007699D02*
X006966Y007699D01*
X006813Y007699D02*
X006813Y008159D01*
X006659Y008006D01*
X006736Y007347D02*
X006659Y007270D01*
X006736Y007347D02*
X006889Y007347D01*
X006966Y007270D01*
X006966Y007193D01*
X006659Y006886D01*
X006966Y006886D01*
X006966Y006597D02*
X006813Y006520D01*
X006659Y006366D01*
X006889Y006366D01*
X006966Y006290D01*
X006966Y006213D01*
X006889Y006136D01*
X006736Y006136D01*
X006659Y006213D01*
X006659Y006366D01*
X006506Y006366D02*
X006429Y006290D01*
X006199Y006290D01*
X006352Y006290D02*
X006506Y006136D01*
X006506Y006366D02*
X006506Y006520D01*
X006429Y006597D01*
X006199Y006597D01*
X006199Y006136D01*
X006199Y006886D02*
X006199Y007347D01*
X006429Y007347D01*
X006506Y007270D01*
X006506Y007116D01*
X006429Y007040D01*
X006199Y007040D01*
X006352Y007040D02*
X006506Y006886D01*
X006199Y007699D02*
X006199Y008159D01*
X003541Y007857D02*
X003541Y007703D01*
X003464Y007627D01*
X003464Y007473D02*
X003081Y007473D01*
X003157Y007627D02*
X003081Y007703D01*
X003081Y007857D01*
X003157Y007934D01*
X003311Y007857D02*
X003388Y007934D01*
X003464Y007934D01*
X003541Y007857D01*
X003311Y007857D02*
X003311Y007703D01*
X003234Y007627D01*
X003157Y007627D01*
X003464Y007473D02*
X003541Y007396D01*
X003541Y007243D01*
X003464Y007166D01*
X003081Y007166D01*
X003081Y007013D02*
X003081Y006706D01*
X003081Y006859D02*
X003541Y006859D01*
X003541Y006552D02*
X003234Y006552D01*
X003081Y006399D01*
X003234Y006245D01*
X003541Y006245D01*
X003311Y006245D02*
X003311Y006552D01*
X003081Y006092D02*
X003081Y005785D01*
X003081Y005938D02*
X003541Y005938D01*
X003464Y005632D02*
X003541Y005555D01*
X003541Y005401D01*
X003464Y005325D01*
X003311Y005401D02*
X003311Y005555D01*
X003388Y005632D01*
X003464Y005632D01*
X003311Y005401D02*
X003234Y005325D01*
X003157Y005325D01*
X003081Y005401D01*
X003081Y005555D01*
X003157Y005632D01*
X003576Y004790D02*
X003422Y004637D01*
X003576Y004790D02*
X003576Y004330D01*
X003729Y004330D02*
X003422Y004330D01*
X003790Y003310D02*
X003908Y003310D01*
X004026Y003191D01*
X003947Y003231D02*
X003908Y003191D01*
X003790Y003191D01*
X003908Y003191D02*
X003908Y002798D01*
X003790Y002798D01*
X003908Y002798D02*
X003947Y002758D01*
X003908Y002680D02*
X004026Y002798D01*
X004026Y002680D02*
X003908Y002680D01*
X003790Y002680D01*
X003908Y003310D02*
X004026Y003310D01*
X007817Y003232D02*
X007817Y003002D01*
X008278Y003002D01*
X008124Y003002D02*
X008124Y003232D01*
X008048Y003309D01*
X007894Y003309D01*
X007817Y003232D01*
X007894Y003462D02*
X008201Y003462D01*
X008278Y003539D01*
X008278Y003692D01*
X008201Y003769D01*
X007894Y003769D01*
X007817Y003692D01*
X007817Y003539D01*
X007894Y003462D01*
X008124Y003155D02*
X008278Y003309D01*
X008048Y002848D02*
X007894Y002848D01*
X007817Y002771D01*
X007817Y002541D01*
X008278Y002541D01*
X008124Y002541D02*
X008124Y002771D01*
X008048Y002848D01*
X007894Y003922D02*
X008201Y003922D01*
X008278Y003999D01*
X008278Y004153D01*
X008201Y004229D01*
X008048Y004229D01*
X008048Y004076D01*
X007894Y004229D02*
X007817Y004153D01*
X007817Y003999D01*
X007894Y003922D01*
D15*
X010003Y022355D03*
X010003Y027473D03*
X024963Y027473D03*
X024963Y022355D03*
D16*
X028003Y017483D02*
X028005Y017556D01*
X028011Y017629D01*
X028021Y017701D01*
X028035Y017773D01*
X028052Y017844D01*
X028074Y017914D01*
X028099Y017983D01*
X028128Y018050D01*
X028160Y018115D01*
X028196Y018179D01*
X028236Y018241D01*
X028278Y018300D01*
X028324Y018357D01*
X028373Y018411D01*
X028425Y018463D01*
X028479Y018512D01*
X028536Y018558D01*
X028595Y018600D01*
X028657Y018640D01*
X028721Y018676D01*
X028786Y018708D01*
X028853Y018737D01*
X028922Y018762D01*
X028992Y018784D01*
X029063Y018801D01*
X029135Y018815D01*
X029207Y018825D01*
X029280Y018831D01*
X029353Y018833D01*
X029426Y018831D01*
X029499Y018825D01*
X029571Y018815D01*
X029643Y018801D01*
X029714Y018784D01*
X029784Y018762D01*
X029853Y018737D01*
X029920Y018708D01*
X029985Y018676D01*
X030049Y018640D01*
X030111Y018600D01*
X030170Y018558D01*
X030227Y018512D01*
X030281Y018463D01*
X030333Y018411D01*
X030382Y018357D01*
X030428Y018300D01*
X030470Y018241D01*
X030510Y018179D01*
X030546Y018115D01*
X030578Y018050D01*
X030607Y017983D01*
X030632Y017914D01*
X030654Y017844D01*
X030671Y017773D01*
X030685Y017701D01*
X030695Y017629D01*
X030701Y017556D01*
X030703Y017483D01*
X030701Y017410D01*
X030695Y017337D01*
X030685Y017265D01*
X030671Y017193D01*
X030654Y017122D01*
X030632Y017052D01*
X030607Y016983D01*
X030578Y016916D01*
X030546Y016851D01*
X030510Y016787D01*
X030470Y016725D01*
X030428Y016666D01*
X030382Y016609D01*
X030333Y016555D01*
X030281Y016503D01*
X030227Y016454D01*
X030170Y016408D01*
X030111Y016366D01*
X030049Y016326D01*
X029985Y016290D01*
X029920Y016258D01*
X029853Y016229D01*
X029784Y016204D01*
X029714Y016182D01*
X029643Y016165D01*
X029571Y016151D01*
X029499Y016141D01*
X029426Y016135D01*
X029353Y016133D01*
X029280Y016135D01*
X029207Y016141D01*
X029135Y016151D01*
X029063Y016165D01*
X028992Y016182D01*
X028922Y016204D01*
X028853Y016229D01*
X028786Y016258D01*
X028721Y016290D01*
X028657Y016326D01*
X028595Y016366D01*
X028536Y016408D01*
X028479Y016454D01*
X028425Y016503D01*
X028373Y016555D01*
X028324Y016609D01*
X028278Y016666D01*
X028236Y016725D01*
X028196Y016787D01*
X028160Y016851D01*
X028128Y016916D01*
X028099Y016983D01*
X028074Y017052D01*
X028052Y017122D01*
X028035Y017193D01*
X028021Y017265D01*
X028011Y017337D01*
X028005Y017410D01*
X028003Y017483D01*
X004263Y017483D02*
X004265Y017556D01*
X004271Y017629D01*
X004281Y017701D01*
X004295Y017773D01*
X004312Y017844D01*
X004334Y017914D01*
X004359Y017983D01*
X004388Y018050D01*
X004420Y018115D01*
X004456Y018179D01*
X004496Y018241D01*
X004538Y018300D01*
X004584Y018357D01*
X004633Y018411D01*
X004685Y018463D01*
X004739Y018512D01*
X004796Y018558D01*
X004855Y018600D01*
X004917Y018640D01*
X004981Y018676D01*
X005046Y018708D01*
X005113Y018737D01*
X005182Y018762D01*
X005252Y018784D01*
X005323Y018801D01*
X005395Y018815D01*
X005467Y018825D01*
X005540Y018831D01*
X005613Y018833D01*
X005686Y018831D01*
X005759Y018825D01*
X005831Y018815D01*
X005903Y018801D01*
X005974Y018784D01*
X006044Y018762D01*
X006113Y018737D01*
X006180Y018708D01*
X006245Y018676D01*
X006309Y018640D01*
X006371Y018600D01*
X006430Y018558D01*
X006487Y018512D01*
X006541Y018463D01*
X006593Y018411D01*
X006642Y018357D01*
X006688Y018300D01*
X006730Y018241D01*
X006770Y018179D01*
X006806Y018115D01*
X006838Y018050D01*
X006867Y017983D01*
X006892Y017914D01*
X006914Y017844D01*
X006931Y017773D01*
X006945Y017701D01*
X006955Y017629D01*
X006961Y017556D01*
X006963Y017483D01*
X006961Y017410D01*
X006955Y017337D01*
X006945Y017265D01*
X006931Y017193D01*
X006914Y017122D01*
X006892Y017052D01*
X006867Y016983D01*
X006838Y016916D01*
X006806Y016851D01*
X006770Y016787D01*
X006730Y016725D01*
X006688Y016666D01*
X006642Y016609D01*
X006593Y016555D01*
X006541Y016503D01*
X006487Y016454D01*
X006430Y016408D01*
X006371Y016366D01*
X006309Y016326D01*
X006245Y016290D01*
X006180Y016258D01*
X006113Y016229D01*
X006044Y016204D01*
X005974Y016182D01*
X005903Y016165D01*
X005831Y016151D01*
X005759Y016141D01*
X005686Y016135D01*
X005613Y016133D01*
X005540Y016135D01*
X005467Y016141D01*
X005395Y016151D01*
X005323Y016165D01*
X005252Y016182D01*
X005182Y016204D01*
X005113Y016229D01*
X005046Y016258D01*
X004981Y016290D01*
X004917Y016326D01*
X004855Y016366D01*
X004796Y016408D01*
X004739Y016454D01*
X004685Y016503D01*
X004633Y016555D01*
X004584Y016609D01*
X004538Y016666D01*
X004496Y016725D01*
X004456Y016787D01*
X004420Y016851D01*
X004388Y016916D01*
X004359Y016983D01*
X004334Y017052D01*
X004312Y017122D01*
X004295Y017193D01*
X004281Y017265D01*
X004271Y017337D01*
X004265Y017410D01*
X004263Y017483D01*
D17*
X004865Y017483D02*
X004867Y017538D01*
X004873Y017592D01*
X004883Y017646D01*
X004897Y017698D01*
X004914Y017750D01*
X004936Y017800D01*
X004961Y017849D01*
X004989Y017896D01*
X005021Y017940D01*
X005056Y017982D01*
X005094Y018021D01*
X005135Y018058D01*
X005178Y018091D01*
X005223Y018121D01*
X005271Y018148D01*
X005320Y018171D01*
X005371Y018191D01*
X005424Y018207D01*
X005477Y018219D01*
X005531Y018227D01*
X005586Y018231D01*
X005640Y018231D01*
X005695Y018227D01*
X005749Y018219D01*
X005802Y018207D01*
X005855Y018191D01*
X005906Y018171D01*
X005955Y018148D01*
X006003Y018121D01*
X006048Y018091D01*
X006091Y018058D01*
X006132Y018021D01*
X006170Y017982D01*
X006205Y017940D01*
X006237Y017896D01*
X006265Y017849D01*
X006290Y017800D01*
X006312Y017750D01*
X006329Y017698D01*
X006343Y017646D01*
X006353Y017592D01*
X006359Y017538D01*
X006361Y017483D01*
X006359Y017428D01*
X006353Y017374D01*
X006343Y017320D01*
X006329Y017268D01*
X006312Y017216D01*
X006290Y017166D01*
X006265Y017117D01*
X006237Y017070D01*
X006205Y017026D01*
X006170Y016984D01*
X006132Y016945D01*
X006091Y016908D01*
X006048Y016875D01*
X006003Y016845D01*
X005955Y016818D01*
X005906Y016795D01*
X005855Y016775D01*
X005802Y016759D01*
X005749Y016747D01*
X005695Y016739D01*
X005640Y016735D01*
X005586Y016735D01*
X005531Y016739D01*
X005477Y016747D01*
X005424Y016759D01*
X005371Y016775D01*
X005320Y016795D01*
X005271Y016818D01*
X005223Y016845D01*
X005178Y016875D01*
X005135Y016908D01*
X005094Y016945D01*
X005056Y016984D01*
X005021Y017026D01*
X004989Y017070D01*
X004961Y017117D01*
X004936Y017166D01*
X004914Y017216D01*
X004897Y017268D01*
X004883Y017320D01*
X004873Y017374D01*
X004867Y017428D01*
X004865Y017483D01*
X003751Y004254D02*
X007475Y004254D01*
X007475Y002365D01*
X003751Y002365D01*
X003751Y004254D01*
X003711Y003940D02*
X003554Y003940D01*
X003554Y003782D01*
X003711Y003782D01*
X003711Y003585D02*
X003554Y003585D01*
X003554Y003034D01*
X003711Y003034D01*
X003711Y002837D02*
X003554Y002837D01*
X003554Y002680D01*
X003711Y002680D01*
X004066Y002522D02*
X004066Y004097D01*
X007160Y004097D01*
X007160Y002522D01*
X004066Y002522D01*
X007514Y002680D02*
X007672Y002680D01*
X007672Y002837D01*
X007514Y002837D01*
X007514Y003034D02*
X007672Y003034D01*
X007672Y003585D01*
X007514Y003585D01*
X007514Y003782D02*
X007672Y003782D01*
X007672Y003940D01*
X007514Y003940D01*
X028605Y017483D02*
X028607Y017538D01*
X028613Y017592D01*
X028623Y017646D01*
X028637Y017698D01*
X028654Y017750D01*
X028676Y017800D01*
X028701Y017849D01*
X028729Y017896D01*
X028761Y017940D01*
X028796Y017982D01*
X028834Y018021D01*
X028875Y018058D01*
X028918Y018091D01*
X028963Y018121D01*
X029011Y018148D01*
X029060Y018171D01*
X029111Y018191D01*
X029164Y018207D01*
X029217Y018219D01*
X029271Y018227D01*
X029326Y018231D01*
X029380Y018231D01*
X029435Y018227D01*
X029489Y018219D01*
X029542Y018207D01*
X029595Y018191D01*
X029646Y018171D01*
X029695Y018148D01*
X029743Y018121D01*
X029788Y018091D01*
X029831Y018058D01*
X029872Y018021D01*
X029910Y017982D01*
X029945Y017940D01*
X029977Y017896D01*
X030005Y017849D01*
X030030Y017800D01*
X030052Y017750D01*
X030069Y017698D01*
X030083Y017646D01*
X030093Y017592D01*
X030099Y017538D01*
X030101Y017483D01*
X030099Y017428D01*
X030093Y017374D01*
X030083Y017320D01*
X030069Y017268D01*
X030052Y017216D01*
X030030Y017166D01*
X030005Y017117D01*
X029977Y017070D01*
X029945Y017026D01*
X029910Y016984D01*
X029872Y016945D01*
X029831Y016908D01*
X029788Y016875D01*
X029743Y016845D01*
X029695Y016818D01*
X029646Y016795D01*
X029595Y016775D01*
X029542Y016759D01*
X029489Y016747D01*
X029435Y016739D01*
X029380Y016735D01*
X029326Y016735D01*
X029271Y016739D01*
X029217Y016747D01*
X029164Y016759D01*
X029111Y016775D01*
X029060Y016795D01*
X029011Y016818D01*
X028963Y016845D01*
X028918Y016875D01*
X028875Y016908D01*
X028834Y016945D01*
X028796Y016984D01*
X028761Y017026D01*
X028729Y017070D01*
X028701Y017117D01*
X028676Y017166D01*
X028654Y017216D01*
X028637Y017268D01*
X028623Y017320D01*
X028613Y017374D01*
X028607Y017428D01*
X028605Y017483D01*
D18*
X004235Y006695D03*
X003762Y006695D03*
D19*
X003999Y006695D03*
M02*
