G75*
%MOIN*%
%OFA0B0*%
%FSLAX24Y24*%
%IPPOS*%
%LPD*%
%AMOC8*
5,1,8,0,0,1.08239X$1,22.5*
%
%ADD10C,0.0000*%
%ADD11C,0.0120*%
%ADD12C,0.0160*%
%ADD13C,0.0080*%
%ADD14C,0.0240*%
%ADD15C,0.0110*%
%ADD16C,0.0050*%
%ADD17C,0.0118*%
%ADD18C,0.0040*%
%ADD19R,0.0098X0.0098*%
%ADD20C,0.0060*%
%ADD21R,0.0059X0.0118*%
%ADD22R,0.0118X0.0118*%
D10*
X000872Y001735D02*
X000872Y033231D01*
X000874Y033297D01*
X000879Y033363D01*
X000889Y033429D01*
X000902Y033494D01*
X000918Y033558D01*
X000938Y033621D01*
X000962Y033683D01*
X000989Y033743D01*
X001019Y033802D01*
X001053Y033859D01*
X001090Y033914D01*
X001130Y033967D01*
X001172Y034018D01*
X001218Y034066D01*
X001266Y034112D01*
X001317Y034154D01*
X001370Y034194D01*
X001425Y034231D01*
X001482Y034265D01*
X001541Y034295D01*
X001601Y034322D01*
X001663Y034346D01*
X001726Y034366D01*
X001790Y034382D01*
X001855Y034395D01*
X001921Y034405D01*
X001987Y034410D01*
X002053Y034412D01*
X033549Y034412D01*
X033615Y034410D01*
X033681Y034405D01*
X033747Y034395D01*
X033812Y034382D01*
X033876Y034366D01*
X033939Y034346D01*
X034001Y034322D01*
X034061Y034295D01*
X034120Y034265D01*
X034177Y034231D01*
X034232Y034194D01*
X034285Y034154D01*
X034336Y034112D01*
X034384Y034066D01*
X034430Y034018D01*
X034472Y033967D01*
X034512Y033914D01*
X034549Y033859D01*
X034583Y033802D01*
X034613Y033743D01*
X034640Y033683D01*
X034664Y033621D01*
X034684Y033558D01*
X034700Y033494D01*
X034713Y033429D01*
X034723Y033363D01*
X034728Y033297D01*
X034730Y033231D01*
X034730Y001735D01*
X034728Y001669D01*
X034723Y001603D01*
X034713Y001537D01*
X034700Y001472D01*
X034684Y001408D01*
X034664Y001345D01*
X034640Y001283D01*
X034613Y001223D01*
X034583Y001164D01*
X034549Y001107D01*
X034512Y001052D01*
X034472Y000999D01*
X034430Y000948D01*
X034384Y000900D01*
X034336Y000854D01*
X034285Y000812D01*
X034232Y000772D01*
X034177Y000735D01*
X034120Y000701D01*
X034061Y000671D01*
X034001Y000644D01*
X033939Y000620D01*
X033876Y000600D01*
X033812Y000584D01*
X033747Y000571D01*
X033681Y000561D01*
X033615Y000556D01*
X033549Y000554D01*
X002053Y000554D01*
X001987Y000556D01*
X001921Y000561D01*
X001855Y000571D01*
X001790Y000584D01*
X001726Y000600D01*
X001663Y000620D01*
X001601Y000644D01*
X001541Y000671D01*
X001482Y000701D01*
X001425Y000735D01*
X001370Y000772D01*
X001317Y000812D01*
X001266Y000854D01*
X001218Y000900D01*
X001172Y000948D01*
X001130Y000999D01*
X001090Y001052D01*
X001053Y001107D01*
X001019Y001164D01*
X000989Y001223D01*
X000962Y001283D01*
X000938Y001345D01*
X000918Y001408D01*
X000902Y001472D01*
X000889Y001537D01*
X000879Y001603D01*
X000874Y001669D01*
X000872Y001735D01*
X012474Y005310D02*
X012476Y005360D01*
X012482Y005410D01*
X012492Y005459D01*
X012506Y005507D01*
X012523Y005554D01*
X012544Y005599D01*
X012569Y005643D01*
X012597Y005684D01*
X012629Y005723D01*
X012663Y005760D01*
X012700Y005794D01*
X012740Y005824D01*
X012782Y005851D01*
X012826Y005875D01*
X012872Y005896D01*
X012919Y005912D01*
X012967Y005925D01*
X013017Y005934D01*
X013066Y005939D01*
X013117Y005940D01*
X013167Y005937D01*
X013216Y005930D01*
X013265Y005919D01*
X013313Y005904D01*
X013359Y005886D01*
X013404Y005864D01*
X013447Y005838D01*
X013488Y005809D01*
X013527Y005777D01*
X013563Y005742D01*
X013595Y005704D01*
X013625Y005664D01*
X013652Y005621D01*
X013675Y005577D01*
X013694Y005531D01*
X013710Y005483D01*
X013722Y005434D01*
X013730Y005385D01*
X013734Y005335D01*
X013734Y005285D01*
X013730Y005235D01*
X013722Y005186D01*
X013710Y005137D01*
X013694Y005089D01*
X013675Y005043D01*
X013652Y004999D01*
X013625Y004956D01*
X013595Y004916D01*
X013563Y004878D01*
X013527Y004843D01*
X013488Y004811D01*
X013447Y004782D01*
X013404Y004756D01*
X013359Y004734D01*
X013313Y004716D01*
X013265Y004701D01*
X013216Y004690D01*
X013167Y004683D01*
X013117Y004680D01*
X013066Y004681D01*
X013017Y004686D01*
X012967Y004695D01*
X012919Y004708D01*
X012872Y004724D01*
X012826Y004745D01*
X012782Y004769D01*
X012740Y004796D01*
X012700Y004826D01*
X012663Y004860D01*
X012629Y004897D01*
X012597Y004936D01*
X012569Y004977D01*
X012544Y005021D01*
X012523Y005066D01*
X012506Y005113D01*
X012492Y005161D01*
X012482Y005210D01*
X012476Y005260D01*
X012474Y005310D01*
X021757Y014483D02*
X021759Y014533D01*
X021765Y014583D01*
X021775Y014632D01*
X021789Y014680D01*
X021806Y014727D01*
X021827Y014772D01*
X021852Y014816D01*
X021880Y014857D01*
X021912Y014896D01*
X021946Y014933D01*
X021983Y014967D01*
X022023Y014997D01*
X022065Y015024D01*
X022109Y015048D01*
X022155Y015069D01*
X022202Y015085D01*
X022250Y015098D01*
X022300Y015107D01*
X022349Y015112D01*
X022400Y015113D01*
X022450Y015110D01*
X022499Y015103D01*
X022548Y015092D01*
X022596Y015077D01*
X022642Y015059D01*
X022687Y015037D01*
X022730Y015011D01*
X022771Y014982D01*
X022810Y014950D01*
X022846Y014915D01*
X022878Y014877D01*
X022908Y014837D01*
X022935Y014794D01*
X022958Y014750D01*
X022977Y014704D01*
X022993Y014656D01*
X023005Y014607D01*
X023013Y014558D01*
X023017Y014508D01*
X023017Y014458D01*
X023013Y014408D01*
X023005Y014359D01*
X022993Y014310D01*
X022977Y014262D01*
X022958Y014216D01*
X022935Y014172D01*
X022908Y014129D01*
X022878Y014089D01*
X022846Y014051D01*
X022810Y014016D01*
X022771Y013984D01*
X022730Y013955D01*
X022687Y013929D01*
X022642Y013907D01*
X022596Y013889D01*
X022548Y013874D01*
X022499Y013863D01*
X022450Y013856D01*
X022400Y013853D01*
X022349Y013854D01*
X022300Y013859D01*
X022250Y013868D01*
X022202Y013881D01*
X022155Y013897D01*
X022109Y013918D01*
X022065Y013942D01*
X022023Y013969D01*
X021983Y013999D01*
X021946Y014033D01*
X021912Y014070D01*
X021880Y014109D01*
X021852Y014150D01*
X021827Y014194D01*
X021806Y014239D01*
X021789Y014286D01*
X021775Y014334D01*
X021765Y014383D01*
X021759Y014433D01*
X021757Y014483D01*
X024199Y020132D02*
X024201Y020166D01*
X024207Y020200D01*
X024217Y020233D01*
X024230Y020264D01*
X024248Y020294D01*
X024268Y020322D01*
X024292Y020347D01*
X024318Y020369D01*
X024346Y020387D01*
X024377Y020403D01*
X024409Y020415D01*
X024443Y020423D01*
X024477Y020427D01*
X024511Y020427D01*
X024545Y020423D01*
X024579Y020415D01*
X024611Y020403D01*
X024641Y020387D01*
X024670Y020369D01*
X024696Y020347D01*
X024720Y020322D01*
X024740Y020294D01*
X024758Y020264D01*
X024771Y020233D01*
X024781Y020200D01*
X024787Y020166D01*
X024789Y020132D01*
X024787Y020098D01*
X024781Y020064D01*
X024771Y020031D01*
X024758Y020000D01*
X024740Y019970D01*
X024720Y019942D01*
X024696Y019917D01*
X024670Y019895D01*
X024642Y019877D01*
X024611Y019861D01*
X024579Y019849D01*
X024545Y019841D01*
X024511Y019837D01*
X024477Y019837D01*
X024443Y019841D01*
X024409Y019849D01*
X024377Y019861D01*
X024346Y019877D01*
X024318Y019895D01*
X024292Y019917D01*
X024268Y019942D01*
X024248Y019970D01*
X024230Y020000D01*
X024217Y020031D01*
X024207Y020064D01*
X024201Y020098D01*
X024199Y020132D01*
X025576Y023093D02*
X025576Y024668D01*
X025577Y024668D02*
X025578Y024685D01*
X025583Y024702D01*
X025590Y024717D01*
X025600Y024731D01*
X025612Y024743D01*
X025626Y024753D01*
X025641Y024760D01*
X025658Y024765D01*
X025675Y024766D01*
X025692Y024765D01*
X025709Y024760D01*
X025724Y024753D01*
X025738Y024743D01*
X025750Y024731D01*
X025760Y024717D01*
X025767Y024702D01*
X025772Y024685D01*
X025773Y024668D01*
X025773Y023093D01*
X025772Y023076D01*
X025767Y023059D01*
X025760Y023044D01*
X025750Y023030D01*
X025738Y023018D01*
X025724Y023008D01*
X025709Y023001D01*
X025692Y022996D01*
X025675Y022995D01*
X025658Y022996D01*
X025641Y023001D01*
X025626Y023008D01*
X025612Y023018D01*
X025600Y023030D01*
X025590Y023044D01*
X025583Y023059D01*
X025578Y023076D01*
X025577Y023093D01*
X025576Y030967D02*
X025576Y032542D01*
X025577Y032542D02*
X025578Y032559D01*
X025583Y032576D01*
X025590Y032591D01*
X025600Y032605D01*
X025612Y032617D01*
X025626Y032627D01*
X025641Y032634D01*
X025658Y032639D01*
X025675Y032640D01*
X025692Y032639D01*
X025709Y032634D01*
X025724Y032627D01*
X025738Y032617D01*
X025750Y032605D01*
X025760Y032591D01*
X025767Y032576D01*
X025772Y032559D01*
X025773Y032542D01*
X025773Y030967D01*
X025772Y030950D01*
X025767Y030933D01*
X025760Y030918D01*
X025750Y030904D01*
X025738Y030892D01*
X025724Y030882D01*
X025709Y030875D01*
X025692Y030870D01*
X025675Y030869D01*
X025658Y030870D01*
X025641Y030875D01*
X025626Y030882D01*
X025612Y030892D01*
X025600Y030904D01*
X025590Y030918D01*
X025583Y030933D01*
X025578Y030950D01*
X025577Y030967D01*
X010813Y030172D02*
X010815Y030206D01*
X010821Y030240D01*
X010831Y030273D01*
X010844Y030304D01*
X010862Y030334D01*
X010882Y030362D01*
X010906Y030387D01*
X010932Y030409D01*
X010960Y030427D01*
X010991Y030443D01*
X011023Y030455D01*
X011057Y030463D01*
X011091Y030467D01*
X011125Y030467D01*
X011159Y030463D01*
X011193Y030455D01*
X011225Y030443D01*
X011255Y030427D01*
X011284Y030409D01*
X011310Y030387D01*
X011334Y030362D01*
X011354Y030334D01*
X011372Y030304D01*
X011385Y030273D01*
X011395Y030240D01*
X011401Y030206D01*
X011403Y030172D01*
X011401Y030138D01*
X011395Y030104D01*
X011385Y030071D01*
X011372Y030040D01*
X011354Y030010D01*
X011334Y029982D01*
X011310Y029957D01*
X011284Y029935D01*
X011256Y029917D01*
X011225Y029901D01*
X011193Y029889D01*
X011159Y029881D01*
X011125Y029877D01*
X011091Y029877D01*
X011057Y029881D01*
X011023Y029889D01*
X010991Y029901D01*
X010960Y029917D01*
X010932Y029935D01*
X010906Y029957D01*
X010882Y029982D01*
X010862Y030010D01*
X010844Y030040D01*
X010831Y030071D01*
X010821Y030104D01*
X010815Y030138D01*
X010813Y030172D01*
X010025Y030967D02*
X010025Y032542D01*
X009927Y032640D02*
X009910Y032639D01*
X009893Y032634D01*
X009878Y032627D01*
X009864Y032617D01*
X009852Y032605D01*
X009842Y032591D01*
X009835Y032576D01*
X009830Y032559D01*
X009829Y032542D01*
X009828Y032542D02*
X009828Y030967D01*
X009927Y030869D02*
X009944Y030870D01*
X009961Y030875D01*
X009976Y030882D01*
X009990Y030892D01*
X010002Y030904D01*
X010012Y030918D01*
X010019Y030933D01*
X010024Y030950D01*
X010025Y030967D01*
X009927Y030869D02*
X009910Y030870D01*
X009893Y030875D01*
X009878Y030882D01*
X009864Y030892D01*
X009852Y030904D01*
X009842Y030918D01*
X009835Y030933D01*
X009830Y030950D01*
X009829Y030967D01*
X010025Y032542D02*
X010024Y032559D01*
X010019Y032576D01*
X010012Y032591D01*
X010002Y032605D01*
X009990Y032617D01*
X009976Y032627D01*
X009961Y032634D01*
X009944Y032639D01*
X009927Y032640D01*
X009927Y024766D02*
X009910Y024765D01*
X009893Y024760D01*
X009878Y024753D01*
X009864Y024743D01*
X009852Y024731D01*
X009842Y024717D01*
X009835Y024702D01*
X009830Y024685D01*
X009829Y024668D01*
X009828Y024668D02*
X009828Y023093D01*
X009927Y022995D02*
X009944Y022996D01*
X009961Y023001D01*
X009976Y023008D01*
X009990Y023018D01*
X010002Y023030D01*
X010012Y023044D01*
X010019Y023059D01*
X010024Y023076D01*
X010025Y023093D01*
X010025Y024668D01*
X010024Y024685D01*
X010019Y024702D01*
X010012Y024717D01*
X010002Y024731D01*
X009990Y024743D01*
X009976Y024753D01*
X009961Y024760D01*
X009944Y024765D01*
X009927Y024766D01*
X009829Y023093D02*
X009830Y023076D01*
X009835Y023059D01*
X009842Y023044D01*
X009852Y023030D01*
X009864Y023018D01*
X009878Y023008D01*
X009893Y023001D01*
X009910Y022996D01*
X009927Y022995D01*
D11*
X027947Y014507D02*
X027947Y014277D01*
X028177Y014047D01*
X028637Y014047D01*
X028867Y013817D01*
X028867Y013587D01*
X028637Y013356D01*
X028177Y013356D01*
X027947Y013587D01*
X027947Y014507D02*
X028177Y014737D01*
X028637Y014737D01*
X028867Y014507D01*
X029328Y014737D02*
X030249Y014737D01*
X029788Y014737D02*
X029788Y013356D01*
X030709Y013587D02*
X030709Y014507D01*
X030939Y014737D01*
X031400Y014737D01*
X031630Y014507D01*
X031630Y013587D01*
X031400Y013356D01*
X030939Y013356D01*
X030709Y013587D01*
X032090Y013817D02*
X032781Y013817D01*
X033011Y014047D01*
X033011Y014507D01*
X032781Y014737D01*
X032090Y014737D01*
X032090Y013356D01*
X031275Y004726D02*
X030814Y004726D01*
X030584Y004495D01*
X030584Y003575D01*
X030814Y003345D01*
X031275Y003345D01*
X031505Y003575D01*
X031505Y004495D01*
X031275Y004726D01*
X030124Y004495D02*
X029893Y004726D01*
X029433Y004726D01*
X029203Y004495D01*
X029203Y003575D01*
X029433Y003345D01*
X029893Y003345D01*
X030124Y003575D01*
X030124Y004035D01*
X029663Y004035D01*
D12*
X006669Y026023D02*
X007282Y027086D01*
X007324Y027771D02*
X007743Y027884D01*
X008050Y028415D01*
X007937Y028834D01*
X007672Y028988D01*
X007252Y028876D01*
X006945Y028344D01*
X006526Y028232D01*
X006260Y028385D01*
X006148Y028804D01*
X006455Y029336D01*
X006874Y029448D01*
X007181Y029980D02*
X007447Y029826D01*
X007866Y029939D01*
X008173Y030470D01*
X008592Y030583D01*
X008858Y030429D01*
X008971Y030010D01*
X008664Y029478D01*
X008244Y029366D01*
X007181Y029980D02*
X007069Y030399D01*
X007376Y030931D01*
X007795Y031043D01*
X005688Y028007D02*
X005074Y026944D01*
X006669Y026023D01*
X006096Y025645D02*
X006208Y025225D01*
X005901Y024694D01*
X005482Y024582D01*
X004419Y025195D01*
X004306Y025615D01*
X004613Y026146D01*
X005033Y026259D01*
X005871Y026483D02*
X006178Y027015D01*
X004112Y024664D02*
X003693Y024551D01*
X003386Y024020D01*
X003498Y023601D01*
X004561Y022987D01*
X004981Y023099D01*
X005287Y023631D01*
X005175Y024050D01*
X003723Y022762D02*
X003109Y021699D01*
X002843Y021852D02*
X002618Y022691D01*
X003457Y022915D01*
X004520Y022302D01*
X003906Y021238D02*
X002843Y021852D01*
X002802Y021167D02*
X002188Y020104D01*
X002985Y019644D02*
X001391Y020564D01*
X002004Y021628D02*
X003599Y020707D01*
D13*
X004289Y020987D02*
X004346Y020778D01*
X004877Y020471D01*
X004653Y021309D01*
X005184Y021002D01*
X005240Y020793D01*
X005087Y020527D01*
X004877Y020471D01*
X004724Y020205D02*
X004857Y020128D01*
X004780Y019995D01*
X004647Y020072D01*
X004724Y020205D01*
X004627Y019729D02*
X004320Y019198D01*
X004473Y019464D02*
X003676Y019924D01*
X003788Y019505D01*
X003634Y019239D02*
X004013Y018666D01*
X003328Y018707D01*
X004289Y020987D02*
X004443Y021253D01*
X004653Y021309D01*
X005183Y017483D02*
X005185Y017538D01*
X005191Y017592D01*
X005201Y017646D01*
X005215Y017698D01*
X005232Y017750D01*
X005254Y017800D01*
X005279Y017849D01*
X005307Y017896D01*
X005339Y017940D01*
X005374Y017982D01*
X005412Y018021D01*
X005453Y018058D01*
X005496Y018091D01*
X005541Y018121D01*
X005589Y018148D01*
X005638Y018171D01*
X005689Y018191D01*
X005742Y018207D01*
X005795Y018219D01*
X005849Y018227D01*
X005904Y018231D01*
X005958Y018231D01*
X006013Y018227D01*
X006067Y018219D01*
X006120Y018207D01*
X006173Y018191D01*
X006224Y018171D01*
X006273Y018148D01*
X006321Y018121D01*
X006366Y018091D01*
X006409Y018058D01*
X006450Y018021D01*
X006488Y017982D01*
X006523Y017940D01*
X006555Y017896D01*
X006583Y017849D01*
X006608Y017800D01*
X006630Y017750D01*
X006647Y017698D01*
X006661Y017646D01*
X006671Y017592D01*
X006677Y017538D01*
X006679Y017483D01*
X006677Y017428D01*
X006671Y017374D01*
X006661Y017320D01*
X006647Y017268D01*
X006630Y017216D01*
X006608Y017166D01*
X006583Y017117D01*
X006555Y017070D01*
X006523Y017026D01*
X006488Y016984D01*
X006450Y016945D01*
X006409Y016908D01*
X006366Y016875D01*
X006321Y016845D01*
X006273Y016818D01*
X006224Y016795D01*
X006173Y016775D01*
X006120Y016759D01*
X006067Y016747D01*
X006013Y016739D01*
X005958Y016735D01*
X005904Y016735D01*
X005849Y016739D01*
X005795Y016747D01*
X005742Y016759D01*
X005689Y016775D01*
X005638Y016795D01*
X005589Y016818D01*
X005541Y016845D01*
X005496Y016875D01*
X005453Y016908D01*
X005412Y016945D01*
X005374Y016984D01*
X005339Y017026D01*
X005307Y017070D01*
X005279Y017117D01*
X005254Y017166D01*
X005232Y017216D01*
X005215Y017268D01*
X005201Y017320D01*
X005191Y017374D01*
X005185Y017428D01*
X005183Y017483D01*
X004068Y004254D02*
X007793Y004254D01*
X007793Y002365D01*
X004068Y002365D01*
X004068Y004254D01*
X004029Y003940D02*
X003872Y003940D01*
X003872Y003782D01*
X004029Y003782D01*
X004029Y003585D02*
X003872Y003585D01*
X003872Y003034D01*
X004029Y003034D01*
X004029Y002837D02*
X003872Y002837D01*
X003872Y002680D01*
X004029Y002680D01*
X004383Y002522D02*
X004383Y004097D01*
X007478Y004097D01*
X007478Y002522D01*
X004383Y002522D01*
X007832Y002680D02*
X007990Y002680D01*
X007990Y002837D01*
X007832Y002837D01*
X007832Y003034D02*
X007990Y003034D01*
X007990Y003585D01*
X007832Y003585D01*
X007832Y003782D02*
X007990Y003782D01*
X007990Y003940D01*
X007832Y003940D01*
X028923Y017483D02*
X028925Y017538D01*
X028931Y017592D01*
X028941Y017646D01*
X028955Y017698D01*
X028972Y017750D01*
X028994Y017800D01*
X029019Y017849D01*
X029047Y017896D01*
X029079Y017940D01*
X029114Y017982D01*
X029152Y018021D01*
X029193Y018058D01*
X029236Y018091D01*
X029281Y018121D01*
X029329Y018148D01*
X029378Y018171D01*
X029429Y018191D01*
X029482Y018207D01*
X029535Y018219D01*
X029589Y018227D01*
X029644Y018231D01*
X029698Y018231D01*
X029753Y018227D01*
X029807Y018219D01*
X029860Y018207D01*
X029913Y018191D01*
X029964Y018171D01*
X030013Y018148D01*
X030061Y018121D01*
X030106Y018091D01*
X030149Y018058D01*
X030190Y018021D01*
X030228Y017982D01*
X030263Y017940D01*
X030295Y017896D01*
X030323Y017849D01*
X030348Y017800D01*
X030370Y017750D01*
X030387Y017698D01*
X030401Y017646D01*
X030411Y017592D01*
X030417Y017538D01*
X030419Y017483D01*
X030417Y017428D01*
X030411Y017374D01*
X030401Y017320D01*
X030387Y017268D01*
X030370Y017216D01*
X030348Y017166D01*
X030323Y017117D01*
X030295Y017070D01*
X030263Y017026D01*
X030228Y016984D01*
X030190Y016945D01*
X030149Y016908D01*
X030106Y016875D01*
X030061Y016845D01*
X030013Y016818D01*
X029964Y016795D01*
X029913Y016775D01*
X029860Y016759D01*
X029807Y016747D01*
X029753Y016739D01*
X029698Y016735D01*
X029644Y016735D01*
X029589Y016739D01*
X029535Y016747D01*
X029482Y016759D01*
X029429Y016775D01*
X029378Y016795D01*
X029329Y016818D01*
X029281Y016845D01*
X029236Y016875D01*
X029193Y016908D01*
X029152Y016945D01*
X029114Y016984D01*
X029079Y017026D01*
X029047Y017070D01*
X029019Y017117D01*
X028994Y017166D01*
X028972Y017216D01*
X028955Y017268D01*
X028941Y017320D01*
X028931Y017374D01*
X028925Y017428D01*
X028923Y017483D01*
D14*
X032276Y030220D02*
X032629Y032253D01*
X030508Y031811D01*
X031436Y031944D02*
X032408Y030972D01*
X032276Y030221D02*
X032363Y030216D01*
X032451Y030214D01*
X032538Y030216D01*
X032626Y030223D01*
X032713Y030233D01*
X032800Y030247D01*
X032885Y030265D01*
X032970Y030286D01*
X033054Y030312D01*
X033137Y030341D01*
X033218Y030373D01*
X033298Y030410D01*
X033376Y030450D01*
X033452Y030493D01*
X033526Y030540D01*
X033599Y030589D01*
X033668Y030643D01*
X033736Y030699D01*
X033800Y030758D01*
X033863Y030820D01*
X033922Y030884D01*
X033978Y030951D01*
X034031Y031021D01*
X034082Y031093D01*
X034129Y031167D01*
X034172Y031243D01*
X034212Y031321D01*
X034249Y031401D01*
X034282Y031482D01*
X034311Y031564D01*
X034337Y031648D01*
X034359Y031733D01*
X034377Y031819D01*
X034391Y031905D01*
X034402Y031992D01*
X034408Y032080D01*
X034411Y032167D01*
X034410Y032255D01*
X034405Y032342D01*
X034395Y032430D01*
X034383Y032516D01*
X034366Y032602D01*
X034345Y032688D01*
X034321Y032772D01*
X034293Y032855D01*
X034261Y032937D01*
X034226Y033017D01*
X034187Y033095D01*
X034145Y033172D01*
X034099Y033247D01*
X034050Y033320D01*
X033998Y033390D01*
X033942Y033458D01*
X033884Y033524D01*
X033823Y033586D01*
X033759Y033647D01*
X033693Y033704D01*
X033624Y033758D01*
X033553Y033809D01*
X033479Y033857D01*
X033404Y033901D01*
X033326Y033942D01*
X033247Y033980D01*
X033166Y034014D01*
X033084Y034044D01*
X033000Y034071D01*
X032916Y034094D01*
X032830Y034113D01*
X032744Y034129D01*
X032657Y034140D01*
X032570Y034148D01*
X032482Y034152D01*
X032395Y034151D01*
X032307Y034147D01*
X032220Y034139D01*
X032133Y034128D01*
X032047Y034112D01*
X031961Y034092D01*
X031877Y034069D01*
X031793Y034042D01*
X031711Y034011D01*
X031630Y033977D01*
X031551Y033939D01*
X031474Y033898D01*
X031399Y033853D01*
X031326Y033805D01*
X031254Y033754D01*
X031186Y033699D01*
X031119Y033642D01*
X031056Y033581D01*
X030995Y033518D01*
X030937Y033453D01*
X030882Y033384D01*
X030830Y033314D01*
X030781Y033241D01*
X030736Y033166D01*
X030694Y033089D01*
X030655Y033010D01*
X030620Y032930D01*
X030589Y032848D01*
X030561Y032765D01*
X030537Y032681D01*
X030517Y032595D01*
X030500Y032509D01*
X030488Y032423D01*
X030479Y032335D01*
X030474Y032248D01*
X030473Y032160D01*
X030476Y032073D01*
X030483Y031985D01*
X030494Y031898D01*
X030508Y031812D01*
D15*
X032709Y029763D02*
X033360Y029763D01*
X033143Y029546D01*
X033360Y029329D01*
X032709Y029329D01*
X032818Y029063D02*
X032709Y028954D01*
X032709Y028629D01*
X033034Y028629D01*
X033143Y028738D01*
X033143Y028954D01*
X032926Y028954D02*
X032926Y028629D01*
X032926Y028954D02*
X032818Y029063D01*
X032709Y028363D02*
X033143Y028363D01*
X033143Y028038D01*
X033034Y027929D01*
X032709Y027929D01*
X032818Y027663D02*
X032709Y027555D01*
X032709Y027229D01*
X032709Y026963D02*
X033360Y026963D01*
X033143Y026855D02*
X033143Y026638D01*
X033034Y026530D01*
X032709Y026530D01*
X032818Y026264D02*
X032709Y026155D01*
X032709Y025938D01*
X032926Y025830D02*
X032926Y026264D01*
X033034Y026264D02*
X033143Y026155D01*
X033143Y025938D01*
X033034Y025830D01*
X032926Y025830D01*
X033034Y025564D02*
X033143Y025455D01*
X033143Y025130D01*
X032926Y025239D02*
X032818Y025130D01*
X032709Y025239D01*
X032709Y025564D01*
X032926Y025455D02*
X033034Y025564D01*
X032926Y025455D02*
X032926Y025239D01*
X033143Y024864D02*
X033143Y024647D01*
X033251Y024756D02*
X032818Y024756D01*
X032709Y024647D01*
X032818Y024397D02*
X032709Y024289D01*
X032709Y024072D01*
X032926Y023964D02*
X032926Y024397D01*
X033034Y024397D02*
X033143Y024289D01*
X033143Y024072D01*
X033034Y023964D01*
X032926Y023964D01*
X032926Y023698D02*
X033143Y023481D01*
X033143Y023372D01*
X033143Y023698D02*
X032709Y023698D01*
X032818Y024397D02*
X033034Y024397D01*
X033849Y024314D02*
X033849Y024639D01*
X033958Y024747D01*
X034174Y024747D01*
X034283Y024639D01*
X034283Y024314D01*
X034174Y024048D02*
X034283Y023939D01*
X034283Y023722D01*
X034174Y023614D01*
X034066Y023614D01*
X034066Y024048D01*
X033958Y024048D02*
X034174Y024048D01*
X033958Y024048D02*
X033849Y023939D01*
X033849Y023722D01*
X033849Y025013D02*
X033849Y025339D01*
X033958Y025447D01*
X034066Y025339D01*
X034066Y025013D01*
X034174Y025013D02*
X033849Y025013D01*
X034174Y025013D02*
X034283Y025122D01*
X034283Y025339D01*
X034174Y025713D02*
X033958Y025713D01*
X033849Y025822D01*
X033849Y026147D01*
X033632Y026147D02*
X034283Y026147D01*
X034283Y025822D01*
X034174Y025713D01*
X034283Y026413D02*
X034283Y026738D01*
X034174Y026847D01*
X034066Y026738D01*
X034066Y026521D01*
X033958Y026413D01*
X033849Y026521D01*
X033849Y026847D01*
X033849Y027105D02*
X034066Y027430D01*
X034283Y027105D01*
X034500Y027430D02*
X033849Y027430D01*
X033849Y027696D02*
X033849Y028021D01*
X033958Y028130D01*
X034174Y028130D01*
X034283Y028021D01*
X034283Y027696D01*
X034174Y028396D02*
X033849Y028396D01*
X033849Y028721D01*
X033958Y028830D01*
X034066Y028721D01*
X034066Y028396D01*
X034174Y028396D02*
X034283Y028504D01*
X034283Y028721D01*
X034174Y029096D02*
X034174Y029529D01*
X033849Y029529D02*
X034500Y029529D01*
X034500Y029096D02*
X033849Y029096D01*
X033034Y027663D02*
X032818Y027663D01*
X033034Y027663D02*
X033143Y027555D01*
X033143Y027229D01*
X033034Y026963D02*
X033143Y026855D01*
X033034Y026264D02*
X032818Y026264D01*
D16*
X025675Y032534D02*
X020163Y032534D01*
X020163Y030566D01*
X015438Y030566D01*
X015438Y032534D01*
X020163Y032534D01*
X015438Y032534D02*
X009927Y032534D01*
X009927Y018754D01*
X025675Y018754D01*
X025675Y032534D01*
X025281Y018164D02*
X026068Y018164D01*
X026068Y017377D01*
X025281Y018164D01*
X010320Y018164D01*
X009533Y017377D01*
X009533Y002416D01*
X010320Y001629D01*
X025281Y001629D01*
X026068Y002416D01*
X026068Y017377D01*
X029612Y013021D02*
X031186Y013021D01*
X031580Y012627D01*
X031580Y012233D01*
X031580Y011446D02*
X031580Y011052D01*
X031186Y010658D01*
X029612Y010658D01*
X029218Y011052D01*
X029218Y011446D01*
X029218Y012233D02*
X029218Y012627D01*
X029612Y013021D01*
X029493Y011840D02*
X029495Y011900D01*
X029501Y011959D01*
X029511Y012019D01*
X029525Y012077D01*
X029542Y012134D01*
X029563Y012190D01*
X029588Y012245D01*
X029617Y012297D01*
X029649Y012348D01*
X029684Y012396D01*
X029722Y012443D01*
X029764Y012486D01*
X029808Y012526D01*
X029854Y012564D01*
X029903Y012598D01*
X029955Y012630D01*
X030008Y012657D01*
X030063Y012681D01*
X030119Y012702D01*
X030177Y012718D01*
X030235Y012731D01*
X030294Y012740D01*
X030354Y012745D01*
X030414Y012746D01*
X030474Y012743D01*
X030533Y012736D01*
X030592Y012725D01*
X030650Y012710D01*
X030707Y012692D01*
X030763Y012670D01*
X030817Y012644D01*
X030869Y012614D01*
X030919Y012582D01*
X030967Y012546D01*
X031013Y012507D01*
X031055Y012465D01*
X031095Y012420D01*
X031132Y012373D01*
X031166Y012323D01*
X031196Y012271D01*
X031223Y012218D01*
X031246Y012162D01*
X031265Y012106D01*
X031281Y012048D01*
X031293Y011989D01*
X031301Y011930D01*
X031305Y011870D01*
X031305Y011810D01*
X031301Y011750D01*
X031293Y011691D01*
X031281Y011632D01*
X031265Y011574D01*
X031246Y011518D01*
X031223Y011462D01*
X031196Y011409D01*
X031166Y011357D01*
X031132Y011307D01*
X031095Y011260D01*
X031055Y011215D01*
X031013Y011173D01*
X030967Y011134D01*
X030919Y011098D01*
X030869Y011066D01*
X030817Y011036D01*
X030763Y011010D01*
X030707Y010988D01*
X030650Y010970D01*
X030592Y010955D01*
X030533Y010944D01*
X030474Y010937D01*
X030414Y010934D01*
X030354Y010935D01*
X030294Y010940D01*
X030235Y010949D01*
X030177Y010962D01*
X030119Y010978D01*
X030063Y010999D01*
X030008Y011023D01*
X029955Y011050D01*
X029903Y011082D01*
X029854Y011116D01*
X029808Y011154D01*
X029764Y011194D01*
X029722Y011237D01*
X029684Y011284D01*
X029649Y011332D01*
X029617Y011383D01*
X029588Y011435D01*
X029563Y011490D01*
X029542Y011546D01*
X029525Y011603D01*
X029511Y011661D01*
X029501Y011721D01*
X029495Y011780D01*
X029493Y011840D01*
X029612Y007378D02*
X031186Y007378D01*
X031580Y006984D01*
X031580Y006590D01*
X031580Y005803D02*
X031580Y005409D01*
X031186Y005016D01*
X029612Y005016D01*
X029218Y005409D01*
X029218Y005803D01*
X029218Y006590D02*
X029218Y006984D01*
X029612Y007378D01*
X029493Y006197D02*
X029495Y006257D01*
X029501Y006316D01*
X029511Y006376D01*
X029525Y006434D01*
X029542Y006491D01*
X029563Y006547D01*
X029588Y006602D01*
X029617Y006654D01*
X029649Y006705D01*
X029684Y006753D01*
X029722Y006800D01*
X029764Y006843D01*
X029808Y006883D01*
X029854Y006921D01*
X029903Y006955D01*
X029955Y006987D01*
X030008Y007014D01*
X030063Y007038D01*
X030119Y007059D01*
X030177Y007075D01*
X030235Y007088D01*
X030294Y007097D01*
X030354Y007102D01*
X030414Y007103D01*
X030474Y007100D01*
X030533Y007093D01*
X030592Y007082D01*
X030650Y007067D01*
X030707Y007049D01*
X030763Y007027D01*
X030817Y007001D01*
X030869Y006971D01*
X030919Y006939D01*
X030967Y006903D01*
X031013Y006864D01*
X031055Y006822D01*
X031095Y006777D01*
X031132Y006730D01*
X031166Y006680D01*
X031196Y006628D01*
X031223Y006575D01*
X031246Y006519D01*
X031265Y006463D01*
X031281Y006405D01*
X031293Y006346D01*
X031301Y006287D01*
X031305Y006227D01*
X031305Y006167D01*
X031301Y006107D01*
X031293Y006048D01*
X031281Y005989D01*
X031265Y005931D01*
X031246Y005875D01*
X031223Y005819D01*
X031196Y005766D01*
X031166Y005714D01*
X031132Y005664D01*
X031095Y005617D01*
X031055Y005572D01*
X031013Y005530D01*
X030967Y005491D01*
X030919Y005455D01*
X030869Y005423D01*
X030817Y005393D01*
X030763Y005367D01*
X030707Y005345D01*
X030650Y005327D01*
X030592Y005312D01*
X030533Y005301D01*
X030474Y005294D01*
X030414Y005291D01*
X030354Y005292D01*
X030294Y005297D01*
X030235Y005306D01*
X030177Y005319D01*
X030119Y005335D01*
X030063Y005356D01*
X030008Y005380D01*
X029955Y005407D01*
X029903Y005439D01*
X029854Y005473D01*
X029808Y005511D01*
X029764Y005551D01*
X029722Y005594D01*
X029684Y005641D01*
X029649Y005689D01*
X029617Y005740D01*
X029588Y005792D01*
X029563Y005847D01*
X029542Y005903D01*
X029525Y005960D01*
X029511Y006018D01*
X029501Y006078D01*
X029495Y006137D01*
X029493Y006197D01*
X007306Y003185D02*
X007306Y002685D01*
X007056Y002685D01*
X007056Y003185D01*
X007306Y003185D01*
X006806Y003435D02*
X006806Y003935D01*
X006556Y003935D01*
X006556Y003435D01*
X006806Y003435D01*
X006306Y003185D02*
X006306Y002685D01*
X006056Y002685D01*
X006056Y003185D01*
X006306Y003185D01*
X005806Y003435D02*
X005806Y003935D01*
X005556Y003935D01*
X005556Y003435D01*
X005806Y003435D01*
X005306Y003185D02*
X005306Y002685D01*
X005056Y002685D01*
X005056Y003185D01*
X005306Y003185D01*
X004806Y003435D02*
X004806Y003935D01*
X004556Y003935D01*
X004556Y003435D01*
X004806Y003435D01*
D17*
X011108Y019542D02*
X024494Y019542D01*
X024533Y019544D01*
X024571Y019550D01*
X024608Y019559D01*
X024645Y019572D01*
X024680Y019589D01*
X024713Y019608D01*
X024744Y019631D01*
X024773Y019657D01*
X024799Y019686D01*
X024822Y019717D01*
X024841Y019750D01*
X024858Y019785D01*
X024871Y019822D01*
X024880Y019859D01*
X024886Y019897D01*
X024888Y019936D01*
X024887Y019936D02*
X024887Y029384D01*
X024888Y029384D02*
X024886Y029423D01*
X024880Y029461D01*
X024871Y029498D01*
X024858Y029535D01*
X024841Y029570D01*
X024822Y029603D01*
X024799Y029634D01*
X024773Y029663D01*
X024744Y029689D01*
X024713Y029712D01*
X024680Y029731D01*
X024645Y029748D01*
X024608Y029761D01*
X024571Y029770D01*
X024533Y029776D01*
X024494Y029778D01*
X011108Y029778D01*
X011069Y029776D01*
X011031Y029770D01*
X010994Y029761D01*
X010957Y029748D01*
X010922Y029731D01*
X010889Y029712D01*
X010858Y029689D01*
X010829Y029663D01*
X010803Y029634D01*
X010780Y029603D01*
X010761Y029570D01*
X010744Y029535D01*
X010731Y029498D01*
X010722Y029461D01*
X010716Y029423D01*
X010714Y029384D01*
X010714Y019936D01*
X010716Y019897D01*
X010722Y019859D01*
X010731Y019822D01*
X010744Y019785D01*
X010761Y019750D01*
X010780Y019717D01*
X010803Y019686D01*
X010829Y019657D01*
X010858Y019631D01*
X010889Y019608D01*
X010922Y019589D01*
X010957Y019572D01*
X010994Y019559D01*
X011031Y019550D01*
X011069Y019544D01*
X011108Y019542D01*
X009966Y023125D02*
X009966Y024621D01*
X009966Y030999D02*
X009966Y032495D01*
X025635Y032495D02*
X025635Y030999D01*
X025635Y024660D02*
X025635Y023164D01*
D18*
X024761Y022914D02*
X024761Y022761D01*
X024684Y022684D01*
X024761Y022530D02*
X024761Y022224D01*
X024301Y022224D01*
X024377Y022070D02*
X024301Y021993D01*
X024301Y021763D01*
X024761Y021763D01*
X024761Y021993D01*
X024684Y022070D01*
X024607Y022070D01*
X024531Y021993D01*
X024531Y021763D01*
X024531Y021993D02*
X024454Y022070D01*
X024377Y022070D01*
X024377Y022684D02*
X024301Y022761D01*
X024301Y022914D01*
X024377Y022991D01*
X024454Y022991D01*
X024531Y022914D01*
X024607Y022991D01*
X024684Y022991D01*
X024761Y022914D01*
X024531Y022914D02*
X024531Y022837D01*
X024531Y026819D02*
X024531Y027049D01*
X024607Y027126D01*
X024684Y027126D01*
X024761Y027049D01*
X024761Y026819D01*
X024301Y026819D01*
X024301Y027049D01*
X024377Y027126D01*
X024454Y027126D01*
X024531Y027049D01*
X024301Y027279D02*
X024761Y027279D01*
X024761Y027586D01*
X024531Y027740D02*
X024531Y028046D01*
X024761Y027970D02*
X024301Y027970D01*
X024531Y027740D01*
X011892Y032636D02*
X011585Y032636D01*
X011739Y032636D02*
X011739Y033097D01*
X011585Y032943D01*
X011432Y033020D02*
X011355Y033097D01*
X011125Y033097D01*
X011125Y032636D01*
X011355Y032636D01*
X011432Y032713D01*
X011432Y033020D01*
X010971Y033020D02*
X010895Y033097D01*
X010741Y033097D01*
X010664Y033020D01*
X010664Y032713D01*
X010741Y032636D01*
X010895Y032636D01*
X010971Y032713D01*
X010511Y032636D02*
X010204Y032636D01*
X010204Y033097D01*
X011300Y028046D02*
X011300Y027740D01*
X011300Y027893D02*
X010840Y027893D01*
X010993Y027740D01*
X011300Y027586D02*
X011300Y027279D01*
X010840Y027279D01*
X010917Y027126D02*
X010993Y027126D01*
X011070Y027049D01*
X011070Y026819D01*
X011070Y027049D02*
X011147Y027126D01*
X011224Y027126D01*
X011300Y027049D01*
X011300Y026819D01*
X010840Y026819D01*
X010840Y027049D01*
X010917Y027126D01*
X010917Y022866D02*
X010840Y022789D01*
X010840Y022636D01*
X010917Y022559D01*
X010917Y022866D02*
X010993Y022866D01*
X011300Y022559D01*
X011300Y022866D01*
X011300Y022405D02*
X011300Y022099D01*
X010840Y022099D01*
X010917Y021945D02*
X010993Y021945D01*
X011070Y021868D01*
X011070Y021638D01*
X010840Y021638D02*
X010840Y021868D01*
X010917Y021945D01*
X011070Y021868D02*
X011147Y021945D01*
X011224Y021945D01*
X011300Y021868D01*
X011300Y021638D01*
X010840Y021638D01*
X007667Y010534D02*
X007514Y010534D01*
X007437Y010457D01*
X007667Y010534D02*
X007744Y010457D01*
X007744Y010381D01*
X007437Y010074D01*
X007744Y010074D01*
X007284Y010074D02*
X006977Y010074D01*
X007130Y010074D02*
X007130Y010534D01*
X006977Y010381D01*
X006823Y010457D02*
X006823Y010304D01*
X006747Y010227D01*
X006517Y010227D01*
X006670Y010227D02*
X006823Y010074D01*
X006517Y010074D02*
X006517Y010534D01*
X006747Y010534D01*
X006823Y010457D01*
X006747Y009722D02*
X006517Y009722D01*
X006517Y009261D01*
X006517Y009415D02*
X006747Y009415D01*
X006823Y009491D01*
X006823Y009645D01*
X006747Y009722D01*
X006670Y009415D02*
X006823Y009261D01*
X006977Y009491D02*
X007284Y009491D01*
X007207Y009261D02*
X007207Y009722D01*
X006977Y009491D01*
X006977Y008972D02*
X006977Y008741D01*
X007130Y008818D01*
X007207Y008818D01*
X007284Y008741D01*
X007284Y008588D01*
X007207Y008511D01*
X007054Y008511D01*
X006977Y008588D01*
X006823Y008511D02*
X006670Y008665D01*
X006747Y008665D02*
X006517Y008665D01*
X006517Y008511D02*
X006517Y008972D01*
X006747Y008972D01*
X006823Y008895D01*
X006823Y008741D01*
X006747Y008665D01*
X006977Y008972D02*
X007284Y008972D01*
X007130Y008159D02*
X007130Y007699D01*
X006977Y007699D02*
X007284Y007699D01*
X007207Y007347D02*
X007054Y007347D01*
X006977Y007270D01*
X006823Y007270D02*
X006823Y007116D01*
X006747Y007040D01*
X006517Y007040D01*
X006670Y007040D02*
X006823Y006886D01*
X006977Y006886D02*
X007284Y007193D01*
X007284Y007270D01*
X007207Y007347D01*
X006823Y007270D02*
X006747Y007347D01*
X006517Y007347D01*
X006517Y006886D01*
X006517Y006597D02*
X006747Y006597D01*
X006823Y006520D01*
X006823Y006366D01*
X006747Y006290D01*
X006517Y006290D01*
X006670Y006290D02*
X006823Y006136D01*
X006977Y006213D02*
X007054Y006136D01*
X007207Y006136D01*
X007284Y006213D01*
X007284Y006290D01*
X007207Y006366D01*
X006977Y006366D01*
X006977Y006213D01*
X006977Y006366D02*
X007130Y006520D01*
X007284Y006597D01*
X007284Y006886D02*
X006977Y006886D01*
X006517Y006597D02*
X006517Y006136D01*
X006517Y007699D02*
X006517Y008159D01*
X006747Y008159D01*
X006823Y008082D01*
X006823Y007929D01*
X006747Y007852D01*
X006517Y007852D01*
X006670Y007852D02*
X006823Y007699D01*
X006977Y008006D02*
X007130Y008159D01*
X003859Y007857D02*
X003859Y007703D01*
X003782Y007627D01*
X003782Y007473D02*
X003398Y007473D01*
X003475Y007627D02*
X003552Y007627D01*
X003629Y007703D01*
X003629Y007857D01*
X003705Y007934D01*
X003782Y007934D01*
X003859Y007857D01*
X003475Y007934D02*
X003398Y007857D01*
X003398Y007703D01*
X003475Y007627D01*
X003782Y007473D02*
X003859Y007396D01*
X003859Y007243D01*
X003782Y007166D01*
X003398Y007166D01*
X003398Y007013D02*
X003398Y006706D01*
X003398Y006859D02*
X003859Y006859D01*
X003859Y006552D02*
X003552Y006552D01*
X003398Y006399D01*
X003552Y006245D01*
X003859Y006245D01*
X003629Y006245D02*
X003629Y006552D01*
X003398Y006092D02*
X003398Y005785D01*
X003398Y005938D02*
X003859Y005938D01*
X003782Y005632D02*
X003859Y005555D01*
X003859Y005401D01*
X003782Y005325D01*
X003629Y005401D02*
X003629Y005555D01*
X003705Y005632D01*
X003782Y005632D01*
X003629Y005401D02*
X003552Y005325D01*
X003475Y005325D01*
X003398Y005401D01*
X003398Y005555D01*
X003475Y005632D01*
X003894Y004790D02*
X003740Y004637D01*
X003894Y004790D02*
X003894Y004330D01*
X004047Y004330D02*
X003740Y004330D01*
X004108Y003310D02*
X004226Y003310D01*
X004344Y003191D01*
X004265Y003231D02*
X004226Y003191D01*
X004108Y003191D01*
X004226Y003191D02*
X004226Y002798D01*
X004108Y002798D01*
X004226Y002798D02*
X004265Y002758D01*
X004226Y002680D02*
X004344Y002680D01*
X004226Y002680D02*
X004344Y002798D01*
X004226Y002680D02*
X004108Y002680D01*
X004226Y003310D02*
X004344Y003310D01*
X008135Y003232D02*
X008135Y003002D01*
X008596Y003002D01*
X008442Y003002D02*
X008442Y003232D01*
X008365Y003309D01*
X008212Y003309D01*
X008135Y003232D01*
X008212Y003462D02*
X008519Y003462D01*
X008596Y003539D01*
X008596Y003692D01*
X008519Y003769D01*
X008212Y003769D01*
X008135Y003692D01*
X008135Y003539D01*
X008212Y003462D01*
X008442Y003155D02*
X008596Y003309D01*
X008365Y002848D02*
X008442Y002771D01*
X008442Y002541D01*
X008596Y002541D02*
X008135Y002541D01*
X008135Y002771D01*
X008212Y002848D01*
X008365Y002848D01*
X008212Y003922D02*
X008519Y003922D01*
X008596Y003999D01*
X008596Y004153D01*
X008519Y004229D01*
X008365Y004229D01*
X008365Y004076D01*
X008212Y004229D02*
X008135Y004153D01*
X008135Y003999D01*
X008212Y003922D01*
D19*
X010320Y022355D03*
X010320Y027473D03*
X025281Y027473D03*
X025281Y022355D03*
D20*
X028321Y017483D02*
X028323Y017556D01*
X028329Y017629D01*
X028339Y017701D01*
X028353Y017773D01*
X028370Y017844D01*
X028392Y017914D01*
X028417Y017983D01*
X028446Y018050D01*
X028478Y018115D01*
X028514Y018179D01*
X028554Y018241D01*
X028596Y018300D01*
X028642Y018357D01*
X028691Y018411D01*
X028743Y018463D01*
X028797Y018512D01*
X028854Y018558D01*
X028913Y018600D01*
X028975Y018640D01*
X029039Y018676D01*
X029104Y018708D01*
X029171Y018737D01*
X029240Y018762D01*
X029310Y018784D01*
X029381Y018801D01*
X029453Y018815D01*
X029525Y018825D01*
X029598Y018831D01*
X029671Y018833D01*
X029744Y018831D01*
X029817Y018825D01*
X029889Y018815D01*
X029961Y018801D01*
X030032Y018784D01*
X030102Y018762D01*
X030171Y018737D01*
X030238Y018708D01*
X030303Y018676D01*
X030367Y018640D01*
X030429Y018600D01*
X030488Y018558D01*
X030545Y018512D01*
X030599Y018463D01*
X030651Y018411D01*
X030700Y018357D01*
X030746Y018300D01*
X030788Y018241D01*
X030828Y018179D01*
X030864Y018115D01*
X030896Y018050D01*
X030925Y017983D01*
X030950Y017914D01*
X030972Y017844D01*
X030989Y017773D01*
X031003Y017701D01*
X031013Y017629D01*
X031019Y017556D01*
X031021Y017483D01*
X031019Y017410D01*
X031013Y017337D01*
X031003Y017265D01*
X030989Y017193D01*
X030972Y017122D01*
X030950Y017052D01*
X030925Y016983D01*
X030896Y016916D01*
X030864Y016851D01*
X030828Y016787D01*
X030788Y016725D01*
X030746Y016666D01*
X030700Y016609D01*
X030651Y016555D01*
X030599Y016503D01*
X030545Y016454D01*
X030488Y016408D01*
X030429Y016366D01*
X030367Y016326D01*
X030303Y016290D01*
X030238Y016258D01*
X030171Y016229D01*
X030102Y016204D01*
X030032Y016182D01*
X029961Y016165D01*
X029889Y016151D01*
X029817Y016141D01*
X029744Y016135D01*
X029671Y016133D01*
X029598Y016135D01*
X029525Y016141D01*
X029453Y016151D01*
X029381Y016165D01*
X029310Y016182D01*
X029240Y016204D01*
X029171Y016229D01*
X029104Y016258D01*
X029039Y016290D01*
X028975Y016326D01*
X028913Y016366D01*
X028854Y016408D01*
X028797Y016454D01*
X028743Y016503D01*
X028691Y016555D01*
X028642Y016609D01*
X028596Y016666D01*
X028554Y016725D01*
X028514Y016787D01*
X028478Y016851D01*
X028446Y016916D01*
X028417Y016983D01*
X028392Y017052D01*
X028370Y017122D01*
X028353Y017193D01*
X028339Y017265D01*
X028329Y017337D01*
X028323Y017410D01*
X028321Y017483D01*
X004581Y017483D02*
X004583Y017556D01*
X004589Y017629D01*
X004599Y017701D01*
X004613Y017773D01*
X004630Y017844D01*
X004652Y017914D01*
X004677Y017983D01*
X004706Y018050D01*
X004738Y018115D01*
X004774Y018179D01*
X004814Y018241D01*
X004856Y018300D01*
X004902Y018357D01*
X004951Y018411D01*
X005003Y018463D01*
X005057Y018512D01*
X005114Y018558D01*
X005173Y018600D01*
X005235Y018640D01*
X005299Y018676D01*
X005364Y018708D01*
X005431Y018737D01*
X005500Y018762D01*
X005570Y018784D01*
X005641Y018801D01*
X005713Y018815D01*
X005785Y018825D01*
X005858Y018831D01*
X005931Y018833D01*
X006004Y018831D01*
X006077Y018825D01*
X006149Y018815D01*
X006221Y018801D01*
X006292Y018784D01*
X006362Y018762D01*
X006431Y018737D01*
X006498Y018708D01*
X006563Y018676D01*
X006627Y018640D01*
X006689Y018600D01*
X006748Y018558D01*
X006805Y018512D01*
X006859Y018463D01*
X006911Y018411D01*
X006960Y018357D01*
X007006Y018300D01*
X007048Y018241D01*
X007088Y018179D01*
X007124Y018115D01*
X007156Y018050D01*
X007185Y017983D01*
X007210Y017914D01*
X007232Y017844D01*
X007249Y017773D01*
X007263Y017701D01*
X007273Y017629D01*
X007279Y017556D01*
X007281Y017483D01*
X007279Y017410D01*
X007273Y017337D01*
X007263Y017265D01*
X007249Y017193D01*
X007232Y017122D01*
X007210Y017052D01*
X007185Y016983D01*
X007156Y016916D01*
X007124Y016851D01*
X007088Y016787D01*
X007048Y016725D01*
X007006Y016666D01*
X006960Y016609D01*
X006911Y016555D01*
X006859Y016503D01*
X006805Y016454D01*
X006748Y016408D01*
X006689Y016366D01*
X006627Y016326D01*
X006563Y016290D01*
X006498Y016258D01*
X006431Y016229D01*
X006362Y016204D01*
X006292Y016182D01*
X006221Y016165D01*
X006149Y016151D01*
X006077Y016141D01*
X006004Y016135D01*
X005931Y016133D01*
X005858Y016135D01*
X005785Y016141D01*
X005713Y016151D01*
X005641Y016165D01*
X005570Y016182D01*
X005500Y016204D01*
X005431Y016229D01*
X005364Y016258D01*
X005299Y016290D01*
X005235Y016326D01*
X005173Y016366D01*
X005114Y016408D01*
X005057Y016454D01*
X005003Y016503D01*
X004951Y016555D01*
X004902Y016609D01*
X004856Y016666D01*
X004814Y016725D01*
X004774Y016787D01*
X004738Y016851D01*
X004706Y016916D01*
X004677Y016983D01*
X004652Y017052D01*
X004630Y017122D01*
X004613Y017193D01*
X004599Y017265D01*
X004589Y017337D01*
X004583Y017410D01*
X004581Y017483D01*
D21*
X004553Y006695D03*
X004080Y006695D03*
D22*
X004316Y006695D03*
M02*
