%
M48
M72
T01C0.0236
T02C0.0394
T03C0.0591
T04C0.1260
T05C0.1417
%
T01
X3605Y4786
X4786Y6361
X4741Y7179
X4786Y7936
X4786Y8723
X4786Y9510
X6066Y10888
X8505Y9814
X9215Y11085
X6692Y7564
X6754Y5573
X8067Y3751
X17877Y8723
X14530Y14432
X14136Y14825
X14136Y15613
X14530Y15908
X15442Y20251
X17877Y22995
X16499Y23684
X17581Y25258
X17089Y25652
X16499Y26833
X15317Y25849
X15121Y25258
X12758Y25258
X7942Y23564
X4692Y26564
X16302Y29983
X17089Y30573
X19058Y30573
X24991Y28179
X24929Y26741
X22995Y21125
X21814Y18861
X19550Y22404
X27817Y11877
X31317Y10626
X27522Y6176
X27442Y3814
X30880Y24501
X28755Y30189
X3567Y13564
X3113Y11085
X3113Y10298
X3211Y7936
T02
X13995Y4384
X14995Y4384
X15995Y4384
X16995Y4384
X17995Y4384
X18995Y4384
X19995Y4384
X20995Y4384
X21995Y4384
X22995Y4384
T03
X10790Y30172
X24176Y20132
T04
X12786Y5310
X22069Y14483
T05
X5613Y17483
X29353Y17483
M30
