G75*
%MOIN*%
%OFA0B0*%
%FSLAX24Y24*%
%IPPOS*%
%LPD*%
%AMOC8*
5,1,8,0,0,1.08239X$1,22.5*
%
%ADD10C,0.0000*%
%ADD11C,0.0120*%
%ADD12R,0.0900X0.0460*%
%ADD13C,0.0631*%
%ADD14R,0.0552X0.0670*%
%ADD15R,0.0670X0.0552*%
%ADD16R,0.0473X0.0434*%
%ADD17C,0.2340*%
%ADD18R,0.0591X0.0434*%
%ADD19R,0.0276X0.0906*%
%ADD20C,0.1300*%
%ADD21R,0.0634X0.0634*%
%ADD22C,0.0634*%
%ADD23R,0.0434X0.0473*%
%ADD24R,0.0631X0.1449*%
%ADD25R,0.0400X0.0490*%
D10*
X000554Y001735D02*
X000554Y033231D01*
X000556Y033297D01*
X000561Y033363D01*
X000571Y033429D01*
X000584Y033494D01*
X000600Y033558D01*
X000620Y033621D01*
X000644Y033683D01*
X000671Y033743D01*
X000701Y033802D01*
X000735Y033859D01*
X000772Y033914D01*
X000812Y033967D01*
X000854Y034018D01*
X000900Y034066D01*
X000948Y034112D01*
X000999Y034154D01*
X001052Y034194D01*
X001107Y034231D01*
X001164Y034265D01*
X001223Y034295D01*
X001283Y034322D01*
X001345Y034346D01*
X001408Y034366D01*
X001472Y034382D01*
X001537Y034395D01*
X001603Y034405D01*
X001669Y034410D01*
X001735Y034412D01*
X033231Y034412D01*
X033297Y034410D01*
X033363Y034405D01*
X033429Y034395D01*
X033494Y034382D01*
X033558Y034366D01*
X033621Y034346D01*
X033683Y034322D01*
X033743Y034295D01*
X033802Y034265D01*
X033859Y034231D01*
X033914Y034194D01*
X033967Y034154D01*
X034018Y034112D01*
X034066Y034066D01*
X034112Y034018D01*
X034154Y033967D01*
X034194Y033914D01*
X034231Y033859D01*
X034265Y033802D01*
X034295Y033743D01*
X034322Y033683D01*
X034346Y033621D01*
X034366Y033558D01*
X034382Y033494D01*
X034395Y033429D01*
X034405Y033363D01*
X034410Y033297D01*
X034412Y033231D01*
X034412Y001735D01*
X034410Y001669D01*
X034405Y001603D01*
X034395Y001537D01*
X034382Y001472D01*
X034366Y001408D01*
X034346Y001345D01*
X034322Y001283D01*
X034295Y001223D01*
X034265Y001164D01*
X034231Y001107D01*
X034194Y001052D01*
X034154Y000999D01*
X034112Y000948D01*
X034066Y000900D01*
X034018Y000854D01*
X033967Y000812D01*
X033914Y000772D01*
X033859Y000735D01*
X033802Y000701D01*
X033743Y000671D01*
X033683Y000644D01*
X033621Y000620D01*
X033558Y000600D01*
X033494Y000584D01*
X033429Y000571D01*
X033363Y000561D01*
X033297Y000556D01*
X033231Y000554D01*
X001735Y000554D01*
X001669Y000556D01*
X001603Y000561D01*
X001537Y000571D01*
X001472Y000584D01*
X001408Y000600D01*
X001345Y000620D01*
X001283Y000644D01*
X001223Y000671D01*
X001164Y000701D01*
X001107Y000735D01*
X001052Y000772D01*
X000999Y000812D01*
X000948Y000854D01*
X000900Y000900D01*
X000854Y000948D01*
X000812Y000999D01*
X000772Y001052D01*
X000735Y001107D01*
X000701Y001164D01*
X000671Y001223D01*
X000644Y001283D01*
X000620Y001345D01*
X000600Y001408D01*
X000584Y001472D01*
X000571Y001537D01*
X000561Y001603D01*
X000556Y001669D01*
X000554Y001735D01*
X012156Y005310D02*
X012158Y005360D01*
X012164Y005410D01*
X012174Y005459D01*
X012188Y005507D01*
X012205Y005554D01*
X012226Y005599D01*
X012251Y005643D01*
X012279Y005684D01*
X012311Y005723D01*
X012345Y005760D01*
X012382Y005794D01*
X012422Y005824D01*
X012464Y005851D01*
X012508Y005875D01*
X012554Y005896D01*
X012601Y005912D01*
X012649Y005925D01*
X012699Y005934D01*
X012748Y005939D01*
X012799Y005940D01*
X012849Y005937D01*
X012898Y005930D01*
X012947Y005919D01*
X012995Y005904D01*
X013041Y005886D01*
X013086Y005864D01*
X013129Y005838D01*
X013170Y005809D01*
X013209Y005777D01*
X013245Y005742D01*
X013277Y005704D01*
X013307Y005664D01*
X013334Y005621D01*
X013357Y005577D01*
X013376Y005531D01*
X013392Y005483D01*
X013404Y005434D01*
X013412Y005385D01*
X013416Y005335D01*
X013416Y005285D01*
X013412Y005235D01*
X013404Y005186D01*
X013392Y005137D01*
X013376Y005089D01*
X013357Y005043D01*
X013334Y004999D01*
X013307Y004956D01*
X013277Y004916D01*
X013245Y004878D01*
X013209Y004843D01*
X013170Y004811D01*
X013129Y004782D01*
X013086Y004756D01*
X013041Y004734D01*
X012995Y004716D01*
X012947Y004701D01*
X012898Y004690D01*
X012849Y004683D01*
X012799Y004680D01*
X012748Y004681D01*
X012699Y004686D01*
X012649Y004695D01*
X012601Y004708D01*
X012554Y004724D01*
X012508Y004745D01*
X012464Y004769D01*
X012422Y004796D01*
X012382Y004826D01*
X012345Y004860D01*
X012311Y004897D01*
X012279Y004936D01*
X012251Y004977D01*
X012226Y005021D01*
X012205Y005066D01*
X012188Y005113D01*
X012174Y005161D01*
X012164Y005210D01*
X012158Y005260D01*
X012156Y005310D01*
X021439Y014483D02*
X021441Y014533D01*
X021447Y014583D01*
X021457Y014632D01*
X021471Y014680D01*
X021488Y014727D01*
X021509Y014772D01*
X021534Y014816D01*
X021562Y014857D01*
X021594Y014896D01*
X021628Y014933D01*
X021665Y014967D01*
X021705Y014997D01*
X021747Y015024D01*
X021791Y015048D01*
X021837Y015069D01*
X021884Y015085D01*
X021932Y015098D01*
X021982Y015107D01*
X022031Y015112D01*
X022082Y015113D01*
X022132Y015110D01*
X022181Y015103D01*
X022230Y015092D01*
X022278Y015077D01*
X022324Y015059D01*
X022369Y015037D01*
X022412Y015011D01*
X022453Y014982D01*
X022492Y014950D01*
X022528Y014915D01*
X022560Y014877D01*
X022590Y014837D01*
X022617Y014794D01*
X022640Y014750D01*
X022659Y014704D01*
X022675Y014656D01*
X022687Y014607D01*
X022695Y014558D01*
X022699Y014508D01*
X022699Y014458D01*
X022695Y014408D01*
X022687Y014359D01*
X022675Y014310D01*
X022659Y014262D01*
X022640Y014216D01*
X022617Y014172D01*
X022590Y014129D01*
X022560Y014089D01*
X022528Y014051D01*
X022492Y014016D01*
X022453Y013984D01*
X022412Y013955D01*
X022369Y013929D01*
X022324Y013907D01*
X022278Y013889D01*
X022230Y013874D01*
X022181Y013863D01*
X022132Y013856D01*
X022082Y013853D01*
X022031Y013854D01*
X021982Y013859D01*
X021932Y013868D01*
X021884Y013881D01*
X021837Y013897D01*
X021791Y013918D01*
X021747Y013942D01*
X021705Y013969D01*
X021665Y013999D01*
X021628Y014033D01*
X021594Y014070D01*
X021562Y014109D01*
X021534Y014150D01*
X021509Y014194D01*
X021488Y014239D01*
X021471Y014286D01*
X021457Y014334D01*
X021447Y014383D01*
X021441Y014433D01*
X021439Y014483D01*
X023881Y020132D02*
X023883Y020166D01*
X023889Y020200D01*
X023899Y020233D01*
X023912Y020264D01*
X023930Y020294D01*
X023950Y020322D01*
X023974Y020347D01*
X024000Y020369D01*
X024028Y020387D01*
X024059Y020403D01*
X024091Y020415D01*
X024125Y020423D01*
X024159Y020427D01*
X024193Y020427D01*
X024227Y020423D01*
X024261Y020415D01*
X024293Y020403D01*
X024323Y020387D01*
X024352Y020369D01*
X024378Y020347D01*
X024402Y020322D01*
X024422Y020294D01*
X024440Y020264D01*
X024453Y020233D01*
X024463Y020200D01*
X024469Y020166D01*
X024471Y020132D01*
X024469Y020098D01*
X024463Y020064D01*
X024453Y020031D01*
X024440Y020000D01*
X024422Y019970D01*
X024402Y019942D01*
X024378Y019917D01*
X024352Y019895D01*
X024324Y019877D01*
X024293Y019861D01*
X024261Y019849D01*
X024227Y019841D01*
X024193Y019837D01*
X024159Y019837D01*
X024125Y019841D01*
X024091Y019849D01*
X024059Y019861D01*
X024028Y019877D01*
X024000Y019895D01*
X023974Y019917D01*
X023950Y019942D01*
X023930Y019970D01*
X023912Y020000D01*
X023899Y020031D01*
X023889Y020064D01*
X023883Y020098D01*
X023881Y020132D01*
X025258Y023093D02*
X025258Y024668D01*
X025259Y024668D02*
X025260Y024685D01*
X025265Y024702D01*
X025272Y024717D01*
X025282Y024731D01*
X025294Y024743D01*
X025308Y024753D01*
X025323Y024760D01*
X025340Y024765D01*
X025357Y024766D01*
X025374Y024765D01*
X025391Y024760D01*
X025406Y024753D01*
X025420Y024743D01*
X025432Y024731D01*
X025442Y024717D01*
X025449Y024702D01*
X025454Y024685D01*
X025455Y024668D01*
X025455Y023093D01*
X025454Y023076D01*
X025449Y023059D01*
X025442Y023044D01*
X025432Y023030D01*
X025420Y023018D01*
X025406Y023008D01*
X025391Y023001D01*
X025374Y022996D01*
X025357Y022995D01*
X025340Y022996D01*
X025323Y023001D01*
X025308Y023008D01*
X025294Y023018D01*
X025282Y023030D01*
X025272Y023044D01*
X025265Y023059D01*
X025260Y023076D01*
X025259Y023093D01*
X025258Y030967D02*
X025258Y032542D01*
X025259Y032542D02*
X025260Y032559D01*
X025265Y032576D01*
X025272Y032591D01*
X025282Y032605D01*
X025294Y032617D01*
X025308Y032627D01*
X025323Y032634D01*
X025340Y032639D01*
X025357Y032640D01*
X025374Y032639D01*
X025391Y032634D01*
X025406Y032627D01*
X025420Y032617D01*
X025432Y032605D01*
X025442Y032591D01*
X025449Y032576D01*
X025454Y032559D01*
X025455Y032542D01*
X025455Y030967D01*
X025454Y030950D01*
X025449Y030933D01*
X025442Y030918D01*
X025432Y030904D01*
X025420Y030892D01*
X025406Y030882D01*
X025391Y030875D01*
X025374Y030870D01*
X025357Y030869D01*
X025340Y030870D01*
X025323Y030875D01*
X025308Y030882D01*
X025294Y030892D01*
X025282Y030904D01*
X025272Y030918D01*
X025265Y030933D01*
X025260Y030950D01*
X025259Y030967D01*
X010495Y030172D02*
X010497Y030206D01*
X010503Y030240D01*
X010513Y030273D01*
X010526Y030304D01*
X010544Y030334D01*
X010564Y030362D01*
X010588Y030387D01*
X010614Y030409D01*
X010642Y030427D01*
X010673Y030443D01*
X010705Y030455D01*
X010739Y030463D01*
X010773Y030467D01*
X010807Y030467D01*
X010841Y030463D01*
X010875Y030455D01*
X010907Y030443D01*
X010937Y030427D01*
X010966Y030409D01*
X010992Y030387D01*
X011016Y030362D01*
X011036Y030334D01*
X011054Y030304D01*
X011067Y030273D01*
X011077Y030240D01*
X011083Y030206D01*
X011085Y030172D01*
X011083Y030138D01*
X011077Y030104D01*
X011067Y030071D01*
X011054Y030040D01*
X011036Y030010D01*
X011016Y029982D01*
X010992Y029957D01*
X010966Y029935D01*
X010938Y029917D01*
X010907Y029901D01*
X010875Y029889D01*
X010841Y029881D01*
X010807Y029877D01*
X010773Y029877D01*
X010739Y029881D01*
X010705Y029889D01*
X010673Y029901D01*
X010642Y029917D01*
X010614Y029935D01*
X010588Y029957D01*
X010564Y029982D01*
X010544Y030010D01*
X010526Y030040D01*
X010513Y030071D01*
X010503Y030104D01*
X010497Y030138D01*
X010495Y030172D01*
X009707Y030967D02*
X009707Y032542D01*
X009609Y032640D02*
X009592Y032639D01*
X009575Y032634D01*
X009560Y032627D01*
X009546Y032617D01*
X009534Y032605D01*
X009524Y032591D01*
X009517Y032576D01*
X009512Y032559D01*
X009511Y032542D01*
X009510Y032542D02*
X009510Y030967D01*
X009609Y030869D02*
X009626Y030870D01*
X009643Y030875D01*
X009658Y030882D01*
X009672Y030892D01*
X009684Y030904D01*
X009694Y030918D01*
X009701Y030933D01*
X009706Y030950D01*
X009707Y030967D01*
X009609Y030869D02*
X009592Y030870D01*
X009575Y030875D01*
X009560Y030882D01*
X009546Y030892D01*
X009534Y030904D01*
X009524Y030918D01*
X009517Y030933D01*
X009512Y030950D01*
X009511Y030967D01*
X009707Y032542D02*
X009706Y032559D01*
X009701Y032576D01*
X009694Y032591D01*
X009684Y032605D01*
X009672Y032617D01*
X009658Y032627D01*
X009643Y032634D01*
X009626Y032639D01*
X009609Y032640D01*
X009609Y024766D02*
X009592Y024765D01*
X009575Y024760D01*
X009560Y024753D01*
X009546Y024743D01*
X009534Y024731D01*
X009524Y024717D01*
X009517Y024702D01*
X009512Y024685D01*
X009511Y024668D01*
X009510Y024668D02*
X009510Y023093D01*
X009609Y022995D02*
X009626Y022996D01*
X009643Y023001D01*
X009658Y023008D01*
X009672Y023018D01*
X009684Y023030D01*
X009694Y023044D01*
X009701Y023059D01*
X009706Y023076D01*
X009707Y023093D01*
X009707Y024668D01*
X009706Y024685D01*
X009701Y024702D01*
X009694Y024717D01*
X009684Y024731D01*
X009672Y024743D01*
X009658Y024753D01*
X009643Y024760D01*
X009626Y024765D01*
X009609Y024766D01*
X009511Y023093D02*
X009512Y023076D01*
X009517Y023059D01*
X009524Y023044D01*
X009534Y023030D01*
X009546Y023018D01*
X009560Y023008D01*
X009575Y023001D01*
X009592Y022996D01*
X009609Y022995D01*
D11*
X009609Y024766D01*
X009523Y024759D01*
X009441Y024737D01*
X009363Y024700D01*
X009292Y024651D01*
X009232Y024591D01*
X009183Y024520D01*
X009146Y024442D01*
X009124Y024360D01*
X009117Y024274D01*
X009117Y023487D01*
X009124Y023401D01*
X009146Y023318D01*
X009183Y023241D01*
X009232Y023170D01*
X009292Y023110D01*
X009363Y023061D01*
X009441Y023024D01*
X009523Y023002D01*
X009609Y022995D01*
X009609Y023069D02*
X009351Y023069D01*
X009220Y023187D02*
X009609Y023187D01*
X009609Y023306D02*
X009152Y023306D01*
X009122Y023424D02*
X009609Y023424D01*
X009609Y023543D02*
X009117Y023543D01*
X009117Y023661D02*
X009609Y023661D01*
X009609Y023780D02*
X009117Y023780D01*
X009117Y023898D02*
X009609Y023898D01*
X009609Y024017D02*
X009117Y024017D01*
X009117Y024135D02*
X009609Y024135D01*
X009609Y024254D02*
X009117Y024254D01*
X009128Y024372D02*
X009609Y024372D01*
X009609Y024491D02*
X009169Y024491D01*
X009251Y024609D02*
X009609Y024609D01*
X009609Y024728D02*
X009421Y024728D01*
X009609Y030869D02*
X009609Y032640D01*
X009523Y032633D01*
X009441Y032611D01*
X009363Y032574D01*
X009292Y032525D01*
X009232Y032465D01*
X009183Y032394D01*
X009146Y032317D01*
X009124Y032234D01*
X009117Y032148D01*
X009117Y031361D01*
X009124Y031275D01*
X009146Y031192D01*
X009183Y031115D01*
X009232Y031044D01*
X009292Y030984D01*
X009363Y030935D01*
X009441Y030898D01*
X009523Y030876D01*
X009609Y030869D01*
X009609Y030890D02*
X009473Y030890D01*
X009609Y031008D02*
X009268Y031008D01*
X009177Y031127D02*
X009609Y031127D01*
X009609Y031245D02*
X009132Y031245D01*
X009117Y031364D02*
X009609Y031364D01*
X009609Y031482D02*
X009117Y031482D01*
X009117Y031601D02*
X009609Y031601D01*
X009609Y031719D02*
X009117Y031719D01*
X009117Y031838D02*
X009609Y031838D01*
X009609Y031956D02*
X009117Y031956D01*
X009117Y032075D02*
X009609Y032075D01*
X009609Y032193D02*
X009121Y032193D01*
X009145Y032312D02*
X009609Y032312D01*
X009609Y032430D02*
X009208Y032430D01*
X009326Y032549D02*
X009609Y032549D01*
X025357Y032549D02*
X025639Y032549D01*
X025673Y032525D02*
X025734Y032465D01*
X025783Y032394D01*
X025819Y032317D01*
X025841Y032234D01*
X025849Y032148D01*
X025849Y031361D01*
X025841Y031275D01*
X025819Y031192D01*
X025783Y031115D01*
X025734Y031044D01*
X025673Y030984D01*
X025603Y030935D01*
X025525Y030898D01*
X025442Y030876D01*
X025357Y030869D01*
X025357Y032640D01*
X025442Y032633D01*
X025525Y032611D01*
X025603Y032574D01*
X025673Y032525D01*
X025758Y032430D02*
X025357Y032430D01*
X025357Y032312D02*
X025821Y032312D01*
X025845Y032193D02*
X025357Y032193D01*
X025357Y032075D02*
X025849Y032075D01*
X025849Y031956D02*
X025357Y031956D01*
X025357Y031838D02*
X025849Y031838D01*
X025849Y031719D02*
X025357Y031719D01*
X025357Y031601D02*
X025849Y031601D01*
X025849Y031482D02*
X025357Y031482D01*
X025357Y031364D02*
X025849Y031364D01*
X025833Y031245D02*
X025357Y031245D01*
X025357Y031127D02*
X025789Y031127D01*
X025698Y031008D02*
X025357Y031008D01*
X025357Y030890D02*
X025493Y030890D01*
X025357Y024766D02*
X025357Y022995D01*
X025442Y023002D01*
X025525Y023024D01*
X025603Y023061D01*
X025673Y023110D01*
X025734Y023170D01*
X025783Y023241D01*
X025819Y023318D01*
X025841Y023401D01*
X025849Y023487D01*
X025849Y024274D01*
X025841Y024360D01*
X025819Y024442D01*
X025783Y024520D01*
X025734Y024591D01*
X025673Y024651D01*
X025603Y024700D01*
X025525Y024737D01*
X025442Y024759D01*
X025357Y024766D01*
X025357Y024728D02*
X025544Y024728D01*
X025715Y024609D02*
X025357Y024609D01*
X025357Y024491D02*
X025797Y024491D01*
X025838Y024372D02*
X025357Y024372D01*
X025357Y024254D02*
X025849Y024254D01*
X025849Y024135D02*
X025357Y024135D01*
X025357Y024017D02*
X025849Y024017D01*
X025849Y023898D02*
X025357Y023898D01*
X025357Y023780D02*
X025849Y023780D01*
X025849Y023661D02*
X025357Y023661D01*
X025357Y023543D02*
X025849Y023543D01*
X025844Y023424D02*
X025357Y023424D01*
X025357Y023306D02*
X025813Y023306D01*
X025746Y023187D02*
X025357Y023187D01*
X025357Y023069D02*
X025615Y023069D01*
D12*
X010298Y011085D03*
X010298Y010298D03*
X010298Y009510D03*
X010298Y008723D03*
X010298Y007936D03*
X010298Y007148D03*
X010298Y006361D03*
X010298Y005573D03*
X003999Y005573D03*
X003999Y006361D03*
X003999Y007148D03*
X003999Y007936D03*
X003999Y008723D03*
X003999Y009510D03*
X003999Y010298D03*
X003999Y011085D03*
D13*
X010790Y030172D03*
X024176Y020132D03*
D14*
X017147Y029342D03*
X016360Y029342D03*
X009609Y004688D03*
X008821Y004688D03*
D15*
X015489Y021257D03*
X015489Y022044D03*
X019146Y029186D03*
X019146Y029973D03*
D16*
X024117Y026898D03*
X024117Y026229D03*
X025627Y027097D03*
X025627Y027766D03*
X022964Y020340D03*
X022964Y019671D03*
D17*
X029353Y017483D03*
X005613Y017483D03*
D18*
X024112Y028331D03*
X024112Y029079D03*
X024978Y028705D03*
D19*
X019519Y028118D03*
X019019Y028118D03*
X018519Y028118D03*
X018019Y028118D03*
X017519Y028118D03*
X017019Y028118D03*
X016519Y028118D03*
X016019Y028118D03*
X015519Y028118D03*
X015519Y024496D03*
X016031Y024496D03*
X016543Y024496D03*
X017043Y024496D03*
X017543Y024496D03*
X018043Y024496D03*
X018543Y024496D03*
X019043Y024496D03*
X019543Y024496D03*
D20*
X022069Y014483D03*
X012786Y005310D03*
D21*
X022995Y004384D03*
D22*
X021995Y004088D02*
X021995Y004681D01*
X020995Y004681D02*
X020995Y004088D01*
X019995Y004088D02*
X019995Y004681D01*
X018995Y004681D02*
X018995Y004088D01*
X017995Y004088D02*
X017995Y004681D01*
X016995Y004681D02*
X016995Y004088D01*
X015995Y004088D02*
X015995Y004681D01*
X014995Y004681D02*
X014995Y004088D01*
X013995Y004088D02*
X013995Y004681D01*
D23*
X009699Y014378D03*
X009030Y014378D03*
X018751Y020448D03*
X019420Y020448D03*
X020532Y022491D03*
X021201Y022491D03*
D24*
X019733Y018483D03*
X018733Y018483D03*
X017733Y018483D03*
X016733Y018483D03*
X015733Y018483D03*
X016233Y016483D03*
X017233Y016483D03*
X018233Y016483D03*
X019233Y016483D03*
X015233Y016483D03*
D25*
X020679Y019604D03*
X021179Y019604D03*
X021679Y019604D03*
X022179Y019604D03*
X022179Y021754D03*
X021679Y021754D03*
X021179Y021754D03*
X020679Y021754D03*
M02*
